<svg width="588" height="527" viewBox="0 0 588 527" fill="none" xmlns="http://www.w3.org/2000/svg">
<g clip-path="url(#clip0_321_2146)">
<path d="M8 500L580 500C584.418 500 588 496.418 588 492L588 8C588 3.58173 584.418 0 580 0L8 0C3.58173 0 0 3.58173 0 8L0 492C0 496.418 3.58173 500 8 500Z" fill="url(#paint0_linear_321_2146)"/>
<path d="M122 74H462.443C463.769 74 465.041 74.5268 465.978 75.4645C466.916 76.4021 467.443 77.6739 467.443 79V99.176H117V79C117 77.6739 117.527 76.4021 118.465 75.4645C119.402 74.5268 120.674 74 122 74Z" fill="#1D2433"/>
<g filter="url(#filter0_d_321_2146)">
<path d="M120.669 98.6277H470.669V420.847C470.669 422.115 470.143 423.331 469.207 424.227C468.27 425.124 467 425.627 465.676 425.627H125.662C124.338 425.627 123.068 425.124 122.131 424.227C121.195 423.331 120.669 422.115 120.669 420.847V98.6277Z" fill="white"/>
</g>
<path d="M159.819 89.398C161.178 89.398 162.279 88.2689 162.279 86.876C162.279 85.4831 161.178 84.354 159.819 84.354C158.46 84.354 157.359 85.4831 157.359 86.876C157.359 88.2689 158.46 89.398 159.819 89.398Z" fill="#77F28A"/>
<path d="M141.839 89.398C143.198 89.398 144.299 88.2689 144.299 86.876C144.299 85.4831 143.198 84.354 141.839 84.354C140.48 84.354 139.379 85.4831 139.379 86.876C139.379 88.2689 140.48 89.398 141.839 89.398Z" fill="#EF5C00"/>
<path d="M150.646 89.398C152.005 89.398 153.106 88.2689 153.106 86.876C153.106 85.4831 152.005 84.354 150.646 84.354C149.287 84.354 148.186 85.4831 148.186 86.876C148.186 88.2689 149.287 89.398 150.646 89.398Z" fill="#EAFAFF"/>
<path d="M305.096 196.954C284.312 192.067 269.18 196.817 251.894 202.781C243.374 205.721 234.749 208.83 225.77 210.013C219.068 210.896 212.298 211.13 205.571 211.798C198.577 212.493 191.586 213.37 184.722 214.913C173.158 217.513 153.018 222.302 154.254 237.87C154.749 244.105 159.004 249.771 158.575 256.01C158.024 264.006 150.564 270.2 145.677 275.85C138.931 283.649 132.864 292.303 133.976 303.145C134.874 311.89 140.553 319.574 147.556 324.889C154.559 330.203 162.846 333.501 171.011 336.758C183.448 341.718 193.965 347.527 203.749 356.75C209.416 362.093 215.451 367.386 222.796 369.976C232.667 373.456 245.25 370.428 249.27 359.975C251.461 354.277 252.077 347.643 255.476 342.466C258.976 337.134 266.357 332.647 272.869 333.51C283.474 334.916 287.61 342.783 292.664 351.059C295.133 355.1 298.064 358.822 302.21 361.248C309.322 365.41 316.428 363.787 323.926 362.099C332.028 360.275 340.212 358.8 348.458 357.814C362.449 356.142 376.526 356.891 390.468 358.649C403.707 360.32 422.928 369.024 433.846 357.211C438.63 352.036 439.582 344.951 437.84 338.34C435.344 328.867 429.972 318.35 430.262 308.511C430.69 293.986 437.237 284.318 445.239 272.968C449.071 267.533 452.023 261.494 451.885 254.695C451.568 239.051 441.761 227.039 431.535 216.254C421.333 205.491 411.139 193.228 400.816 183.685" stroke="#ED725A" stroke-width="0.73988" stroke-miterlimit="10"/>
<path d="M453.715 212.928C453.715 215.201 451.873 217.043 449.6 217.043C447.327 217.043 445.484 215.201 445.484 212.928C445.484 210.655 447.327 208.813 449.6 208.813C451.873 208.813 453.715 210.655 453.715 212.928Z" stroke="#ED725A" stroke-width="0.73988" stroke-miterlimit="10"/>
<path d="M315.94 352.262C315.94 354.535 314.098 356.377 311.825 356.377C309.552 356.377 307.71 354.535 307.71 352.262C307.71 349.989 309.553 348.147 311.825 348.147C314.098 348.147 315.94 349.989 315.94 352.262Z" stroke="#ED725A" stroke-width="0.73988" stroke-miterlimit="10"/>
<path d="M301.567 173.076C303.276 173.076 304.66 174.461 304.66 176.169V237.324C304.66 239.033 303.275 240.418 301.567 240.418H182.873C181.164 240.418 179.78 239.032 179.78 237.324V176.169C179.78 174.461 181.165 173.076 182.873 173.076H301.567ZM301.567 172.336H182.873C180.76 172.336 179.04 174.056 179.04 176.169V237.324C179.04 239.438 180.76 241.157 182.873 241.157H301.567C303.681 241.157 305.4 239.438 305.4 237.324V176.169C305.401 174.056 303.681 172.336 301.567 172.336Z" fill="white"/>
<path d="M301.567 240.418H182.873C181.164 240.418 179.78 239.032 179.78 237.324V181.325H304.661V237.324C304.661 239.033 303.276 240.418 301.567 240.418Z" fill="#AFB9E8"/>
<path d="M187.044 177.442C187.044 178.419 186.251 179.212 185.274 179.212C184.296 179.212 183.503 178.419 183.503 177.442C183.503 176.464 184.296 175.672 185.274 175.672C186.251 175.672 187.044 176.464 187.044 177.442Z" stroke="white" stroke-width="0.73988" stroke-miterlimit="10"/>
<path d="M193.906 177.442C193.906 178.419 193.114 179.212 192.136 179.212C191.158 179.212 190.366 178.419 190.366 177.442C190.366 176.464 191.158 175.672 192.136 175.672C193.114 175.672 193.906 176.464 193.906 177.442Z" stroke="white" stroke-width="0.73988" stroke-miterlimit="10"/>
<path d="M179.78 181.325H304.661" stroke="white" stroke-width="0.73988" stroke-miterlimit="10"/>
<path d="M294.621 231.84C293.365 230.176 291.222 228.644 289.549 229.79C288.145 230.752 288.093 232.924 288.202 234.729C284.221 229.094 279.485 224.096 274.191 219.943C271.322 217.692 268.025 215.612 264.501 215.884C260.977 216.155 259.149 221.1 260.076 224.82C250.454 212.08 239.724 203.043 228.549 195.224C224.736 192.555 220.504 189.982 215.979 188.461C211.166 186.842 204.518 184.946 200.17 188.703C198.307 190.313 197.336 192.77 197.072 195.218C196.744 198.248 197.257 201.448 198.083 204.367C200.058 211.351 203.225 217.936 206.9 224.139C210.575 230.344 218.66 240.534 218.66 240.534H298.447C297.836 237.357 296.511 234.347 294.621 231.84Z" fill="#909DF4"/>
<path d="M252.663 228.052C252.663 228.052 237.345 214.767 230.775 212.515C224.205 210.262 210.705 213.88 210.535 213.88C210.366 213.88 198.45 240.42 198.45 240.42H247.32L252.663 228.052Z" fill="#EF9748"/>
<path d="M281.763 264.12C282.88 265.286 284.042 266.409 285.243 267.488C286.402 268.529 287.672 269.457 288.802 270.522C289.081 270.785 289.336 271.072 289.589 271.359C290.514 272.405 291.446 273.462 292.119 274.685C292.209 274.848 292.296 275.016 292.431 275.144C292.566 275.272 292.762 275.353 292.94 275.299C293.125 275.244 293.242 275.064 293.321 274.888C293.646 274.155 293.565 273.304 293.366 272.527C293.238 272.027 293.064 271.541 292.924 271.044C292.808 270.633 292.639 270.19 292.701 269.763C295.983 271.134 298.652 273.618 301.644 275.54C302.257 275.934 303.607 276.08 303.834 275.539C304.135 274.822 299.769 271.587 297.77 269.449C299.277 270.219 300.876 271.026 302.237 272.04C303.18 272.742 304.21 273.341 305.335 273.699C305.966 273.9 307.416 274.197 307.12 273.044C307.033 272.703 306.777 272.436 306.525 272.191C304.57 270.294 302.211 268.953 300.157 267.164C302.469 268.076 304.591 269.71 307.075 269.796C307.318 269.804 307.579 269.791 307.77 269.642C308.061 269.415 308.158 269.1 307.969 268.784C307.779 268.468 307.453 268.264 307.139 268.071C304.834 266.661 302.432 265.103 300.128 263.693C301.367 264.029 302.513 264.636 303.701 265.126C304.888 265.615 306.169 265.993 307.444 265.834C307.854 265.783 308.364 265.519 308.271 265.117C308.226 264.922 308.048 264.791 307.883 264.679C305.081 262.763 302.28 260.848 299.478 258.933C298.693 258.396 297.906 257.858 297.1 257.351C296.13 256.741 295.01 256.287 294.109 255.6C293.405 255.064 292.555 254.666 291.8 254.202C289.936 253.057 288.13 251.822 286.379 250.509" fill="#FFCAA3"/>
<path d="M292.763 269.753C291.881 269.365 290.985 269.008 290.078 268.682" stroke="black" stroke-width="0.493254" stroke-miterlimit="10"/>
<path d="M297.901 269.443C296.705 268.624 295.465 267.868 294.189 267.18" stroke="black" stroke-width="0.493254" stroke-miterlimit="10"/>
<path d="M300.164 267.116C299.18 266.493 298.198 265.87 297.215 265.247" stroke="black" stroke-width="0.493254" stroke-miterlimit="10"/>
<path d="M301.246 264.303C300.514 263.9 299.81 263.447 299.139 262.949" stroke="black" stroke-width="0.493254" stroke-miterlimit="10"/>
<path d="M234.302 212.928C240.353 214.83 243.389 215.004 248.802 218.362C254.555 221.931 268.785 236.925 268.785 236.925C268.785 236.925 287.986 250.463 295.183 255.582L282.255 267.904C267.956 259.355 253.279 249.151 242.44 236.5" fill="#EF9748"/>
<path d="M212.348 237.846C212.348 237.846 218.349 234.627 220.989 233.963C224.647 233.043 228.986 232.783 230.149 233.137C230.694 233.303 232.743 234.145 233.816 235.399C234.954 235.897 235.417 236.147 236.093 236.432C236.77 236.716 237.087 237.512 237.796 238.119C238.503 238.726 239.281 240.416 239.281 240.416C239.281 240.416 233.881 240.434 232.364 240.484C230.847 240.534 229.209 243.431 225.814 244.457" fill="#FFCAA3"/>
<path d="M224.711 210.541C220.548 210.507 216.494 209.422 212.339 209.42C204.793 209.416 200.462 213.374 196.791 218.862C194.011 223.017 191.394 228.131 189.425 232.693C187.126 238.018 184.551 243.948 183.881 249.763C183.574 252.423 183.956 255.171 185.186 257.535C187.461 261.909 192.517 262.673 195.466 263C198.415 263.328 203.583 262.332 206.114 260.762C219.435 252.502 228.243 244.224 228.243 244.224L213.912 236.878L207.037 239.568L215.72 223.518" fill="#EF9748"/>
<path d="M215.014 224.821L207.038 239.569" stroke="black" stroke-width="0.493254" stroke-miterlimit="10"/>
<path d="M213.913 236.879C209.803 238.474 205.694 240.068 201.584 241.662C198.779 242.751 196.028 244.905 193.793 246.908" stroke="black" stroke-width="0.493254" stroke-miterlimit="10"/>
<path d="M208.989 238.882L223.836 248.018" stroke="black" stroke-width="0.493254" stroke-miterlimit="10"/>
<path d="M248.896 231.734C246.93 234.983 244.208 240.416 244.208 240.416" stroke="black" stroke-width="0.493254" stroke-miterlimit="10"/>
<path d="M289.941 251.865L275.538 263.862" stroke="black" stroke-width="0.493254" stroke-miterlimit="10"/>
<path d="M233.261 236.938C234.305 237.215 235.367 237.424 236.439 237.565C236.77 237.608 237.115 237.65 237.395 237.831" stroke="black" stroke-width="0.493254" stroke-miterlimit="10"/>
<path d="M234.183 235.68C233.997 235.587 233.802 235.516 233.606 235.444C232.573 235.064 231.508 234.679 230.407 234.708" stroke="black" stroke-width="0.493254" stroke-miterlimit="10"/>
<path d="M230.827 241.086C231.386 240.683 232.077 240.501 232.761 240.43C234.183 240.282 235.704 240.589 237.069 240.054" stroke="black" stroke-width="0.493254" stroke-miterlimit="10"/>
<path d="M177.44 250.794C177.67 256.415 181.257 261.77 186.368 264.122" stroke="black" stroke-width="0.493254" stroke-miterlimit="10"/>
<path d="M173.461 250.55C173.578 254.218 175.092 257.772 177.44 259.888" stroke="black" stroke-width="0.493254" stroke-miterlimit="10"/>
<path d="M254.295 214.97C258.678 218.679 262.749 222.758 266.451 227.148" stroke="black" stroke-width="0.493254" stroke-miterlimit="10"/>
<path d="M254.392 210.571C257.449 212.841 260.25 215.454 262.727 218.346" stroke="black" stroke-width="0.493254" stroke-miterlimit="10"/>
<path d="M219.001 218.022C216.685 217.19 214.539 215.952 212.421 214.698C211.523 214.167 210.615 213.622 209.89 212.871C209.165 212.12 208.632 211.126 208.652 210.082C208.672 209.12 209.153 208.223 209.751 207.469C211.618 205.118 214.635 203.898 217.624 203.627C220.613 203.355 223.612 203.933 226.533 204.622C230.925 205.658 235.408 207.036 238.796 210.016C239.75 210.855 240.613 211.827 241.146 212.98C241.881 214.573 241.935 216.412 241.621 218.138C241.307 219.864 240.645 221.504 239.987 223.13" fill="#EF9748"/>
<path d="M230.881 200.672L224.976 202.393L225.108 205.361L222.119 210.461C222.119 210.461 229.185 213.198 231.842 218.778C234.736 219.208 235.894 216.862 235.894 216.862L238.739 210.045" fill="#FFCAA3"/>
<path d="M244.777 206.598C245.286 203.671 245.899 200.503 245.851 198.172C245.811 196.199 245.509 193.219 244.234 191.673C242.594 189.682 239.606 189.65 237.098 189.37C232.981 188.911 230.135 192.641 228.916 196.126C227.98 198.803 228.057 201.415 228.924 204.175C230.058 207.781 234.077 212.625 239.306 212.03C242.081 211.715 244.238 209.698 244.777 206.598Z" fill="#FFCAA3"/>
<path d="M239.723 200.201C239.673 200.637 239.362 200.959 239.029 200.92C238.695 200.882 238.466 200.498 238.516 200.061C238.567 199.626 238.878 199.304 239.211 199.342C239.544 199.381 239.773 199.765 239.723 200.201Z" fill="black"/>
<path d="M245.422 200.742C245.372 201.177 245.06 201.499 244.727 201.461C244.394 201.422 244.165 201.038 244.215 200.602C244.265 200.167 244.576 199.844 244.909 199.883C245.243 199.922 245.472 200.306 245.422 200.742Z" fill="black"/>
<path d="M242.895 199.777C242.769 200.786 242.873 201.811 242.875 202.823C242.876 203.449 242.898 204.553 242.084 204.695C241.551 204.788 240.388 204.47 240.388 204.47" stroke="black" stroke-width="0.493254" stroke-miterlimit="10"/>
<path d="M240.844 206.259L238.709 204.461C238.709 204.461 237.141 206.51 237.951 207.253C239.259 208.453 240.844 206.259 240.844 206.259Z" fill="white"/>
<path d="M244.309 192.296C245.251 193.77 245.771 194.955 245.811 199.375C246.262 199.262 246.718 199.147 247.123 198.92C247.528 198.693 247.883 198.335 248.001 197.886C248.222 197.055 247.602 196.232 247.568 195.372C247.544 194.751 247.828 194.159 248.165 193.636C248.425 193.234 248.728 192.834 248.791 192.359C248.878 191.691 248.46 191.056 247.96 190.602C246.846 189.591 245.352 189.188 244.071 188.445C243.451 188.086 243.121 187.524 242.545 187.102C241.894 186.625 241.198 186.209 240.47 185.862C238.791 185.06 236.948 184.627 235.09 184.548C231.491 184.394 227.934 185.738 225.425 188.253C222.107 191.578 220.775 197.919 222.857 201.592C224.03 203.661 225.108 205.362 225.108 205.362C225.241 205.574 228.111 202.996 228.288 202.646C228.466 202.291 228.533 201.893 228.642 201.511C229.013 200.208 230.308 199.989 231.419 199.583C233.038 198.99 233.848 197.548 234.162 195.921C234.342 194.985 234.369 194.028 234.395 193.076C234.39 193.289 235.698 193.748 235.894 193.809C237.825 194.404 240.006 194.509 241.966 193.982C242.545 193.827 243.161 193.627 243.618 193.232C243.744 193.124 244.518 192.508 244.309 192.296Z" fill="#1E1611"/>
<path d="M232.246 209.416C232.349 209.491 234.399 211.729 238.321 212.08" stroke="black" stroke-width="0.493254" stroke-miterlimit="10"/>
<path d="M236.269 197.102C236.617 196.419 237.315 195.926 238.076 195.826C238.837 195.726 239.638 196.023 240.152 196.593" stroke="black" stroke-width="0.493254" stroke-miterlimit="10"/>
<path d="M243.518 197.195C243.777 196.617 244.325 196.247 244.804 196.329C245.283 196.411 245.644 196.943 245.674 197.563" stroke="black" stroke-width="0.493254" stroke-miterlimit="10"/>
<path d="M241.776 201.323C241.277 202.806 239.7 203.594 238.253 203.083C236.807 202.572 236.038 200.955 236.537 199.472C237.035 197.989 238.613 197.202 240.06 197.713C241.506 198.224 242.275 199.84 241.776 201.323Z" stroke="#572A2F" stroke-width="0.493254" stroke-miterlimit="10"/>
<path d="M247.093 202.016C246.824 203.561 245.829 204.67 244.869 204.495C243.909 204.32 243.348 202.926 243.616 201.382C243.885 199.838 244.88 198.728 245.84 198.903C246.8 199.078 247.361 200.472 247.093 202.016Z" stroke="#572A2F" stroke-width="0.493254" stroke-miterlimit="10"/>
<path d="M243.87 200.564L241.921 200.199" stroke="#572A2F" stroke-width="0.493254" stroke-miterlimit="10"/>
<path d="M236.647 199.193L230.775 199.642" stroke="#572A2F" stroke-width="0.493254" stroke-miterlimit="10"/>
<path d="M232.453 200.7C232.424 199.276 230.503 198.16 229.239 198.614C226.201 199.705 227.224 205.146 230.048 205.668C230.846 205.816 231.993 205.502 232.276 204.597" fill="#FFCAA3"/>
<path d="M229.019 201.041L231.63 203.406" stroke="black" stroke-width="0.493254" stroke-miterlimit="10"/>
<path d="M231.112 198.945C231.748 199.328 232.264 199.915 232.571 200.609" stroke="black" stroke-width="0.493254" stroke-miterlimit="10"/>
<path d="M227.501 203.102C227.893 204.266 228.692 205.497 229.958 205.707C230.836 205.852 231.843 205.468 232.202 204.556" stroke="black" stroke-width="0.493254" stroke-miterlimit="10"/>
<path d="M220.796 195.091C220.855 193.177 221.065 191.248 221.688 189.436C222.311 187.624 223.373 185.926 224.904 184.775C225.752 184.138 226.721 183.682 227.702 183.28C228.528 182.94 229.371 182.634 230.245 182.448C233.517 181.752 236.907 182.787 239.973 184.128" fill="#FFC36C"/>
<path d="M241.439 184.39C240.631 183.611 239.585 183.108 238.498 182.83C237.85 182.663 237.18 182.573 236.512 182.606C236.165 182.624 235.819 182.674 235.478 182.741C233.106 183.208 230.968 184.452 228.912 185.725C226.167 187.423 223.426 189.252 221.413 191.775C220.685 192.686 220.042 193.737 219.977 194.901C219.941 195.546 220.087 196.188 220.298 196.799C220.654 197.829 221.491 199.297 222.192 200.131C228.23 194.483 235.012 190.014 242.841 187.36C242.8 186.239 242.247 185.169 241.439 184.39Z" fill="#FFC36C"/>
<path d="M221.187 192.068C221.187 192.068 226.284 184.962 235.745 182.6" stroke="black" stroke-width="0.493254" stroke-miterlimit="10"/>
<path d="M223.836 192.871C224.582 194.161 225.347 195.475 226.459 196.469" stroke="black" stroke-width="0.493254" stroke-miterlimit="10"/>
<path d="M229.792 187.528C230.565 189.157 231.524 190.703 232.647 192.128" stroke="black" stroke-width="0.493254" stroke-miterlimit="10"/>
<path d="M236.11 184.133C237.413 185.476 238.527 187.002 239.409 188.653" stroke="black" stroke-width="0.493254" stroke-miterlimit="10"/>
<path d="M238.29 183.364C239.409 184.744 240.391 186.381 241.122 187.978" stroke="black" stroke-width="0.493254" stroke-miterlimit="10"/>
<path d="M220.873 193.666C221.239 195.714 222.437 197.449 223.966 198.682" stroke="black" stroke-width="0.493254" stroke-miterlimit="10"/>
<path d="M217.386 208.567C220.272 209.645 223.187 210.737 225.755 212.44C228.323 214.141 230.924 216.533 231.841 219.474" stroke="black" stroke-width="0.493254" stroke-miterlimit="10"/>
<path d="M233.84 218.578C235.154 217.948 236.222 216.818 236.777 215.471" stroke="black" stroke-width="0.493254" stroke-miterlimit="10"/>
<path d="M208.651 209.771C209.986 217.436 220.098 215.97 224.808 218.346" stroke="black" stroke-width="0.493254" stroke-miterlimit="10"/>
<path d="M241.793 215.34C241.609 216.393 241.245 217.442 240.546 218.251C239.497 219.466 237.865 219.969 236.323 220.416" stroke="black" stroke-width="0.493254" stroke-miterlimit="10"/>
<path d="M237.719 218.578C238.42 223.399 239.13 228.801 238.906 233.667" stroke="black" stroke-width="0.493254" stroke-miterlimit="10"/>
<path d="M227.004 217.471C227.735 219.474 227.392 224.905 227.312 229.805" stroke="black" stroke-width="0.493254" stroke-miterlimit="10"/>
<path d="M275.943 357.837H166.127C164.418 357.837 163.034 356.452 163.034 354.743V280.386H279.036V354.743C279.036 356.452 277.651 357.837 275.943 357.837Z" fill="#D4BCDD"/>
<path d="M275.943 270.362C277.652 270.362 279.036 271.748 279.036 273.456V354.743C279.036 356.452 277.651 357.837 275.943 357.837H166.127C164.418 357.837 163.034 356.451 163.034 354.743V273.456C163.034 271.747 164.419 270.362 166.127 270.362H275.943ZM275.943 269.623H166.127C164.013 269.623 162.294 271.342 162.294 273.456V354.743C162.294 356.857 164.013 358.576 166.127 358.576H275.943C278.056 358.576 279.776 356.857 279.776 354.743V273.456C279.776 271.342 278.057 269.623 275.943 269.623Z" fill="white"/>
<path d="M171.862 275.668C171.862 276.856 170.898 277.819 169.711 277.819C168.522 277.819 167.56 276.856 167.56 275.668C167.56 274.48 168.523 273.517 169.711 273.517C170.898 273.517 171.862 274.48 171.862 275.668Z" stroke="white" stroke-width="0.73988" stroke-miterlimit="10"/>
<path d="M178.049 277.819C179.237 277.819 180.2 276.856 180.2 275.668C180.2 274.48 179.237 273.517 178.049 273.517C176.861 273.517 175.898 274.48 175.898 275.668C175.898 276.856 176.861 277.819 178.049 277.819Z" stroke="white" stroke-width="0.73988" stroke-miterlimit="10"/>
<path d="M163.034 280.386H279.036" stroke="white" stroke-width="0.73988" stroke-miterlimit="10"/>
<path d="M267.89 357.837C266.332 353.996 264.21 350.398 261.618 347.205C260.027 345.245 258.178 343.382 255.843 342.52C253.508 341.657 250.595 342.035 249.007 343.998C247.793 345.5 247.562 347.575 247.381 349.521C243.536 345.393 239.641 341.224 234.951 338.162C230.26 335.1 224.568 332.923 219.137 334.114C213.114 335.434 213.114 343.046 213.114 343.046C213.114 343.046 209.422 337.871 209.089 337.384C206.62 333.772 203.826 330.464 200.854 327.288C197.934 324.169 195.157 320.888 191.868 318.165C188.591 315.451 183.272 311.986 178.866 313.628C176.575 314.483 175.943 316.471 176.452 318.763C176.927 320.909 177.178 323.059 177.845 325.171C174.14 321.042 169.924 317.239 165.036 314.669C161.509 312.814 154.151 309.672 150.49 312.709C149.435 313.585 148.955 315.036 148.924 316.432C148.732 324.976 154.889 334.158 159.849 340.471C164.938 346.948 171.077 352.685 177.435 357.837H267.89Z" fill="#FFDD99"/>
<path d="M245.6 319.234C244.942 322.866 245.137 326.621 245.155 330.332C245.173 334.043 245.472 336.471 244.129 339.839C242.917 342.881 240.386 343.914 239.064 346.894C238.392 348.411 235.84 357.83 235.84 357.83H201.572C201.572 357.83 200.611 343.024 205.896 330.389C211.18 317.754 217.785 315.488 217.785 315.488L237.281 310.46L245.6 319.234Z" fill="#735D9D"/>
<path d="M290.494 297.147C291.511 295.92 292.933 295.151 294.15 294.154C295.272 293.235 296.111 291.946 297.042 290.832C298.18 289.471 299.065 287.921 300.053 286.452C301.112 284.875 302.47 283.599 303.815 282.272C304.001 282.088 304.192 281.898 304.298 281.658C304.49 281.225 304.266 280.656 303.769 280.521C302.798 280.26 301.761 280.508 300.819 280.861C300.259 281.07 298.36 281.743 298.245 280.674C298.115 279.466 299.126 277.702 299.513 276.582C300.017 275.126 300.533 273.666 300.942 272.179C301.331 270.762 301.243 268.04 300.49 267.995C299.736 267.951 300.305 268.402 300.108 268.509C300.423 268.094 299.872 267.138 299.42 266.852C298.968 266.567 298.38 267.492 298.245 267.99C298.399 267.504 297.972 266.699 297.61 266.665C297.083 266.617 296.673 267.116 296.359 267.523C296.045 267.93 295.766 268.384 295.321 268.657C295.325 268.308 295.272 267.957 295.166 267.622C294.823 267.428 294.429 267.749 294.18 268.042C289.13 274.005 285.713 281.399 280.11 287.139" fill="#E27769"/>
<path d="M298.363 279.855C298.381 281.323 298.344 282.791 298.251 284.256" stroke="black" stroke-width="0.493254" stroke-miterlimit="10"/>
<path d="M299.947 268.159C299.506 269.545 298.655 270.716 298.015 272.004C296.997 274.056 296.087 276.158 295.142 278.243" stroke="black" stroke-width="0.493254" stroke-miterlimit="10"/>
<path d="M298.209 267.887C297.901 268.535 297.549 269.162 297.157 269.763C296.737 270.407 296.271 271.02 295.821 271.644C294.535 273.427 293.375 275.3 292.353 277.247" stroke="black" stroke-width="0.493254" stroke-miterlimit="10"/>
<path d="M295.147 268.878C294.806 269.604 294.251 270.203 293.726 270.809C292.084 272.709 290.67 274.806 289.524 277.041" stroke="black" stroke-width="0.493254" stroke-miterlimit="10"/>
<path d="M227.446 312.424C233.577 309.858 237.594 307.164 243.663 304.43C249.137 301.965 256.817 299.943 262.214 297.312C269.677 293.674 276.674 289.656 282.809 284.151L293.954 295.884C293.954 295.884 278.205 311.95 272.706 315.082C259.456 322.629 254.629 324.042 240.856 331.246" fill="#735D9D"/>
<path d="M245 329.228C245.077 326.457 245.709 323.703 246.848 321.175" stroke="black" stroke-width="0.493254" stroke-miterlimit="10"/>
<path d="M279.089 287.236L290.142 299.641" stroke="black" stroke-width="0.493254" stroke-miterlimit="10"/>
<path d="M225.663 346.437C230.337 346.524 234.991 347.262 239.043 349.725C240.989 350.907 242.073 352.489 242.61 354.684C243.062 356.538 243.209 358.52 243.042 360.422C243.026 360.602 242.887 360.768 242.731 360.806C242.512 360.859 242.07 360.64 242.07 360.64C242.07 360.64 242.469 362.525 242.047 362.918C241.753 363.191 241.198 362.819 240.989 362.592C240.746 362.327 240.414 361.65 240.414 361.65C240.414 361.65 240.693 362.732 240.457 362.919C240.108 363.195 239.099 362.494 238.86 361.786C238.713 362.188 238.473 362.561 238.102 362.463C236.934 362.153 236.02 360.5 235.058 359.681C233.781 358.592 232.067 358.518 230.474 358.542C229.74 358.553 229.005 358.571 228.273 358.499C227.524 358.424 226.849 358.13 226.118 357.982C224.758 357.707 223.339 357.581 221.958 357.501" fill="#E27769"/>
<path d="M234.294 356.173C235.577 356.706 236.937 357.3 237.659 358.4C237.875 358.729 238.023 359.09 238.156 359.453C238.435 360.218 238.648 361.002 238.861 361.785" stroke="black" stroke-width="0.493254" stroke-miterlimit="10"/>
<path d="M236.135 353.855C236.865 354.319 237.58 354.813 238.199 355.417C238.817 356.021 239.338 356.74 239.62 357.557C239.781 358.024 239.861 358.514 239.942 359.002C240.108 360.005 240.281 361.008 240.458 362.01" stroke="black" stroke-width="0.493254" stroke-miterlimit="10"/>
<path d="M238.64 352.262C239.855 353.167 240.807 354.423 241.35 355.837C241.83 357.088 241.99 358.435 242.147 359.767C242.197 360.188 242.246 360.61 242.296 361.032" stroke="black" stroke-width="0.493254" stroke-miterlimit="10"/>
<path d="M220.515 313.321C220.515 313.321 210.842 314.752 207.13 316.885C201.326 320.219 198.775 325.307 195.077 333.936C191.378 342.565 189.878 346.352 189.842 349.21C189.789 353.419 191.684 357.831 199.425 357.831C213.216 357.831 224.114 357.831 224.114 357.831L229.096 346.195L209.884 343.189L215.186 330.777" fill="#735D9D"/>
<path d="M229.095 346.195L209.884 343.189L215.185 330.777" stroke="black" stroke-width="0.493254" stroke-miterlimit="10"/>
<path d="M203.061 344.965C203.209 344.965 206.133 343.143 209.884 343.189" stroke="black" stroke-width="0.493254" stroke-miterlimit="10"/>
<path d="M223.795 345.366L218.525 357.831" stroke="black" stroke-width="0.493254" stroke-miterlimit="10"/>
<path d="M235.514 316.285C235.768 314.972 235.759 313.571 235.549 312.164" stroke="black" stroke-width="0.493254" stroke-miterlimit="10"/>
<path d="M215.041 315.953C216.107 318.615 218.465 320.822 221.04 321.951C224.284 323.372 228.682 323.635 231.782 321.737C233.226 320.852 234.219 319.69 234.846 318.362" stroke="black" stroke-width="0.493254" stroke-miterlimit="10"/>
<path d="M269.602 320.943C275.377 318.001 280.658 314.091 285.157 309.425" stroke="black" stroke-width="0.493254" stroke-miterlimit="10"/>
<path d="M280.375 318.151C283.175 315.983 285.8 313.589 288.217 311.001" stroke="black" stroke-width="0.493254" stroke-miterlimit="10"/>
<path d="M187.747 341.951C186.525 345.935 186.084 350.158 186.457 354.308" stroke="black" stroke-width="0.493254" stroke-miterlimit="10"/>
<path d="M183.89 342.545C183.119 344.781 182.678 347.131 182.586 349.495" stroke="black" stroke-width="0.493254" stroke-miterlimit="10"/>
<path d="M223.752 301.426L218.462 304.971L219.604 308.752L218.013 314.452C217.912 314.816 217.973 315.203 218.183 315.516C219.048 316.803 221.729 320.001 227.045 319.996C232.663 319.99 232.584 316.264 232.584 316.264L233.607 308.326" fill="#E27769"/>
<path d="M234.394 300.953C232.94 298.243 232.108 296.565 230.58 294.697C229.286 293.114 227.137 290.878 225.111 290.433C222.502 289.858 220.047 291.74 217.825 293.115C214.177 295.371 214.24 300.228 215.472 303.846C216.419 306.625 218.376 307.686 220.845 309.381C224.072 311.595 231.086 312.597 234.098 310.17C236.35 308.356 235.935 303.824 234.394 300.953Z" fill="#E27769"/>
<path d="M226.596 300.714C226.769 301.135 226.648 301.582 226.327 301.714C226.005 301.846 225.605 301.613 225.432 301.193C225.26 300.773 225.38 300.325 225.702 300.193C226.023 300.061 226.423 300.294 226.596 300.714Z" fill="black"/>
<path d="M231.776 297.86C231.949 298.28 231.828 298.728 231.507 298.86C231.186 298.992 230.786 298.759 230.613 298.339C230.44 297.919 230.561 297.471 230.882 297.339C231.203 297.207 231.603 297.44 231.776 297.86Z" fill="black"/>
<path d="M229.002 299.686C229.582 300.203 230.281 300.551 230.981 300.874C231.414 301.074 232.86 301.459 232.538 302.163C232.33 302.614 231.485 303.328 231.485 303.328" stroke="black" stroke-width="0.493254" stroke-miterlimit="10"/>
<path d="M218.417 313.005C218.417 313.005 219.078 311.315 219.239 310.711C219.509 309.69 218.651 309.638 218.355 308.739C218.2 308.271 218.327 307.697 218.431 307.234C218.654 306.239 219.167 305.122 218.707 304.117C218.417 303.481 217.792 303.078 217.293 302.59C216.793 302.101 216.386 301.356 216.685 300.724C217.039 299.976 218.085 299.92 218.727 299.398C219.368 298.876 219.518 297.956 219.474 297.13C219.431 296.304 219.24 295.472 219.385 294.659C219.411 294.512 219.451 294.36 219.555 294.253C219.868 293.929 220.39 294.243 220.784 294.464C221.49 294.861 222.345 294.812 223.085 294.513C223.459 294.361 223.803 294.082 223.938 293.701C224.022 293.466 224.021 293.21 224.062 292.963C224.103 292.717 224.2 292.458 224.413 292.328C224.568 292.233 224.76 292.221 224.941 292.229C225.511 292.254 226.073 292.454 226.532 292.796C226.916 293.082 227.132 293.289 227.616 293.271C228.081 293.253 228.529 293.099 228.993 293.234C229.554 293.397 229.928 293.911 230.258 294.392C231.168 295.716 232.078 297.04 232.987 298.363C233.442 297.707 233.904 297.036 234.128 296.27C234.351 295.503 234.299 294.611 233.796 293.991C233.311 293.393 232.484 293.126 232.072 292.475C231.616 291.757 231.687 290.719 231.638 289.906C231.584 289.018 231.311 288.122 230.804 287.372C230.313 286.647 229.488 286.083 228.614 286.149C228.109 286.188 227.628 286.431 227.121 286.415C226.808 286.406 226.507 286.298 226.219 286.175C224.887 285.603 223.732 284.675 222.405 284.093C221.078 283.51 219.412 283.333 218.267 284.222C217.68 284.678 217.29 285.368 216.651 285.747C214.807 286.842 212.162 284.781 210.406 286.008C209.272 286.801 209.237 288.516 208.283 289.517C207.063 290.796 204.843 290.46 203.459 291.56C202.062 292.669 202.056 294.881 202.894 296.456C203.309 297.234 203.912 298.035 203.733 298.899C203.622 299.436 203.225 299.86 202.887 300.294C202.405 300.914 202.013 301.63 201.917 302.41C201.821 303.19 202.06 304.039 202.661 304.545C203.034 304.86 203.603 305.009 203.886 305.416C204.204 305.875 204.293 306.697 204.356 307.238C204.411 307.713 204.417 308.198 204.56 308.654C204.953 309.9 206.327 310.642 207.633 310.642C208.235 310.642 208.896 310.529 209.391 310.871C209.802 311.154 209.969 311.667 210.218 312.099C211.027 313.504 212.995 314.094 214.443 313.367C214.988 313.093 215.491 312.654 216.1 312.645C216.705 312.637 217.844 313.104 218.417 313.005Z" fill="#2C221D"/>
<path d="M226.925 311.448C228.556 311.855 231.645 311.94 233.987 310.461" stroke="black" stroke-width="0.493254" stroke-miterlimit="10"/>
<path d="M222.515 300.588C222.51 298.952 223.59 297.383 225.354 297.693" stroke="black" stroke-width="0.493254" stroke-miterlimit="10"/>
<path d="M228.595 296.513C228.539 296.047 228.89 295.502 229.417 295.234C229.944 294.966 230.6 295.006 230.968 295.307" stroke="black" stroke-width="0.493254" stroke-miterlimit="10"/>
<path d="M221.277 305.314C220.344 304.173 218.066 304.49 217.326 305.667C215.546 308.497 219.856 312.278 222.49 310.899C223.236 310.51 223.969 309.521 223.622 308.603" fill="#E27769"/>
<path d="M218.696 307.786L222.335 308.046" stroke="black" stroke-width="0.493254" stroke-miterlimit="10"/>
<path d="M219.063 304.741C219.826 304.646 220.622 304.796 221.315 305.165" stroke="black" stroke-width="0.493254" stroke-miterlimit="10"/>
<path d="M218.776 310.435C219.838 311.133 221.277 311.626 222.442 310.988C223.25 310.546 223.824 309.589 223.535 308.617" stroke="black" stroke-width="0.493254" stroke-miterlimit="10"/>
<path d="M229.569 303.597C229.335 304.473 229.625 305.624 230.63 305.805C231.384 305.941 232.199 305.477 232.443 304.748" stroke="black" stroke-width="0.493254" stroke-miterlimit="10"/>
<path d="M430.771 253.71H320.825C319.116 253.71 317.732 252.325 317.732 250.616V196.267H433.865V250.616C433.865 252.325 432.479 253.71 430.771 253.71Z" fill="#D5D8BC"/>
<path d="M430.771 188.018C432.48 188.018 433.865 189.403 433.865 191.111V250.616C433.865 252.325 432.48 253.709 430.771 253.709H320.825C319.117 253.709 317.732 252.324 317.732 250.616V191.112C317.732 189.403 319.117 188.019 320.825 188.019L430.771 188.018ZM430.771 187.278H320.825C318.712 187.278 316.992 188.998 316.992 191.111V250.616C316.992 252.73 318.712 254.449 320.825 254.449H430.771C432.885 254.449 434.604 252.73 434.604 250.616V191.112C434.605 188.998 432.885 187.278 430.771 187.278Z" fill="white"/>
<path d="M323.226 190.614C324.204 190.614 324.996 191.407 324.996 192.384C324.996 193.362 324.204 194.155 323.226 194.155C322.248 194.155 321.456 193.362 321.456 192.384C321.456 191.407 322.248 190.614 323.226 190.614ZM323.226 189.874C321.842 189.874 320.716 191 320.716 192.384C320.716 193.769 321.842 194.895 323.226 194.895C324.61 194.895 325.736 193.769 325.736 192.384C325.736 191 324.61 189.874 323.226 189.874Z" fill="white"/>
<path d="M330.088 190.614C331.066 190.614 331.859 191.407 331.859 192.384C331.859 193.362 331.066 194.155 330.088 194.155C329.111 194.155 328.318 193.362 328.318 192.384C328.318 191.407 329.111 190.614 330.088 190.614ZM330.088 189.874C328.704 189.874 327.578 191 327.578 192.384C327.578 193.769 328.704 194.895 330.088 194.895C331.472 194.895 332.598 193.769 332.598 192.384C332.598 191 331.472 189.874 330.088 189.874Z" fill="white"/>
<path d="M317.732 196.267H433.865" stroke="white" stroke-width="0.73988" stroke-miterlimit="10"/>
<path d="M418.008 243.44C415.833 239.807 413.527 236.038 409.956 233.823C406.385 231.607 401.156 231.523 398.49 234.8C396.127 237.704 396.566 241.939 397.132 245.662C394.503 242.305 391.423 239.313 388.004 236.794C385.365 234.85 382.456 233.16 379.252 232.551C375.926 231.918 372.13 232.615 369.401 234.673C365.676 237.48 365.733 241.901 366.099 246.165C361.578 237.595 356.553 229.093 349.593 222.244C347.791 220.471 345.674 218.936 343.24 218.257C341.843 217.867 340.267 217.791 339.015 218.522C337.112 219.633 336.609 222.139 336.555 224.342C336.489 227 336.795 229.666 337.462 232.24C336.247 230.935 334.645 229.968 332.894 229.634C328.865 228.862 324.889 231.909 324.659 236.045C324.42 240.348 327.038 244.455 329.038 248.069C329.8 249.447 330.583 250.819 331.446 252.136C331.614 252.393 332.256 253.671 332.646 253.671C332.648 253.671 423.769 253.671 423.769 253.671C421.849 250.461 419.928 246.648 418.008 243.44Z" fill="#B5AE6B"/>
<mask id="mask0_321_2146" style="mask-type:luminance" maskUnits="userSpaceOnUse" x="317" y="188" width="117" height="66">
<path d="M430.772 253.71H320.826C319.117 253.71 317.732 252.325 317.732 250.616V191.112C317.732 189.403 319.117 188.019 320.826 188.019H430.771C432.48 188.019 433.865 189.404 433.865 191.112V250.616C433.865 252.325 432.48 253.71 430.772 253.71Z" fill="white"/>
</mask>
<g mask="url(#mask0_321_2146)">
<path d="M425.981 249.636L395.504 191.225L386.843 190.716L380.042 196.267L362.545 208.988L382.214 266.631L425.981 249.636Z" fill="white"/>
<path d="M368.721 208.147C370.422 209.564 372.791 210.142 374.952 209.666" stroke="black" stroke-width="0.493254" stroke-miterlimit="10"/>
<path d="M377.083 208.988C379.213 208.272 381.103 206.86 382.393 205.02C383.684 203.18 384.368 200.923 384.316 198.676" stroke="black" stroke-width="0.493254" stroke-miterlimit="10"/>
<path d="M417.665 227.919C412.392 217.863 396.568 186.17 392.393 187.731C387.603 189.522 382.214 194.138 382.214 194.138C382.214 194.138 384.796 202.4 384.992 203.183C385.71 206.04 386.448 208.89 387.208 211.736C389.099 218.819 390.784 226.008 393.12 232.961C395.492 240.024 398.12 247.005 400.954 253.895C402.09 256.657 403.002 259.895 405.163 262.056C406.389 263.305 408.104 264.176 409.847 264.022C411.051 263.916 412.157 263.344 413.227 262.784C417.936 260.318 431.062 254.437 431.062 254.437C431.062 254.437 424.316 240.603 417.665 227.919Z" fill="#4C4139"/>
<path d="M390.778 266.571C389.497 261.903 387.303 257.607 385.678 253.07C383.553 247.134 381.664 241.115 379.471 235.202C376.126 226.183 371.382 213.711 367.751 204.804C367.751 204.804 361.093 208.623 359.751 209.549C358.408 210.475 358.7 212.678 358.7 212.678C363.999 232.441 380.048 277.323 380.048 277.323C381.948 276.319 386.661 273.672 388.561 272.667C391.065 271.345 391.498 269.194 390.778 266.571Z" fill="#4C4139"/>
<path d="M361.072 208.718C367.227 218.173 372.019 225.872 378.434 235.153" stroke="black" stroke-width="0.493254" stroke-miterlimit="10"/>
<path d="M390.57 190.118C391.847 202.661 392.625 215.254 392.904 227.859" stroke="black" stroke-width="0.493254" stroke-miterlimit="10"/>
</g>
<path d="M326.681 257.074C325.397 258.053 324.076 258.984 322.723 259.864C321.418 260.713 320.02 261.435 318.738 262.313C318.422 262.529 318.127 262.774 317.832 263.018C316.757 263.909 315.673 264.809 314.82 265.914C314.706 266.061 314.594 266.214 314.441 266.319C314.288 266.425 314.082 266.474 313.914 266.394C313.74 266.311 313.652 266.115 313.601 265.929C313.393 265.154 313.604 264.327 313.92 263.59C314.124 263.115 314.371 262.662 314.586 262.192C314.764 261.804 314.999 261.392 315.004 260.961C311.55 261.809 308.529 263.852 305.276 265.289C304.61 265.584 303.254 265.521 303.112 264.95C302.925 264.196 307.738 261.673 310.043 259.868C308.435 260.397 306.731 260.947 305.23 261.739C304.19 262.287 303.081 262.72 301.914 262.901C301.259 263.001 299.781 263.072 300.25 261.978C300.389 261.656 300.683 261.431 300.97 261.228C303.195 259.654 305.732 258.694 308.038 257.243C305.612 257.787 303.264 259.075 300.796 258.776C300.556 258.747 300.3 258.694 300.134 258.517C299.882 258.249 299.834 257.923 300.07 257.639C300.306 257.356 300.659 257.204 301 257.063C303.494 256.025 306.108 254.856 308.603 253.818C307.326 253.959 306.1 254.383 304.851 254.683C303.602 254.983 302.278 255.159 301.043 254.806C300.645 254.692 300.183 254.352 300.337 253.969C300.412 253.784 300.607 253.682 300.787 253.596C303.851 252.136 306.915 250.676 309.978 249.215C310.837 248.806 311.697 248.396 312.571 248.019C314.47 247.201 316.305 246.266 318.209 245.45C320.208 244.594 322.218 243.764 324.238 242.959" fill="#D16159"/>
<path d="M314.943 260.942C315.875 260.694 316.815 260.48 317.761 260.298" stroke="black" stroke-width="0.493254" stroke-miterlimit="10"/>
<path d="M309.914 259.843C311.223 259.219 312.564 258.663 313.931 258.179" stroke="black" stroke-width="0.493254" stroke-miterlimit="10"/>
<path d="M308.038 257.196C309.105 256.732 310.172 256.268 311.239 255.804" stroke="black" stroke-width="0.493254" stroke-miterlimit="10"/>
<path d="M307.402 254.249C308.187 253.963 308.953 253.625 309.693 253.236" stroke="black" stroke-width="0.493254" stroke-miterlimit="10"/>
<path d="M359.751 209.549C357.47 211.068 355.215 212.765 353.767 214.339C351.447 216.863 337.801 233.402 337.801 233.402C337.801 233.402 323.823 241.832 315.812 246.487L324.571 260.757C324.571 260.757 340.811 254.919 349.093 249.101C356.622 243.812 371.035 226.484 371.035 226.484" fill="#4C4139"/>
<path d="M365.462 233.405L361.072 219.753" stroke="black" stroke-width="0.493254" stroke-miterlimit="10"/>
<path d="M323.184 242.149L332.902 257.247" stroke="black" stroke-width="0.493254" stroke-miterlimit="10"/>
<path d="M321.99 256.553L330.052 252.82" stroke="black" stroke-width="0.493254" stroke-miterlimit="10"/>
<path d="M327.389 252.633C327.43 253.003 327.163 253.335 326.793 253.376C326.423 253.417 326.091 253.15 326.05 252.78C326.01 252.41 326.276 252.078 326.646 252.037C327.016 251.996 327.348 252.263 327.389 252.633Z" stroke="black" stroke-width="0.493254" stroke-miterlimit="10"/>
<path d="M323.451 254.417C323.823 254.417 324.125 254.115 324.125 253.743C324.125 253.371 323.823 253.069 323.451 253.069C323.079 253.069 322.777 253.371 322.777 253.743C322.777 254.115 323.079 254.417 323.451 254.417Z" stroke="black" stroke-width="0.493254" stroke-miterlimit="10"/>
<path d="M337.706 233.608C337.695 233.517 337.684 233.426 337.672 233.336C339.533 232.778 341.31 231.938 342.924 230.855" stroke="black" stroke-width="0.493254" stroke-miterlimit="10"/>
<path d="M344.282 217.519C346.923 214.341 350.157 211.657 353.767 209.647" stroke="black" stroke-width="0.493254" stroke-miterlimit="10"/>
<path d="M346.41 210.259C348.909 208.399 351.643 206.852 354.525 205.667" stroke="black" stroke-width="0.493254" stroke-miterlimit="10"/>
<path d="M373.143 184.288L375.095 190.068L382.059 196.805C382.059 196.805 382.24 200.813 378.301 205.015C374.391 209.185 370.155 206.386 370.155 206.386L365.099 198.953" fill="#D16159"/>
<path d="M356.841 199.354C356.04 196.787 355.03 191.251 355.107 189.143C355.173 187.358 355.707 185.611 356.882 184.231C358.396 182.454 361.956 183.091 364.228 182.874C367.96 182.52 370.292 186.942 371.344 190.112C372.152 192.547 372.536 195.054 371.712 197.538C370.37 201.577 366.062 205.659 361.504 204.555C359.028 203.955 357.617 201.841 356.841 199.354Z" fill="#D16159"/>
<path d="M376.668 183.564C376.069 182.925 375.246 182.423 374.979 181.589C374.832 181.126 374.602 179.741 374.453 179.28C373.62 176.704 371.46 175.842 369.005 176.265C368.743 173.802 366.131 173.564 363.985 173.539C363.091 173.529 362.182 173.442 361.382 173.014C360.535 172.562 359.768 171.921 358.779 171.827C357.897 171.743 356.989 172.034 356.257 172.516C353.713 174.188 352.986 177.425 349.87 178.402C348.885 178.71 347.856 178.802 347.006 179.448C346.372 179.93 345.9 180.651 345.811 181.443C345.683 182.573 346.43 183.261 347.201 183.948C348.1 184.75 348.625 185.772 348.552 186.993C348.508 187.732 348.31 188.451 348.192 189.182C347.856 191.262 348.52 193.228 350.262 194.487C350.63 194.753 351.127 195.001 352.472 195.293C353.42 195.499 355.879 195.144 355.879 195.144C355.879 195.144 355.272 191.606 355.284 190.228C355.294 188.918 355.694 187.698 356.46 186.651C357.115 185.758 358.544 185.443 359.61 185.491C361.206 185.563 362.73 186.442 364.316 186.256C364.975 186.179 365.601 185.901 366.119 185.487C368.253 186.869 370.461 188.9 370.95 191.377C370.975 191.503 371.289 192.969 371.178 192.992C373.008 192.607 375.313 192.459 376.135 190.462C376.418 189.773 376.275 189.048 376.49 188.35C376.668 187.771 377.185 187.349 377.426 186.793C377.892 185.719 377.468 184.418 376.668 183.564Z" fill="#2C221D"/>
<path d="M369.062 191.074C369.157 189.482 371.355 188.317 372.75 188.88C376.102 190.233 374.719 196.278 371.537 196.738C370.637 196.869 369.368 196.467 369.091 195.442" fill="#D16159"/>
<path d="M372.89 191.605L369.865 194.138" stroke="black" stroke-width="0.493254" stroke-miterlimit="10"/>
<path d="M370.639 189.169C369.911 189.569 369.308 190.205 368.935 190.967" stroke="black" stroke-width="0.493254" stroke-miterlimit="10"/>
<path d="M374.499 193.978C374.01 195.263 373.062 196.607 371.636 196.786C370.647 196.91 369.538 196.436 369.175 195.4" stroke="black" stroke-width="0.493254" stroke-miterlimit="10"/>
<path d="M367.939 203.128C367.939 203.128 369.568 202.094 370.639 199.816" stroke="black" stroke-width="0.493254" stroke-miterlimit="10"/>
<path d="M359.557 193.23C359.708 194.649 359.864 196.069 360.026 197.487C360.048 197.683 360.078 197.893 360.213 198.037C360.748 198.602 361.976 198.331 362.546 197.992" stroke="black" stroke-width="0.493254" stroke-miterlimit="10"/>
<path d="M363.883 198.574L361.429 200.007C361.429 200.007 362.379 201.827 363.329 201.472C365.1 200.81 363.883 198.574 363.883 198.574Z" fill="white"/>
<path d="M360.807 190.161C361.059 189.645 361.576 189.298 362.122 189.122C363.046 188.823 364.103 188.97 364.911 189.508" stroke="black" stroke-width="0.493254" stroke-miterlimit="10"/>
<path d="M355.073 192.221C355.162 191.68 355.472 191.271 355.835 191.025C356.448 190.609 357.238 190.613 357.918 191.035" stroke="black" stroke-width="0.493254" stroke-miterlimit="10"/>
<path d="M364.054 192.278C364.179 192.808 363.948 193.316 363.537 193.413C363.126 193.511 362.691 193.16 362.566 192.631C362.44 192.101 362.672 191.592 363.082 191.495C363.493 191.398 363.928 191.748 364.054 192.278Z" fill="black"/>
<path d="M358.395 193.962C358.521 194.492 358.29 195 357.879 195.097C357.468 195.195 357.033 194.844 356.908 194.315C356.782 193.785 357.013 193.276 357.424 193.179C357.835 193.082 358.27 193.432 358.395 193.962Z" fill="black"/>
<path d="M356.904 186.177C355.848 186.745 355.389 187.985 354.676 188.947C353.523 190.504 351.523 191.39 349.595 191.199" stroke="#635149" stroke-width="0.493254" stroke-miterlimit="10"/>
<path d="M366.299 185.345C367.255 184.463 367.941 183.292 368.244 182.028" stroke="#635149" stroke-width="0.493254" stroke-miterlimit="10"/>
<path d="M455.888 315.903H373.223C371.514 315.903 370.129 314.518 370.129 312.81V254.08H458.982V312.81C458.982 314.518 457.597 315.903 455.888 315.903Z" fill="#F9D4BB"/>
<path d="M455.889 245.831C457.597 245.831 458.982 247.217 458.982 248.925V312.81C458.982 314.519 457.597 315.903 455.889 315.903H373.223C371.514 315.903 370.13 314.518 370.13 312.81V248.925C370.13 247.216 371.515 245.831 373.223 245.831H455.889ZM455.889 245.092H373.223C371.109 245.092 369.39 246.811 369.39 248.925V312.81C369.39 314.923 371.109 316.643 373.223 316.643H455.889C458.002 316.643 459.722 314.923 459.722 312.81V248.925C459.722 246.811 458.002 245.092 455.889 245.092Z" fill="white"/>
<path d="M377.394 250.197C377.394 251.175 376.601 251.968 375.623 251.968C374.646 251.968 373.853 251.175 373.853 250.197C373.853 249.22 374.646 248.427 375.623 248.427C376.601 248.427 377.394 249.22 377.394 250.197Z" stroke="white" stroke-width="0.73988" stroke-miterlimit="10"/>
<path d="M384.255 250.197C384.255 251.175 383.463 251.968 382.485 251.968C381.507 251.968 380.715 251.175 380.715 250.197C380.715 249.22 381.507 248.427 382.485 248.427C383.463 248.427 384.255 249.22 384.255 250.197Z" stroke="white" stroke-width="0.73988" stroke-miterlimit="10"/>
<path d="M370.129 254.08H458.982" stroke="white" stroke-width="0.73988" stroke-miterlimit="10"/>
<path d="M436.079 292.099C434.045 291.743 433.469 297.214 434.445 299.034C431.766 295.203 428.374 289.334 425.694 285.502C422.689 281.205 419.097 275.852 413.678 274.453C408.795 273.193 406.249 277.445 406.172 281.786C406.099 285.942 406.517 290.134 407.287 294.216C408.126 298.665 409.216 303.734 411.638 307.618C409.063 303.49 404.943 302.094 400.338 302.477C398.193 302.656 395.964 303.377 394.61 305.05C392.444 307.725 393.256 312.587 394.179 315.904C396.193 315.904 398.207 315.904 400.22 315.904C410.93 315.904 453.356 315.922 453.356 315.922C453.356 315.922 442.682 293.255 436.079 292.099Z" fill="#EF9748"/>
<path d="M374.545 284.393C365.718 284.524 356.967 282.657 348.522 280.083C340.077 277.509 324.691 271.858 324.691 271.858L320.298 285.122C320.298 285.122 343.043 299.531 373.31 301.991" fill="#E27769"/>
<path d="M393.453 287.995C387.57 283.003 374.823 283.36 371.169 283.502C367.514 283.645 361.001 282.566 361.001 282.566L358.604 302.549C358.604 302.549 372.137 304.821 379.666 305.371" fill="#2C221D"/>
<path d="M376.873 292.789C377.796 295.394 377.375 299.227 377.385 301.991C377.394 304.457 378.261 305.827 378.625 308.266C379.061 311.18 380.714 313.262 382.458 315.903H419.94L417.966 295.121L412.863 287.748L402.09 284.876L377.769 291.272" fill="#2C221D"/>
<path d="M388.641 287.748C388.267 289.068 387.995 290.548 388.222 291.915C388.488 293.517 389.504 294.526 390.954 295.122" stroke="#6D574E" stroke-width="0.493254" stroke-miterlimit="10"/>
<path d="M392.796 295.563C399.439 296.753 406.429 292.005 407.096 285.961" stroke="#6D574E" stroke-width="0.493254" stroke-miterlimit="10"/>
<path d="M442.77 313.507C442.23 311.941 441.217 310.588 440.174 309.301C437.309 305.762 434.101 302.501 430.61 299.576L418.067 310.994L425.829 318.518L416.764 334.949L428.788 338.38C428.788 338.38 437.99 328.218 441.511 322.553C443.24 319.772 443.845 316.628 442.77 313.507Z" fill="#E27769"/>
<path d="M419.162 331.268C419.162 331.268 413.904 338.836 413.372 340.201C412.895 341.429 412.634 342.964 412.447 344.272C411.93 347.876 413.862 351.581 415.319 353.332C415.483 353.529 415.726 353.656 415.97 353.702C416.51 353.802 416.727 353.522 416.715 352.884C417.01 353.285 417.305 353.686 417.599 354.087C417.721 354.253 417.849 354.424 418.024 354.51C418.359 354.676 418.777 354.474 419.034 354.146C419.291 353.819 419.423 353.392 419.547 352.98C419.86 353.431 420.344 353.905 420.812 353.629C421.28 353.352 421.684 352.352 421.579 351.777C421.732 352.282 422.402 352.296 422.768 351.928C423.134 351.561 423.268 350.985 423.377 350.449C423.653 349.09 423.912 347.688 424.578 346.501C425.021 345.709 425.624 345.053 426.15 344.329C427.863 341.971 428.71 338.966 429.263 336.005" fill="#E27769"/>
<path d="M422.612 342.933C422.375 343.457 422.138 343.982 421.901 344.505C421.709 344.931 421.516 345.358 421.361 345.8C420.671 347.769 420.786 350.021 421.671 351.893" stroke="black" stroke-width="0.493254" stroke-miterlimit="10"/>
<path d="M418.655 342.737C418.173 345.12 417.976 347.984 418.32 349.776C418.542 350.936 419.049 352.04 419.669 353.035" stroke="black" stroke-width="0.493254" stroke-miterlimit="10"/>
<path d="M415.188 341.841C415.188 341.841 414.88 343.599 414.807 344.592C414.575 347.75 414.993 350.8 416.714 353.141" stroke="black" stroke-width="0.493254" stroke-miterlimit="10"/>
<path d="M323.617 285.346C322.67 285.254 321.724 285.163 320.778 285.071C319.931 284.989 319.077 284.905 318.267 284.645C317.726 284.472 317.214 284.222 316.704 283.974C314.602 282.951 313.527 282.644 311.517 281.46C310.362 280.78 309.18 280.139 307.949 279.607C306.743 279.085 305.492 278.805 304.378 278.1C304.281 278.038 304.181 277.969 304.137 277.864C304.103 277.783 304.106 277.692 304.118 277.604C304.377 275.787 308.08 276.203 309.52 276.606C309.954 276.727 310.405 276.872 310.847 276.783C310.877 276.205 310.622 275.651 310.341 275.146C309.511 273.658 308.298 272.473 307.202 271.179C306.189 269.983 305.162 268.787 304.229 267.526C303.354 266.346 302.454 263.775 303.141 263.461C303.827 263.148 303.46 263.774 303.682 263.803C303.239 263.53 303.407 262.439 303.726 262.01C304.044 261.581 304.926 262.231 305.232 262.647C304.913 262.248 305.021 261.344 305.347 261.182C305.821 260.946 306.383 261.264 306.823 261.53C307.263 261.797 307.687 262.12 308.2 262.213C308.071 261.889 307.993 261.544 307.971 261.192C308.221 260.888 308.704 261.045 309.042 261.228C315.904 264.967 321.759 270.629 329.056 273.961" fill="#E27769"/>
<path d="M309.402 273.755C310.172 274.86 310.692 276.189 311.095 277.82" stroke="black" stroke-width="0.493254" stroke-miterlimit="10"/>
<path d="M303.704 263.419C304.615 264.552 305.832 265.337 306.894 266.308C308.584 267.854 310.192 269.485 311.826 271.09" stroke="black" stroke-width="0.493254" stroke-miterlimit="10"/>
<path d="M305.227 262.538C305.748 263.031 306.303 263.489 306.885 263.908C307.51 264.357 308.165 264.761 308.81 265.18C310.653 266.378 312.411 267.707 314.067 269.154" stroke="black" stroke-width="0.493254" stroke-miterlimit="10"/>
<path d="M308.44 262.357C309.02 262.911 309.754 263.269 310.462 263.646C312.679 264.825 314.755 266.27 316.63 267.941" stroke="black" stroke-width="0.493254" stroke-miterlimit="10"/>
<path d="M323.893 285.778C323.893 285.778 320.015 285.252 318.432 284.834" stroke="black" stroke-width="0.493254" stroke-miterlimit="10"/>
<path d="M409.71 286.924C412.381 287.182 415.052 287.432 417.594 288.391C420.805 289.604 423.597 291.883 426.225 294.212C428.971 296.646 431.773 299.959 434.445 302.498L420.747 314.485L411.048 305.033" fill="#2C221D"/>
<path d="M425.829 318.518C425.829 318.518 427.855 315.924 429.909 314.485" stroke="black" stroke-width="0.493254" stroke-miterlimit="10"/>
<path d="M416.761 310.601L431.045 299.034" stroke="#6D574E" stroke-width="0.493254" stroke-miterlimit="10"/>
<path d="M363.841 303.383L365.915 283.224" stroke="#6D574E" stroke-width="0.493254" stroke-miterlimit="10"/>
<path d="M376.873 299.576C376.873 299.576 377.82 303.879 378.079 305.724" stroke="#6D574E" stroke-width="0.493254" stroke-miterlimit="10"/>
<path d="M410.563 304.997C413.532 307.289 420.748 314.485 420.748 314.485" stroke="#6D574E" stroke-width="0.493254" stroke-miterlimit="10"/>
<path d="M395.325 272.623L401.708 275.21L401.333 279.465L404.551 285.685C404.551 285.685 402.98 291.55 395.934 293.011C389.984 294.244 390.119 290.404 390.119 290.404L387.285 282.226" fill="#E27769"/>
<path d="M381.84 275.899C382.783 272.708 383.293 270.75 384.498 268.434C385.519 266.473 387.302 263.632 389.349 262.714C391.985 261.53 394.999 262.982 397.655 263.946C402.016 265.531 403.019 270.688 402.513 274.79C402.123 277.942 400.285 279.497 398.044 281.836C395.116 284.892 387.91 287.5 384.187 285.594C381.401 284.168 380.842 279.279 381.84 275.899Z" fill="#E27769"/>
<path d="M427.438 295.185C429.154 294.621 429.997 292.602 429.901 291.168C429.748 288.858 428.668 287.667 428.491 286.24C428.376 285.311 428.652 284.37 428.573 283.437C428.443 281.897 427.326 280.556 425.945 279.861C424.564 279.166 422.958 279.04 421.419 279.178C420.239 279.283 419.052 279.535 417.879 279.368C416.899 279.228 415.981 278.802 415.126 278.301C413.616 277.415 412.238 276.262 411.265 274.806C409.612 272.33 409.259 269.215 407.984 266.524C407.341 265.169 406.449 263.936 405.381 262.884C402.786 260.328 400.316 259.382 396.637 259.259C394.118 259.175 390.612 259.512 388.684 261.862C388.684 261.862 384.958 261.957 383.18 263.834C381.07 266.062 381.221 269.287 383.065 271.858C384.017 270.294 384.828 268.641 386.222 267.439C386.062 267.693 386.138 268.049 386.345 268.267C386.551 268.485 386.857 268.583 387.157 268.607C387.954 268.672 388.707 268.275 389.408 267.89C389.171 268.522 389.071 269.205 389.116 269.878C389.125 270.02 389.145 270.172 389.239 270.279C389.345 270.401 389.52 270.434 389.681 270.448C390.78 270.54 391.91 270.012 392.544 269.11C392.244 269.927 391.982 270.953 392.587 271.579C393.014 272.021 393.738 272.054 394.308 271.822C394.877 271.59 395.33 271.146 395.766 270.713C395.556 270.921 395.832 272.099 395.884 272.371C395.996 272.966 396.179 273.544 396.381 274.114C397.004 275.865 397.771 277.572 398.768 279.144C399.797 280.767 401.267 281.997 402.319 283.579C402.985 284.581 403.548 285.679 404.444 286.483C405.545 287.471 407.063 288.214 408.509 288.508C409.967 288.805 411.474 288.671 412.949 288.622C418.398 288.445 422.53 291.173 427.438 295.185Z" fill="#893D33"/>
<path d="M414.724 259.895C414.41 259.12 413.951 258.409 413.363 257.867C411.238 255.912 406.607 256.038 405.024 258.696C404.154 260.156 404.577 262.035 405.237 263.601L406.538 266.456C408.352 267.442 410.648 267.484 412.497 266.566C414.042 265.799 415.132 264.383 415.209 262.629C415.249 261.734 415.08 260.773 414.724 259.895Z" fill="#893D33"/>
<path d="M395.818 276.457C396.26 275.139 398.376 274.658 399.422 275.449C401.936 277.351 399.396 282.125 396.612 281.789C395.825 281.693 394.848 281.067 394.848 280.141" fill="#E27769"/>
<path d="M398.921 277.775L395.797 279.219" stroke="black" stroke-width="0.493254" stroke-miterlimit="10"/>
<path d="M397.579 275.212C396.875 275.383 396.223 275.781 395.735 276.338" stroke="black" stroke-width="0.493254" stroke-miterlimit="10"/>
<path d="M399.734 280.139C399.031 281.11 397.927 282.025 396.686 281.851C395.824 281.731 394.999 281.078 394.929 280.124" stroke="black" stroke-width="0.493254" stroke-miterlimit="10"/>
<path d="M388.735 286.411C388.735 286.411 391.667 286.271 394.636 284.266" stroke="black" stroke-width="0.493254" stroke-miterlimit="10"/>
<path d="M385.656 274.293C385.194 275.101 384.712 275.932 383.966 276.489C383.787 276.622 383.593 276.74 383.448 276.908C383.24 277.15 383.151 277.49 383.214 277.803C383.277 278.115 383.491 278.394 383.777 278.537" stroke="black" stroke-width="0.493254" stroke-miterlimit="10"/>
<path d="M384.339 280.422C384.808 280.812 385.509 280.964 386.064 280.667C386.765 280.291 386.779 279.396 386.803 278.698" stroke="black" stroke-width="0.493254" stroke-miterlimit="10"/>
<path d="M389.076 272.56C389.588 272.453 390.125 272.43 390.634 272.55C391.144 272.67 391.626 272.941 391.952 273.352C392.365 273.872 392.494 274.558 392.609 275.212" stroke="black" stroke-width="0.493254" stroke-miterlimit="10"/>
<path d="M383.369 270.613C383.856 270.263 384.54 270.24 385.08 270.502C385.619 270.763 386.013 271.282 386.183 271.858" stroke="black" stroke-width="0.493254" stroke-miterlimit="10"/>
<path d="M389.937 275.509C389.736 275.927 389.329 276.149 389.027 276.004C388.726 275.86 388.644 275.403 388.844 274.985C389.045 274.567 389.452 274.345 389.754 274.49C390.055 274.634 390.137 275.09 389.937 275.509Z" fill="black"/>
<path d="M384.396 273.686C384.196 274.104 383.789 274.326 383.487 274.181C383.186 274.037 383.104 273.58 383.304 273.162C383.504 272.744 383.911 272.522 384.213 272.666C384.515 272.811 384.597 273.267 384.396 273.686Z" fill="black"/>
<path d="M441.864 330.891C444.87 327.835 447 323.927 447.939 319.746" stroke="black" stroke-width="0.493254" stroke-miterlimit="10"/>
<path d="M448.748 329.189C449.657 327.396 450.237 325.437 450.451 323.438" stroke="black" stroke-width="0.493254" stroke-miterlimit="10"/>
<path d="M389.911 233.382C389.911 233.382 384.777 235.737 381.33 237.299C379.38 238.183 376.113 240.601 374.996 242.441C373.577 244.781 373.206 247.676 373.368 250.066C373.475 251.647 374.198 253.438 375.258 255.162C375.956 256.297 376.7 257.485 377.35 257.33C378 257.176 377.766 255.585 377.766 255.583C377.768 255.679 378.536 257.189 378.713 257.309C378.95 257.47 379.231 257.61 379.476 257.482C379.809 257.307 380.035 257.117 380.195 256.777C380.331 256.49 380.342 256.192 380.37 255.872C380.396 255.582 380.371 254.881 380.357 254.585C380.5 254.904 380.638 255.898 380.91 255.846C381.182 255.793 381.627 255.565 381.871 255.267C382.345 254.689 382.596 253.965 382.839 253.257C382.841 253.428 382.844 253.604 382.909 253.763C382.973 253.922 383.113 254.062 383.284 254.075C383.5 254.091 384.378 253.449 384.506 253.276C385.059 252.524 385.266 251.519 385.666 250.676C385.999 249.973 386.326 249.475 386.807 248.863C387.246 248.305 387.917 247.615 388.557 247.279C389.86 246.595 390.661 246.409 391.994 245.778C393.119 245.247 394.22 244.59 394.996 243.598" fill="#D16159"/>
<path d="M382.723 253.553C382.822 252.43 382.959 251.31 383.134 250.196C383.251 249.454 383.387 248.706 383.683 248.016C384.169 246.884 385.051 245.978 385.915 245.1" stroke="black" stroke-width="0.493254" stroke-miterlimit="10"/>
<path d="M380.476 254.832C380.04 252.961 380.087 251.015 380.136 249.093C380.15 248.562 380.164 248.026 380.291 247.51C380.51 246.62 381.05 245.847 381.579 245.098" stroke="black" stroke-width="0.493254" stroke-miterlimit="10"/>
<path d="M377.82 255.956C377.219 254.093 376.614 252.21 376.448 250.26C376.416 249.887 376.401 249.511 376.414 249.136C376.464 247.737 376.919 246.371 377.608 245.152" stroke="black" stroke-width="0.493254" stroke-miterlimit="10"/>
<path d="M394.279 205.545L403.314 222.589L383.151 236.397L396.42 246.848C396.42 246.848 419.044 239.483 425.207 235.829C430.045 232.961 432.121 225.511 422.801 213.361C413.48 201.21 407.045 194.004 405.134 191.978C401.02 187.617 396.126 185.805 391.565 188.102" fill="#4C4139"/>
<path d="M394.279 205.545L403.314 222.589L383.152 236.396" stroke="black" stroke-width="0.493254" stroke-miterlimit="10"/>
<path d="M394.8 242.149C394.8 242.521 394.498 242.823 394.126 242.823C393.755 242.823 393.453 242.521 393.453 242.149C393.453 241.777 393.755 241.475 394.126 241.475C394.499 241.475 394.8 241.777 394.8 242.149Z" stroke="black" stroke-width="0.493254" stroke-miterlimit="10"/>
<path d="M398.287 240.724C398.659 240.724 398.961 240.422 398.961 240.05C398.961 239.678 398.659 239.376 398.287 239.376C397.915 239.376 397.613 239.678 397.613 240.05C397.613 240.422 397.915 240.724 398.287 240.724Z" stroke="black" stroke-width="0.493254" stroke-miterlimit="10"/>
<path d="M390.269 242.002C390.343 242.061 398.961 237.717 398.961 237.717" stroke="black" stroke-width="0.493254" stroke-miterlimit="10"/>
<path d="M390.741 231.2C390.826 231.141 406.233 243.513 406.233 243.513" stroke="black" stroke-width="0.493254" stroke-miterlimit="10"/>
<path d="M402.821 222.76C404.713 222.021 406.614 221.225 408.636 220.921C410.796 220.596 412.993 220.708 415.166 220.82" stroke="black" stroke-width="0.493254" stroke-miterlimit="10"/>
<path d="M396.42 246.847L422.534 237.356" stroke="black" stroke-width="0.493254" stroke-miterlimit="10"/>
<path d="M400.987 183.846C395.769 178.943 390.439 174.065 384.269 170.431C372.847 163.702 356.904 164.744 349.024 169.639C342.976 173.397 339.788 178.077 335.903 183.872C331.041 191.126 325.942 198.93 317.929 202.403C314.023 204.096 309.728 204.604 305.551 205.422C301.374 206.24 297.102 207.465 293.902 210.272C290.702 213.079 288.878 217.844 290.607 221.735C291.965 224.79 295.309 226.712 298.652 226.807C301.994 226.902 305.253 225.351 307.659 223.029C313.8 217.104 316.658 201.519 305.316 197.032" stroke="#ED725A" stroke-width="0.73988" stroke-miterlimit="10"/>
<path d="M153.19 289.508C153.912 292.93 155.736 296.573 158.202 299.384C161.413 303.043 167.961 305.411 170.776 300.091C172.086 297.617 172.739 293.613 169.618 291.842C169.397 291.716 169.148 291.603 168.88 291.6C168.277 291.594 167.877 292.118 167.699 292.597C166.864 294.842 168.207 297.267 170.019 299.07C170.86 299.906 171.84 300.686 173.053 301.102C174.265 301.519 175.75 301.514 176.808 300.869C178.454 299.865 178.887 297.655 178.767 296.072" stroke="#8F96DB" stroke-width="0.73988" stroke-miterlimit="10"/>
<path d="M146.292 199.388C149.196 195.726 153.106 192.419 157.5 190.724C159.877 189.807 162.983 189.478 165.483 189.974C166.731 190.222 168.181 190.616 168.943 191.738C169.748 192.922 168.809 195.116 170.399 195.786C170.808 195.959 171.272 195.917 171.711 195.851C173.089 195.644 174.431 195.229 175.81 195.026C177.19 194.824 178.658 194.851 179.9 195.485C181.142 196.118 182.086 197.476 181.901 198.858C181.828 199.4 181.593 199.935 181.693 200.472C181.861 201.37 182.878 201.839 183.788 201.925C185.671 202.102 187.461 202.041 189.063 203.246C190.237 204.131 190.912 205.713 190.311 206.982" stroke="#FFDD99" stroke-width="0.73988" stroke-miterlimit="10"/>
<path d="M269.322 195.905C270.054 194.277 270.875 192.643 272.152 191.396C273.43 190.149 275.253 189.335 277.006 189.675C277.912 189.852 278.768 190.324 279.691 190.304C280.961 190.278 282.047 189.301 282.618 188.167C283.19 187.032 283.356 185.745 283.588 184.497C283.958 182.503 284.557 180.465 285.921 178.965C287.285 177.465 289.59 176.66 291.412 177.55" stroke="#FFDD99" stroke-width="0.73988" stroke-miterlimit="10"/>
<path d="M183.377 362.017C183.884 358.992 181.843 356.129 178.818 355.622C175.793 355.115 172.93 357.156 172.423 360.181C171.916 363.205 173.957 366.069 176.982 366.576C180.007 367.082 182.87 365.041 183.377 362.017Z" stroke="#909DF4" stroke-width="0.73988" stroke-miterlimit="10"/>
<path d="M272.421 176.317C274.908 176.317 276.925 174.3 276.925 171.813C276.925 169.325 274.908 167.309 272.421 167.309C269.933 167.309 267.917 169.325 267.917 171.813C267.917 174.3 269.933 176.317 272.421 176.317Z" stroke="#8F96DB" stroke-width="0.73988" stroke-miterlimit="10"/>
<path d="M432.686 344.595L435.671 364.26L447.405 355.617L432.686 344.595Z" fill="#FFDD99"/>
<path d="M137.292 323.018L145.229 314.018L131.669 314.504L137.292 323.018Z" stroke="#8F96DB" stroke-width="0.73988" stroke-miterlimit="10"/>
<path d="M149.976 345.305C151.751 345.305 153.19 343.867 153.19 342.092C153.19 340.317 151.751 338.878 149.976 338.878C148.201 338.878 146.763 340.317 146.763 342.092C146.763 343.867 148.201 345.305 149.976 345.305Z" fill="#FFDD99"/>
<path d="M156.844 207.963L149.118 224.821L172.725 221.397L156.844 207.963Z" fill="#ED725A"/>
<path d="M141.694 249.965C141.694 251.042 140.821 251.915 139.743 251.915C138.666 251.915 137.793 251.042 137.793 249.965C137.793 248.888 138.666 248.015 139.743 248.015C140.821 248.015 141.694 248.888 141.694 249.965Z" fill="#909DF4"/>
<path d="M406.399 173.076C406.399 174.153 405.526 175.026 404.449 175.026C403.372 175.026 402.499 174.153 402.499 173.076C402.499 171.999 403.372 171.126 404.449 171.126C405.526 171.126 406.399 171.999 406.399 173.076Z" fill="#ED725A"/>
<path d="M442.266 343.372C443.721 342.776 445.601 342.891 446.917 343.775C448.08 344.555 448.687 346.022 450.088 346.479C452.143 347.15 453.956 345.237 455.938 345.106C457.652 344.992 459.034 346.154 459.704 347.65C460.277 348.93 460.387 350.363 460.489 351.762" stroke="#8F96DB" stroke-width="0.73988" stroke-miterlimit="10"/>
<path d="M427.173 209.622C427.886 207.85 429.763 206.616 431.673 206.665C432.645 206.689 433.631 207.012 434.572 206.768C437.5 206.01 437.256 200.911 440.149 200.028C442.154 199.417 444.334 201.359 446.296 200.622C447.985 199.988 448.399 197.863 448.933 196.141C450.378 191.485 454.657 187.839 459.482 187.149" stroke="#8F96DB" stroke-width="0.73988" stroke-miterlimit="10"/>
<path d="M404.856 311.977C406.565 311.977 407.949 313.362 407.949 315.071V369.842C407.949 371.551 406.564 372.936 404.856 372.936H316.139C314.431 372.936 313.046 371.551 313.046 369.842V315.071C313.046 313.362 314.431 311.978 316.139 311.978H404.856M404.856 311.237H316.139C314.026 311.237 312.306 312.957 312.306 315.071V369.842C312.306 371.956 314.026 373.675 316.139 373.675H404.856C406.97 373.675 408.689 371.956 408.689 369.842V315.071C408.69 312.957 406.97 311.237 404.856 311.237Z" fill="white"/>
<path d="M404.856 372.936H316.139C314.43 372.936 313.046 371.551 313.046 369.843V320.226H407.95V369.843C407.95 371.551 406.565 372.936 404.856 372.936Z" fill="#C5B3DD"/>
<path d="M320.31 316.344C320.31 317.321 319.517 318.114 318.54 318.114C317.562 318.114 316.77 317.321 316.77 316.344C316.77 315.366 317.562 314.573 318.54 314.573C319.517 314.573 320.31 315.366 320.31 316.344Z" stroke="white" stroke-width="0.73988" stroke-miterlimit="10"/>
<path d="M327.172 316.344C327.172 317.321 326.38 318.114 325.402 318.114C324.424 318.114 323.632 317.321 323.632 316.344C323.632 315.366 324.424 314.573 325.402 314.573C326.38 314.573 327.172 315.366 327.172 316.344Z" stroke="white" stroke-width="0.73988" stroke-miterlimit="10"/>
<path d="M313.046 320.226H407.95" stroke="white" stroke-width="0.73988" stroke-miterlimit="10"/>
<path d="M394.636 361.089C389.914 355.86 384.429 353.274 381.639 353.904C377.536 354.832 378.282 365.304 378.397 369.509C376.415 367.218 373.959 365.338 371.229 364.024C369.173 363.035 366.832 362.359 364.615 362.899C362.398 363.439 360.445 365.524 360.705 367.791C355.541 360.109 348.412 353.76 340.186 349.516C334.987 346.833 320.851 341.255 318.431 347.044C315.777 353.392 330.835 372.936 330.835 372.936H403.816C403.816 372.936 398.9 365.811 394.636 361.089Z" fill="#A29DCE"/>
<path d="M303.442 305.244C300.762 302.437 298.188 297.012 297.465 294.119C296.83 291.575 296.262 288.97 295.06 286.618C294.736 285.983 293.344 284.519 293.848 283.758C294.866 282.224 297.336 284.245 297.979 285.158C298.21 285.485 299.06 286.863 299.486 286.943C299.911 287.024 300.091 285.374 300.143 284.667C300.342 281.948 300.355 278.984 300.124 276.233C299.887 273.4 300.291 270.914 301.18 270.783C302.081 270.65 302.034 271.183 302.198 271.361C302.342 270.464 303.158 269.4 303.686 269.699C304.007 269.881 304.123 270.283 304.168 270.649C304.213 271.015 304.431 271.711 304.431 271.711C304.431 271.711 304.942 269.802 305.875 270.882C306.347 271.428 307.065 274.33 307.525 275.251C307.479 274.642 307.325 274.303 307.521 273.591C307.628 273.205 307.846 272.887 308.264 273.09C308.511 273.21 308.582 273.454 308.669 273.694C309.137 274.994 310.288 277.086 310.707 278.403C311.143 279.776 311.579 281.15 312.016 282.523C312.836 285.105 313.637 287.822 314.225 290.515C314.769 293.006 316.766 299.146 316.766 299.146" fill="#A04B4B"/>
<path d="M302.173 271.515C302.411 272.992 302.951 274.876 303.248 276.55C303.672 278.951 303.864 281.175 304.227 283.289" stroke="black" stroke-width="0.493254" stroke-miterlimit="10"/>
<path d="M304.56 271.757C304.844 273.023 305.336 274.775 305.667 276.215C306.218 278.621 306.623 280.777 307.098 282.891" stroke="black" stroke-width="0.493254" stroke-miterlimit="10"/>
<path d="M307.52 275.21C308.22 277.509 309.235 280.147 310.038 283.056" stroke="black" stroke-width="0.493254" stroke-miterlimit="10"/>
<path d="M299.755 286.798C299.574 288.012 299.484 289.302 298.675 290.363" stroke="black" stroke-width="0.493254" stroke-miterlimit="10"/>
<path d="M394.122 372.936C393.173 370.4 392.158 367.736 390.731 365.411C389.304 363.086 387.439 360.959 385.059 359.502C383.991 358.848 382.836 358.337 381.684 357.829C378.587 356.461 375.49 355.093 372.393 353.725L357.192 347.795C356.251 346.922 355.311 346.049 354.372 345.175C352.557 343.484 350.746 341.789 348.95 340.077C348.881 340.012 348.812 339.946 348.743 339.881C334.984 326.747 324.751 312.073 315.811 294.949L299.754 301.991C299.754 301.991 306.699 325.656 313.298 335.702C322.014 348.973 332.096 361.044 336.651 364.866C337.464 367.596 338.395 370.291 339.45 372.936L394.122 372.936Z" fill="#FCDDD2"/>
<path d="M302.341 310.131L319.564 301.85" stroke="black" stroke-width="0.493254" stroke-miterlimit="10"/>
<path d="M303.2 300.48L309.007 313.081" stroke="black" stroke-width="0.493254" stroke-miterlimit="10"/>
<path d="M308.657 303.128C308.657 303.756 308.148 304.266 307.519 304.266C306.891 304.266 306.382 303.757 306.382 303.128C306.382 302.5 306.891 301.991 307.519 301.991C308.147 301.991 308.657 302.5 308.657 303.128Z" stroke="#D8A798" stroke-width="0.493254" stroke-miterlimit="10"/>
<path d="M370.723 372.599C371.515 371.568 372.307 370.536 373.099 369.505C373.953 368.392 374.81 367.277 375.774 366.258C378.589 363.284 382.387 361.168 386.458 360.727" stroke="#D8A798" stroke-width="0.493254" stroke-miterlimit="10"/>
<path d="M336.175 363.386C336.175 359.271 337.549 355.187 339.916 351.833C342.898 347.608 347.285 344.574 352.588 344.423" stroke="#D8A798" stroke-width="0.493254" stroke-miterlimit="10"/>
<path d="M336.581 364.705C335.822 362.444 335.386 359.908 334.184 357.828" stroke="black" stroke-width="0.493254" stroke-miterlimit="10"/>
<path d="M352.354 346.11L351.352 358.741C351.352 358.741 355.597 363.065 361.435 360.249C367.273 357.433 371.531 352.076 371.531 352.076L369.622 344.247" fill="#A04B4B"/>
<path d="M375.557 330.372C374.967 328.526 373.861 326.84 372.373 325.622C368.793 322.691 364.855 322.771 361.01 325.03C357.668 326.993 353.081 330.092 350.533 333.056C347.902 336.117 346.142 339.922 348.828 343.5C353.151 349.258 365.274 347.306 371.057 342.584C373.412 340.661 375.635 337.54 375.983 334.465C376.137 333.094 375.979 331.693 375.557 330.372Z" fill="#A04B4B"/>
<path d="M360.266 326.638C358.339 327.618 356.23 327.879 354.119 328.129C353.105 328.249 351.763 328.589 351.946 329.921C352.065 330.78 352.812 331.519 353.434 332.044" fill="#A04B4B"/>
<path d="M351.862 339.75C351.862 339.75 352.213 338.962 352.388 338.567C352.724 337.806 351.63 337.293 351.109 337.031C350.73 336.84 350.53 336.671 350.153 336.919C350.056 336.983 349.506 337.515 349.388 337.418C349.381 337.413 348.37 336.235 348.37 336.235C347.583 337.463 347.078 339.795 347.19 341.178C347.302 342.561 347.837 343.937 348.826 344.91C349.223 345.301 349.845 345.865 350.323 346.152C354.303 348.546 359.266 348.364 363.594 346.681C364.931 346.161 366.233 345.467 367.207 344.414C353.955 344.222 351.862 339.75 351.862 339.75Z" fill="#1E1611"/>
<path d="M367.667 338.865C367.608 338.852 367.549 338.841 367.491 338.831C366.606 338.685 365.731 338.815 364.859 338.528C364.156 338.297 363.503 337.861 363.117 337.23C362.661 336.485 363.287 336.051 363.894 335.716C364.791 335.22 365.666 334.664 366.397 333.944C367.597 332.761 368.23 331.065 367.709 329.413C367.144 327.622 365.38 326.57 364.011 325.434C362.692 324.34 361.007 322.636 361.563 320.739C362.12 318.835 363.96 318.141 365.776 318.41C366.752 318.555 367.734 318.828 368.708 318.676C369.203 318.599 369.674 318.415 370.163 318.305C371.663 317.968 373.393 318.449 374.287 319.7C374.931 320.602 375.18 321.88 376.173 322.372C376.651 322.608 377.208 322.603 377.727 322.726C378.782 322.974 379.673 323.776 380.103 324.771C380.532 325.766 380.514 326.929 380.129 327.942C379.436 329.763 378.399 330.675 379.25 332.684C381.227 337.348 382.057 343.075 377.336 346.429C376.094 347.311 374.538 347.767 373.505 348.886C372.86 349.584 372.334 350.579 371.389 350.679C370.754 350.747 370.156 350.355 369.721 349.888C369.331 349.468 369.025 348.98 368.722 348.494C368.303 347.821 367.877 347.117 367.791 346.329C367.668 345.204 368.252 344.139 368.782 343.139C369.282 342.197 370.288 340.244 369.098 339.465C368.688 339.196 368.162 338.973 367.667 338.865Z" fill="#1E1611"/>
<path d="M364.752 328.675C364.455 327.772 363.911 326.875 363.075 327.282C362.865 327.384 362.743 327.614 362.711 327.845C362.678 328.075 362.72 328.308 362.762 328.537C362.959 329.607 363.168 330.707 363.747 331.628C363.864 331.814 364.003 331.997 364.2 332.096C365.512 332.755 364.921 329.191 364.752 328.675Z" fill="#1E1611"/>
<path d="M356.462 334.782L352.75 333.941C352.75 333.941 352.386 337.124 353.964 337.44C355.541 337.756 356.462 334.782 356.462 334.782Z" fill="white"/>
<path d="M352.526 331.046C352.834 331.446 353.253 331.76 353.723 331.944" stroke="black" stroke-width="0.493254" stroke-miterlimit="10"/>
<path d="M356.627 327.78C358.02 327.577 359.375 327.111 360.599 326.414" stroke="black" stroke-width="0.493254" stroke-miterlimit="10"/>
<path d="M366.803 338.994C368.172 337.963 370.657 338.951 371.167 340.485C372.394 344.172 366.482 347.25 363.889 344.966C363.155 344.319 362.6 343 363.246 342.06" fill="#A04B4B"/>
<path d="M369.035 342.498L364.854 341.785" stroke="black" stroke-width="0.493254" stroke-miterlimit="10"/>
<path d="M369.461 338.958C368.626 338.641 367.686 338.59 366.802 338.815" stroke="black" stroke-width="0.493254" stroke-miterlimit="10"/>
<path d="M363.34 342.099C362.873 342.897 363.012 343.879 363.52 344.621C364.445 345.972 366.681 345.978 368.031 345.4" stroke="black" stroke-width="0.493254" stroke-miterlimit="10"/>
<path d="M360.864 331.732C360.335 332.115 359.684 332.118 359.41 331.74C359.136 331.361 359.342 330.744 359.872 330.361C360.401 329.978 361.052 329.975 361.326 330.353C361.599 330.732 361.393 331.349 360.864 331.732Z" fill="black"/>
<path d="M373.592 351.664C360.266 353.244 352.108 359.345 352.108 359.345L354.426 369.933C366.344 358.601 377.939 356.044 378.055 355.922L373.592 351.664Z" fill="#FCDDD2"/>
<path d="M351.722 352.581L346.704 355.803C346.704 355.803 345.841 364.807 347.488 369.596L352.109 359.345L351.722 352.581Z" fill="#FCDDD2"/>
<path d="M352.108 359.345L354.426 369.933C366.344 358.601 377.939 356.044 378.055 355.922" stroke="black" stroke-width="0.493254" stroke-miterlimit="10"/>
<path d="M351.722 352.581L346.704 355.803C346.704 355.803 345.841 364.807 347.488 369.596L352.109 359.345" stroke="black" stroke-width="0.493254" stroke-miterlimit="10"/>
<path d="M302.27 323.953C303.616 328.741 305.611 333.345 308.184 337.601" stroke="black" stroke-width="0.493254" stroke-miterlimit="10"/>
<path d="M302.709 332.177C303.555 335.255 304.569 338.286 305.745 341.254" stroke="black" stroke-width="0.493254" stroke-miterlimit="10"/>
<path d="M384.982 338.63C385.054 340.823 384.201 342.981 382.895 344.745C381.59 346.509 379.852 347.912 378.018 349.117" stroke="black" stroke-width="0.493254" stroke-miterlimit="10"/>
<path d="M383.489 349.04C385.326 347.998 386.893 346.485 388 344.686" stroke="black" stroke-width="0.493254" stroke-miterlimit="10"/>
</g>
<defs>
<filter id="filter0_d_321_2146" x="69.6689" y="61.6277" width="452" height="429" filterUnits="userSpaceOnUse" color-interpolation-filters="sRGB">
<feFlood flood-opacity="0" result="BackgroundImageFix"/>
<feColorMatrix in="SourceAlpha" type="matrix" values="0 0 0 0 0 0 0 0 0 0 0 0 0 0 0 0 0 0 127 0" result="hardAlpha"/>
<feOffset dy="14"/>
<feGaussianBlur stdDeviation="25.5"/>
<feColorMatrix type="matrix" values="0 0 0 0 0 0 0 0 0 0 0 0 0 0 0 0 0 0 0.031 0"/>
<feBlend mode="normal" in2="BackgroundImageFix" result="effect1_dropShadow_321_2146"/>
<feBlend mode="normal" in="SourceGraphic" in2="effect1_dropShadow_321_2146" result="shape"/>
</filter>
<linearGradient id="paint0_linear_321_2146" x1="294" y1="500" x2="294" y2="0" gradientUnits="userSpaceOnUse">
<stop stop-color="white"/>
<stop offset="1" stop-color="#E9FAFF"/>
</linearGradient>
<clipPath id="clip0_321_2146">
<rect width="588" height="527" fill="white"/>
</clipPath>
</defs>
</svg>
