<svg width="588" height="527" viewBox="0 0 588 527" fill="none" xmlns="http://www.w3.org/2000/svg">
<g clip-path="url(#clip0_321_2154)">
<path d="M8 500L580 500C584.418 500 588 496.418 588 492L588 8C588 3.58173 584.418 0 580 0L8 0C3.58173 0 0 3.58173 0 8L0 492C0 496.418 3.58173 500 8 500Z" fill="url(#paint0_linear_321_2154)"/>
<path d="M124.331 74H464.774C466.1 74 467.372 74.5268 468.309 75.4645C469.247 76.4021 469.774 77.6739 469.774 79V99.176H119.331V79C119.331 77.6739 119.857 76.4021 120.795 75.4645C121.733 74.5268 123.005 74 124.331 74Z" fill="#181C31"/>
<g filter="url(#filter0_d_321_2154)">
<path d="M119 98.6277H469V420.847C469 422.115 468.474 423.331 467.537 424.227C466.601 425.124 465.331 425.627 464.007 425.627H123.993C122.669 425.627 121.399 425.124 120.462 424.227C119.526 423.331 119 422.115 119 420.847V98.6277Z" fill="#292E45"/>
</g>
<path d="M158.15 89.398C159.509 89.398 160.61 88.2689 160.61 86.876C160.61 85.4831 159.509 84.354 158.15 84.354C156.791 84.354 155.69 85.4831 155.69 86.876C155.69 88.2689 156.791 89.398 158.15 89.398Z" fill="#77F28A"/>
<path d="M140.17 89.398C141.529 89.398 142.63 88.2689 142.63 86.876C142.63 85.4831 141.529 84.354 140.17 84.354C138.811 84.354 137.71 85.4831 137.71 86.876C137.71 88.2689 138.811 89.398 140.17 89.398Z" fill="#EF5C00"/>
<path d="M148.977 89.398C150.335 89.398 151.437 88.2689 151.437 86.876C151.437 85.4831 150.335 84.354 148.977 84.354C147.618 84.354 146.517 85.4831 146.517 86.876C146.517 88.2689 147.618 89.398 148.977 89.398Z" fill="#FFDB26"/>
<g clip-path="url(#clip1_321_2154)">
<path d="M408.381 169.886H382.085V219.459H408.381V169.886Z" fill="#E6E6E6"/>
<path d="M407.09 169.887H376.202V219.459H407.09V169.887Z" fill="#F0F0F0"/>
<path d="M402.381 174.29H380.897V215.055H402.381V174.29Z" fill="white"/>
<path d="M396.083 186.448H387.73V202.292H396.083V186.448Z" fill="#EBEBEB"/>
<path d="M202.637 169.886H176.342V219.459H202.637V169.886Z" fill="#E6E6E6"/>
<path d="M201.348 169.887H170.459V219.459H201.348V169.887Z" fill="#F0F0F0"/>
<path d="M196.638 174.29H175.154V215.055H196.638V174.29Z" fill="white"/>
<path d="M190.34 186.448H181.987V202.292H190.34V186.448Z" fill="#EBEBEB"/>
<path d="M431.163 289.025H347.417C345.92 289.025 344.701 287.807 344.701 286.309V164.326C344.701 162.828 345.92 161.61 347.417 161.61H431.163C432.66 161.61 433.879 162.828 433.879 164.326V286.309C433.879 287.807 432.66 289.025 431.163 289.025ZM347.417 161.726C345.983 161.726 344.817 162.892 344.817 164.326V286.309C344.817 287.743 345.984 288.909 347.417 288.909H431.163C432.597 288.909 433.763 287.743 433.763 286.309V164.326C433.763 162.892 432.596 161.726 431.163 161.726H347.417Z" fill="#E0E0E0"/>
<path d="M334.592 289.025H250.846C249.348 289.025 248.13 287.807 248.13 286.309V164.326C248.13 162.828 249.348 161.61 250.846 161.61H334.592C336.09 161.61 337.308 162.828 337.308 164.326V286.309C337.308 287.807 336.089 289.025 334.592 289.025ZM250.846 161.726C249.412 161.726 248.246 162.892 248.246 164.326V286.309C248.246 287.743 249.412 288.909 250.846 288.909H334.592C336.026 288.909 337.192 287.743 337.192 286.309V164.326C337.192 162.892 336.026 161.726 334.592 161.726H250.846Z" fill="#E0E0E0"/>
<path d="M238.082 289.025H154.337C152.839 289.025 151.621 287.806 151.621 286.309V164.326C151.621 162.828 152.839 161.61 154.337 161.61H238.082C239.58 161.61 240.798 162.828 240.798 164.326V286.309C240.799 287.807 239.58 289.025 238.082 289.025ZM154.337 161.726C152.903 161.726 151.736 162.892 151.736 164.326V286.309C151.736 287.743 152.903 288.909 154.337 288.909H238.082C239.516 288.909 240.683 287.743 240.683 286.309V164.326C240.683 162.892 239.516 161.726 238.082 161.726H154.337Z" fill="#E0E0E0"/>
<path d="M466.5 317.321H119V317.376H466.5V317.321Z" fill="#E0E0E0"/>
<path d="M447.667 330.931H421.846V331.126H447.667V330.931Z" fill="#EBEBEB"/>
<path d="M355.147 333.047H348.37V333.242H355.147V333.047Z" fill="#EBEBEB"/>
<path d="M171.504 325.002H137.832V325.197H171.504V325.002Z" fill="#EBEBEB"/>
<path d="M183.382 325.002H178.445V325.197H183.382V325.002Z" fill="#EBEBEB"/>
<path d="M272.456 328.294H199.428V328.489H272.456V328.294Z" fill="#EBEBEB"/>
<path d="M229.496 191.214C228.334 192.983 227.553 194.926 227.137 196.93L223.945 197.231L223.945 203.412L227.137 203.712C227.552 205.716 228.334 207.659 229.496 209.428L227.457 211.89L231.828 216.261L234.29 214.223C236.059 215.384 238.001 216.165 240.005 216.581L240.305 219.773L246.486 219.772L246.787 216.581C248.791 216.165 250.733 215.384 252.502 214.222L254.965 216.26L259.335 211.89L257.297 209.428C258.458 207.659 259.239 205.716 259.655 203.712L262.847 203.412L262.847 197.231L259.656 196.93C259.24 194.927 258.458 192.984 257.297 191.215L259.335 188.753L254.965 184.383L252.502 186.421C250.733 185.259 248.791 184.478 246.787 184.062L246.486 180.87L240.306 180.871L240.005 184.062C238.002 184.478 236.059 185.259 234.29 186.421L231.828 184.382L227.457 188.753L229.496 191.214ZM249.313 194.404C252.581 197.672 252.581 202.97 249.313 206.238C246.045 209.506 240.747 209.505 237.48 206.238C234.212 202.97 234.212 197.672 237.48 194.404C240.747 191.137 246.045 191.137 249.313 194.404Z" fill="#EBEBEB"/>
<path d="M241.556 265.773C240.976 266.657 240.586 267.628 240.377 268.629L238.782 268.78V271.869L240.377 272.019C240.586 273.02 240.976 273.991 241.556 274.875L240.537 276.106L242.722 278.29L243.953 277.272C244.837 277.852 245.808 278.243 246.809 278.45L246.959 280.046H250.048L250.198 278.451C251.2 278.243 252.171 277.852 253.055 277.272L254.285 278.291L256.47 276.106L255.451 274.876C256.032 273.992 256.422 273.021 256.63 272.019L258.225 271.869V268.78L256.629 268.63C256.421 267.629 256.031 266.658 255.451 265.774L256.47 264.543L254.285 262.359L253.054 263.378C252.17 262.797 251.199 262.406 250.198 262.199L250.048 260.604H246.959L246.809 262.199C245.807 262.407 244.836 262.797 243.952 263.378L242.721 262.359L240.537 264.543L241.556 265.773ZM251.461 267.367C253.094 269.001 253.094 271.649 251.461 273.281C249.828 274.915 247.18 274.915 245.547 273.281C243.914 271.648 243.914 269.001 245.547 267.367C247.18 265.734 249.828 265.734 251.461 267.367Z" fill="#EBEBEB"/>
<path d="M153.499 233.529C152.582 234.925 151.965 236.459 151.637 238.041L149.117 238.278V243.157L151.637 243.395C151.965 244.976 152.582 246.51 153.498 247.906L151.889 249.85L155.34 253.3L157.283 251.691C158.68 252.608 160.214 253.225 161.795 253.553L162.032 256.072L166.912 256.072L167.149 253.553C168.731 253.224 170.264 252.607 171.661 251.691L173.604 253.3L177.055 249.85L175.446 247.906C176.362 246.51 176.979 244.976 177.307 243.395L179.826 243.157L179.827 238.278L177.307 238.04C176.979 236.459 176.362 234.925 175.445 233.529L177.054 231.585L173.604 228.135L171.661 229.744C170.264 228.827 168.731 228.211 167.149 227.882L166.912 225.363H162.033L161.795 227.882C160.214 228.211 158.68 228.827 157.284 229.744L155.34 228.135L151.89 231.585L153.499 233.529ZM169.143 236.047C171.722 238.626 171.722 242.809 169.143 245.388C166.563 247.968 162.381 247.968 159.802 245.388C157.222 242.809 157.222 238.627 159.802 236.047C162.381 233.468 166.563 233.468 169.143 236.047Z" fill="#EBEBEB"/>
<path d="M418.726 223.559C418.296 224.212 418.008 224.931 417.854 225.671L416.675 225.782V228.066L417.854 228.177C418.008 228.917 418.296 229.635 418.726 230.289L417.972 231.198L419.587 232.813L420.496 232.06C421.15 232.489 421.868 232.778 422.608 232.931L422.719 234.11H425.003L425.114 232.931C425.854 232.777 426.572 232.489 427.226 232.06L428.135 232.812L429.75 231.198L428.997 230.288C429.426 229.634 429.715 228.917 429.869 228.176L431.048 228.065V225.781L429.869 225.67C429.715 224.93 429.426 224.212 428.997 223.559L429.75 222.649L428.135 221.034L427.226 221.787C426.572 221.358 425.854 221.07 425.114 220.916L425.003 219.737H422.719L422.608 220.916C421.868 221.07 421.15 221.358 420.497 221.787L419.587 221.034L417.972 222.649L418.726 223.559ZM426.048 224.737C427.255 225.945 427.255 227.902 426.048 229.109C424.84 230.317 422.883 230.317 421.676 229.109C420.468 227.902 420.469 225.945 421.676 224.737C422.883 223.53 424.84 223.53 426.048 224.737Z" fill="#EBEBEB"/>
<path d="M331.643 194.997C331.213 195.651 330.925 196.369 330.771 197.109L329.592 197.22V199.504L330.771 199.615C330.925 200.355 331.213 201.073 331.643 201.727L330.889 202.636L332.504 204.251L333.413 203.498C334.067 203.927 334.785 204.215 335.525 204.369L335.636 205.549H337.92L338.031 204.369C338.771 204.215 339.489 203.927 340.143 203.498L341.052 204.251L342.667 202.636L341.914 201.727C342.343 201.073 342.632 200.355 342.786 199.616L343.965 199.504V197.221L342.786 197.109C342.632 196.369 342.343 195.651 341.914 194.998L342.667 194.088L341.052 192.473L340.143 193.227C339.489 192.798 338.771 192.509 338.031 192.355L337.92 191.176H335.636L335.525 192.355C334.785 192.509 334.067 192.797 333.414 193.227L332.504 192.473L330.889 194.088L331.643 194.997ZM338.964 196.176C340.171 197.384 340.172 199.341 338.964 200.548C337.757 201.756 335.799 201.756 334.592 200.548C333.385 199.341 333.385 197.384 334.592 196.176C335.8 194.969 337.757 194.969 338.964 196.176Z" fill="#F5F5F5"/>
<path d="M178.805 260.542C178.376 261.195 178.087 261.913 177.934 262.654L176.754 262.765V265.049L177.934 265.16C178.087 265.9 178.376 266.618 178.805 267.272L178.052 268.181L179.666 269.796L180.576 269.043C181.23 269.472 181.947 269.76 182.687 269.914L182.799 271.093H185.082L185.194 269.914C185.934 269.76 186.652 269.472 187.305 269.043L188.215 269.796L189.83 268.181L189.076 267.271C189.505 266.618 189.794 265.9 189.948 265.16L191.127 265.049V262.765L189.948 262.654C189.794 261.913 189.505 261.196 189.076 260.542L189.83 259.632L188.215 258.018L187.305 258.771C186.652 258.342 185.934 258.053 185.194 257.899L185.083 256.72H182.799L182.688 257.899C181.947 258.053 181.23 258.341 180.576 258.771L179.666 258.017L178.052 259.632L178.805 260.542ZM186.127 261.721C187.334 262.928 187.335 264.886 186.127 266.093C184.92 267.3 182.962 267.3 181.755 266.093C180.548 264.885 180.548 262.928 181.755 261.721C182.962 260.514 184.92 260.513 186.127 261.721Z" fill="#F5F5F5"/>
<path d="M385.415 232.77C384.677 233.893 384.181 235.126 383.917 236.399L381.891 236.59V240.515L383.918 240.706C384.182 241.978 384.678 243.211 385.415 244.335L384.121 245.898L386.896 248.674L388.459 247.379C389.582 248.117 390.816 248.613 392.089 248.877L392.279 250.903L396.204 250.903L396.395 248.877C397.668 248.613 398.901 248.116 400.025 247.379L401.588 248.674L404.363 245.898L403.069 244.335C403.806 243.212 404.302 241.978 404.566 240.706L406.592 240.515L406.593 236.59L404.566 236.399C404.302 235.127 403.806 233.893 403.068 232.77L404.363 231.207L401.587 228.432L400.024 229.726C398.901 228.988 397.667 228.492 396.395 228.228L396.204 226.202H392.279L392.088 228.228C390.816 228.492 389.582 228.988 388.459 229.726L386.896 228.431L384.121 231.206L385.415 232.77ZM397.998 234.795C400.073 236.87 400.073 240.235 397.998 242.309C395.923 244.384 392.559 244.384 390.485 242.309C388.41 240.235 388.41 236.871 390.485 234.795C392.559 232.721 395.923 232.721 397.998 234.795Z" fill="#EBEBEB"/>
<path d="M307.41 254.775C306.667 255.907 306.167 257.15 305.901 258.433L303.858 258.625V262.581L305.901 262.773C306.167 264.055 306.667 265.298 307.411 266.43L306.106 268.006L308.903 270.803L310.479 269.499C311.61 270.242 312.854 270.742 314.136 271.008L314.328 273.051L318.284 273.05L318.476 271.008C319.759 270.741 321.002 270.241 322.134 269.498L323.709 270.803L326.507 268.006L325.202 266.43C325.945 265.298 326.445 264.055 326.711 262.772L328.754 262.58L328.754 258.625L326.712 258.432C326.445 257.15 325.945 255.907 325.202 254.775L326.507 253.199L323.71 250.402L322.134 251.707C321.002 250.964 319.759 250.463 318.477 250.197L318.284 248.155H314.329L314.137 250.197C312.854 250.464 311.611 250.963 310.479 251.707L308.903 250.402L306.106 253.199L307.41 254.775ZM320.092 256.816C322.183 258.907 322.183 262.298 320.092 264.389C318.001 266.48 314.611 266.48 312.519 264.389C310.428 262.298 310.428 258.908 312.519 256.816C314.611 254.726 318.001 254.725 320.092 256.816Z" fill="#EBEBEB"/>
<path d="M319.003 292.057C317.755 293.957 316.917 296.043 316.47 298.195L313.042 298.518L313.042 305.156L316.47 305.479C316.916 307.631 317.755 309.717 319.003 311.617L316.813 314.261L321.507 318.954L324.151 316.765C326.051 318.012 328.137 318.852 330.289 319.298L330.612 322.725L337.25 322.725L337.573 319.298C339.725 318.851 341.811 318.012 343.711 316.765L346.355 318.954L351.049 314.26L348.86 311.616C350.107 309.716 350.946 307.63 351.393 305.478L354.82 305.155L354.82 298.518L351.393 298.195C350.946 296.043 350.107 293.957 348.86 292.057L351.049 289.413L346.356 284.72L343.711 286.909C341.811 285.662 339.725 284.822 337.574 284.376L337.251 280.948L330.613 280.949L330.29 284.376C328.138 284.823 326.052 285.662 324.152 286.909L321.508 284.72L316.814 289.414L319.003 292.057ZM340.285 295.483C343.794 298.992 343.794 304.682 340.285 308.191C336.776 311.7 331.086 311.7 327.577 308.191C324.067 304.681 324.068 298.992 327.577 295.482C331.086 291.975 336.776 291.974 340.285 295.483Z" fill="#EBEBEB"/>
<path d="M443.571 347.431C443.571 349.001 378.12 350.272 297.383 350.272C216.646 350.272 151.195 349.001 151.195 347.431C151.195 345.862 216.646 344.59 297.383 344.59C378.12 344.59 443.571 345.862 443.571 347.431Z" fill="#F5F5F5"/>
<path d="M173.247 266.701C164.798 276.584 162.33 291.214 167.07 303.322C172.337 298.622 176.045 291.457 176.28 285.191C176.514 278.925 174.874 272.757 173.247 266.701Z" fill="#407BFF"/>
<path d="M171.773 304.464C168.906 308.857 167.534 314.207 167.932 319.437C172.499 317.847 176.526 312.687 178.94 308.496C181.354 304.305 182.704 299.598 183.932 294.92C178.984 296.662 174.64 300.071 171.773 304.464Z" fill="#407BFF"/>
<path d="M170.719 283.961C167.325 296.159 165.596 308.812 165.606 321.474C165.609 325.077 165.755 328.678 166.036 332.269C166.054 332.491 166.402 332.493 166.384 332.269C165.394 319.64 166.129 306.886 168.581 294.456C169.271 290.958 170.099 287.488 171.055 284.053C171.115 283.837 170.78 283.745 170.719 283.961Z" fill="#263238"/>
<path d="M166.131 323.569C169.599 315.314 174.158 307.581 179.428 300.352C179.56 300.171 179.258 299.998 179.127 300.177C175.002 305.836 171.296 311.801 168.228 318.1C167.367 319.869 166.558 321.663 165.796 323.477C165.71 323.683 166.046 323.773 166.131 323.569Z" fill="#263238"/>
<path d="M161.213 311.309C163.604 314.972 164.748 319.432 164.416 323.794C160.608 322.468 157.25 318.166 155.237 314.671C153.224 311.177 152.099 307.252 151.075 303.351C155.2 304.803 158.823 307.646 161.213 311.309Z" fill="#407BFF"/>
<path d="M166.028 326.684C163.184 319.917 159.425 313.644 155.106 307.72C154.975 307.541 154.674 307.714 154.806 307.895C159.105 313.792 162.861 320.039 165.693 326.776C165.778 326.98 166.115 326.89 166.028 326.684Z" fill="#263238"/>
<path d="M166.162 328.932C171.536 323.402 177.025 317.984 182.399 312.455C182.555 312.294 182.31 312.048 182.154 312.209C176.779 317.739 171.291 323.157 165.916 328.686C165.76 328.847 166.005 329.093 166.162 328.932Z" fill="#263238"/>
<path d="M182.601 309.914C177.938 314.411 173.69 319.338 169.927 324.612H170.78C174.329 324.445 177.775 322.694 180.002 319.925C182.228 317.157 183.199 313.416 182.601 309.914Z" fill="#407BFF"/>
<path d="M160.528 299.189C162.53 302.464 164.416 305.807 166.184 309.214C166.286 309.413 166.587 309.237 166.484 309.038C164.717 305.631 162.83 302.288 160.828 299.014C160.711 298.823 160.41 298.997 160.528 299.189Z" fill="#263238"/>
<path d="M155.699 282.657C154.935 286.092 154.178 290.558 154.17 294.134C154.163 297.711 155.254 301.2 157.286 303.597C159.319 305.994 163.421 307.043 165.075 305.672L155.699 282.657Z" fill="#407BFF"/>
<path d="M175.964 330.528H155.594V334.304H175.964V330.528Z" fill="#263238"/>
<path d="M172.665 347.753H160.016L157.718 333.439H174.481L172.665 347.753Z" fill="#263238"/>
<path opacity="0.2" d="M157.868 334.374H174.363L174.158 335.994H158.129L157.868 334.374Z" fill="black"/>
<path d="M413.297 248.943C418.444 246 425.001 247.786 427.943 252.933C430.886 258.079 429.099 264.636 423.953 267.578C419.981 269.85 415.173 269.293 411.831 266.558L408.646 267.059L409.404 263.737C409.373 263.686 409.337 263.64 409.308 263.587C406.365 258.443 408.152 251.885 413.297 248.943Z" fill="#407BFF"/>
<path d="M415.204 246.564C411.778 247.223 408.762 249.721 407.474 252.964" stroke="#407BFF" stroke-width="0.231667" stroke-miterlimit="10" stroke-linecap="round" stroke-linejoin="round"/>
<path d="M406.936 254.473C406.704 254.951 406.572 255.479 406.55 256.011" stroke="#407BFF" stroke-width="0.231667" stroke-miterlimit="10" stroke-linecap="round" stroke-linejoin="round"/>
<path d="M417.367 262.317L412.837 258.183L414.28 256.602L417.318 259.374L422.366 254.445L423.861 255.976L417.367 262.317Z" fill="white"/>
<path d="M302.747 180.406C308.153 177.264 315.083 179.1 318.224 184.507C321.366 189.913 319.53 196.843 314.123 199.984C309.95 202.409 304.875 201.858 301.329 198.997L297.974 199.549L298.749 196.041C298.716 195.986 298.678 195.938 298.646 195.883C295.505 190.477 297.341 183.547 302.747 180.406Z" fill="#407BFF"/>
<path d="M318.244 181.901C316.045 178.949 312.289 177.23 308.618 177.495" stroke="#407BFF" stroke-width="0.231667" stroke-miterlimit="10" stroke-linecap="round" stroke-linejoin="round"/>
<path d="M306.939 177.676C306.377 177.675 305.816 177.791 305.301 178.015" stroke="#407BFF" stroke-width="0.231667" stroke-miterlimit="10" stroke-linecap="round" stroke-linejoin="round"/>
<path d="M313.345 188.567H302.769V191.211H313.345V188.567Z" fill="white"/>
<path d="M312.367 192.65V187.308L314.972 189.98L312.367 192.65Z" fill="white"/>
<path d="M372.016 247.654C372.016 247.654 371.734 252.506 369.365 261.011C367.878 266.266 366.073 271.426 363.962 276.462C362.78 279.308 361.423 282.328 359.866 285.505C359.165 286.949 358.415 288.419 357.627 289.926C356.72 315.664 342.275 341.828 342.275 341.828C341.475 342.24 338.68 341.79 338.698 340.977C340.837 337.582 345.046 304.602 347.759 288.957C347.928 286.83 348.172 284.58 348.472 282.197C349.266 275.881 350.442 269.015 351.598 262.975C353.393 253.457 355.1 245.997 355.1 245.997L359.859 246.46L372.016 247.654Z" fill="#EEC1BB"/>
<path d="M342.119 347.38H341.306L341.075 346.355L338.324 347.605H331.351C331.351 347.605 330.244 346.493 333.559 345.611C333.72 345.564 333.877 345.504 334.028 345.43C335.797 344.598 338.311 341.797 338.311 341.797H342.132C342.25 341.974 342.355 342.16 342.444 342.353C342.863 343.178 343.582 344.967 342.119 347.38Z" fill="#263238"/>
<path d="M342.445 342.34C341.944 341.777 339.649 344.247 337.968 345.091C336.467 345.836 334.778 346.167 334.028 345.41C335.797 344.579 338.949 340.687 338.949 340.687L341.651 340.958C341.651 340.958 342.27 341.978 342.445 342.34Z" fill="#EEC1BB"/>
<path d="M377.694 283.285C377.31 286.053 376.816 289.015 376.212 292.171C381.371 309.386 370.759 342.984 370.759 342.984C368.964 343.341 367.376 343.11 366.569 342.503C368.571 332.379 367.132 306.059 365.575 290.332C365.437 288.906 365.262 287.337 365.075 285.661C364.756 282.822 364.374 279.695 363.968 276.462C363.28 271.053 362.511 265.363 361.817 260.317C360.966 254.22 360.228 249.061 359.847 246.466C359.69 245.328 359.597 244.684 359.597 244.684L374.492 246.297C374.492 246.297 378.282 250.543 378.869 263.806C379.064 270.321 378.67 276.84 377.694 283.285Z" fill="#EEC1BB"/>
<path d="M371.128 347.381H370.297L370.065 346.355L367.32 347.606H360.354C360.354 347.606 359.247 346.493 362.567 345.611C362.729 345.565 362.886 345.505 363.036 345.43C364.8 344.598 367.32 341.797 367.32 341.797H371.14C371.255 341.976 371.36 342.162 371.453 342.354C371.872 343.179 372.573 344.967 371.128 347.381Z" fill="#263238"/>
<path d="M371.454 342.34C370.947 341.778 368.652 344.248 366.97 345.092C365.469 345.836 363.781 346.167 363.037 345.411C364.8 344.579 367.583 340.958 367.583 340.958H370.653C370.653 340.958 371.272 341.978 371.454 342.34Z" fill="#EEC1BB"/>
<path d="M381.606 210.252C380.841 209.591 379.605 209.844 378.553 209.721C376.956 209.533 375.67 208.379 374.983 207.071C374.295 205.762 374.095 204.297 373.851 202.867C373.606 201.437 373.29 199.972 372.413 198.758C371.536 197.544 369.425 196.039 367.891 196.959L365.836 200.143C367.069 203.873 368.072 207.665 368.838 211.494C369.18 213.204 369.52 215.013 370.761 216.345C371.977 217.65 373.903 218.286 375.792 218.408C376.749 218.47 377.74 218.409 378.615 218.053C379.49 217.698 380.235 217.012 380.43 216.166C380.623 215.321 380.158 214.346 379.268 214.022C380.127 213.659 381.021 213.272 381.594 212.591C382.166 211.91 382.29 210.843 381.606 210.252Z" fill="#263238"/>
<path d="M352.179 194.407C349.83 196.68 349.534 199.384 349.907 201.235C350.695 203.683 351.889 205.3 353.01 207.615L356.987 191.723C355.49 192.314 354.732 192.123 352.179 194.407Z" fill="#263238"/>
<path d="M359.261 191.63C363.845 191.723 368.448 195.556 368.808 199.275C369.169 202.995 365.51 207.794 364.824 208.089L362.653 208.887C362.653 208.887 365.048 203.349 364.054 201.87C363.06 200.39 362.339 200.374 362.339 200.374L359.261 191.63Z" fill="#263238"/>
<path d="M355.369 192.511C357.753 190.825 360.571 191.789 362.242 192.511C364.125 193.598 365.454 195.438 365.893 197.568C366.257 199.567 366.699 201.991 365.676 203.254C365.107 203.982 364.259 204.436 363.338 204.507L351.788 197.183C352.565 195.347 353.797 193.739 355.369 192.511Z" fill="#263238"/>
<path d="M360.028 219.592C360.931 220.238 361.578 219.85 362.517 219.25C368.159 215.978 365.841 213.389 365.841 213.389C364.451 212.253 364.108 210.655 364.079 208.128C364.074 208.055 364.064 207.982 364.049 207.911C363.985 207.585 363.822 207.286 363.582 207.056C362.943 206.41 361.901 206.404 361.255 207.043L361.253 207.045L358.691 208.31C358.691 208.348 358.69 208.387 358.689 208.431C358.926 209.772 359.154 210.806 359.293 211.626C359.292 211.727 359.329 211.829 359.341 211.925C359.339 212.026 359.367 212.133 359.384 212.229C359.524 213.363 357.927 215.355 357.225 215.886C356.805 216.24 356.967 217.418 360.028 219.592Z" fill="#EEC1BB"/>
<path opacity="0.2" d="M358.696 208.271C358.702 208.313 358.701 208.355 358.694 208.396C358.931 209.738 359.158 210.772 359.298 211.592C359.321 211.69 359.337 211.79 359.346 211.891C359.359 211.997 359.365 212.103 359.364 212.209C361.317 211.276 362.936 209.767 364.005 207.886C363.944 207.564 363.79 207.267 363.563 207.031C362.93 206.379 361.889 206.361 361.234 206.991L358.696 208.271Z" fill="black"/>
<path d="M364.428 198.414C365.166 203.056 365.58 204.997 363.842 207.907C361.221 212.279 355.5 212.283 353.399 207.978C351.541 204.097 350.625 197.177 354.597 194.261C358.568 191.346 363.685 193.768 364.428 198.414Z" fill="#EEC1BB"/>
<path d="M367.196 202C366.91 203.084 366.193 203.909 365.443 204.329C364.317 204.959 363.165 203.185 363.25 201.861C363.326 200.67 364.319 199.626 365.56 199.545C366.782 199.466 367.523 200.762 367.196 202Z" fill="#EEC1BB"/>
<path opacity="0.2" d="M364.575 202.449C364.486 202.009 364.579 201.535 364.828 201.16C365.077 200.786 365.477 200.516 365.917 200.426" stroke="black" stroke-width="0.231667" stroke-miterlimit="10" stroke-linecap="round" stroke-linejoin="round"/>
<path d="M358.767 201.501C358.876 201.991 358.722 202.459 358.423 202.546C358.124 202.634 357.794 202.308 357.686 201.819C357.577 201.329 357.731 200.862 358.03 200.774C358.329 200.686 358.659 201.012 358.767 201.501Z" fill="#263238"/>
<path d="M354.259 202.708C354.363 203.183 354.206 203.638 353.908 203.726C353.61 203.813 353.284 203.499 353.18 203.025C353.076 202.55 353.233 202.095 353.531 202.007C353.829 201.92 354.155 202.234 354.259 202.708Z" fill="#263238"/>
<path d="M359.265 199.56C359.208 199.582 359.145 199.581 359.088 199.552C358.208 199.091 357.477 199.534 357.469 199.539C357.361 199.605 357.224 199.571 357.165 199.459C357.106 199.346 357.146 199.2 357.256 199.132C357.294 199.109 358.21 198.551 359.303 199.124C359.411 199.181 359.452 199.323 359.393 199.441C359.364 199.497 359.317 199.539 359.265 199.56Z" fill="#263238"/>
<path d="M352.123 200.826C352.073 200.824 352.025 200.799 351.991 200.755C351.922 200.663 351.937 200.518 352.025 200.431C352.91 199.561 353.805 199.797 353.843 199.808C353.95 199.838 354.007 199.962 353.971 200.085C353.935 200.208 353.82 200.283 353.714 200.254C353.679 200.244 352.981 200.072 352.278 200.764C352.232 200.809 352.176 200.83 352.123 200.826Z" fill="#263238"/>
<path d="M355.424 202.153C355.424 202.153 355.172 204.057 354.655 205.341C354.565 205.565 354.725 205.814 354.966 205.835C355.587 205.89 356.196 205.523 356.196 205.523L355.424 202.153Z" fill="#D4827D"/>
<path d="M358.208 200.747L357.092 200.784C357.092 200.784 357.878 201.41 358.208 200.747Z" fill="#263238"/>
<path d="M353.642 201.989L352.526 202.025C352.526 202.025 353.311 202.652 353.642 201.989Z" fill="#263238"/>
<path d="M363.032 199.832C363.032 199.832 359.841 197.296 359.289 194.73C359.289 194.73 349.458 194.355 351.815 202.352C351.815 202.352 348.488 195.671 355.998 193.114C363.509 190.556 366.938 200.348 364.079 204.5C364.059 204.466 365.01 201.425 363.032 199.832Z" fill="#263238"/>
<path d="M352.672 194.763C351.834 195.923 351.386 197.32 351.396 198.751C351.579 199.757 353.081 200.235 353.081 200.235L354.354 197.737L354.705 199.663C357.388 198.864 358.707 197.121 359.262 194.852L357.239 192.404C357.238 192.403 353.438 193.809 352.672 194.763Z" fill="#263238"/>
<path d="M358.113 206.354C358.421 206.404 358.75 206.3 358.973 206.082C359.196 205.865 359.308 205.538 359.266 205.229" stroke="#263238" stroke-width="0.231667" stroke-miterlimit="10" stroke-linecap="round" stroke-linejoin="round"/>
<path opacity="0.2" d="M367.273 204.85C367.273 204.85 370.737 200.552 368.024 196.89C368.024 196.89 370.023 198.265 369.643 200.639C369.345 202.502 368.533 204.013 367.273 204.85Z" fill="black"/>
<path opacity="0.2" d="M377.694 283.285C373.619 284.66 369.371 285.461 365.075 285.661C364.756 282.822 364.374 279.696 363.968 276.463C362.786 279.308 361.429 282.328 359.872 285.505C355.898 285.144 352.03 284.023 348.479 282.203C349.273 275.888 350.448 269.022 351.605 262.981C353.184 262.054 354.891 261.365 356.67 260.936C358.362 260.529 360.095 260.319 361.835 260.311C364.37 260.299 366.9 260.532 369.389 261.005C372.623 261.61 375.785 262.549 378.825 263.806C379.034 270.32 378.655 276.839 377.694 283.285Z" fill="black"/>
<path d="M354.813 244.684H374.592L375.13 247.235C375.13 247.235 382.396 257.29 378.713 282.366C378.713 282.366 362.798 284.204 347.81 280.99C347.81 280.99 351.174 255.227 354.688 246.816L354.813 244.684Z" fill="#263238"/>
<path d="M373.593 236.908L374.999 247.426L353.316 246.552C353.259 244.293 355.275 238.296 355.042 236.656C354.384 234.631 351.053 231.574 350.166 229.126C349.221 225.728 351.173 216.383 351.81 216.087C352.582 215.728 353.544 215.76 354.136 215.5C356.437 214.958 361.673 213.088 364.019 212.796C364.473 212.753 364.924 212.671 365.373 212.62C365.373 212.62 374.244 212.192 374.637 215.802C374.676 216.003 372.522 225.471 373.593 236.908Z" fill="#407BFF"/>
<path opacity="0.2" d="M373.422 234.676L373.246 231.796L369.959 222.846L372.534 233.382L364.375 236.241L373.422 234.676Z" fill="black"/>
<path opacity="0.2" d="M363.979 244.064C364.269 244.026 366.843 241.229 366.843 241.229L374.208 241.508L373.853 238.845C374.071 238.672 365.247 239.075 365.247 239.075L363.979 241.823L363.979 244.064Z" fill="black"/>
<path d="M371.288 213.459C371.667 213.506 373.209 212.632 375.993 216.208C378.777 219.783 381.898 233.414 382.074 235.403C382.298 237.929 380.615 239.174 378.936 239.451C373.901 240.282 364.607 240.45 364.607 240.45V236.168L373.88 234.069C373.88 234.069 368.618 221.401 369.448 218.136C370.279 214.873 371.288 213.459 371.288 213.459Z" fill="#407BFF"/>
<path d="M367.117 212.607C366.447 216.247 363.725 219.104 360.141 220.027C358.884 220.329 357.48 219.633 356.486 218.81C355.478 217.97 354.808 216.795 354.597 215.5C358.962 213.779 362.914 212.303 367.117 212.607Z" fill="#EEC1BB"/>
<path opacity="0.2" d="M373.88 234.069C373.88 234.069 375.387 233.984 376.027 234.806C376.027 234.806 375.642 233.231 373.673 233.562L373.88 234.069Z" fill="black"/>
<path d="M361.612 261.541V213.8H313.939V232.875C314.803 233.203 317.626 233.419 318.485 233.1C319.989 232.539 319.007 230.805 320.46 230.121C322.604 229.112 325.274 230.535 326.398 232.62C327.269 234.238 327.433 235.086 327.352 236.483C327.433 237.881 327.269 238.729 326.398 240.347C325.274 242.433 322.604 243.855 320.46 242.845C319.008 242.162 320.189 240.471 318.684 239.91C317.826 239.591 314.803 239.763 313.939 240.092V261.541H335.257C335.283 262.007 335.23 262.473 335.065 262.914C334.504 264.419 332.905 265.314 332.221 266.767C331.212 268.91 332.634 271.58 334.72 272.704C336.338 273.576 337.185 273.739 338.583 273.659C339.981 273.739 340.829 273.576 342.446 272.704C344.532 271.58 345.954 268.91 344.945 266.767C344.261 265.314 342.662 264.419 342.101 262.914C341.937 262.473 341.884 262.007 341.909 261.541L361.612 261.541Z" fill="#407BFF"/>
<path d="M363.978 261.541V213.8H316.305V232.875C317.169 233.203 318.115 233.285 318.974 232.965C320.478 232.404 321.374 230.805 322.827 230.121C324.97 229.112 327.64 230.534 328.764 232.62C329.635 234.238 329.799 235.085 329.719 236.483C329.799 237.881 329.635 238.728 328.764 240.346C327.64 242.432 324.97 243.854 322.827 242.845C321.374 242.161 320.478 240.562 318.974 240.001C318.115 239.682 317.169 239.763 316.305 240.092V261.541H337.624C337.649 262.007 337.596 262.472 337.431 262.914C336.871 264.419 335.271 265.314 334.587 266.767C333.578 268.91 335.001 271.58 337.087 272.704C338.705 273.575 339.552 273.739 340.95 273.659C342.348 273.739 343.195 273.575 344.813 272.704C346.899 271.58 348.321 268.91 347.312 266.767C346.628 265.314 345.029 264.418 344.468 262.914C344.303 262.472 344.25 262.007 344.276 261.541L363.978 261.541Z" fill="#407BFF"/>
<g opacity="0.3">
<path d="M363.978 261.541V213.8H316.305V232.875C317.169 233.203 318.115 233.285 318.974 232.965C320.478 232.404 321.374 230.805 322.827 230.121C324.97 229.112 327.64 230.534 328.764 232.62C329.635 234.238 329.799 235.085 329.719 236.483C329.799 237.881 329.635 238.728 328.764 240.346C327.64 242.432 324.97 243.854 322.827 242.845C321.374 242.161 320.478 240.562 318.974 240.001C318.115 239.682 317.169 239.763 316.305 240.092V261.541H337.624C337.649 262.007 337.596 262.472 337.431 262.914C336.871 264.419 335.271 265.314 334.587 266.767C333.578 268.91 335.001 271.58 337.087 272.704C338.705 273.575 339.552 273.739 340.95 273.659C342.348 273.739 343.195 273.575 344.813 272.704C346.899 271.58 348.321 268.91 347.312 266.767C346.628 265.314 345.029 264.418 344.468 262.914C344.303 262.472 344.25 262.007 344.276 261.541L363.978 261.541Z" fill="white"/>
</g>
<path d="M363.979 237.005C363.979 237.005 360.779 237.805 360.428 238.558C360.078 239.311 361.262 239.253 361.262 239.253C361.262 239.253 359.963 239.397 359.949 239.956C359.933 240.628 361.173 240.562 361.173 240.562C361.173 240.562 360.118 240.723 360.139 241.221C360.161 241.738 361.566 241.763 361.566 241.763C361.566 241.763 360.844 242.017 361.055 242.355C361.266 242.694 364.247 242.804 365.124 242.246C366.002 241.689 366.006 237.858 365.835 237.022C365.663 236.187 365.029 235.736 363.979 234.466V237.005H363.979Z" fill="#EEC1BB"/>
<path opacity="0.2" d="M361.264 239.316C361.266 239.316 361.268 239.315 361.27 239.315L363.522 238.957C363.552 238.952 363.573 238.92 363.568 238.886C363.564 238.852 363.534 238.827 363.505 238.832L361.253 239.191C361.223 239.196 361.202 239.227 361.207 239.262C361.21 239.294 361.236 239.317 361.264 239.316Z" fill="black"/>
<path opacity="0.2" d="M361.24 240.622H361.242L363.432 240.449C363.463 240.447 363.486 240.417 363.483 240.383C363.48 240.348 363.458 240.327 363.423 240.324L361.232 240.497C361.202 240.499 361.179 240.529 361.182 240.563C361.184 240.598 361.21 240.623 361.24 240.622Z" fill="black"/>
<path opacity="0.2" d="M361.643 241.823L363.274 241.741C363.305 241.74 363.328 241.71 363.327 241.676C363.325 241.641 363.299 241.614 363.268 241.615L361.637 241.697C361.606 241.698 361.583 241.728 361.585 241.762C361.586 241.797 361.612 241.824 361.643 241.823Z" fill="black"/>
<path d="M327.386 235.742C327.386 235.742 330.814 236.7 331.164 237.453C331.515 238.206 330.33 238.148 330.33 238.148C330.33 238.148 331.629 238.292 331.643 238.851C331.659 239.523 330.419 239.457 330.419 239.457C330.419 239.457 331.474 239.617 331.453 240.116C331.431 240.633 330.026 240.658 330.026 240.658C330.026 240.658 330.748 240.911 330.537 241.25C330.326 241.588 327.345 241.699 326.468 241.141C325.59 240.583 325.586 236.753 325.757 235.917C325.928 235.081 325.998 235.219 327.048 233.95L327.239 234.661C327.291 234.854 327.326 235.051 327.343 235.25L327.386 235.742Z" fill="#EEC1BB"/>
<path opacity="0.2" d="M330.328 238.211C330.326 238.211 330.325 238.21 330.322 238.21L328.07 237.852C328.04 237.847 328.019 237.815 328.024 237.781C328.028 237.747 328.058 237.722 328.087 237.727L330.339 238.086C330.369 238.091 330.39 238.122 330.385 238.157C330.381 238.19 330.356 238.212 330.328 238.211Z" fill="black"/>
<path opacity="0.2" d="M330.352 239.517H330.35L328.16 239.345C328.129 239.342 328.106 239.312 328.109 239.278C328.111 239.243 328.134 239.222 328.169 239.219L330.36 239.392C330.39 239.394 330.413 239.424 330.41 239.459C330.407 239.492 330.381 239.518 330.352 239.517Z" fill="black"/>
<path opacity="0.2" d="M329.948 240.717L328.317 240.636C328.286 240.634 328.263 240.605 328.265 240.571C328.267 240.536 328.293 240.509 328.323 240.51L329.954 240.592C329.985 240.593 330.008 240.623 330.007 240.658C330.005 240.692 329.979 240.719 329.948 240.717Z" fill="black"/>
<path d="M257.158 342.04L261.889 342.503L265.386 330.524L258.188 329.74L257.158 342.04Z" fill="#EEC1BB"/>
<path d="M262.575 340.414H260.885C260.503 340.414 260.149 340.607 259.924 340.916C258.949 342.246 258.217 341.743 257.158 340.493C256.484 340.414 256.303 341.187 256.248 341.395L254.985 345.988C254.875 346.372 255.097 346.772 255.481 346.881C255.549 346.901 255.62 346.91 255.691 346.909C257.742 346.909 258.713 346.909 261.266 346.909H269.075C271.203 346.909 271.644 344.764 270.768 344.566C266.825 343.694 264.033 342.534 262.814 341.387C262.588 341.186 262.82 341.036 262.575 340.414Z" fill="#263238"/>
<path d="M266.24 341.72C266.418 341.592 266.524 341.387 266.527 341.169C266.541 341.051 266.488 340.935 266.389 340.871C265.859 340.496 263.748 341.483 263.51 341.599C263.484 341.608 263.463 341.629 263.454 341.655C263.436 341.704 263.462 341.757 263.51 341.775C264.029 341.898 264.56 341.966 265.093 341.979C265.493 342.017 265.895 341.927 266.24 341.72ZM266.257 341.03C266.3 341.057 266.321 341.108 266.312 341.157C266.303 341.315 266.226 341.462 266.102 341.56C265.623 341.919 264.464 341.764 263.841 341.648C264.718 341.262 265.964 340.827 266.257 341.03Z" fill="#407BFF"/>
<path d="M263.582 341.797C264.217 341.533 265.545 340.49 265.474 339.939C265.462 339.823 265.38 339.685 265.093 339.647C263.935 339.514 263.439 341.594 263.439 341.682C263.427 341.717 263.438 341.756 263.466 341.781C263.488 341.787 263.511 341.787 263.533 341.781L263.582 341.797ZM265.054 339.818C265.269 339.84 265.269 339.917 265.269 339.944C265.33 340.281 264.365 341.147 263.675 341.511C263.819 341.025 264.243 339.812 264.977 339.812L265.054 339.818Z" fill="#407BFF"/>
<path d="M263.747 341.718C263.166 341.797 262.626 342.145 262.313 342.642" stroke="#407BFF" stroke-width="0.231667" stroke-miterlimit="10" stroke-linecap="round" stroke-linejoin="round"/>
<path d="M264.797 342.508C264.215 342.587 263.676 342.935 263.363 343.431" stroke="#407BFF" stroke-width="0.231667" stroke-miterlimit="10" stroke-linecap="round" stroke-linejoin="round"/>
<path d="M266.103 343.172C265.521 343.252 264.982 343.6 264.669 344.096" stroke="#407BFF" stroke-width="0.231667" stroke-miterlimit="10" stroke-linecap="round" stroke-linejoin="round"/>
<path opacity="0.3" d="M263.537 336.855L263.108 338.324L257.54 337.469L257.641 336.265L263.537 336.855Z" fill="black"/>
<path d="M284.7 342.04L289.431 342.503L292.928 330.524L285.73 329.74L284.7 342.04Z" fill="#EEC1BB"/>
<path d="M290.116 340.414H288.427C288.045 340.414 287.691 340.607 287.465 340.916C286.491 342.246 285.759 341.743 284.7 340.493C284.026 340.414 283.845 341.187 283.79 341.395L282.527 345.988C282.417 346.372 282.639 346.772 283.022 346.881C283.091 346.901 283.161 346.91 283.232 346.909C285.284 346.909 286.254 346.909 288.808 346.909H296.616C298.745 346.909 299.186 344.764 298.309 344.566C294.366 343.694 291.574 342.534 290.356 341.387C290.13 341.186 290.362 341.036 290.116 340.414Z" fill="#263238"/>
<path d="M293.782 341.72C293.96 341.592 294.066 341.387 294.069 341.169C294.084 341.051 294.031 340.935 293.931 340.871C293.401 340.496 291.29 341.483 291.052 341.599C291.026 341.608 291.005 341.629 290.996 341.655C290.978 341.704 291.004 341.757 291.052 341.775C291.571 341.898 292.102 341.966 292.635 341.979C293.035 342.017 293.437 341.927 293.782 341.72ZM293.799 341.03C293.842 341.057 293.863 341.108 293.854 341.157C293.845 341.315 293.768 341.462 293.644 341.56C293.164 341.919 292.006 341.764 291.383 341.648C292.26 341.262 293.507 340.827 293.799 341.03Z" fill="#407BFF"/>
<path d="M291.124 341.797C291.759 341.533 293.087 340.49 293.016 339.939C293.004 339.823 292.922 339.685 292.635 339.647C291.477 339.514 290.981 341.594 290.981 341.682C290.969 341.717 290.98 341.756 291.008 341.781C291.03 341.787 291.053 341.787 291.075 341.781L291.124 341.797ZM292.597 339.818C292.812 339.84 292.812 339.917 292.812 339.944C292.872 340.281 291.907 341.147 291.218 341.511C291.361 341.025 291.786 339.812 292.519 339.812L292.597 339.818Z" fill="#407BFF"/>
<path d="M291.289 341.718C290.707 341.797 290.167 342.145 289.854 342.642" stroke="#407BFF" stroke-width="0.231667" stroke-miterlimit="10" stroke-linecap="round" stroke-linejoin="round"/>
<path d="M292.339 342.508C291.757 342.587 291.218 342.935 290.905 343.431" stroke="#407BFF" stroke-width="0.231667" stroke-miterlimit="10" stroke-linecap="round" stroke-linejoin="round"/>
<path d="M293.645 343.172C293.063 343.252 292.524 343.6 292.211 344.096" stroke="#407BFF" stroke-width="0.231667" stroke-miterlimit="10" stroke-linecap="round" stroke-linejoin="round"/>
<path opacity="0.3" d="M291.08 336.855L290.651 338.324L285.083 337.469L285.184 336.265L291.08 336.855Z" fill="black"/>
<path d="M294.813 251.767C294.813 251.767 298.734 269.085 300.604 284.169C301.173 288.767 301.282 294.915 300.275 299.441L292.717 337.019L283.205 336.066C284.7 319.86 286.783 299.871 287.38 291.367C285.287 281.401 280.829 269.338 276.446 257.341L294.813 251.767Z" fill="#407BFF"/>
<g opacity="0.2">
<path d="M294.813 251.767C294.813 251.767 298.734 269.085 300.604 284.169C301.173 288.767 301.282 294.915 300.275 299.441L292.717 337.019L283.205 336.066C284.7 319.86 286.783 299.871 287.38 291.367C285.287 281.401 280.829 269.338 276.446 257.341L294.813 251.767Z" fill="black"/>
</g>
<path d="M263.558 294.393C263.773 293.456 264.117 291.552 264.539 289.041C264.526 289.039 264.512 289.035 264.499 289.033C264.808 285.712 265.38 270.31 266.43 260.487C267.237 254.229 268.837 249.995 270.447 247.921C270.53 247.815 270.606 247.718 270.675 247.632C270.943 247.298 271.105 247.114 271.105 247.114C271.412 247.191 271.716 247.262 272.019 247.328C272.132 247.353 272.245 247.378 272.356 247.401C283.726 249.779 293.731 246.79 293.731 246.79C294.778 249.375 295.559 254.886 296.323 260.602C295.133 261.907 289.914 263.6 283.927 264.722L282.22 272.444C281.321 277.231 280.168 281.927 279.188 286.156L278.164 290.787C278.102 291.091 278.041 291.392 277.983 291.688C277.463 294.35 265.101 337.245 265.101 337.245L257.047 336.773C257.048 336.773 260.646 307.085 263.558 294.393Z" fill="#407BFF"/>
<path opacity="0.2" d="M263.558 294.393C263.773 293.456 264.117 291.552 264.539 289.041C264.526 289.039 264.512 289.035 264.499 289.033C264.808 285.712 265.38 270.31 266.43 260.487C267.237 254.229 268.837 249.995 270.447 247.921C270.53 247.815 270.606 247.718 270.675 247.632C270.943 247.298 271.105 247.114 271.105 247.114C271.412 247.191 271.716 247.262 272.019 247.328C272.132 247.353 272.245 247.378 272.356 247.401C283.726 249.779 293.731 246.79 293.731 246.79C294.778 249.375 295.559 254.886 296.323 260.602C295.133 261.907 289.914 263.6 283.927 264.722L282.22 272.444C281.321 277.231 280.168 281.927 279.188 286.156L278.164 290.787C278.102 291.091 278.041 291.392 277.983 291.688C277.463 294.35 265.101 337.245 265.101 337.245L257.047 336.773C257.048 336.773 260.646 307.085 263.558 294.393Z" fill="black"/>
<path opacity="0.2" d="M282.11 273.158C282.079 273.315 285.799 259.794 285.799 259.794C285.799 259.794 288.93 271.866 284.165 279.416L282.11 273.158Z" fill="black"/>
<path d="M274.106 212.154C274.106 212.154 275.998 213.608 278.434 215.707C278.941 216.145 279.5 216.523 280.091 216.837C281.687 217.684 283.141 218.169 283.536 217.4C283.623 217.231 283.691 217.047 283.741 216.855C284.075 215.567 283.938 213.756 282.896 212.927C281.722 211.992 281.156 211.193 281.368 209.927C281.479 209.21 281.738 208.47 282.042 207.75L281.118 206.67L276.285 201.792C276.406 205.049 276.652 210.386 274.106 212.154Z" fill="#EEC1BB"/>
<path opacity="0.2" d="M281.329 210.205C279.999 209.416 278.541 208.047 278.716 206.483C278.794 205.825 278.936 205.201 279.094 204.801L281.793 208.376C281.571 208.952 281.491 209.333 281.329 210.205Z" fill="black"/>
<path d="M274.916 196.559C275.371 201.525 275.459 203.631 278.021 206.235C281.876 210.151 287.806 208.833 288.827 203.911C289.746 199.481 288.847 192.105 283.973 190.018C279.17 187.962 274.462 191.594 274.916 196.559Z" fill="#EEC1BB"/>
<path d="M281.102 198.125C281.128 198.59 281.413 198.973 281.74 198.979C282.067 198.986 282.31 198.615 282.284 198.15C282.258 197.685 281.973 197.302 281.646 197.296C281.32 197.289 281.076 197.66 281.102 198.125Z" fill="#263238"/>
<path d="M286.248 198.055C286.274 198.505 286.559 198.876 286.885 198.883C287.21 198.89 287.453 198.53 287.427 198.079C287.401 197.629 287.116 197.258 286.791 197.252C286.464 197.245 286.222 197.604 286.248 198.055Z" fill="#263238"/>
<path d="M280.312 196.346C280.376 196.353 280.44 196.335 280.489 196.29C281.254 195.581 282.115 195.83 282.125 195.833C282.253 195.87 282.382 195.798 282.411 195.667C282.44 195.537 282.359 195.4 282.229 195.362C282.184 195.348 281.104 195.035 280.154 195.914C280.06 196.002 280.058 196.157 280.15 196.261C280.194 196.31 280.253 196.34 280.312 196.346Z" fill="#263238"/>
<path d="M287.837 196.099C287.895 196.113 287.958 196.106 288.011 196.072C288.12 196.004 288.148 195.854 288.075 195.736C287.331 194.561 286.226 194.489 286.179 194.487C286.047 194.48 285.942 194.584 285.944 194.72C285.946 194.855 286.055 194.97 286.187 194.978C286.231 194.98 287.087 195.048 287.679 195.983C287.716 196.044 287.775 196.084 287.837 196.099Z" fill="#263238"/>
<path d="M277.032 199.675C277.032 199.675 278.564 197.358 277.933 192.848C277.827 192.092 278.305 191.376 279.055 191.231C281.198 190.815 284.062 188.112 287.556 193.48C287.556 193.48 285.89 187.051 276.132 189.641C267.448 191.946 273.394 199.306 274.289 200.062C275.185 200.819 277.032 199.675 277.032 199.675Z" fill="#263238"/>
<path d="M273.414 200.606C274.001 201.625 274.954 202.264 275.828 202.483C277.142 202.813 277.821 200.7 277.372 199.383C276.968 198.198 275.677 197.413 274.398 197.671C273.137 197.926 272.743 199.442 273.414 200.606Z" fill="#EEC1BB"/>
<path d="M284.997 202.906C284.593 203.528 284.107 204.734 284.107 204.734C283.989 204.709 283.872 204.685 283.757 204.655C282.176 204.284 281.565 203.591 281.366 202.933C281.259 202.573 281.281 202.221 281.334 201.943C281.393 201.62 281.509 201.403 281.509 201.403C282.23 202.1 283.677 202.558 284.46 202.771C284.787 202.864 284.997 202.906 284.997 202.906Z" fill="#263238"/>
<path d="M284.46 202.772L284.183 203.304C282.695 202.952 281.695 202.504 281.334 201.944C281.393 201.621 281.508 201.404 281.508 201.404C282.229 202.1 283.677 202.559 284.46 202.772Z" fill="white"/>
<path d="M283.756 204.655C282.175 204.285 281.564 203.591 281.366 202.934C281.899 203.081 282.527 203.317 283.04 203.693C283.433 203.978 283.641 204.326 283.756 204.655Z" fill="#DC5753"/>
<path d="M284.913 197.919C284.913 197.919 285.69 199.778 286.566 200.937C286.72 201.139 286.625 201.435 286.386 201.522C285.773 201.748 285.056 201.544 285.056 201.544L284.913 197.919Z" fill="#D4827D"/>
<path d="M281.547 197.285L282.687 197.016C282.687 197.016 282.063 197.865 281.547 197.285Z" fill="#263238"/>
<path d="M286.673 197.263L287.813 196.994C287.813 196.994 287.189 197.844 286.673 197.263Z" fill="#263238"/>
<path d="M288.425 195.58C288.425 195.58 291.433 192.022 289.426 189.09C288.672 187.987 287.287 187.823 286.066 187.285C283.246 186.043 280.961 185.792 277.363 189.319C273.619 192.988 272.942 194.223 277.071 198.744C277.071 198.744 276.626 198.153 278.152 196.808C279.679 195.463 281.364 194.267 280.546 192.962C280.546 192.962 281.815 193.452 281.906 194.659L284.138 194.05C284.138 194.05 284.041 193.187 283.451 192.323C283.451 192.323 284.607 193.005 284.983 194.004L286.914 194.368C286.914 194.368 286.631 192.596 286.086 191.96C286.085 191.959 287.854 193.778 288.425 195.58Z" fill="#263238"/>
<path opacity="0.2" d="M276.365 200.46C276.324 199.992 276.106 199.541 275.765 199.217C275.424 198.893 274.963 198.698 274.493 198.681" stroke="black" stroke-width="0.231667" stroke-miterlimit="10" stroke-linecap="round" stroke-linejoin="round"/>
<path d="M299.974 241.667C299.695 241.451 299.43 241.213 299.181 240.954C298.97 240.733 298.824 240.448 298.874 240.448C298.863 240.417 298.85 240.386 298.836 240.355L298.747 240.149L298.529 239.593C298.382 239.194 298.242 238.759 298.101 238.317C297.807 237.441 297.532 236.528 297.264 235.609C296.72 233.763 296.203 231.896 295.679 230.022L294.717 226.092C294.578 225.456 294.362 224.528 294.075 223.47L294.074 223.466C293.292 220.58 291.986 216.731 290.277 215.2C287.624 213.17 285.931 215.674 284.84 218.277C283.792 220.775 286.378 227.602 286.378 227.602L289.53 227.374C289.928 228.826 290.346 230.271 290.757 231.746C291.294 233.67 291.933 235.559 292.573 237.448C292.899 238.396 293.238 239.343 293.608 240.298C293.826 240.783 294.024 241.26 294.248 241.767C294.356 242.016 294.478 242.28 294.612 242.544L294.848 242.986C294.947 243.17 295.058 243.347 295.18 243.513C295.647 244.114 296.222 244.6 296.868 244.938C297.365 245.217 297.888 245.434 298.427 245.587C299.41 245.871 300.424 245.994 301.438 245.951L302.007 243.2C301.329 242.693 300.581 242.166 299.974 241.667Z" fill="#263238"/>
<path opacity="0.5" d="M299.974 241.667C299.695 241.451 299.43 241.213 299.181 240.954C298.97 240.733 298.824 240.448 298.874 240.448C298.863 240.417 298.85 240.386 298.836 240.355L298.747 240.149L298.529 239.593C298.382 239.194 298.242 238.759 298.101 238.317C297.807 237.441 297.532 236.528 297.264 235.609C296.72 233.763 296.203 231.896 295.679 230.022L294.717 226.092C294.578 225.456 294.362 224.528 294.075 223.47L294.074 223.466C293.292 220.58 291.986 216.731 290.277 215.2C287.624 213.17 285.931 215.674 284.84 218.277C283.792 220.775 286.378 227.602 286.378 227.602L289.53 227.374C289.928 228.826 290.346 230.271 290.757 231.746C291.294 233.67 291.933 235.559 292.573 237.448C292.899 238.396 293.238 239.343 293.608 240.298C293.826 240.783 294.024 241.26 294.248 241.767C294.356 242.016 294.478 242.28 294.612 242.544L294.848 242.986C294.947 243.17 295.058 243.347 295.18 243.513C295.647 244.114 296.222 244.6 296.868 244.938C297.365 245.217 297.888 245.434 298.427 245.587C299.41 245.871 300.424 245.994 301.438 245.951L302.007 243.2C301.329 242.693 300.581 242.166 299.974 241.667Z" fill="white"/>
<g opacity="0.3">
<path d="M290.859 219.634C291.391 220.543 291.574 221.061 291.908 222.108C292.241 223.156 292.619 228.814 290.709 230.486V226.564C290.778 224.16 290.789 222.037 290.859 219.634Z" fill="black"/>
</g>
<path d="M267.363 226.79L264.405 216.704C266.277 213.911 275.535 211.765 275.535 211.765L280.28 213.43L281.635 212.099C281.635 212.099 283.979 212.622 285.986 213.277C288.666 214.15 290.115 214.853 290.754 216.34C290.754 216.34 291.872 219.634 291.199 226.423C291.015 228.289 291.224 237.994 291.745 241.2L294.902 251.193C283.757 259.873 268.156 251.768 268.156 251.768C268.657 250.235 270.327 245.53 270.553 244.032C270.39 242.121 270.617 239.174 269.808 235.828C269.652 235.182 267.634 227.417 267.363 226.79Z" fill="#263238"/>
<path opacity="0.5" d="M267.363 226.79L264.405 216.704C266.277 213.911 275.535 211.765 275.535 211.765L280.28 213.43L281.635 212.099C281.635 212.099 283.979 212.622 285.986 213.277C288.666 214.15 290.115 214.853 290.754 216.34C290.754 216.34 291.872 219.634 291.199 226.423C291.015 228.289 291.224 237.994 291.745 241.2L294.902 251.193C283.757 259.873 268.156 251.768 268.156 251.768C268.657 250.235 270.327 245.53 270.553 244.032C270.39 242.121 270.617 239.174 269.808 235.828C269.652 235.182 267.634 227.417 267.363 226.79Z" fill="white"/>
<path d="M301.223 237.652C301.57 233.454 304.806 230.072 308.984 229.541L308.129 230.966L309.76 229.997L302.277 239.383L301.223 237.652Z" fill="#407BFF"/>
<path opacity="0.8" d="M301.223 237.652C301.57 233.454 304.806 230.072 308.984 229.541L308.129 230.966L309.76 229.997L302.277 239.383L301.223 237.652Z" fill="white"/>
<path d="M289.499 229.947L292.072 229.869L304.387 234.046L293.162 251.193L282.115 248.435C281.486 248.261 281.117 247.609 281.291 246.979C281.317 246.885 281.355 246.795 281.403 246.71L285.864 238.643C285.953 238.483 285.953 238.289 285.864 238.129L285.259 237.053C285.131 236.832 285.131 236.561 285.259 236.34L288.252 230.732C288.505 230.274 288.976 229.977 289.499 229.947Z" fill="#407BFF"/>
<path d="M304.387 234.045L311.4 229.541L299.868 246.674L293.162 251.193L304.387 234.045Z" fill="#407BFF"/>
<path opacity="0.2" d="M304.387 234.045L311.4 229.541L299.868 246.674L293.162 251.193L304.387 234.045Z" fill="black"/>
<path d="M303.01 242.013C303.01 242.013 300.285 241.299 299.686 241.766C299.087 242.234 299.907 242.678 299.907 242.678C299.907 242.678 298.968 242.256 298.689 242.706C298.353 243.245 299.214 243.706 299.214 243.706C299.214 243.706 298.43 243.399 298.203 243.814C297.967 244.244 298.895 244.847 298.895 244.847C298.895 244.847 298.289 244.754 298.266 245.117C298.244 245.48 300.184 246.807 301.041 246.717C301.898 246.627 303.755 243.51 304.045 242.759C304.335 242.008 304.306 241.423 303.755 240.9L303.01 242.013Z" fill="#EEC1BB"/>
<path opacity="0.2" d="M299.878 242.73C299.88 242.731 299.881 242.732 299.882 242.732L301.562 243.375C301.585 243.383 301.614 243.366 301.627 243.336C301.641 243.306 301.633 243.274 301.611 243.266L299.931 242.624C299.908 242.615 299.879 242.632 299.866 242.662C299.853 242.69 299.859 242.72 299.878 242.73Z" fill="black"/>
<path opacity="0.2" d="M299.23 243.783L299.231 243.784L300.78 244.552C300.802 244.563 300.831 244.548 300.846 244.519C300.861 244.49 300.856 244.464 300.835 244.447L299.286 243.678C299.264 243.667 299.235 243.682 299.22 243.711C299.205 243.74 299.21 243.772 299.23 243.783Z" fill="black"/>
<path opacity="0.2" d="M298.918 244.928L300.049 245.538C300.07 245.55 300.1 245.535 300.116 245.507C300.131 245.478 300.127 245.445 300.106 245.434L298.975 244.823C298.954 244.811 298.924 244.826 298.908 244.854C298.893 244.884 298.897 244.916 298.918 244.928Z" fill="black"/>
<path d="M283.383 212.525L281.327 210.534L280.28 213.43L275.711 209.789L273.394 212.33L279.132 216.329L280.28 213.789L283.383 216.118V212.525Z" fill="#263238"/>
<path opacity="0.3" d="M283.383 212.525C283.529 212.75 283.383 216.118 283.383 216.118L280.28 213.789L279.132 216.329L273.617 212.525L279.262 217.444L280.279 214.457L283.741 217.444L283.383 212.525Z" fill="black"/>
<path opacity="0.3" d="M286.32 228.146L270.512 243.377V240.367C270.512 240.367 284.741 227.333 284.914 227.314C285.086 227.295 286.32 228.146 286.32 228.146Z" fill="black"/>
<path opacity="0.3" d="M271.473 229.351L269.761 222.29L269.421 230.487L271.473 229.351Z" fill="black"/>
<path d="M274.31 202.353C274.31 202.878 274.735 203.303 275.259 203.303C275.784 203.303 276.209 202.878 276.209 202.353C276.209 201.829 275.784 201.404 275.259 201.404C274.734 201.403 274.31 201.829 274.31 202.353Z" fill="#407BFF"/>
<path d="M264.405 216.703C264.405 216.703 262.268 218.784 261.549 225.883C261.032 230.978 259.727 241.966 263.686 243.376C267.646 244.787 284.914 228.278 284.914 228.278L282.111 223.466L269.422 230.486C269.422 230.486 270.716 218.848 268.479 217.784C266.243 216.721 264.405 216.703 264.405 216.703Z" fill="#263238"/>
<path opacity="0.5" d="M264.405 216.703C264.405 216.703 262.268 218.784 261.549 225.883C261.032 230.978 259.727 241.966 263.686 243.376C267.646 244.787 284.914 228.278 284.914 228.278L282.111 223.466L269.422 230.486C269.422 230.486 270.716 218.848 268.479 217.784C266.243 216.721 264.405 216.703 264.405 216.703Z" fill="white"/>
<path d="M283.195 223.11C283.195 223.11 284.86 219.774 285.651 219.627C286.442 219.48 287.079 219.743 287.079 219.743C287.079 219.743 292.462 216.572 292.821 217.406C293.015 217.858 291.819 218.853 289.253 220.318C289.253 220.318 290.73 220.861 290.135 221.727C290.135 221.727 291.223 222.226 290.642 223.307C290.642 223.307 291.142 224.262 290.514 224.872C289.886 225.482 286.928 227.165 285.215 227.416C283.502 227.667 282.503 224.339 282.503 224.339L283.195 223.11Z" fill="#EEC1BB"/>
<path d="M301.381 318.425C302.833 319.109 303.729 320.709 305.233 321.269C306.078 321.584 307.009 321.511 307.863 321.195V299.729H287.318C287.292 299.264 287.346 298.798 287.51 298.356C288.071 296.852 289.67 295.956 290.354 294.504C291.363 292.36 289.941 289.69 287.855 288.567C286.237 287.695 285.39 287.532 283.992 287.612C282.594 287.532 281.747 287.695 280.129 288.567C278.043 289.69 276.62 292.36 277.63 294.504C278.314 295.956 279.913 296.852 280.474 298.356C280.638 298.798 280.692 299.264 280.666 299.729H260.122V347.47H307.863V328.379C307.009 328.064 306.079 327.99 305.233 328.305C303.729 328.866 302.827 330.452 301.381 331.149C299.451 332.077 296.576 330.732 295.443 328.65C294.565 327.036 294.408 326.185 294.488 324.787C294.408 323.389 294.572 322.541 295.443 320.924C296.567 318.839 299.237 317.416 301.381 318.425Z" fill="#407BFF"/>
<path opacity="0.4" d="M301.381 318.425C302.833 319.109 303.729 320.709 305.233 321.269C306.078 321.584 307.009 321.511 307.863 321.195V299.729H287.318C287.292 299.264 287.346 298.798 287.51 298.356C288.071 296.852 289.67 295.956 290.354 294.504C291.363 292.36 289.941 289.69 287.855 288.567C286.237 287.695 285.39 287.532 283.992 287.612C282.594 287.532 281.747 287.695 280.129 288.567C278.043 289.69 276.62 292.36 277.63 294.504C278.314 295.956 279.913 296.852 280.474 298.356C280.638 298.798 280.692 299.264 280.666 299.729H260.122V347.47H307.863V328.379C307.009 328.064 306.079 327.99 305.233 328.305C303.729 328.866 302.827 330.452 301.381 331.149C299.451 332.077 296.576 330.732 295.443 328.65C294.565 327.036 294.408 326.185 294.488 324.787C294.408 323.389 294.572 322.541 295.443 320.924C296.567 318.839 299.237 317.416 301.381 318.425Z" fill="black"/>
<path d="M303.721 318.425C305.174 319.109 306.07 320.709 307.574 321.269C308.419 321.584 309.349 321.511 310.203 321.195V299.729H289.659C289.633 299.264 289.687 298.798 289.851 298.356C290.412 296.852 292.011 295.956 292.695 294.504C293.704 292.36 292.282 289.69 290.196 288.567C288.578 287.695 287.731 287.532 286.333 287.612C284.935 287.532 284.088 287.695 282.47 288.567C280.384 289.69 278.961 292.36 279.971 294.504C280.655 295.956 282.254 296.852 282.815 298.356C282.979 298.798 283.033 299.264 283.007 299.729H262.463V347.47H310.203V328.379C309.35 328.064 308.419 327.99 307.574 328.305C306.07 328.866 305.168 330.452 303.721 331.149C301.792 332.077 298.917 330.732 297.784 328.65C296.906 327.036 296.749 326.185 296.829 324.787C296.749 323.389 296.913 322.541 297.784 320.924C298.908 318.839 301.578 317.416 303.721 318.425Z" fill="#407BFF"/>
<path opacity="0.4" d="M302.276 331.481C302.276 331.481 303.93 334.444 306.769 334.197C309.608 333.95 310.203 332.715 310.203 332.715L310.164 328.641L303.829 331.067C303.392 331.425 302.869 331.548 302.276 331.481Z" fill="black"/>
<path d="M361.065 306.281L377.384 300.011L386.803 290.879C387.064 290.576 389.796 285.865 389.796 285.865L394.419 295.769C394.419 295.769 382.924 307.321 378.713 308.666C375.31 309.753 363.262 312.705 363.262 312.705L361.065 306.281Z" fill="#407BFF"/>
<path opacity="0.4" d="M371.068 310.747C371.068 310.747 373.036 303.034 377.434 301.429C381.832 299.825 387.517 302.341 387.354 302.45C387.191 302.558 382.429 306.992 382.266 307.046C382.145 307.087 376.091 309.221 372.958 310.256L371.068 310.747Z" fill="black"/>
<path d="M341.442 299.975C341.416 300.441 341.47 300.907 341.634 301.348C342.195 302.853 343.794 303.748 344.478 305.201C345.487 307.344 344.065 310.014 341.979 311.138C340.361 312.009 339.514 312.173 338.116 312.093C336.718 312.173 335.871 312.009 334.253 311.138C332.167 310.014 330.745 307.344 331.754 305.201C332.438 303.748 334.037 302.853 334.598 301.348C334.762 300.907 334.816 300.441 334.79 299.975H313.511V321.425C312.647 321.753 311.701 321.835 310.842 321.515C309.337 320.955 308.442 319.355 306.99 318.671C304.846 317.662 302.176 319.085 301.053 321.17C300.181 322.788 300.018 323.635 300.098 325.033C300.018 326.431 300.182 327.279 301.053 328.897C302.176 330.982 304.846 332.404 306.99 331.395C308.442 330.711 309.338 329.112 310.842 328.551C311.7 328.232 312.647 328.313 313.511 328.642V347.716L361.087 347.929V300.188L341.442 299.975Z" fill="#263238"/>
<g opacity="0.4">
<path d="M341.442 299.975C341.416 300.441 341.47 300.907 341.634 301.348C342.195 302.853 343.794 303.748 344.478 305.201C345.487 307.344 344.065 310.014 341.979 311.138C340.361 312.009 339.514 312.173 338.116 312.093C336.718 312.173 335.871 312.009 334.253 311.138C332.167 310.014 330.745 307.344 331.754 305.201C332.438 303.748 334.037 302.853 334.598 301.348C334.762 300.907 334.816 300.441 334.79 299.975H313.511V321.425C312.647 321.753 311.701 321.835 310.842 321.515C309.337 320.955 308.442 319.355 306.99 318.671C304.846 317.662 302.176 319.085 301.053 321.17C300.181 322.788 300.018 323.635 300.098 325.033C300.018 326.431 300.182 327.279 301.053 328.897C302.176 330.982 304.846 332.404 306.99 331.395C308.442 330.711 309.338 329.112 310.842 328.551C311.7 328.232 312.647 328.313 313.511 328.642V347.716L361.087 347.929V300.188L341.442 299.975Z" fill="black"/>
</g>
<path d="M343.547 299.975C343.522 300.441 343.575 300.907 343.74 301.348C344.3 302.853 345.9 303.748 346.584 305.201C347.593 307.344 346.17 310.014 344.085 311.138C342.467 312.009 341.619 312.173 340.221 312.093C338.824 312.173 337.976 312.009 336.358 311.138C334.272 310.014 332.85 307.344 333.859 305.201C334.543 303.748 336.143 302.853 336.703 301.348C336.868 300.907 336.921 300.441 336.896 299.975H315.617V321.425C314.753 321.753 313.806 321.835 312.948 321.515C311.443 320.955 310.548 319.355 309.095 318.671C306.952 317.662 304.282 319.085 303.158 321.17C302.287 322.788 302.123 323.635 302.203 325.033C302.123 326.431 302.287 327.279 303.158 328.897C304.282 330.982 306.952 332.404 309.095 331.395C310.548 330.711 311.443 329.112 312.948 328.551C313.806 328.232 314.753 328.313 315.617 328.642V347.716L363.192 347.929V300.188L343.547 299.975Z" fill="#263238"/>
<path d="M377.058 332.157L384.541 331.704C383.344 338.297 382.112 342.573 382.636 345.958L379.62 347.974L376.827 345.228C376.827 345.228 376.312 339.839 377.058 332.157Z" fill="#E9B376"/>
<path d="M376.378 340.602L379.098 340.634C380.413 342.912 381.323 342.375 382.718 340.768C383.507 340.685 383.709 341.593 383.77 341.837L385.185 347.231C385.309 347.681 385.043 348.146 384.593 348.27C384.513 348.292 384.43 348.302 384.347 348.299C381.945 348.271 380.809 348.258 377.821 348.223L368.681 348.115C366.189 348.086 365.702 345.569 366.731 345.349C371.358 344.383 374.642 343.063 376.085 341.738C376.352 341.506 376.082 341.326 376.378 340.602Z" fill="#407BFF"/>
<path d="M374.988 342.111C375.668 342.212 376.295 342.627 376.654 343.213" stroke="#263238" stroke-width="0.231667" stroke-miterlimit="10" stroke-linecap="round" stroke-linejoin="round"/>
<path d="M373.748 343.022C374.428 343.123 375.055 343.537 375.415 344.123" stroke="#263238" stroke-width="0.231667" stroke-miterlimit="10" stroke-linecap="round" stroke-linejoin="round"/>
<path d="M372.209 343.782C372.89 343.883 373.517 344.297 373.876 344.883" stroke="#263238" stroke-width="0.231667" stroke-miterlimit="10" stroke-linecap="round" stroke-linejoin="round"/>
<path opacity="0.7" d="M384.592 348.27C384.512 348.291 384.429 348.302 384.346 348.299C381.945 348.271 380.809 348.258 377.82 348.223L368.68 348.115C367.332 348.1 366.575 347.356 366.324 346.641C366.703 346.648 384.865 347.002 385.105 346.924L385.201 347.326C385.266 347.745 385.011 348.155 384.592 348.27Z" fill="white"/>
<path d="M405.716 312.31C405.716 312.31 385.279 301.757 381.3 301.456C377.321 301.155 373.518 303.31 372.757 311.55C371.996 319.79 373.518 340.98 373.518 340.98L384.542 341.169L385.908 316.619C385.908 316.619 402.981 329.091 403.488 328.964C403.995 328.838 410.66 328.536 410.66 328.536L405.716 312.31Z" fill="#263238"/>
<path opacity="0.3" d="M405.716 312.31C405.716 312.31 385.279 301.757 381.3 301.456C377.321 301.155 373.518 303.31 372.757 311.55C371.996 319.79 373.518 340.98 373.518 340.98L384.542 341.169L385.908 316.619C385.908 316.619 402.981 329.091 403.488 328.964C403.995 328.838 410.66 328.536 410.66 328.536L405.716 312.31Z" fill="white"/>
<path opacity="0.4" d="M385.281 328.1C385.281 328.1 376.275 331.255 376.179 338.682C376.083 346.11 384.026 344.696 384.026 344.696L385.281 328.1Z" fill="black"/>
<path d="M413.538 347.453L411.512 340.087C418.594 339.321 423.326 341.065 426.618 339.51L429.583 341.978L427.625 345.653C427.625 345.653 422.404 347.427 413.538 347.453Z" fill="#E9B376"/>
<path d="M423.044 347.505L422.257 344.724C424.183 342.696 423.362 341.929 421.303 340.992C420.981 340.212 421.845 339.733 422.075 339.597L427.148 336.528C427.57 336.267 428.125 336.397 428.386 336.82C428.432 336.895 428.467 336.976 428.49 337.061C429.185 339.518 429.514 340.68 430.379 343.738L433.024 353.089C433.745 355.638 431.326 356.893 430.791 355.91C428.412 351.484 426.077 348.533 424.29 347.462C423.974 347.26 423.872 347.589 423.044 347.505Z" fill="#407BFF"/>
<path d="M425.003 348.468C424.901 347.745 425.135 346.981 425.623 346.438" stroke="#263238" stroke-width="0.231667" stroke-miterlimit="10" stroke-linecap="round" stroke-linejoin="round"/>
<path d="M426.305 349.458C426.203 348.734 426.436 347.97 426.925 347.427" stroke="#263238" stroke-width="0.231667" stroke-miterlimit="10" stroke-linecap="round" stroke-linejoin="round"/>
<path d="M427.543 350.797C427.441 350.073 427.675 349.309 428.163 348.766" stroke="#263238" stroke-width="0.231667" stroke-miterlimit="10" stroke-linecap="round" stroke-linejoin="round"/>
<path opacity="0.7" d="M428.387 336.82C428.433 336.895 428.468 336.976 428.491 337.062C429.186 339.518 429.515 340.681 430.38 343.738L433.025 353.089C433.415 354.469 432.885 355.464 432.232 355.936C432.125 355.547 427.012 336.924 426.86 336.703L427.241 336.483C427.649 336.292 428.143 336.427 428.387 336.82Z" fill="white"/>
<path d="M428.113 316.334L429.001 320.788C429.001 320.788 431.275 329.624 428.087 334.062C425.041 338.302 420.547 339.058 420.547 339.058L421.471 347.579L420.547 348.155C420.547 348.155 414.668 348.155 402.635 347.605C391.203 347.083 381.377 346.537 379.349 342.987C377.32 339.438 376.853 337.714 380.169 333.48C383.166 329.654 405.989 324.017 406.783 323.789L406.464 321.844L406.094 320.467L428.113 316.334Z" fill="#263238"/>
<path opacity="0.3" d="M428.113 316.334L429.001 320.788C429.001 320.788 431.275 329.624 428.087 334.062C425.041 338.302 420.547 339.058 420.547 339.058L421.471 347.579L420.547 348.155C420.547 348.155 414.668 348.155 402.635 347.605C391.203 347.083 381.377 346.537 379.349 342.987C377.32 339.438 376.853 337.714 380.169 333.48C383.166 329.654 405.989 324.017 406.783 323.789L406.464 321.844L406.094 320.467L428.113 316.334Z" fill="white"/>
<path opacity="0.4" d="M420.547 339.058C419.846 339.241 395.055 338.441 395.055 338.441C395.055 338.441 402.382 339.698 407.801 340.155C413.22 340.612 420.547 339.058 420.547 339.058Z" fill="black"/>
<path opacity="0.4" d="M406.783 323.789L421.059 321.299C421.059 321.299 410.769 321.132 406.783 323.789Z" fill="black"/>
<path d="M370.39 313.681C370.39 313.681 369.199 311.847 367.426 311.492C365.654 311.138 364.333 310.382 362.997 310.21C361.662 310.037 362.874 311.392 363.664 311.983C364.455 312.573 365.345 313.25 364.805 313.772C364.266 314.295 358.006 315.883 357.341 316.692C356.675 317.5 357.768 317.56 357.768 317.56C357.768 317.56 356.258 317.987 356.264 318.631C356.266 318.798 356.541 319.185 357.259 319.099C358.876 318.904 362.247 318.321 362.247 318.321C362.053 318.35 357.943 319.367 357.347 319.6C356.569 319.904 356.357 320.444 356.548 320.89C356.82 321.525 361.959 320.437 362.207 320.543C362.207 320.543 359.228 321.07 358.943 321.913C358.658 322.757 360.552 322.527 362.183 322.008C363.678 321.531 366.737 320.989 368.21 320.357C370.025 319.579 371.069 318.649 371.109 316.797C371.148 314.945 370.39 313.681 370.39 313.681Z" fill="#E9B376"/>
<path d="M368.431 313.641L373.002 311.813L374.581 316.757L369.221 318.669L368.431 313.641Z" fill="#E9B376"/>
<path d="M401.591 279.441C401.591 279.441 400.35 276.638 400.613 271.087C400.611 271.081 400.309 271.025 400.307 271.02C400.341 270.244 400.402 269.521 400.471 268.89C400.471 268.872 400.47 268.866 400.47 268.866L394.419 274.952C394.983 276.572 395.155 279.922 395.124 281.362C395.124 281.362 394.814 284.029 398.103 283.356C400.506 282.863 401.591 279.441 401.591 279.441Z" fill="#E9B376"/>
<path opacity="0.2" d="M394.856 277.315L398.722 275.416C398.655 276.776 397.891 278.551 395.077 279.354C395.077 279.354 395.02 277.864 394.856 277.315Z" fill="black"/>
<path d="M399.699 265.404C400.297 270.02 400.728 272.611 398.866 275.375C396.066 279.534 390.165 278.557 388.195 274.2C386.421 270.278 385.741 263.389 389.874 260.755C393.946 258.16 399.101 260.788 399.699 265.404Z" fill="#E9B376"/>
<path d="M397.922 258.911C395.785 256.409 391.806 258.599 390.293 260.223C390.067 260.466 394.16 261.622 393.917 261.583L395.21 262.654C395.377 262.582 395.722 264.169 396.014 265.543C396.281 266.805 396.884 267.967 397.764 268.911C398.502 269.701 399.489 270.648 400.598 271.417C402.041 270.334 401.6 267.543 401.785 265.796C402.06 263.193 402 258.319 397.922 258.911Z" fill="#263238"/>
<path d="M402.233 268.86C402.094 270.104 401.39 271.164 400.571 271.788C399.34 272.726 398.546 271.336 398.398 269.873C398.265 268.558 398.34 266.909 399.811 266.545C401.261 266.187 402.391 267.436 402.233 268.86Z" fill="#E9B376"/>
<path d="M393.423 267.978C393.513 268.445 393.338 268.869 393.032 268.924C392.726 268.98 392.404 268.647 392.315 268.18C392.225 267.713 392.4 267.29 392.706 267.234C393.012 267.178 393.333 267.511 393.423 267.978Z" fill="#263238"/>
<path d="M388.863 268.951C388.953 269.418 388.778 269.841 388.471 269.897C388.165 269.952 387.844 269.619 387.754 269.153C387.664 268.686 387.839 268.262 388.146 268.206C388.452 268.15 388.773 268.484 388.863 268.951Z" fill="#263238"/>
<path d="M390.302 268.405C390.302 268.405 389.27 271.009 388.979 272.044C389.742 272.506 390.809 272.02 390.809 272.02L390.302 268.405Z" fill="#D58745"/>
<path d="M394.141 265.558C394.076 265.6 393.99 265.607 393.915 265.569C393.028 265.116 392.309 265.511 392.302 265.515C392.195 265.575 392.058 265.538 391.997 265.432C391.936 265.326 391.974 265.19 392.08 265.13C392.117 265.108 393.017 264.614 394.118 265.177C394.228 265.233 394.272 265.366 394.216 265.475C394.198 265.51 394.172 265.537 394.141 265.558Z" fill="#263238"/>
<path d="M392.625 273.213C393.383 273.073 393.898 272.583 394.376 271.906" stroke="#263238" stroke-width="0.3475" stroke-miterlimit="10" stroke-linecap="round" stroke-linejoin="round"/>
<path opacity="0.2" d="M400.948 267.799C400.712 267.561 400.318 267.534 400.014 267.674C399.71 267.814 399.489 268.092 399.345 268.395C399.173 268.757 399.097 269.166 399.129 269.566" stroke="black" stroke-width="0.231667" stroke-miterlimit="10" stroke-linecap="round" stroke-linejoin="round"/>
<path d="M386.463 267.369C386.421 267.368 386.378 267.355 386.341 267.329C386.239 267.258 386.213 267.119 386.283 267.019C386.978 266.008 388.001 266.037 388.047 266.032C388.169 266.037 388.267 266.139 388.264 266.262C388.261 266.384 388.16 266.48 388.038 266.478C387.996 266.475 387.207 266.462 386.649 267.274C386.606 267.338 386.535 267.371 386.463 267.369Z" fill="#263238"/>
<path d="M397.922 258.911C397.922 258.911 395.08 255.399 390.165 256.558C386.212 257.49 384.15 260.382 384.074 263.148C384.041 264.337 384.304 265.222 384.616 265.844C384.851 266.314 385.528 266.243 385.679 265.74C385.722 265.596 385.773 265.456 385.833 265.318C385.849 265.35 385.866 265.381 385.884 265.41C386.172 265.893 386.938 265.716 386.95 265.154C386.954 264.976 386.974 264.799 387.011 264.623C387.013 264.628 387.016 264.632 387.019 264.636C387.282 265.059 387.942 264.931 388.048 264.444C388.512 262.293 391.133 260.678 393.501 261.639L395.21 262.654C397.169 261.51 397.922 258.911 397.922 258.911Z" fill="#263238"/>
<path opacity="0.4" d="M405.297 320.597L405.028 322.405L397.057 324.804L398.894 325.982L406.783 323.789L407.108 320.277L405.297 320.597Z" fill="black"/>
<path d="M411.253 280.009C407.674 277.714 401.366 278.805 401.366 278.805L389.796 285.865L397.707 304.462C397.707 304.462 401.009 312.371 402.79 317.638C403.231 318.943 404.075 320.763 405.442 320.585L427.417 316.612C428.491 316.418 429.169 315.347 428.879 314.295C426.757 306.632 414.459 282.065 411.253 280.009Z" fill="#407BFF"/>
<path opacity="0.4" d="M413.318 290.352C413.318 290.352 409.797 296.982 403.614 302.762C401.117 305.096 399.383 308.462 399.383 308.462L397.833 304.502L413.318 290.352Z" fill="black"/>
<path d="M402.425 285.243L387.444 303.924L369.855 311.909L371.609 319.19C371.609 319.19 385.87 315.342 391.601 311.77C397.333 308.198 406.782 298.21 406.782 298.21C406.782 298.21 415.023 291.596 414.63 286.246C414.237 280.895 406.393 279.645 402.425 285.243Z" fill="#407BFF"/>
<path d="M394.292 283.122C394.292 283.122 394.848 280.268 395.118 280.383C395.388 280.498 398.066 282.105 398.066 282.105L401.061 277.619L402.859 278.808L398.721 287.386L394.292 283.122Z" fill="#407BFF"/>
<path opacity="0.4" d="M392.977 295.094L389.522 290.352L392.314 297.777L393.673 296.332L403.212 284.273L392.977 295.094Z" fill="black"/>
<path opacity="0.4" d="M394.292 283.122C394.443 283.176 396.924 284.848 396.788 284.875C396.653 284.903 397.832 282.875 397.832 282.875L400.462 283.875L402.621 278.65L400.496 284.669L398.005 283.464L396.788 285.67L394.292 283.122Z" fill="black"/>
<path d="M223.584 247.608C223.61 247.142 223.557 246.677 223.392 246.235C222.831 244.731 221.232 243.835 220.548 242.382C219.539 240.239 220.961 237.569 223.047 236.445C224.665 235.574 225.512 235.41 226.91 235.49C228.308 235.41 229.155 235.574 230.773 236.445C232.859 237.569 234.281 240.239 233.272 242.382C232.588 243.835 230.989 244.731 230.428 246.235C230.264 246.677 230.21 247.142 230.236 247.608H251.515V226.158C252.379 225.83 253.325 225.748 254.184 226.068C255.688 226.629 256.584 228.228 258.036 228.912C260.18 229.921 262.85 228.499 263.974 226.413C264.845 224.795 265.009 223.948 264.928 222.55C265.009 221.152 264.845 220.305 263.974 218.687C262.85 216.601 260.18 215.179 258.036 216.188C256.584 216.872 255.688 218.471 254.184 219.032C253.326 219.352 252.379 219.27 251.515 218.941V199.867L203.939 199.654V247.395L223.584 247.608Z" fill="#263238"/>
<g opacity="0.4">
<path d="M223.584 247.608C223.61 247.142 223.557 246.677 223.392 246.235C222.831 244.731 221.232 243.835 220.548 242.382C219.539 240.239 220.961 237.569 223.047 236.445C224.665 235.574 225.512 235.41 226.91 235.49C228.308 235.41 229.155 235.574 230.773 236.445C232.859 237.569 234.281 240.239 233.272 242.382C232.588 243.835 230.989 244.731 230.428 246.235C230.264 246.677 230.21 247.142 230.236 247.608H251.515V226.158C252.379 225.83 253.325 225.748 254.184 226.068C255.688 226.629 256.584 228.228 258.036 228.912C260.18 229.921 262.85 228.499 263.974 226.413C264.845 224.795 265.009 223.948 264.928 222.55C265.009 221.152 264.845 220.305 263.974 218.687C262.85 216.601 260.18 215.179 258.036 216.188C256.584 216.872 255.688 218.471 254.184 219.032C253.326 219.352 252.379 219.27 251.515 218.941V199.867L203.939 199.654V247.395L223.584 247.608Z" fill="black"/>
</g>
<path d="M225.027 247.608C225.052 247.142 224.999 246.677 224.834 246.235C224.274 244.731 222.674 243.835 221.99 242.382C220.981 240.239 222.404 237.569 224.489 236.445C226.107 235.574 226.955 235.41 228.353 235.49C229.75 235.41 230.598 235.574 232.216 236.445C234.302 237.569 235.724 240.239 234.715 242.382C234.031 243.835 232.431 244.731 231.871 246.235C231.706 246.677 231.653 247.142 231.678 247.608H252.957V226.158C253.821 225.83 254.768 225.748 255.626 226.068C257.131 226.629 258.026 228.228 259.479 228.912C261.622 229.921 264.292 228.499 265.416 226.413C266.287 224.795 266.451 223.948 266.371 222.55C266.451 221.152 266.287 220.305 265.416 218.687C264.292 216.601 261.622 215.179 259.479 216.188C258.026 216.872 257.131 218.471 255.626 219.032C254.768 219.352 253.821 219.27 252.957 218.941V199.867L205.382 199.654V247.395L225.027 247.608Z" fill="#263238"/>
<path d="M193.395 222.054C193.395 222.054 189.921 234.362 192.143 236.505C194.365 238.647 202.142 237.219 201.745 237.06C201.348 236.901 203.729 222.1 203.887 222.636C204.046 223.173 193.395 222.054 193.395 222.054Z" fill="#B97964"/>
<path d="M197.717 333.185L197.707 343.863L202.664 344.248L204.407 334.218C202.139 332.58 199.908 332.189 197.717 333.185Z" fill="#B97964"/>
<path d="M197.662 342.749C197.174 344.158 197.142 349.923 197.142 349.923L207.651 349.935C208.276 347.85 207.309 346.427 206.083 346.238C205.557 346.158 204.937 345.572 204.485 345.061C204.482 344.994 203.84 341.791 203.442 341.638C203.442 341.638 203.169 341.305 202.936 341.638C202.703 341.97 202.5 343.052 202.5 343.052C200.86 340.847 199.253 341.142 197.662 342.749Z" fill="#263238"/>
<path d="M197.535 344.423C198.722 343.949 199.996 344.129 201.031 344.917C201.213 345.055 201.384 344.732 201.205 344.596C200.102 343.756 198.708 343.56 197.443 344.065C197.238 344.146 197.327 344.506 197.535 344.423Z" fill="white"/>
<path d="M207.62 349.092C207.619 349.092 207.619 349.092 207.62 349.092L197.265 349.08C197.17 349.08 197.094 348.997 197.094 348.894C197.094 348.792 197.171 348.708 197.266 348.708L207.62 348.72C207.715 348.72 207.792 348.804 207.792 348.907C207.791 349.009 207.714 349.092 207.62 349.092Z" fill="white"/>
<path d="M219.106 331.794L219.094 343.844L223.864 344.238L226.211 332.958C224.296 331.416 222.072 330.661 219.106 331.794Z" fill="#B97964"/>
<path d="M218.878 342.774C218.39 344.183 218.358 349.949 218.358 349.949L230.431 349.963C231.056 347.878 229.751 346.642 228.525 346.453C227.998 346.373 226.153 345.598 225.701 345.086C225.698 345.02 225.056 341.817 224.659 341.664C224.659 341.664 224.385 341.331 224.152 341.664C223.919 341.996 223.716 343.078 223.716 343.078C222.076 340.873 220.468 341.167 218.878 342.774Z" fill="#263238"/>
<path d="M218.75 344.448C219.937 343.974 221.212 344.154 222.247 344.942C222.428 345.08 222.6 344.757 222.42 344.62C221.317 343.781 219.923 343.584 218.659 344.089C218.453 344.171 218.542 344.531 218.75 344.448Z" fill="white"/>
<path d="M230.432 349.12L218.481 349.106C218.386 349.106 218.309 349.023 218.309 348.92C218.309 348.817 218.386 348.734 218.481 348.734L230.432 348.748C230.527 348.748 230.604 348.831 230.604 348.934C230.604 349.036 230.527 349.12 230.432 349.12Z" fill="white"/>
<path d="M195.661 338.448L206.226 339.01C208.597 331.329 210.939 303.785 211.182 295.516C211.471 285.636 215.009 260.839 211.881 255.678C208.753 250.518 194.604 254.628 194.604 254.628C194.604 254.628 196.366 284.822 195.662 294.452C195.051 302.797 194.105 327.33 195.661 338.448Z" fill="#263238"/>
<path d="M207.366 336.227L206.68 339.757L195.231 339.385L194.811 335.996L207.366 336.227Z" fill="#407BFF"/>
<path d="M216.761 338.448L227.235 339.01C228.51 330.507 233.632 299.538 233.212 293.606C232.698 286.36 226.632 254.995 224.376 252.577C222.12 250.159 205.605 256.427 205.605 256.427C205.605 256.427 212.392 283.399 217.744 295.064C218.856 297.486 215.901 328.105 216.761 338.448Z" fill="#263238"/>
<path d="M228.433 336.492L227.899 339.757L216.259 339.01L216.025 335.592L228.433 336.492Z" fill="#407BFF"/>
<path opacity="0.3" d="M212.213 280.205L209.137 269.926L203.681 268.145L207.947 271.453L211.378 290.189L212.213 280.205Z" fill="black"/>
<path d="M218.098 189.161C218.098 189.605 218.292 189.939 218.572 189.986C218.852 190.033 219.109 189.66 219.132 189.208C219.155 188.757 218.946 188.43 218.665 188.384C218.385 188.337 218.152 188.733 218.098 189.161Z" fill="#263238"/>
<path d="M218.276 189.1C218.432 190.529 218.785 191.93 219.327 193.262C218.625 193.52 217.846 193.457 217.195 193.091L218.276 189.1Z" fill="#A24E3F"/>
<path d="M217.296 187.738C217.238 187.743 217.181 187.73 217.132 187.699C217.031 187.599 217.03 187.437 217.129 187.336C217.13 187.335 217.131 187.334 217.132 187.333C217.651 186.686 218.452 186.332 219.28 186.383C219.417 186.396 219.518 186.516 219.506 186.654C219.506 186.654 219.506 186.655 219.506 186.656C219.482 186.794 219.358 186.891 219.218 186.882C218.562 186.852 217.933 187.142 217.53 187.659C217.47 187.725 217.382 187.755 217.296 187.738Z" fill="#263238"/>
<path d="M218.285 195.051C218.227 195.288 218.155 195.522 218.07 195.75C217.594 197.056 216.728 198.19 215.585 199.003C215.298 199.211 214.994 199.395 214.677 199.555C212.187 200.865 209.116 200.384 207.162 198.381C204.648 195.885 204.713 193.001 204.427 188.121C204.351 187.072 204.525 186.021 204.935 185.05C206.375 181.641 210.353 180.026 213.82 181.443C213.821 181.443 213.822 181.444 213.823 181.444C218.673 183.394 219.342 190.652 218.285 195.051Z" fill="#B97964"/>
<path opacity="0.2" d="M215.567 199.003C215.28 199.21 214.976 199.395 214.659 199.555C212.974 200.438 210.974 200.525 209.217 199.79C209.442 199.204 209.741 198.647 210.107 198.134C211.974 197.904 213.869 198.206 215.567 199.003Z" fill="black"/>
<path d="M205.574 205.334C208.023 207.519 214.014 206.715 214.014 206.715C214.014 206.715 217.753 205.705 216.964 204.559C214.766 204.201 213.697 203.191 213.255 201.893C213.016 201.091 212.941 200.251 213.034 199.42C213.069 198.957 213.131 198.496 213.219 198.04L205.812 192.649C206.78 196.208 207.969 202.756 205.574 205.334Z" fill="#B97964"/>
<path d="M215.567 190.611L216.636 191.005L216.105 188.855C216.105 188.855 217.67 186.506 216.105 184.469C216.105 184.469 220.43 183.177 217.987 180.945C217.078 180.111 215.95 180.945 212.963 179.67C211.344 178.972 206.279 178.919 206.028 180.945C206.028 180.945 202.379 180.945 201.985 187.053C201.751 190.675 203.167 194.212 205.85 196.708C205.85 196.708 210.258 197.729 212.42 195.991C214.582 194.252 215.567 190.611 215.567 190.611Z" fill="#263238"/>
<path d="M212.748 190.958C212.936 191.887 213.542 192.684 214.396 193.125C215.406 193.548 216.074 192.15 215.925 190.681C215.787 189.378 215.101 187.545 214.019 187.792C212.939 188.039 212.395 189.642 212.748 190.958Z" fill="#B97964"/>
<path d="M198.042 204.16C198.042 204.16 196.321 204.683 195.465 204.997C193.68 205.651 192.503 207.638 191.857 209.588C190.279 214.355 187.729 225.639 187.729 225.639L196.983 227.584L201.919 216.952L198.042 204.16Z" fill="#407BFF"/>
<path opacity="0.5" d="M198.042 204.16C198.042 204.16 195.566 204.621 194.262 205.698C193.27 206.518 192.48 207.707 191.857 209.588C190.279 214.355 187.729 225.639 187.729 225.639L196.983 227.584L201.919 216.952L198.042 204.16Z" fill="white"/>
<path d="M220.454 204.707C217.725 204.414 209.329 202.517 198.042 204.16L195.401 245.893C195.401 245.893 195.062 252.278 194.062 257.757C205.532 262.682 219.101 261.273 226.774 257.133C226.685 257.307 226.434 252.753 226.041 246.083C225.347 234.328 224.212 216 222.748 205.389C222.708 205.127 220.726 204.737 220.454 204.707Z" fill="#407BFF"/>
<g opacity="0.5">
<path d="M220.454 204.707C217.725 204.414 209.329 202.517 198.042 204.16L195.401 245.893C195.401 245.893 195.062 252.278 194.062 257.757C205.532 262.682 219.101 261.273 226.774 257.133C226.685 257.307 226.434 252.753 226.041 246.083C225.347 234.328 224.212 216 222.748 205.389C222.708 205.127 220.726 204.737 220.454 204.707Z" fill="white"/>
</g>
<path d="M205.45 203.726C205.776 202.756 206.23 202.073 206.812 201.679L213.097 202.163L216.044 204.106L205.45 203.726Z" fill="#407BFF"/>
<path opacity="0.5" d="M205.45 203.726C205.776 202.756 206.23 202.073 206.812 201.679L213.097 202.163L216.044 204.106L205.45 203.726Z" fill="white"/>
<path opacity="0.2" d="M220.163 217.697C221.169 222.397 222.616 231.611 225.347 234.823L224.698 225.497L220.163 217.697Z" fill="black"/>
<path opacity="0.2" d="M196.394 227.454L196.637 215.402L194.107 226.881L196.394 227.454Z" fill="black"/>
<path d="M224.981 221.414C224.628 221.55 231.435 236.864 234.206 237.001C236.977 237.138 249.988 231.217 249.988 231.217L247.069 227.733L237.235 228.297L232.219 217.62L224.981 221.414Z" fill="#B97964"/>
<path d="M221.558 205.232C218.028 207.564 216.279 212.843 225.742 229.141L235.962 222.9C233.895 219.086 231.704 216.313 229.27 210.788C224.364 203.725 221.558 205.232 221.558 205.232Z" fill="#407BFF"/>
<path opacity="0.5" d="M221.558 205.232C218.028 207.564 216.279 212.843 225.742 229.141L235.962 222.9C233.895 219.086 231.704 216.313 229.27 210.788C224.364 203.725 221.558 205.232 221.558 205.232Z" fill="white"/>
<path d="M254.571 227.629C254.571 226.735 254.296 225.764 253.815 225.734C253.334 225.705 250.763 225.731 250.763 225.731C250.763 225.01 252.116 224.221 251.676 223.728C251.101 223.086 247.77 225.831 247.559 226.392C247.147 227.492 246.941 227.767 246.941 227.767L248.702 231.808C248.702 231.808 251.959 233.954 252.715 233.198C253.472 232.441 253.403 231.633 253.403 231.633C253.403 231.633 254.159 230.585 254.091 229.898C254.021 229.21 254.571 228.523 254.571 227.629Z" fill="#B97964"/>
</g>
</g>
<defs>
<filter id="filter0_d_321_2154" x="68" y="61.6277" width="452" height="429" filterUnits="userSpaceOnUse" color-interpolation-filters="sRGB">
<feFlood flood-opacity="0" result="BackgroundImageFix"/>
<feColorMatrix in="SourceAlpha" type="matrix" values="0 0 0 0 0 0 0 0 0 0 0 0 0 0 0 0 0 0 127 0" result="hardAlpha"/>
<feOffset dy="14"/>
<feGaussianBlur stdDeviation="25.5"/>
<feColorMatrix type="matrix" values="0 0 0 0 0 0 0 0 0 0 0 0 0 0 0 0 0 0 0.031 0"/>
<feBlend mode="normal" in2="BackgroundImageFix" result="effect1_dropShadow_321_2154"/>
<feBlend mode="normal" in="SourceGraphic" in2="effect1_dropShadow_321_2154" result="shape"/>
</filter>
<linearGradient id="paint0_linear_321_2154" x1="294" y1="500" x2="294" y2="0" gradientUnits="userSpaceOnUse">
<stop stop-color="#252A42" stop-opacity="0"/>
<stop offset="1" stop-color="#24283E"/>
</linearGradient>
<clipPath id="clip0_321_2154">
<rect width="588" height="527" fill="white"/>
</clipPath>
<clipPath id="clip1_321_2154">
<rect width="347.5" height="231.667" fill="white" transform="translate(119 139.675)"/>
</clipPath>
</defs>
</svg>
