<svg width="588" height="527" viewBox="0 0 588 527" fill="none" xmlns="http://www.w3.org/2000/svg">
<g clip-path="url(#clip0_321_2138)">
<path d="M8 500L580 500C584.418 500 588 496.418 588 492L588 8C588 3.58173 584.418 0 580 0L8 0C3.58173 0 0 3.58173 0 8L0 492C0 496.418 3.58173 500 8 500Z" fill="url(#paint0_linear_321_2138)"/>
<path d="M103.331 68.3246H443.774C445.1 68.3246 446.372 68.8514 447.309 69.7891C448.247 70.7267 448.774 71.9985 448.774 73.3246V93.5006H98.3306V73.3246C98.3306 71.9985 98.8574 70.7267 99.7951 69.7891C100.733 68.8514 102.005 68.3246 103.331 68.3246Z" fill="#181C31"/>
<g filter="url(#filter0_d_321_2138)">
<path d="M98 92.9523H448V415.172C448 416.44 447.474 417.656 446.537 418.552C445.601 419.449 444.331 419.952 443.007 419.952H102.993C101.669 419.952 100.399 419.449 99.4624 418.552C98.526 417.656 98 416.44 98 415.172V92.9523Z" fill="#292E45"/>
</g>
<path d="M137.15 83.7226C138.509 83.7226 139.61 82.5935 139.61 81.2006C139.61 79.8077 138.509 78.6786 137.15 78.6786C135.791 78.6786 134.69 79.8077 134.69 81.2006C134.69 82.5935 135.791 83.7226 137.15 83.7226Z" fill="#77F28A"/>
<path d="M119.17 83.7226C120.529 83.7226 121.63 82.5935 121.63 81.2006C121.63 79.8077 120.529 78.6786 119.17 78.6786C117.811 78.6786 116.71 79.8077 116.71 81.2006C116.71 82.5935 117.811 83.7226 119.17 83.7226Z" fill="#EF5C00"/>
<path d="M127.977 83.7226C129.335 83.7226 130.437 82.5935 130.437 81.2006C130.437 79.8077 129.335 78.6786 127.977 78.6786C126.618 78.6786 125.517 79.8077 125.517 81.2006C125.517 82.5935 126.618 83.7226 127.977 83.7226Z" fill="#FFDB26"/>
<path d="M282.427 191.279C261.643 186.392 246.511 191.141 229.225 197.106C220.705 200.046 212.08 203.155 203.101 204.337C196.399 205.22 189.629 205.455 182.902 206.123C175.908 206.818 168.917 207.695 162.053 209.238C150.489 211.837 130.349 216.627 131.585 232.195C132.08 238.429 136.336 244.096 135.906 250.335C135.355 258.331 127.895 264.525 123.008 270.174C116.262 277.973 110.195 286.628 111.307 297.47C112.205 306.215 117.884 313.899 124.887 319.213C131.89 324.528 140.177 327.826 148.342 331.082C160.779 336.043 171.296 341.852 181.08 351.075C186.748 356.417 192.782 361.711 200.128 364.301C209.998 367.781 222.581 364.752 226.601 354.3C228.792 348.601 229.408 341.968 232.807 336.791C236.307 331.458 243.688 326.971 250.2 327.834C260.805 329.24 264.941 337.108 269.995 345.383C272.464 349.425 275.395 353.147 279.541 355.573C286.653 359.735 293.759 358.112 301.257 356.423C309.359 354.599 317.543 353.125 325.789 352.139C339.78 350.467 353.857 351.216 367.799 352.974C381.038 354.644 400.259 363.348 411.177 351.536C415.961 346.36 416.913 339.275 415.171 332.664C412.675 323.191 407.303 312.675 407.593 302.836C408.021 288.31 414.568 278.642 422.57 267.292C426.402 261.858 429.354 255.819 429.216 249.019C428.899 233.375 419.092 221.364 408.867 210.578C398.664 199.816 388.471 187.553 378.147 178.01" stroke="#ED725A" stroke-width="0.73988" stroke-miterlimit="10"/>
<path d="M431.046 207.253C431.046 209.526 429.204 211.368 426.931 211.368C424.658 211.368 422.815 209.526 422.815 207.253C422.815 204.98 424.658 203.137 426.931 203.137C429.204 203.137 431.046 204.98 431.046 207.253Z" stroke="#ED725A" stroke-width="0.73988" stroke-miterlimit="10"/>
<path d="M293.271 346.586C293.271 348.859 291.429 350.702 289.156 350.702C286.883 350.702 285.041 348.859 285.041 346.586C285.041 344.313 286.884 342.471 289.156 342.471C291.429 342.471 293.271 344.313 293.271 346.586Z" stroke="#ED725A" stroke-width="0.73988" stroke-miterlimit="10"/>
<path d="M278.898 167.401C280.607 167.401 281.991 168.786 281.991 170.494V231.649C281.991 233.358 280.606 234.742 278.898 234.742H160.204C158.496 234.742 157.111 233.357 157.111 231.649V170.494C157.111 168.786 158.496 167.401 160.204 167.401H278.898ZM278.898 166.661H160.204C158.091 166.661 156.371 168.38 156.371 170.494V231.649C156.371 233.763 158.091 235.482 160.204 235.482H278.898C281.012 235.482 282.731 233.763 282.731 231.649V170.494C282.732 168.38 281.012 166.661 278.898 166.661Z" fill="white"/>
<path d="M278.898 234.742H160.204C158.495 234.742 157.111 233.357 157.111 231.649V175.649H281.992V231.649C281.992 233.358 280.607 234.742 278.898 234.742Z" fill="#AFB9E8"/>
<path d="M164.375 171.766C164.375 172.744 163.582 173.537 162.605 173.537C161.627 173.537 160.834 172.744 160.834 171.766C160.834 170.789 161.627 169.996 162.605 169.996C163.582 169.996 164.375 170.789 164.375 171.766Z" stroke="white" stroke-width="0.73988" stroke-miterlimit="10"/>
<path d="M171.237 171.766C171.237 172.744 170.445 173.537 169.467 173.537C168.489 173.537 167.697 172.744 167.697 171.766C167.697 170.789 168.489 169.996 169.467 169.996C170.445 169.996 171.237 170.789 171.237 171.766Z" stroke="white" stroke-width="0.73988" stroke-miterlimit="10"/>
<path d="M157.111 175.649H281.992" stroke="white" stroke-width="0.73988" stroke-miterlimit="10"/>
<path d="M271.952 226.165C270.696 224.5 268.553 222.968 266.88 224.114C265.476 225.076 265.424 227.248 265.533 229.053C261.552 223.419 256.816 218.42 251.522 214.267C248.653 212.017 245.356 209.937 241.832 210.208C238.309 210.479 236.481 215.424 237.407 219.145C227.785 206.405 217.055 197.368 205.881 189.548C202.067 186.88 197.835 184.306 193.31 182.785C188.497 181.167 181.849 179.27 177.501 183.028C175.638 184.638 174.667 187.094 174.403 189.542C174.076 192.572 174.588 195.772 175.414 198.692C177.389 205.676 180.556 212.261 184.231 218.464C187.906 224.669 195.991 234.859 195.991 234.859H275.779C275.167 231.682 273.842 228.671 271.952 226.165Z" fill="#909DF4"/>
<path d="M229.994 222.377C229.994 222.377 214.676 209.092 208.106 206.839C201.536 204.587 188.036 208.205 187.866 208.205C187.697 208.205 175.781 234.744 175.781 234.744H224.651L229.994 222.377Z" fill="#EF9748"/>
<path d="M259.094 258.445C260.211 259.61 261.373 260.734 262.574 261.812C263.733 262.853 265.003 263.781 266.133 264.846C266.412 265.109 266.667 265.397 266.92 265.684C267.845 266.73 268.777 267.787 269.45 269.009C269.54 269.172 269.627 269.341 269.762 269.469C269.897 269.596 270.093 269.677 270.271 269.624C270.456 269.569 270.573 269.389 270.652 269.212C270.977 268.479 270.896 267.629 270.697 266.852C270.569 266.352 270.395 265.865 270.255 265.369C270.139 264.957 269.97 264.514 270.032 264.088C273.314 265.458 275.983 267.943 278.975 269.865C279.588 270.258 280.938 270.405 281.165 269.863C281.466 269.147 277.1 265.912 275.101 263.774C276.608 264.544 278.207 265.35 279.568 266.364C280.511 267.067 281.541 267.666 282.666 268.023C283.297 268.224 284.747 268.522 284.451 267.368C284.364 267.028 284.108 266.761 283.856 266.516C281.901 264.618 279.542 263.278 277.488 261.488C279.801 262.4 281.923 264.034 284.407 264.12C284.649 264.129 284.91 264.115 285.101 263.966C285.392 263.74 285.489 263.425 285.3 263.109C285.11 262.792 284.784 262.588 284.47 262.396C282.165 260.986 279.764 259.427 277.459 258.017C278.698 258.354 279.844 258.961 281.032 259.45C282.219 259.939 283.5 260.318 284.775 260.159C285.185 260.108 285.695 259.844 285.602 259.441C285.557 259.246 285.379 259.116 285.214 259.003C282.412 257.088 279.611 255.173 276.809 253.258C276.024 252.721 275.237 252.183 274.431 251.676C273.461 251.065 272.341 250.612 271.44 249.925C270.736 249.389 269.886 248.991 269.131 248.527C267.267 247.382 265.461 246.147 263.71 244.834" fill="#FFCAA3"/>
<path d="M270.094 264.077C269.212 263.689 268.316 263.332 267.409 263.007" stroke="black" stroke-width="0.493254" stroke-miterlimit="10"/>
<path d="M275.232 263.768C274.036 262.949 272.796 262.193 271.52 261.504" stroke="black" stroke-width="0.493254" stroke-miterlimit="10"/>
<path d="M277.495 261.441C276.512 260.818 275.529 260.195 274.546 259.572" stroke="black" stroke-width="0.493254" stroke-miterlimit="10"/>
<path d="M278.577 258.627C277.845 258.224 277.141 257.772 276.47 257.273" stroke="black" stroke-width="0.493254" stroke-miterlimit="10"/>
<path d="M211.633 207.253C217.684 209.155 220.721 209.328 226.133 212.687C231.886 216.255 246.116 231.249 246.116 231.249C246.116 231.249 265.318 244.787 272.514 249.906L259.586 262.228C245.287 253.68 230.61 243.475 219.771 230.824" fill="#EF9748"/>
<path d="M189.679 232.17C189.679 232.17 195.68 228.952 198.321 228.287C201.978 227.368 206.317 227.108 207.48 227.462C208.025 227.627 210.074 228.469 211.147 229.724C212.286 230.222 212.748 230.472 213.424 230.756C214.101 231.041 214.418 231.837 215.127 232.444C215.834 233.05 216.612 234.74 216.612 234.74C216.612 234.74 211.212 234.758 209.695 234.809C208.178 234.859 206.54 237.755 203.146 238.781" fill="#FFCAA3"/>
<path d="M202.042 204.865C197.879 204.832 193.825 203.747 189.67 203.745C182.124 203.74 177.793 207.699 174.122 213.186C171.343 217.342 168.725 222.455 166.756 227.017C164.457 232.342 161.882 238.272 161.212 244.088C160.905 246.748 161.287 249.495 162.517 251.859C164.792 256.233 169.848 256.997 172.797 257.325C175.746 257.653 180.914 256.656 183.445 255.087C196.766 246.827 205.574 238.549 205.574 238.549L191.243 231.203L184.368 233.893L193.051 217.842" fill="#EF9748"/>
<path d="M192.346 219.145L184.369 233.894" stroke="black" stroke-width="0.493254" stroke-miterlimit="10"/>
<path d="M191.244 231.204C187.135 232.798 183.025 234.392 178.915 235.987C176.11 237.076 173.359 239.23 171.125 241.232" stroke="black" stroke-width="0.493254" stroke-miterlimit="10"/>
<path d="M186.32 233.207L201.167 242.343" stroke="black" stroke-width="0.493254" stroke-miterlimit="10"/>
<path d="M226.227 226.058C224.261 229.308 221.54 234.741 221.54 234.741" stroke="black" stroke-width="0.493254" stroke-miterlimit="10"/>
<path d="M267.272 246.19L252.869 258.186" stroke="black" stroke-width="0.493254" stroke-miterlimit="10"/>
<path d="M210.592 231.262C211.636 231.539 212.698 231.749 213.77 231.89C214.101 231.933 214.446 231.975 214.726 232.156" stroke="black" stroke-width="0.493254" stroke-miterlimit="10"/>
<path d="M211.514 230.005C211.328 229.912 211.133 229.84 210.938 229.769C209.904 229.389 208.839 229.004 207.738 229.032" stroke="black" stroke-width="0.493254" stroke-miterlimit="10"/>
<path d="M208.158 235.411C208.717 235.008 209.408 234.826 210.092 234.754C211.514 234.607 213.035 234.913 214.4 234.379" stroke="black" stroke-width="0.493254" stroke-miterlimit="10"/>
<path d="M154.771 245.119C155.001 250.74 158.588 256.095 163.699 258.447" stroke="black" stroke-width="0.493254" stroke-miterlimit="10"/>
<path d="M150.792 244.875C150.909 248.542 152.423 252.097 154.771 254.212" stroke="black" stroke-width="0.493254" stroke-miterlimit="10"/>
<path d="M231.626 209.294C236.009 213.004 240.08 217.083 243.782 221.473" stroke="black" stroke-width="0.493254" stroke-miterlimit="10"/>
<path d="M231.723 204.896C234.78 207.166 237.582 209.779 240.058 212.671" stroke="black" stroke-width="0.493254" stroke-miterlimit="10"/>
<path d="M196.332 212.346C194.016 211.514 191.87 210.276 189.752 209.023C188.854 208.491 187.946 207.947 187.221 207.195C186.496 206.444 185.963 205.45 185.983 204.407C186.003 203.445 186.484 202.547 187.082 201.794C188.949 199.443 191.966 198.223 194.955 197.951C197.944 197.68 200.943 198.257 203.864 198.947C208.256 199.983 212.739 201.361 216.127 204.34C217.081 205.179 217.944 206.152 218.477 207.305C219.212 208.898 219.266 210.737 218.952 212.463C218.638 214.189 217.976 215.829 217.318 217.455" fill="#EF9748"/>
<path d="M208.212 194.997L202.307 196.717L202.439 199.686L199.45 204.786C199.45 204.786 206.516 207.522 209.173 213.103C212.067 213.533 213.225 211.187 213.225 211.187L216.07 204.37" fill="#FFCAA3"/>
<path d="M222.108 200.923C222.617 197.995 223.23 194.828 223.182 192.497C223.142 190.523 222.84 187.543 221.565 185.997C219.925 184.007 216.937 183.974 214.429 183.695C210.312 183.236 207.466 186.966 206.247 190.45C205.311 193.127 205.388 195.74 206.255 198.499C207.389 202.106 211.408 206.949 216.637 206.355C219.412 206.04 221.569 204.023 222.108 200.923Z" fill="#FFCAA3"/>
<path d="M217.054 194.526C217.004 194.961 216.693 195.283 216.36 195.245C216.026 195.206 215.797 194.822 215.847 194.386C215.898 193.951 216.209 193.628 216.542 193.667C216.875 193.705 217.105 194.09 217.054 194.526Z" fill="black"/>
<path d="M222.753 195.066C222.703 195.502 222.391 195.824 222.058 195.785C221.725 195.747 221.496 195.363 221.546 194.927C221.596 194.491 221.908 194.169 222.24 194.208C222.574 194.247 222.803 194.631 222.753 195.066Z" fill="black"/>
<path d="M220.226 194.101C220.1 195.11 220.204 196.135 220.206 197.147C220.207 197.774 220.229 198.877 219.416 199.019C218.882 199.112 217.719 198.794 217.719 198.794" stroke="black" stroke-width="0.493254" stroke-miterlimit="10"/>
<path d="M218.175 200.583L216.04 198.786C216.04 198.786 214.472 200.835 215.282 201.577C216.59 202.777 218.175 200.583 218.175 200.583Z" fill="white"/>
<path d="M221.64 186.621C222.582 188.094 223.102 189.279 223.142 193.699C223.593 193.587 224.049 193.472 224.454 193.245C224.859 193.017 225.214 192.66 225.332 192.211C225.553 191.379 224.933 190.556 224.899 189.697C224.875 189.076 225.159 188.483 225.496 187.961C225.756 187.559 226.06 187.158 226.122 186.684C226.209 186.016 225.791 185.38 225.292 184.927C224.177 183.915 222.683 183.512 221.402 182.77C220.782 182.41 220.452 181.849 219.876 181.426C219.225 180.949 218.529 180.534 217.801 180.187C216.122 179.385 214.279 178.952 212.422 178.873C208.822 178.719 205.265 180.063 202.756 182.578C199.438 185.903 198.106 192.244 200.188 195.916C201.361 197.986 202.439 199.687 202.439 199.687C202.572 199.898 205.443 197.321 205.619 196.971C205.797 196.616 205.864 196.218 205.973 195.835C206.344 194.533 207.639 194.314 208.75 193.907C210.369 193.314 211.179 191.872 211.493 190.245C211.673 189.31 211.7 188.352 211.726 187.4C211.721 187.613 213.029 188.073 213.225 188.134C215.156 188.729 217.337 188.834 219.297 188.307C219.876 188.151 220.492 187.952 220.949 187.557C221.075 187.449 221.849 186.833 221.64 186.621Z" fill="#1E1611"/>
<path d="M209.577 203.74C209.68 203.815 211.73 206.054 215.652 206.404" stroke="black" stroke-width="0.493254" stroke-miterlimit="10"/>
<path d="M213.6 191.427C213.948 190.743 214.646 190.25 215.407 190.151C216.168 190.051 216.97 190.347 217.483 190.918" stroke="black" stroke-width="0.493254" stroke-miterlimit="10"/>
<path d="M220.849 191.52C221.108 190.941 221.656 190.572 222.135 190.654C222.614 190.736 222.976 191.267 223.005 191.887" stroke="black" stroke-width="0.493254" stroke-miterlimit="10"/>
<path d="M219.107 195.648C218.608 197.131 217.031 197.918 215.584 197.407C214.138 196.896 213.369 195.279 213.868 193.797C214.367 192.314 215.944 191.526 217.391 192.037C218.837 192.548 219.606 194.165 219.107 195.648Z" stroke="#572A2F" stroke-width="0.493254" stroke-miterlimit="10"/>
<path d="M224.424 196.341C224.155 197.885 223.16 198.995 222.2 198.82C221.24 198.645 220.679 197.251 220.947 195.707C221.216 194.163 222.211 193.053 223.171 193.228C224.131 193.403 224.692 194.796 224.424 196.341Z" stroke="#572A2F" stroke-width="0.493254" stroke-miterlimit="10"/>
<path d="M221.201 194.888L219.252 194.523" stroke="#572A2F" stroke-width="0.493254" stroke-miterlimit="10"/>
<path d="M213.978 193.518L208.106 193.966" stroke="#572A2F" stroke-width="0.493254" stroke-miterlimit="10"/>
<path d="M209.784 195.024C209.755 193.601 207.834 192.485 206.57 192.938C203.532 194.029 204.555 199.471 207.379 199.993C208.177 200.14 209.324 199.826 209.607 198.922" fill="#FFCAA3"/>
<path d="M206.35 195.365L208.961 197.731" stroke="black" stroke-width="0.493254" stroke-miterlimit="10"/>
<path d="M208.443 193.269C209.079 193.652 209.595 194.24 209.902 194.934" stroke="black" stroke-width="0.493254" stroke-miterlimit="10"/>
<path d="M204.832 197.427C205.224 198.59 206.023 199.822 207.289 200.031C208.167 200.177 209.174 199.792 209.533 198.881" stroke="black" stroke-width="0.493254" stroke-miterlimit="10"/>
<path d="M198.127 189.416C198.186 187.501 198.396 185.572 199.019 183.76C199.642 181.949 200.704 180.25 202.235 179.1C203.083 178.463 204.052 178.007 205.033 177.604C205.859 177.265 206.702 176.959 207.576 176.773C210.848 176.076 214.238 177.112 217.304 178.452" fill="#FFC36C"/>
<path d="M218.77 178.715C217.962 177.936 216.917 177.433 215.829 177.154C215.181 176.988 214.511 176.898 213.843 176.931C213.496 176.948 213.151 176.999 212.809 177.066C210.437 177.533 208.299 178.777 206.243 180.049C203.498 181.748 200.757 183.576 198.744 186.1C198.017 187.011 197.373 188.062 197.308 189.226C197.272 189.87 197.418 190.513 197.629 191.124C197.985 192.153 198.822 193.622 199.523 194.456C205.561 188.807 212.343 184.339 220.172 181.684C220.132 180.563 219.578 179.494 218.77 178.715Z" fill="#FFC36C"/>
<path d="M198.518 186.392C198.518 186.392 203.615 179.286 213.076 176.924" stroke="black" stroke-width="0.493254" stroke-miterlimit="10"/>
<path d="M201.167 187.195C201.913 188.486 202.678 189.799 203.79 190.793" stroke="black" stroke-width="0.493254" stroke-miterlimit="10"/>
<path d="M207.123 181.852C207.896 183.481 208.855 185.028 209.978 186.453" stroke="black" stroke-width="0.493254" stroke-miterlimit="10"/>
<path d="M213.441 178.457C214.744 179.801 215.858 181.327 216.74 182.978" stroke="black" stroke-width="0.493254" stroke-miterlimit="10"/>
<path d="M215.621 177.689C216.74 179.068 217.722 180.706 218.453 182.303" stroke="black" stroke-width="0.493254" stroke-miterlimit="10"/>
<path d="M198.204 187.991C198.57 190.039 199.768 191.774 201.297 193.006" stroke="black" stroke-width="0.493254" stroke-miterlimit="10"/>
<path d="M194.717 202.892C197.603 203.97 200.518 205.062 203.086 206.764C205.654 208.466 208.255 210.857 209.172 213.799" stroke="black" stroke-width="0.493254" stroke-miterlimit="10"/>
<path d="M211.171 212.903C212.485 212.272 213.553 211.143 214.108 209.795" stroke="black" stroke-width="0.493254" stroke-miterlimit="10"/>
<path d="M185.982 204.096C187.317 211.761 197.429 210.294 202.139 212.671" stroke="black" stroke-width="0.493254" stroke-miterlimit="10"/>
<path d="M219.124 209.665C218.94 210.717 218.576 211.767 217.878 212.576C216.828 213.791 215.196 214.294 213.654 214.741" stroke="black" stroke-width="0.493254" stroke-miterlimit="10"/>
<path d="M215.05 212.903C215.751 217.723 216.461 223.125 216.237 227.991" stroke="black" stroke-width="0.493254" stroke-miterlimit="10"/>
<path d="M204.335 211.795C205.066 213.799 204.723 219.23 204.643 224.129" stroke="black" stroke-width="0.493254" stroke-miterlimit="10"/>
<path d="M253.274 352.161H143.458C141.749 352.161 140.365 350.776 140.365 349.068V274.711H256.367V349.068C256.367 350.777 254.982 352.161 253.274 352.161Z" fill="#D4BCDD"/>
<path d="M253.274 264.687C254.983 264.687 256.367 266.072 256.367 267.78V349.068C256.367 350.777 254.982 352.161 253.274 352.161H143.458C141.749 352.161 140.365 350.776 140.365 349.068V267.78C140.365 266.072 141.75 264.687 143.458 264.687H253.274ZM253.274 263.947H143.458C141.344 263.947 139.625 265.667 139.625 267.78V349.068C139.625 351.182 141.344 352.901 143.458 352.901H253.274C255.387 352.901 257.107 351.182 257.107 349.068V267.78C257.107 265.667 255.388 263.947 253.274 263.947Z" fill="white"/>
<path d="M149.193 269.992C149.193 271.181 148.229 272.144 147.042 272.144C145.853 272.144 144.891 271.181 144.891 269.992C144.891 268.804 145.854 267.841 147.042 267.841C148.229 267.841 149.193 268.805 149.193 269.992Z" stroke="white" stroke-width="0.73988" stroke-miterlimit="10"/>
<path d="M155.38 272.144C156.568 272.144 157.531 271.18 157.531 269.992C157.531 268.804 156.568 267.841 155.38 267.841C154.192 267.841 153.229 268.804 153.229 269.992C153.229 271.18 154.192 272.144 155.38 272.144Z" stroke="white" stroke-width="0.73988" stroke-miterlimit="10"/>
<path d="M140.365 274.711H256.367" stroke="white" stroke-width="0.73988" stroke-miterlimit="10"/>
<path d="M245.221 352.161C243.663 348.32 241.541 344.723 238.949 341.53C237.358 339.57 235.509 337.706 233.174 336.844C230.839 335.981 227.926 336.359 226.338 338.323C225.124 339.825 224.893 341.899 224.712 343.845C220.867 339.718 216.972 335.548 212.282 332.487C207.591 329.425 201.899 327.247 196.468 328.438C190.445 329.759 190.445 337.37 190.445 337.37C190.445 337.37 186.753 332.195 186.42 331.708C183.951 328.097 181.157 324.789 178.185 321.612C175.265 318.493 172.489 315.212 169.199 312.489C165.922 309.776 160.603 306.311 156.197 307.953C153.906 308.807 153.274 310.795 153.783 313.088C154.258 315.234 154.509 317.384 155.176 319.496C151.471 315.366 147.255 311.564 142.367 308.994C138.84 307.139 131.482 303.996 127.821 307.034C126.766 307.91 126.286 309.361 126.255 310.757C126.063 319.301 132.22 328.483 137.18 334.796C142.269 341.273 148.408 347.01 154.766 352.161H245.221Z" fill="#FFDD99"/>
<path d="M222.931 313.559C222.273 317.191 222.468 320.946 222.486 324.656C222.504 328.368 222.803 330.795 221.46 334.164C220.248 337.206 217.717 338.239 216.395 341.218C215.723 342.736 213.171 352.154 213.171 352.154H178.903C178.903 352.154 177.942 337.349 183.227 324.714C188.511 312.079 195.117 309.813 195.117 309.813L214.612 304.784L222.931 313.559Z" fill="#735D9D"/>
<path d="M267.825 291.471C268.842 290.245 270.264 289.475 271.481 288.478C272.604 287.559 273.442 286.27 274.373 285.157C275.511 283.795 276.396 282.246 277.384 280.776C278.443 279.2 279.801 277.924 281.146 276.597C281.332 276.412 281.523 276.222 281.629 275.983C281.821 275.549 281.598 274.98 281.1 274.846C280.129 274.584 279.092 274.833 278.15 275.185C277.59 275.395 275.691 276.067 275.576 274.998C275.446 273.791 276.457 272.027 276.845 270.907C277.348 269.45 277.864 267.99 278.273 266.503C278.662 265.087 278.574 262.364 277.821 262.32C277.067 262.275 277.636 262.727 277.439 262.833C277.754 262.419 277.203 261.463 276.751 261.177C276.299 260.891 275.712 261.816 275.576 262.315C275.73 261.828 275.303 261.024 274.941 260.99C274.414 260.941 274.004 261.44 273.69 261.847C273.376 262.254 273.097 262.709 272.652 262.981C272.656 262.632 272.604 262.282 272.497 261.947C272.154 261.752 271.76 262.074 271.511 262.367C266.461 268.33 263.044 275.724 257.441 281.464" fill="#E27769"/>
<path d="M275.694 274.179C275.712 275.647 275.675 277.116 275.583 278.581" stroke="black" stroke-width="0.493254" stroke-miterlimit="10"/>
<path d="M277.278 262.484C276.837 263.869 275.986 265.04 275.346 266.329C274.328 268.38 273.418 270.482 272.473 272.568" stroke="black" stroke-width="0.493254" stroke-miterlimit="10"/>
<path d="M275.54 262.211C275.232 262.86 274.88 263.487 274.488 264.088C274.068 264.732 273.602 265.345 273.152 265.968C271.866 267.751 270.706 269.625 269.684 271.571" stroke="black" stroke-width="0.493254" stroke-miterlimit="10"/>
<path d="M272.478 263.203C272.137 263.929 271.582 264.527 271.058 265.134C269.415 267.034 268.001 269.131 266.855 271.366" stroke="black" stroke-width="0.493254" stroke-miterlimit="10"/>
<path d="M204.777 306.749C210.908 304.183 214.925 301.489 220.995 298.755C226.468 296.29 234.148 294.268 239.545 291.637C247.008 287.999 254.006 283.98 260.14 278.475L271.285 290.209C271.285 290.209 255.536 306.275 250.037 309.406C236.787 316.954 231.961 318.367 218.187 325.57" fill="#735D9D"/>
<path d="M222.331 323.553C222.409 320.782 223.04 318.027 224.179 315.5" stroke="black" stroke-width="0.493254" stroke-miterlimit="10"/>
<path d="M256.42 281.56L267.473 293.966" stroke="black" stroke-width="0.493254" stroke-miterlimit="10"/>
<path d="M202.994 340.762C207.668 340.849 212.322 341.587 216.374 344.049C218.32 345.231 219.404 346.813 219.941 349.009C220.393 350.862 220.54 352.845 220.373 354.746C220.357 354.927 220.218 355.093 220.062 355.131C219.843 355.184 219.401 354.965 219.401 354.965C219.401 354.965 219.8 356.85 219.378 357.242C219.084 357.515 218.529 357.144 218.32 356.917C218.077 356.652 217.745 355.975 217.745 355.975C217.745 355.975 218.024 357.057 217.789 357.243C217.439 357.519 216.43 356.819 216.191 356.11C216.044 356.513 215.804 356.886 215.433 356.787C214.265 356.477 213.351 354.825 212.389 354.005C211.112 352.916 209.398 352.842 207.805 352.867C207.071 352.877 206.336 352.896 205.604 352.823C204.855 352.749 204.18 352.455 203.449 352.307C202.089 352.031 200.67 351.906 199.29 351.825" fill="#E27769"/>
<path d="M211.625 350.498C212.908 351.031 214.268 351.625 214.99 352.724C215.206 353.053 215.354 353.414 215.487 353.778C215.766 354.543 215.979 355.327 216.192 356.11" stroke="black" stroke-width="0.493254" stroke-miterlimit="10"/>
<path d="M213.466 348.18C214.196 348.643 214.911 349.138 215.53 349.742C216.148 350.345 216.669 351.065 216.951 351.881C217.112 352.349 217.192 352.839 217.273 353.326C217.439 354.33 217.612 355.333 217.789 356.335" stroke="black" stroke-width="0.493254" stroke-miterlimit="10"/>
<path d="M215.971 346.586C217.186 347.492 218.138 348.747 218.681 350.162C219.161 351.413 219.321 352.76 219.478 354.091C219.528 354.513 219.577 354.935 219.627 355.356" stroke="black" stroke-width="0.493254" stroke-miterlimit="10"/>
<path d="M197.846 307.646C197.846 307.646 188.173 309.077 184.461 311.209C178.657 314.543 176.106 319.632 172.408 328.26C168.709 336.889 167.209 340.676 167.173 343.535C167.12 347.744 169.015 352.155 176.756 352.155C190.547 352.155 201.445 352.155 201.445 352.155L206.427 340.519L187.215 337.513L192.517 325.102" fill="#735D9D"/>
<path d="M206.426 340.519L187.215 337.513L192.516 325.102" stroke="black" stroke-width="0.493254" stroke-miterlimit="10"/>
<path d="M180.392 339.289C180.54 339.289 183.464 337.467 187.215 337.513" stroke="black" stroke-width="0.493254" stroke-miterlimit="10"/>
<path d="M201.126 339.69L195.856 352.155" stroke="black" stroke-width="0.493254" stroke-miterlimit="10"/>
<path d="M212.845 310.609C213.099 309.297 213.09 307.896 212.88 306.488" stroke="black" stroke-width="0.493254" stroke-miterlimit="10"/>
<path d="M192.372 310.278C193.438 312.94 195.796 315.146 198.372 316.275C201.615 317.697 206.013 317.959 209.113 316.061C210.557 315.177 211.55 314.014 212.177 312.687" stroke="black" stroke-width="0.493254" stroke-miterlimit="10"/>
<path d="M246.933 315.268C252.708 312.325 257.989 308.415 262.488 303.749" stroke="black" stroke-width="0.493254" stroke-miterlimit="10"/>
<path d="M257.706 312.476C260.506 310.308 263.131 307.914 265.548 305.326" stroke="black" stroke-width="0.493254" stroke-miterlimit="10"/>
<path d="M165.078 336.275C163.856 340.26 163.415 344.482 163.788 348.633" stroke="black" stroke-width="0.493254" stroke-miterlimit="10"/>
<path d="M161.221 336.87C160.45 339.106 160.009 341.456 159.917 343.819" stroke="black" stroke-width="0.493254" stroke-miterlimit="10"/>
<path d="M201.083 295.75L195.793 299.296L196.935 303.077L195.344 308.777C195.243 309.141 195.304 309.527 195.514 309.84C196.379 311.127 199.06 314.325 204.376 314.32C209.994 314.315 209.915 310.588 209.915 310.588L210.938 302.651" fill="#E27769"/>
<path d="M211.725 295.278C210.271 292.567 209.439 290.89 207.911 289.021C206.618 287.439 204.468 285.203 202.442 284.757C199.833 284.183 197.378 286.065 195.156 287.439C191.508 289.695 191.571 294.553 192.803 298.171C193.75 300.95 195.707 302.011 198.177 303.705C201.403 305.92 208.417 306.922 211.429 304.495C213.681 302.68 213.266 298.148 211.725 295.278Z" fill="#E27769"/>
<path d="M203.927 295.039C204.1 295.459 203.979 295.907 203.658 296.039C203.337 296.171 202.936 295.938 202.763 295.517C202.591 295.098 202.711 294.65 203.033 294.518C203.354 294.385 203.754 294.619 203.927 295.039Z" fill="black"/>
<path d="M209.107 292.185C209.28 292.605 209.159 293.053 208.838 293.185C208.517 293.317 208.117 293.083 207.944 292.663C207.771 292.243 207.892 291.796 208.213 291.664C208.534 291.531 208.935 291.765 209.107 292.185Z" fill="black"/>
<path d="M206.333 294.01C206.913 294.527 207.612 294.875 208.312 295.198C208.746 295.399 210.191 295.784 209.869 296.487C209.661 296.939 208.816 297.653 208.816 297.653" stroke="black" stroke-width="0.493254" stroke-miterlimit="10"/>
<path d="M195.748 307.329C195.748 307.329 196.409 305.639 196.57 305.035C196.841 304.015 195.982 303.962 195.686 303.064C195.531 302.596 195.658 302.022 195.762 301.558C195.985 300.563 196.498 299.446 196.039 298.442C195.748 297.806 195.124 297.403 194.624 296.914C194.124 296.425 193.717 295.68 194.016 295.048C194.37 294.3 195.417 294.245 196.058 293.722C196.699 293.201 196.849 292.28 196.806 291.454C196.762 290.629 196.571 289.797 196.716 288.983C196.742 288.837 196.782 288.685 196.886 288.578C197.199 288.253 197.721 288.567 198.115 288.788C198.821 289.186 199.676 289.137 200.416 288.837C200.791 288.685 201.134 288.407 201.269 288.026C201.353 287.791 201.352 287.535 201.393 287.288C201.434 287.041 201.531 286.783 201.744 286.652C201.899 286.557 202.091 286.546 202.272 286.553C202.842 286.579 203.404 286.779 203.863 287.12C204.247 287.406 204.463 287.613 204.947 287.595C205.412 287.577 205.86 287.424 206.324 287.559C206.885 287.722 207.259 288.235 207.59 288.716C208.499 290.04 209.409 291.364 210.318 292.688C210.773 292.032 211.235 291.361 211.459 290.594C211.682 289.828 211.63 288.935 211.127 288.315C210.642 287.718 209.815 287.45 209.403 286.8C208.947 286.082 209.018 285.044 208.969 284.231C208.915 283.343 208.642 282.447 208.135 281.697C207.644 280.971 206.819 280.407 205.946 280.474C205.44 280.513 204.959 280.755 204.452 280.74C204.139 280.731 203.838 280.623 203.55 280.499C202.218 279.928 201.063 279 199.736 278.417C198.409 277.835 196.743 277.658 195.598 278.546C195.011 279.002 194.621 279.693 193.982 280.072C192.138 281.166 189.494 279.105 187.737 280.333C186.604 281.125 186.569 282.841 185.614 283.842C184.394 285.121 182.174 284.785 180.79 285.884C179.393 286.993 179.387 289.205 180.225 290.78C180.64 291.558 181.243 292.36 181.064 293.223C180.953 293.761 180.556 294.185 180.218 294.618C179.736 295.239 179.344 295.955 179.248 296.735C179.152 297.515 179.391 298.363 179.992 298.869C180.365 299.184 180.934 299.333 181.217 299.741C181.535 300.199 181.624 301.022 181.687 301.562C181.742 302.037 181.748 302.523 181.891 302.979C182.284 304.224 183.658 304.966 184.964 304.967C185.566 304.967 186.227 304.854 186.722 305.196C187.133 305.479 187.3 305.992 187.549 306.424C188.358 307.828 190.326 308.419 191.774 307.691C192.319 307.418 192.822 306.979 193.431 306.97C194.036 306.961 195.175 307.429 195.748 307.329Z" fill="#2C221D"/>
<path d="M204.256 305.773C205.887 306.18 208.976 306.265 211.318 304.785" stroke="black" stroke-width="0.493254" stroke-miterlimit="10"/>
<path d="M199.846 294.912C199.841 293.277 200.921 291.708 202.685 292.017" stroke="black" stroke-width="0.493254" stroke-miterlimit="10"/>
<path d="M205.926 290.837C205.87 290.371 206.221 289.826 206.748 289.558C207.275 289.291 207.931 289.331 208.299 289.631" stroke="black" stroke-width="0.493254" stroke-miterlimit="10"/>
<path d="M198.608 299.639C197.675 298.498 195.397 298.815 194.657 299.992C192.877 302.821 197.187 306.602 199.821 305.224C200.567 304.834 201.3 303.845 200.953 302.928" fill="#E27769"/>
<path d="M196.027 302.11L199.666 302.37" stroke="black" stroke-width="0.493254" stroke-miterlimit="10"/>
<path d="M196.395 299.065C197.157 298.971 197.953 299.121 198.646 299.49" stroke="black" stroke-width="0.493254" stroke-miterlimit="10"/>
<path d="M196.107 304.759C197.169 305.458 198.608 305.951 199.773 305.313C200.581 304.87 201.155 303.914 200.866 302.942" stroke="black" stroke-width="0.493254" stroke-miterlimit="10"/>
<path d="M206.9 297.921C206.666 298.797 206.956 299.949 207.961 300.13C208.715 300.266 209.531 299.802 209.774 299.072" stroke="black" stroke-width="0.493254" stroke-miterlimit="10"/>
<path d="M408.102 248.034H298.156C296.448 248.034 295.063 246.649 295.063 244.941V190.591H411.196V244.941C411.196 246.649 409.811 248.034 408.102 248.034Z" fill="#D5D8BC"/>
<path d="M408.103 182.343C409.811 182.343 411.196 183.728 411.196 185.436V244.941C411.196 246.649 409.811 248.034 408.103 248.034H298.156C296.448 248.034 295.063 246.649 295.063 244.941V185.436C295.063 183.728 296.448 182.343 298.156 182.343L408.103 182.343ZM408.103 181.603H298.156C296.043 181.603 294.323 183.322 294.323 185.436V244.941C294.323 247.054 296.043 248.774 298.156 248.774H408.102C410.216 248.774 411.935 247.054 411.935 244.941V185.436C411.936 183.323 410.216 181.603 408.103 181.603Z" fill="white"/>
<path d="M300.557 184.939C301.535 184.939 302.327 185.731 302.327 186.709C302.327 187.687 301.535 188.479 300.557 188.479C299.579 188.479 298.787 187.687 298.787 186.709C298.787 185.731 299.579 184.939 300.557 184.939ZM300.557 184.199C299.173 184.199 298.047 185.325 298.047 186.709C298.047 188.093 299.173 189.219 300.557 189.219C301.941 189.219 303.067 188.093 303.067 186.709C303.067 185.325 301.941 184.199 300.557 184.199Z" fill="white"/>
<path d="M307.419 184.939C308.397 184.939 309.19 185.731 309.19 186.709C309.19 187.687 308.397 188.479 307.419 188.479C306.442 188.479 305.649 187.687 305.649 186.709C305.649 185.731 306.442 184.939 307.419 184.939ZM307.419 184.199C306.035 184.199 304.909 185.325 304.909 186.709C304.909 188.093 306.035 189.219 307.419 189.219C308.803 189.219 309.93 188.093 309.93 186.709C309.93 185.325 308.803 184.199 307.419 184.199Z" fill="white"/>
<path d="M295.063 190.591H411.196" stroke="white" stroke-width="0.73988" stroke-miterlimit="10"/>
<path d="M395.339 237.764C393.164 234.132 390.858 230.363 387.287 228.147C383.716 225.932 378.487 225.848 375.821 229.124C373.458 232.029 373.897 236.263 374.463 239.987C371.834 236.63 368.754 233.637 365.335 231.118C362.697 229.174 359.787 227.484 356.583 226.875C353.257 226.242 349.462 226.94 346.732 228.997C343.007 231.805 343.065 236.225 343.43 240.49C338.909 231.92 333.884 223.418 326.924 216.568C325.122 214.795 323.005 213.26 320.571 212.581C319.174 212.192 317.598 212.116 316.346 212.847C314.444 213.957 313.94 216.464 313.886 218.666C313.82 221.324 314.126 223.991 314.793 226.564C313.578 225.259 311.976 224.293 310.225 223.958C306.196 223.187 302.22 226.234 301.99 230.37C301.751 234.673 304.369 238.78 306.369 242.394C307.131 243.771 307.914 245.143 308.777 246.461C308.945 246.718 309.587 247.995 309.977 247.995C309.979 247.995 401.1 247.995 401.1 247.995C399.18 244.785 397.259 240.973 395.339 237.764Z" fill="#B5AE6B"/>
<mask id="mask0_321_2138" style="mask-type:luminance" maskUnits="userSpaceOnUse" x="295" y="182" width="117" height="67">
<path d="M408.103 248.034H298.157C296.448 248.034 295.063 246.649 295.063 244.941V185.436C295.063 183.728 296.449 182.343 298.157 182.343H408.102C409.811 182.343 411.196 183.728 411.196 185.436V244.941C411.196 246.649 409.811 248.034 408.103 248.034Z" fill="white"/>
</mask>
<g mask="url(#mask0_321_2138)">
<path d="M403.312 243.961L372.835 185.55L364.174 185.04L357.373 190.591L339.876 203.313L359.545 260.956L403.312 243.961Z" fill="white"/>
<path d="M346.052 202.472C347.753 203.889 350.122 204.466 352.284 203.99" stroke="black" stroke-width="0.493254" stroke-miterlimit="10"/>
<path d="M354.415 203.313C356.544 202.597 358.434 201.185 359.724 199.345C361.015 197.505 361.699 195.247 361.647 193" stroke="black" stroke-width="0.493254" stroke-miterlimit="10"/>
<path d="M394.996 222.244C389.723 212.188 373.899 180.495 369.724 182.056C364.934 183.846 359.545 188.463 359.545 188.463C359.545 188.463 362.127 196.725 362.323 197.508C363.041 200.364 363.78 203.215 364.539 206.06C366.43 213.144 368.115 220.332 370.451 227.286C372.823 234.349 375.451 241.329 378.285 248.22C379.421 250.982 380.333 254.219 382.495 256.381C383.72 257.63 385.435 258.5 387.178 258.347C388.382 258.241 389.488 257.669 390.558 257.109C395.267 254.642 408.393 248.761 408.393 248.761C408.393 248.761 401.647 234.928 394.996 222.244Z" fill="#4C4139"/>
<path d="M368.109 260.896C366.828 256.228 364.634 251.932 363.009 247.395C360.884 241.458 358.995 235.44 356.802 229.527C353.457 220.508 348.713 208.036 345.082 199.128C345.082 199.128 338.424 202.947 337.082 203.873C335.739 204.8 336.031 207.003 336.031 207.003C341.33 226.765 357.379 271.648 357.379 271.648C359.279 270.644 363.992 267.996 365.892 266.992C368.396 265.669 368.83 263.519 368.109 260.896Z" fill="#4C4139"/>
<path d="M338.403 203.043C344.558 212.498 349.35 220.197 355.765 229.478" stroke="black" stroke-width="0.493254" stroke-miterlimit="10"/>
<path d="M367.901 184.443C369.178 196.986 369.956 209.579 370.235 222.183" stroke="black" stroke-width="0.493254" stroke-miterlimit="10"/>
</g>
<path d="M304.012 251.398C302.728 252.377 301.407 253.308 300.054 254.189C298.749 255.038 297.351 255.759 296.069 256.637C295.753 256.854 295.458 257.099 295.163 257.343C294.088 258.234 293.004 259.134 292.151 260.238C292.037 260.385 291.925 260.539 291.772 260.644C291.619 260.749 291.413 260.799 291.245 260.719C291.071 260.635 290.983 260.44 290.932 260.253C290.724 259.479 290.935 258.651 291.251 257.914C291.455 257.44 291.702 256.986 291.917 256.517C292.095 256.128 292.33 255.717 292.335 255.286C288.881 256.134 285.86 258.177 282.607 259.614C281.941 259.908 280.585 259.845 280.443 259.275C280.256 258.52 285.069 255.997 287.374 254.193C285.766 254.722 284.062 255.272 282.561 256.063C281.521 256.612 280.412 257.045 279.245 257.225C278.59 257.326 277.112 257.397 277.581 256.303C277.72 255.98 278.014 255.755 278.302 255.552C280.526 253.979 283.063 253.019 285.369 251.567C282.944 252.112 280.595 253.399 278.127 253.101C277.887 253.072 277.631 253.019 277.465 252.842C277.213 252.573 277.165 252.247 277.401 251.964C277.637 251.68 277.99 251.529 278.331 251.387C280.825 250.35 283.439 249.181 285.934 248.143C284.657 248.284 283.431 248.707 282.182 249.007C280.933 249.308 279.609 249.484 278.374 249.13C277.976 249.016 277.514 248.677 277.668 248.294C277.743 248.108 277.938 248.007 278.119 247.92C281.182 246.46 284.246 245 287.309 243.54C288.168 243.13 289.028 242.72 289.902 242.344C291.801 241.526 293.636 240.591 295.54 239.775C297.539 238.918 299.549 238.088 301.569 237.283" fill="#D16159"/>
<path d="M292.274 255.266C293.206 255.019 294.146 254.804 295.092 254.623" stroke="black" stroke-width="0.493254" stroke-miterlimit="10"/>
<path d="M287.245 254.168C288.554 253.543 289.895 252.988 291.262 252.504" stroke="black" stroke-width="0.493254" stroke-miterlimit="10"/>
<path d="M285.369 251.52C286.436 251.056 287.503 250.592 288.57 250.129" stroke="black" stroke-width="0.493254" stroke-miterlimit="10"/>
<path d="M284.733 248.573C285.518 248.288 286.284 247.95 287.024 247.561" stroke="black" stroke-width="0.493254" stroke-miterlimit="10"/>
<path d="M337.082 203.873C334.801 205.393 332.546 207.089 331.098 208.663C328.778 211.188 315.132 227.727 315.132 227.727C315.132 227.727 301.154 236.156 293.143 240.812L301.902 255.082C301.902 255.082 318.142 249.243 326.424 243.425C333.953 238.137 348.366 220.808 348.366 220.808" fill="#4C4139"/>
<path d="M342.793 227.73L338.403 214.077" stroke="black" stroke-width="0.493254" stroke-miterlimit="10"/>
<path d="M300.515 236.473L310.233 251.571" stroke="black" stroke-width="0.493254" stroke-miterlimit="10"/>
<path d="M299.321 250.878L307.384 247.145" stroke="black" stroke-width="0.493254" stroke-miterlimit="10"/>
<path d="M304.72 246.958C304.761 247.327 304.494 247.66 304.124 247.701C303.754 247.741 303.422 247.474 303.381 247.105C303.341 246.735 303.607 246.402 303.977 246.361C304.347 246.321 304.679 246.588 304.72 246.958Z" stroke="black" stroke-width="0.493254" stroke-miterlimit="10"/>
<path d="M300.782 248.742C301.154 248.742 301.456 248.44 301.456 248.068C301.456 247.696 301.154 247.394 300.782 247.394C300.41 247.394 300.108 247.696 300.108 248.068C300.108 248.44 300.41 248.742 300.782 248.742Z" stroke="black" stroke-width="0.493254" stroke-miterlimit="10"/>
<path d="M315.037 227.932C315.026 227.841 315.015 227.751 315.003 227.66C316.864 227.103 318.641 226.263 320.255 225.18" stroke="black" stroke-width="0.493254" stroke-miterlimit="10"/>
<path d="M321.613 211.843C324.254 208.666 327.488 205.982 331.098 203.971" stroke="black" stroke-width="0.493254" stroke-miterlimit="10"/>
<path d="M323.741 204.584C326.241 202.724 328.974 201.177 331.856 199.992" stroke="black" stroke-width="0.493254" stroke-miterlimit="10"/>
<path d="M350.474 178.612L352.426 184.393L359.39 191.13C359.39 191.13 359.571 195.138 355.632 199.34C351.722 203.51 347.486 200.711 347.486 200.711L342.43 193.277" fill="#D16159"/>
<path d="M334.172 193.678C333.371 191.112 332.361 185.576 332.438 183.467C332.504 181.682 333.038 179.936 334.213 178.556C335.727 176.778 339.287 177.415 341.56 177.199C345.291 176.844 347.623 181.266 348.675 184.437C349.483 186.872 349.867 189.379 349.043 191.863C347.701 195.902 343.393 199.984 338.835 198.88C336.359 198.279 334.948 196.166 334.172 193.678Z" fill="#D16159"/>
<path d="M353.999 177.889C353.4 177.249 352.577 176.748 352.31 175.913C352.163 175.451 351.933 174.066 351.784 173.604C350.951 171.029 348.791 170.166 346.336 170.59C346.075 168.126 343.462 167.888 341.316 167.864C340.422 167.853 339.513 167.766 338.713 167.338C337.866 166.886 337.099 166.246 336.11 166.152C335.228 166.068 334.32 166.358 333.588 166.84C331.044 168.513 330.317 171.749 327.201 172.726C326.216 173.035 325.187 173.126 324.337 173.772C323.703 174.254 323.231 174.976 323.142 175.768C323.014 176.898 323.761 177.585 324.532 178.273C325.431 179.075 325.956 180.097 325.883 181.317C325.839 182.056 325.641 182.776 325.523 183.506C325.187 185.586 325.851 187.553 327.593 188.812C327.961 189.077 328.458 189.326 329.803 189.618C330.751 189.823 333.21 189.468 333.21 189.468C333.21 189.468 332.603 185.93 332.615 184.553C332.625 183.243 333.025 182.022 333.792 180.975C334.446 180.082 335.876 179.768 336.941 179.816C338.537 179.887 340.061 180.767 341.647 180.581C342.306 180.503 342.933 180.226 343.45 179.812C345.584 181.193 347.793 183.225 348.281 185.701C348.306 185.827 348.62 187.294 348.509 187.317C350.339 186.932 352.644 186.784 353.466 184.786C353.75 184.097 353.607 183.373 353.821 182.674C353.999 182.096 354.516 181.673 354.757 181.118C355.223 180.043 354.799 178.743 353.999 177.889Z" fill="#2C221D"/>
<path d="M346.394 185.398C346.488 183.807 348.686 182.642 350.081 183.204C353.433 184.558 352.05 190.602 348.868 191.063C347.968 191.193 346.699 190.791 346.422 189.767" fill="#D16159"/>
<path d="M350.221 185.93L347.196 188.463" stroke="black" stroke-width="0.493254" stroke-miterlimit="10"/>
<path d="M347.97 183.493C347.242 183.894 346.639 184.53 346.266 185.292" stroke="black" stroke-width="0.493254" stroke-miterlimit="10"/>
<path d="M351.83 188.303C351.341 189.588 350.393 190.931 348.967 191.11C347.978 191.235 346.869 190.76 346.506 189.725" stroke="black" stroke-width="0.493254" stroke-miterlimit="10"/>
<path d="M345.271 197.453C345.271 197.453 346.899 196.418 347.97 194.14" stroke="black" stroke-width="0.493254" stroke-miterlimit="10"/>
<path d="M336.888 187.554C337.039 188.974 337.195 190.393 337.357 191.812C337.379 192.008 337.409 192.218 337.544 192.361C338.079 192.927 339.307 192.655 339.877 192.316" stroke="black" stroke-width="0.493254" stroke-miterlimit="10"/>
<path d="M341.214 192.898L338.76 194.332C338.76 194.332 339.71 196.152 340.66 195.796C342.431 195.135 341.214 192.898 341.214 192.898Z" fill="white"/>
<path d="M338.138 184.486C338.39 183.969 338.907 183.623 339.453 183.446C340.377 183.148 341.434 183.294 342.242 183.833" stroke="black" stroke-width="0.493254" stroke-miterlimit="10"/>
<path d="M332.404 186.546C332.493 186.005 332.803 185.595 333.166 185.349C333.779 184.933 334.569 184.938 335.249 185.36" stroke="black" stroke-width="0.493254" stroke-miterlimit="10"/>
<path d="M341.385 186.603C341.51 187.132 341.279 187.641 340.868 187.738C340.457 187.835 340.022 187.485 339.897 186.955C339.771 186.425 340.003 185.917 340.413 185.82C340.824 185.723 341.259 186.073 341.385 186.603Z" fill="black"/>
<path d="M335.727 188.286C335.852 188.816 335.621 189.325 335.21 189.422C334.799 189.52 334.364 189.169 334.239 188.639C334.113 188.109 334.344 187.601 334.755 187.504C335.166 187.406 335.601 187.757 335.727 188.286Z" fill="black"/>
<path d="M334.235 180.502C333.179 181.069 332.72 182.309 332.007 183.272C330.854 184.828 328.854 185.715 326.926 185.524" stroke="#635149" stroke-width="0.493254" stroke-miterlimit="10"/>
<path d="M343.63 179.67C344.586 178.787 345.272 177.617 345.575 176.352" stroke="#635149" stroke-width="0.493254" stroke-miterlimit="10"/>
<path d="M433.22 310.228H350.554C348.845 310.228 347.46 308.843 347.46 307.134V248.404H436.313V307.134C436.313 308.843 434.928 310.228 433.22 310.228Z" fill="#F9D4BB"/>
<path d="M433.22 240.156C434.928 240.156 436.313 241.541 436.313 243.249V307.134C436.313 308.843 434.928 310.228 433.22 310.228H350.554C348.845 310.228 347.461 308.843 347.461 307.134V243.249C347.461 241.541 348.846 240.156 350.554 240.156H433.22ZM433.22 239.416H350.554C348.44 239.416 346.721 241.136 346.721 243.249V307.134C346.721 309.248 348.44 310.968 350.554 310.968H433.22C435.333 310.968 437.053 309.248 437.053 307.134V243.249C437.053 241.136 435.333 239.416 433.22 239.416Z" fill="white"/>
<path d="M354.725 244.522C354.725 245.499 353.932 246.292 352.954 246.292C351.977 246.292 351.184 245.499 351.184 244.522C351.184 243.544 351.977 242.752 352.954 242.752C353.932 242.752 354.725 243.544 354.725 244.522Z" stroke="white" stroke-width="0.73988" stroke-miterlimit="10"/>
<path d="M361.586 244.522C361.586 245.499 360.794 246.292 359.816 246.292C358.839 246.292 358.046 245.499 358.046 244.522C358.046 243.544 358.839 242.752 359.816 242.752C360.794 242.752 361.586 243.544 361.586 244.522Z" stroke="white" stroke-width="0.73988" stroke-miterlimit="10"/>
<path d="M347.46 248.404H436.313" stroke="white" stroke-width="0.73988" stroke-miterlimit="10"/>
<path d="M413.41 286.424C411.376 286.068 410.8 291.538 411.776 293.359C409.097 289.527 405.705 283.659 403.025 279.827C400.02 275.529 396.429 270.176 391.009 268.778C386.126 267.517 383.58 271.769 383.503 276.11C383.43 280.266 383.848 284.459 384.618 288.54C385.457 292.99 386.547 298.058 388.969 301.943C386.394 297.814 382.274 296.419 377.669 296.802C375.524 296.98 373.295 297.702 371.941 299.375C369.775 302.05 370.587 306.912 371.51 310.229C373.524 310.229 375.538 310.229 377.551 310.229C388.261 310.229 430.687 310.246 430.687 310.246C430.687 310.246 420.013 287.58 413.41 286.424Z" fill="#EF9748"/>
<path d="M351.876 278.717C343.049 278.848 334.298 276.981 325.853 274.407C317.408 271.833 302.022 266.182 302.022 266.182L297.629 279.447C297.629 279.447 320.374 293.855 350.641 296.316" fill="#E27769"/>
<path d="M370.784 282.319C364.901 277.328 352.154 277.684 348.5 277.827C344.845 277.969 338.332 276.89 338.332 276.89L335.935 296.874C335.935 296.874 349.468 299.145 356.997 299.695" fill="#2C221D"/>
<path d="M354.204 287.113C355.127 289.719 354.706 293.552 354.716 296.316C354.725 298.782 355.592 300.152 355.956 302.59C356.392 305.505 358.045 307.587 359.789 310.228H397.271L395.297 289.446L390.194 282.072L379.421 279.2L355.1 285.597" fill="#2C221D"/>
<path d="M365.972 282.073C365.598 283.392 365.326 284.873 365.553 286.24C365.819 287.842 366.835 288.851 368.285 289.446" stroke="#6D574E" stroke-width="0.493254" stroke-miterlimit="10"/>
<path d="M370.127 289.887C376.77 291.078 383.76 286.33 384.427 280.285" stroke="#6D574E" stroke-width="0.493254" stroke-miterlimit="10"/>
<path d="M420.101 307.832C419.561 306.266 418.548 304.912 417.506 303.626C414.64 300.087 411.432 296.826 407.941 293.901L395.398 305.318L403.16 312.842L394.095 329.273L406.119 332.705C406.119 332.705 415.321 322.542 418.842 316.877C420.571 314.097 421.176 310.953 420.101 307.832Z" fill="#E27769"/>
<path d="M396.493 325.592C396.493 325.592 391.235 333.16 390.703 334.526C390.226 335.753 389.965 337.289 389.778 338.596C389.261 342.2 391.193 345.906 392.65 347.656C392.814 347.854 393.057 347.981 393.301 348.026C393.841 348.127 394.058 347.846 394.046 347.209C394.341 347.61 394.636 348.01 394.931 348.411C395.052 348.577 395.18 348.748 395.355 348.835C395.69 349 396.108 348.798 396.365 348.471C396.622 348.143 396.754 347.717 396.878 347.304C397.191 347.756 397.676 348.23 398.143 347.953C398.611 347.677 399.015 346.676 398.91 346.102C399.064 346.607 399.733 346.621 400.099 346.253C400.465 345.886 400.599 345.31 400.708 344.773C400.984 343.414 401.243 342.013 401.909 340.826C402.352 340.034 402.955 339.378 403.481 338.653C405.194 336.296 406.041 333.29 406.594 330.33" fill="#E27769"/>
<path d="M399.943 337.258C399.706 337.782 399.469 338.306 399.232 338.83C399.04 339.256 398.847 339.682 398.692 340.124C398.002 342.094 398.117 344.346 399.002 346.218" stroke="black" stroke-width="0.493254" stroke-miterlimit="10"/>
<path d="M395.986 337.062C395.504 339.444 395.307 342.309 395.651 344.1C395.873 345.261 396.38 346.364 397 347.359" stroke="black" stroke-width="0.493254" stroke-miterlimit="10"/>
<path d="M392.519 336.166C392.519 336.166 392.211 337.923 392.138 338.917C391.906 342.075 392.324 345.124 394.045 347.465" stroke="black" stroke-width="0.493254" stroke-miterlimit="10"/>
<path d="M300.948 279.671C300.002 279.579 299.055 279.487 298.109 279.395C297.262 279.314 296.408 279.23 295.598 278.97C295.057 278.796 294.545 278.547 294.035 278.298C291.933 277.275 290.858 276.969 288.848 275.785C287.693 275.105 286.512 274.463 285.28 273.931C284.074 273.41 282.823 273.129 281.709 272.424C281.613 272.363 281.512 272.294 281.468 272.189C281.434 272.108 281.437 272.016 281.449 271.929C281.708 270.112 285.411 270.528 286.851 270.93C287.285 271.052 287.736 271.197 288.178 271.107C288.208 270.529 287.953 269.976 287.672 269.47C286.842 267.983 285.629 266.797 284.533 265.504C283.52 264.307 282.493 263.112 281.56 261.851C280.685 260.671 279.785 258.1 280.472 257.786C281.158 257.472 280.791 258.099 281.013 258.127C280.57 257.855 280.739 256.764 281.057 256.334C281.375 255.905 282.257 256.555 282.563 256.972C282.244 256.573 282.352 255.668 282.678 255.507C283.152 255.271 283.714 255.589 284.154 255.855C284.594 256.121 285.018 256.445 285.531 256.538C285.402 256.214 285.324 255.868 285.302 255.517C285.552 255.212 286.036 255.37 286.373 255.553C293.235 259.291 299.091 264.953 306.387 268.285" fill="#E27769"/>
<path d="M286.733 268.08C287.503 269.185 288.023 270.514 288.426 272.144" stroke="black" stroke-width="0.493254" stroke-miterlimit="10"/>
<path d="M281.035 257.744C281.946 258.877 283.163 259.662 284.225 260.633C285.915 262.178 287.523 263.81 289.157 265.414" stroke="black" stroke-width="0.493254" stroke-miterlimit="10"/>
<path d="M282.558 256.863C283.079 257.356 283.634 257.814 284.216 258.233C284.841 258.682 285.496 259.086 286.141 259.505C287.984 260.703 289.742 262.032 291.398 263.479" stroke="black" stroke-width="0.493254" stroke-miterlimit="10"/>
<path d="M285.771 256.682C286.351 257.236 287.085 257.594 287.793 257.97C290.01 259.15 292.086 260.595 293.961 262.266" stroke="black" stroke-width="0.493254" stroke-miterlimit="10"/>
<path d="M301.224 280.102C301.224 280.102 297.346 279.576 295.763 279.159" stroke="black" stroke-width="0.493254" stroke-miterlimit="10"/>
<path d="M387.042 281.249C389.712 281.507 392.383 281.757 394.925 282.716C398.136 283.928 400.928 286.207 403.556 288.537C406.302 290.971 409.104 294.283 411.776 296.823L398.078 308.81L388.379 299.358" fill="#2C221D"/>
<path d="M403.16 312.842C403.16 312.842 405.186 310.248 407.24 308.81" stroke="black" stroke-width="0.493254" stroke-miterlimit="10"/>
<path d="M394.092 304.925L408.376 293.359" stroke="#6D574E" stroke-width="0.493254" stroke-miterlimit="10"/>
<path d="M341.172 297.707L343.246 277.548" stroke="#6D574E" stroke-width="0.493254" stroke-miterlimit="10"/>
<path d="M354.204 293.901C354.204 293.901 355.151 298.204 355.41 300.049" stroke="#6D574E" stroke-width="0.493254" stroke-miterlimit="10"/>
<path d="M387.895 299.322C390.863 301.614 398.079 308.81 398.079 308.81" stroke="#6D574E" stroke-width="0.493254" stroke-miterlimit="10"/>
<path d="M372.656 266.947L379.039 269.534L378.664 273.79L381.882 280.01C381.882 280.01 380.312 285.875 373.265 287.335C367.315 288.568 367.45 284.729 367.45 284.729L364.616 276.55" fill="#E27769"/>
<path d="M359.171 270.224C360.114 267.033 360.624 265.074 361.829 262.758C362.85 260.798 364.633 257.957 366.68 257.038C369.316 255.855 372.33 257.307 374.986 258.271C379.347 259.855 380.35 265.012 379.844 269.115C379.454 272.266 377.616 273.821 375.375 276.16C372.447 279.217 365.241 281.824 361.518 279.919C358.732 278.493 358.173 273.603 359.171 270.224Z" fill="#E27769"/>
<path d="M404.769 289.51C406.485 288.946 407.328 286.927 407.232 285.493C407.079 283.183 405.999 281.991 405.822 280.564C405.707 279.635 405.983 278.695 405.904 277.762C405.774 276.221 404.657 274.88 403.276 274.185C401.895 273.49 400.289 273.365 398.75 273.503C397.57 273.608 396.383 273.86 395.21 273.692C394.23 273.553 393.312 273.127 392.458 272.626C390.947 271.74 389.569 270.586 388.596 269.13C386.943 266.654 386.59 263.54 385.315 260.849C384.672 259.494 383.78 258.261 382.712 257.209C380.117 254.653 377.647 253.706 373.968 253.584C371.449 253.5 367.943 253.836 366.015 256.186C366.015 256.186 362.289 256.282 360.511 258.159C358.401 260.387 358.552 263.612 360.396 266.182C361.348 264.619 362.159 262.966 363.553 261.764C363.393 262.018 363.47 262.373 363.676 262.591C363.882 262.809 364.188 262.908 364.488 262.932C365.285 262.997 366.038 262.6 366.739 262.214C366.503 262.846 366.402 263.529 366.447 264.203C366.456 264.345 366.476 264.496 366.57 264.603C366.676 264.726 366.851 264.759 367.013 264.772C368.111 264.865 369.241 264.336 369.875 263.435C369.575 264.252 369.313 265.278 369.918 265.903C370.345 266.346 371.069 266.378 371.639 266.147C372.208 265.915 372.661 265.471 373.097 265.037C372.887 265.246 373.163 266.423 373.215 266.695C373.327 267.29 373.51 267.869 373.712 268.438C374.335 270.19 375.102 271.896 376.099 273.468C377.128 275.091 378.598 276.322 379.65 277.903C380.316 278.906 380.879 280.003 381.775 280.807C382.876 281.795 384.394 282.538 385.841 282.833C387.298 283.13 388.805 282.995 390.28 282.947C395.729 282.769 399.861 285.498 404.769 289.51Z" fill="#893D33"/>
<path d="M392.055 254.219C391.741 253.444 391.282 252.734 390.694 252.192C388.569 250.236 383.938 250.363 382.355 253.02C381.485 254.481 381.908 256.359 382.568 257.926L383.869 260.781C385.683 261.767 387.979 261.809 389.828 260.89C391.373 260.123 392.463 258.708 392.54 256.953C392.58 256.059 392.411 255.097 392.055 254.219Z" fill="#893D33"/>
<path d="M373.149 270.782C373.591 269.463 375.707 268.983 376.753 269.773C379.267 271.676 376.727 276.45 373.944 276.113C373.156 276.018 372.179 275.391 372.179 274.466" fill="#E27769"/>
<path d="M376.252 272.1L373.128 273.544" stroke="black" stroke-width="0.493254" stroke-miterlimit="10"/>
<path d="M374.91 269.536C374.206 269.707 373.554 270.106 373.066 270.662" stroke="black" stroke-width="0.493254" stroke-miterlimit="10"/>
<path d="M377.066 274.463C376.362 275.434 375.258 276.349 374.017 276.175C373.155 276.055 372.33 275.403 372.26 274.449" stroke="black" stroke-width="0.493254" stroke-miterlimit="10"/>
<path d="M366.066 280.736C366.066 280.736 368.998 280.596 371.967 278.591" stroke="black" stroke-width="0.493254" stroke-miterlimit="10"/>
<path d="M362.987 268.617C362.525 269.425 362.043 270.256 361.297 270.813C361.118 270.946 360.924 271.064 360.779 271.233C360.571 271.475 360.482 271.815 360.545 272.127C360.609 272.44 360.822 272.719 361.108 272.861" stroke="black" stroke-width="0.493254" stroke-miterlimit="10"/>
<path d="M361.67 274.747C362.139 275.136 362.84 275.289 363.395 274.992C364.096 274.616 364.111 273.721 364.134 273.023" stroke="black" stroke-width="0.493254" stroke-miterlimit="10"/>
<path d="M366.407 266.885C366.919 266.777 367.456 266.754 367.965 266.875C368.475 266.995 368.957 267.266 369.283 267.676C369.696 268.197 369.825 268.882 369.94 269.537" stroke="black" stroke-width="0.493254" stroke-miterlimit="10"/>
<path d="M360.7 264.937C361.188 264.587 361.871 264.565 362.411 264.826C362.95 265.088 363.344 265.607 363.514 266.182" stroke="black" stroke-width="0.493254" stroke-miterlimit="10"/>
<path d="M367.268 269.833C367.067 270.251 366.66 270.473 366.358 270.329C366.057 270.184 365.975 269.728 366.176 269.31C366.376 268.892 366.783 268.67 367.085 268.814C367.386 268.959 367.468 269.415 367.268 269.833Z" fill="black"/>
<path d="M361.727 268.01C361.527 268.428 361.12 268.65 360.818 268.506C360.517 268.361 360.435 267.905 360.635 267.487C360.835 267.068 361.242 266.847 361.544 266.991C361.846 267.136 361.928 267.592 361.727 268.01Z" fill="black"/>
<path d="M419.195 325.216C422.201 322.16 424.331 318.252 425.27 314.07" stroke="black" stroke-width="0.493254" stroke-miterlimit="10"/>
<path d="M426.079 323.514C426.988 321.721 427.568 319.761 427.782 317.763" stroke="black" stroke-width="0.493254" stroke-miterlimit="10"/>
<path d="M367.242 227.706C367.242 227.706 362.108 230.061 358.661 231.624C356.711 232.508 353.444 234.926 352.328 236.765C350.908 239.106 350.537 242 350.699 244.39C350.806 245.972 351.529 247.763 352.589 249.486C353.287 250.622 354.031 251.809 354.681 251.655C355.331 251.501 355.097 249.909 355.097 249.907C355.099 250.003 355.867 251.513 356.044 251.634C356.281 251.795 356.562 251.935 356.807 251.806C357.14 251.632 357.366 251.441 357.526 251.102C357.662 250.815 357.673 250.517 357.701 250.197C357.727 249.906 357.703 249.205 357.688 248.91C357.831 249.229 357.969 250.222 358.241 250.17C358.513 250.117 358.958 249.89 359.202 249.592C359.676 249.013 359.927 248.289 360.17 247.582C360.172 247.753 360.175 247.929 360.24 248.088C360.304 248.246 360.444 248.387 360.615 248.399C360.831 248.415 361.709 247.774 361.837 247.6C362.39 246.849 362.597 245.844 362.997 245.001C363.331 244.297 363.657 243.799 364.138 243.188C364.577 242.63 365.248 241.94 365.888 241.604C367.191 240.92 367.992 240.733 369.326 240.103C370.45 239.572 371.551 238.915 372.327 237.922" fill="#D16159"/>
<path d="M360.054 247.877C360.153 246.754 360.29 245.635 360.465 244.521C360.582 243.779 360.718 243.031 361.014 242.34C361.5 241.209 362.382 240.303 363.246 239.425" stroke="black" stroke-width="0.493254" stroke-miterlimit="10"/>
<path d="M357.807 249.157C357.371 247.285 357.418 245.339 357.467 243.418C357.481 242.886 357.495 242.351 357.622 241.835C357.841 240.944 358.381 240.172 358.91 239.423" stroke="black" stroke-width="0.493254" stroke-miterlimit="10"/>
<path d="M355.151 250.28C354.55 248.418 353.945 246.535 353.779 244.585C353.747 244.211 353.732 243.836 353.745 243.461C353.795 242.062 354.25 240.696 354.939 239.477" stroke="black" stroke-width="0.493254" stroke-miterlimit="10"/>
<path d="M371.61 199.87L380.645 216.914L360.482 230.721L373.751 241.172C373.751 241.172 396.375 233.807 402.538 230.154C407.376 227.286 409.452 219.836 400.132 207.685C390.811 195.534 384.376 188.328 382.465 186.302C378.352 181.941 373.457 180.13 368.896 182.426" fill="#4C4139"/>
<path d="M371.61 199.87L380.645 216.914L360.483 230.721" stroke="black" stroke-width="0.493254" stroke-miterlimit="10"/>
<path d="M372.131 236.473C372.131 236.845 371.829 237.147 371.457 237.147C371.086 237.147 370.784 236.846 370.784 236.473C370.784 236.102 371.086 235.8 371.457 235.8C371.83 235.8 372.131 236.102 372.131 236.473Z" stroke="black" stroke-width="0.493254" stroke-miterlimit="10"/>
<path d="M375.618 235.048C375.99 235.048 376.292 234.747 376.292 234.375C376.292 234.003 375.99 233.701 375.618 233.701C375.246 233.701 374.944 234.003 374.944 234.375C374.944 234.747 375.246 235.048 375.618 235.048Z" stroke="black" stroke-width="0.493254" stroke-miterlimit="10"/>
<path d="M367.6 236.327C367.674 236.385 376.292 232.042 376.292 232.042" stroke="black" stroke-width="0.493254" stroke-miterlimit="10"/>
<path d="M368.072 225.524C368.157 225.466 383.564 237.837 383.564 237.837" stroke="black" stroke-width="0.493254" stroke-miterlimit="10"/>
<path d="M380.152 217.084C382.044 216.345 383.945 215.549 385.967 215.245C388.127 214.92 390.324 215.032 392.497 215.145" stroke="black" stroke-width="0.493254" stroke-miterlimit="10"/>
<path d="M373.751 241.172L399.865 231.68" stroke="black" stroke-width="0.493254" stroke-miterlimit="10"/>
<path d="M378.318 178.17C373.1 173.267 367.77 168.39 361.6 164.755C350.178 158.027 334.235 159.068 326.356 163.964C320.307 167.721 317.119 172.401 313.234 178.197C308.372 185.451 303.273 193.255 295.26 196.728C291.354 198.42 287.059 198.929 282.882 199.747C278.705 200.565 274.433 201.79 271.233 204.597C268.033 207.404 266.209 212.169 267.938 216.059C269.296 219.115 272.64 221.037 275.983 221.132C279.325 221.227 282.584 219.675 284.99 217.353C291.131 211.429 293.989 195.843 282.647 191.357" stroke="#ED725A" stroke-width="0.73988" stroke-miterlimit="10"/>
<path d="M130.521 283.832C131.243 287.255 133.067 290.898 135.533 293.709C138.744 297.368 145.292 299.736 148.107 294.415C149.417 291.941 150.07 287.938 146.949 286.167C146.728 286.041 146.479 285.928 146.211 285.925C145.608 285.919 145.208 286.443 145.03 286.922C144.195 289.166 145.538 291.592 147.35 293.394C148.191 294.231 149.171 295.011 150.384 295.427C151.596 295.843 153.081 295.839 154.139 295.194C155.785 294.19 156.218 291.979 156.098 290.396" stroke="#8F96DB" stroke-width="0.73988" stroke-miterlimit="10"/>
<path d="M123.623 193.712C126.527 190.051 130.437 186.744 134.831 185.049C137.208 184.132 140.314 183.803 142.814 184.299C144.062 184.547 145.512 184.94 146.274 186.062C147.079 187.246 146.14 189.44 147.73 190.111C148.139 190.283 148.603 190.242 149.042 190.176C150.421 189.969 151.762 189.553 153.141 189.35C154.521 189.148 155.989 189.175 157.231 189.809C158.473 190.443 159.417 191.801 159.232 193.183C159.16 193.724 158.924 194.26 159.024 194.796C159.192 195.694 160.209 196.164 161.119 196.25C163.002 196.427 164.792 196.366 166.394 197.571C167.568 198.455 168.243 200.037 167.642 201.307" stroke="#FFDD99" stroke-width="0.73988" stroke-miterlimit="10"/>
<path d="M246.653 190.23C247.385 188.601 248.206 186.968 249.483 185.721C250.761 184.473 252.584 183.659 254.337 184C255.243 184.177 256.099 184.648 257.022 184.629C258.292 184.602 259.378 183.626 259.949 182.491C260.521 181.357 260.687 180.07 260.919 178.821C261.289 176.828 261.888 174.79 263.252 173.29C264.616 171.789 266.921 170.985 268.743 171.874" stroke="#FFDD99" stroke-width="0.73988" stroke-miterlimit="10"/>
<path d="M160.708 356.341C161.215 353.316 159.174 350.453 156.149 349.946C153.124 349.439 150.261 351.48 149.754 354.505C149.247 357.53 151.288 360.393 154.313 360.9C157.338 361.407 160.201 359.366 160.708 356.341Z" stroke="#909DF4" stroke-width="0.73988" stroke-miterlimit="10"/>
<path d="M249.752 170.641C252.239 170.641 254.256 168.625 254.256 166.137C254.256 163.65 252.239 161.634 249.752 161.634C247.265 161.634 245.248 163.65 245.248 166.137C245.248 168.625 247.265 170.641 249.752 170.641Z" stroke="#8F96DB" stroke-width="0.73988" stroke-miterlimit="10"/>
<path d="M410.017 338.92L413.002 358.585L424.736 349.942L410.017 338.92Z" fill="#FFDD99"/>
<path d="M114.623 317.342L122.561 308.342L109 308.829L114.623 317.342Z" stroke="#8F96DB" stroke-width="0.73988" stroke-miterlimit="10"/>
<path d="M127.307 339.63C129.082 339.63 130.521 338.191 130.521 336.416C130.521 334.642 129.082 333.203 127.307 333.203C125.533 333.203 124.094 334.642 124.094 336.416C124.094 338.191 125.533 339.63 127.307 339.63Z" fill="#FFDD99"/>
<path d="M134.175 202.288L126.449 219.145L150.056 215.722L134.175 202.288Z" fill="#ED725A"/>
<path d="M119.025 244.29C119.025 245.367 118.152 246.24 117.074 246.24C115.997 246.24 115.124 245.367 115.124 244.29C115.124 243.212 115.997 242.339 117.074 242.339C118.152 242.339 119.025 243.212 119.025 244.29Z" fill="#909DF4"/>
<path d="M383.73 167.401C383.73 168.478 382.857 169.351 381.78 169.351C380.703 169.351 379.83 168.478 379.83 167.401C379.83 166.323 380.703 165.45 381.78 165.45C382.857 165.45 383.73 166.323 383.73 167.401Z" fill="#ED725A"/>
<path d="M419.597 337.697C421.052 337.1 422.932 337.216 424.249 338.099C425.411 338.879 426.018 340.346 427.419 340.803C429.474 341.474 431.287 339.561 433.269 339.43C434.983 339.317 436.365 340.478 437.035 341.974C437.608 343.255 437.718 344.687 437.82 346.087" stroke="#8F96DB" stroke-width="0.73988" stroke-miterlimit="10"/>
<path d="M404.504 203.947C405.217 202.175 407.094 200.94 409.004 200.989C409.976 201.014 410.962 201.336 411.903 201.093C414.831 200.335 414.587 195.236 417.48 194.353C419.485 193.741 421.665 195.683 423.627 194.947C425.316 194.313 425.73 192.187 426.264 190.465C427.709 185.81 431.988 182.163 436.813 181.473" stroke="#8F96DB" stroke-width="0.73988" stroke-miterlimit="10"/>
<path d="M382.187 306.302C383.896 306.302 385.281 307.687 385.281 309.395V364.167C385.281 365.876 383.895 367.26 382.187 367.26H293.47C291.762 367.26 290.377 365.875 290.377 364.167V309.396C290.377 307.687 291.762 306.302 293.47 306.302H382.187M382.187 305.562H293.47C291.357 305.562 289.637 307.282 289.637 309.395V364.167C289.637 366.281 291.357 368 293.47 368H382.187C384.301 368 386.02 366.281 386.02 364.167V309.396C386.021 307.282 384.301 305.562 382.187 305.562Z" fill="white"/>
<path d="M382.187 367.261H293.47C291.762 367.261 290.377 365.876 290.377 364.167V314.551H385.281V364.167C385.281 365.876 383.896 367.261 382.187 367.261Z" fill="#C5B3DD"/>
<path d="M297.641 310.668C297.641 311.646 296.848 312.438 295.871 312.438C294.893 312.438 294.101 311.646 294.101 310.668C294.101 309.691 294.893 308.898 295.871 308.898C296.848 308.898 297.641 309.691 297.641 310.668Z" stroke="white" stroke-width="0.73988" stroke-miterlimit="10"/>
<path d="M304.503 310.668C304.503 311.646 303.711 312.438 302.733 312.438C301.756 312.438 300.963 311.646 300.963 310.668C300.963 309.691 301.756 308.898 302.733 308.898C303.711 308.898 304.503 309.691 304.503 310.668Z" stroke="white" stroke-width="0.73988" stroke-miterlimit="10"/>
<path d="M290.377 314.551H385.281" stroke="white" stroke-width="0.73988" stroke-miterlimit="10"/>
<path d="M371.967 355.413C367.245 350.185 361.76 347.599 358.97 348.229C354.867 349.157 355.613 359.629 355.728 363.834C353.746 361.542 351.291 359.663 348.56 358.349C346.504 357.36 344.163 356.684 341.946 357.224C339.729 357.764 337.776 359.849 338.036 362.116C332.872 354.434 325.743 348.084 317.517 343.84C312.318 341.158 298.182 335.58 295.762 341.368C293.108 347.717 308.166 367.26 308.166 367.26H381.147C381.147 367.26 376.231 360.135 371.967 355.413Z" fill="#A29DCE"/>
<path d="M280.773 299.568C278.093 296.761 275.52 291.337 274.796 288.444C274.161 285.899 273.593 283.295 272.391 280.942C272.067 280.308 270.675 278.844 271.179 278.082C272.197 276.548 274.667 278.569 275.31 279.483C275.541 279.81 276.391 281.187 276.817 281.268C277.242 281.348 277.422 279.699 277.474 278.991C277.673 276.273 277.686 273.309 277.456 270.558C277.218 267.724 277.622 265.238 278.511 265.107C279.412 264.975 279.365 265.508 279.529 265.685C279.673 264.788 280.49 263.724 281.017 264.024C281.338 264.206 281.454 264.608 281.499 264.974C281.544 265.34 281.762 266.036 281.762 266.036C281.762 266.036 282.273 264.126 283.206 265.206C283.678 265.752 284.396 268.654 284.856 269.576C284.81 268.966 284.656 268.627 284.852 267.915C284.959 267.529 285.177 267.211 285.595 267.415C285.842 267.535 285.913 267.779 286 268.018C286.468 269.319 287.62 271.411 288.038 272.728C288.474 274.101 288.91 275.474 289.347 276.848C290.167 279.429 290.968 282.146 291.556 284.839C292.1 287.331 294.097 293.47 294.097 293.47" fill="#A04B4B"/>
<path d="M279.504 265.839C279.742 267.317 280.282 269.2 280.579 270.875C281.003 273.276 281.195 275.499 281.558 277.614" stroke="black" stroke-width="0.493254" stroke-miterlimit="10"/>
<path d="M281.891 266.082C282.175 267.347 282.667 269.1 282.998 270.539C283.549 272.946 283.954 275.102 284.429 277.216" stroke="black" stroke-width="0.493254" stroke-miterlimit="10"/>
<path d="M284.851 269.535C285.551 271.834 286.566 274.471 287.369 277.381" stroke="black" stroke-width="0.493254" stroke-miterlimit="10"/>
<path d="M277.086 281.122C276.906 282.337 276.815 283.627 276.006 284.688" stroke="black" stroke-width="0.493254" stroke-miterlimit="10"/>
<path d="M371.453 367.261C370.504 364.725 369.489 362.06 368.062 359.736C366.635 357.411 364.77 355.283 362.39 353.826C361.322 353.173 360.167 352.662 359.015 352.153C355.918 350.785 352.821 349.418 349.724 348.049L334.523 342.119C333.582 341.246 332.642 340.373 331.703 339.499C329.888 337.809 328.078 336.114 326.281 334.402C326.212 334.336 326.143 334.271 326.074 334.205C312.315 321.072 302.082 306.398 293.142 289.273L277.085 296.316C277.085 296.316 284.03 319.981 290.629 330.027C299.345 343.297 309.427 355.368 313.982 359.19C314.795 361.921 315.726 364.615 316.782 367.261L371.453 367.261Z" fill="#FCDDD2"/>
<path d="M279.672 304.456L296.895 296.174" stroke="black" stroke-width="0.493254" stroke-miterlimit="10"/>
<path d="M280.531 294.805L286.338 307.406" stroke="black" stroke-width="0.493254" stroke-miterlimit="10"/>
<path d="M285.988 297.453C285.988 298.081 285.479 298.59 284.85 298.59C284.222 298.59 283.713 298.081 283.713 297.453C283.713 296.825 284.222 296.315 284.85 296.315C285.478 296.316 285.988 296.825 285.988 297.453Z" stroke="#D8A798" stroke-width="0.493254" stroke-miterlimit="10"/>
<path d="M348.054 366.924C348.846 365.892 349.638 364.861 350.43 363.83C351.284 362.717 352.141 361.602 353.105 360.582C355.92 357.609 359.718 355.493 363.789 355.051" stroke="#D8A798" stroke-width="0.493254" stroke-miterlimit="10"/>
<path d="M313.506 357.711C313.506 353.596 314.881 349.511 317.247 346.157C320.229 341.932 324.616 338.899 329.919 338.748" stroke="#D8A798" stroke-width="0.493254" stroke-miterlimit="10"/>
<path d="M313.912 359.029C313.153 356.768 312.717 354.232 311.515 352.153" stroke="black" stroke-width="0.493254" stroke-miterlimit="10"/>
<path d="M329.685 340.435L328.683 353.065C328.683 353.065 332.929 357.39 338.766 354.574C344.604 351.758 348.862 346.401 348.862 346.401L346.953 338.571" fill="#A04B4B"/>
<path d="M352.888 324.697C352.298 322.851 351.192 321.165 349.704 319.947C346.124 317.016 342.186 317.096 338.341 319.355C334.999 321.318 330.412 324.417 327.864 327.381C325.233 330.441 323.473 334.247 326.159 337.825C330.482 343.582 342.605 341.631 348.388 336.909C350.743 334.986 352.966 331.864 353.314 328.79C353.468 327.419 353.31 326.017 352.888 324.697Z" fill="#A04B4B"/>
<path d="M337.597 320.962C335.67 321.943 333.561 322.203 331.45 322.453C330.436 322.573 329.094 322.914 329.277 324.245C329.396 325.104 330.143 325.844 330.765 326.369" fill="#A04B4B"/>
<path d="M329.193 334.075C329.193 334.075 329.544 333.286 329.719 332.891C330.055 332.131 328.961 331.618 328.44 331.355C328.061 331.165 327.861 330.996 327.484 331.244C327.387 331.307 326.837 331.839 326.719 331.742C326.712 331.737 325.701 330.56 325.701 330.56C324.914 331.788 324.409 334.119 324.521 335.502C324.633 336.886 325.168 338.261 326.157 339.235C326.555 339.626 327.177 340.189 327.654 340.476C331.634 342.87 336.597 342.688 340.925 341.005C342.262 340.486 343.564 339.792 344.538 338.739C331.286 338.546 329.193 334.075 329.193 334.075Z" fill="#1E1611"/>
<path d="M344.998 333.19C344.939 333.177 344.88 333.165 344.822 333.156C343.937 333.01 343.062 333.139 342.19 332.853C341.487 332.622 340.834 332.185 340.448 331.555C339.992 330.81 340.618 330.376 341.225 330.041C342.123 329.545 342.997 328.989 343.728 328.269C344.928 327.086 345.561 325.39 345.04 323.738C344.475 321.946 342.711 320.894 341.342 319.759C340.023 318.665 338.338 316.961 338.894 315.063C339.452 313.16 341.291 312.466 343.108 312.735C344.083 312.879 345.065 313.152 346.039 313.001C346.534 312.924 347.005 312.739 347.494 312.629C348.995 312.293 350.724 312.773 351.618 314.025C352.262 314.926 352.511 316.204 353.504 316.696C353.982 316.933 354.539 316.928 355.058 317.05C356.113 317.298 357.004 318.1 357.434 319.095C357.863 320.09 357.845 321.253 357.46 322.267C356.767 324.088 355.73 325 356.581 327.009C358.558 331.673 359.388 337.4 354.667 340.754C353.425 341.636 351.869 342.092 350.836 343.211C350.191 343.908 349.665 344.903 348.72 345.004C348.085 345.072 347.487 344.679 347.052 344.212C346.662 343.793 346.356 343.305 346.053 342.819C345.634 342.146 345.208 341.441 345.122 340.653C344.999 339.529 345.583 338.463 346.113 337.464C346.613 336.522 347.619 334.569 346.429 333.79C346.019 333.521 345.493 333.298 344.998 333.19Z" fill="#1E1611"/>
<path d="M342.083 322.999C341.786 322.096 341.242 321.199 340.406 321.607C340.196 321.709 340.074 321.939 340.042 322.169C340.009 322.399 340.051 322.633 340.093 322.861C340.29 323.932 340.499 325.031 341.078 325.953C341.195 326.139 341.334 326.322 341.531 326.421C342.843 327.079 342.252 323.515 342.083 322.999Z" fill="#1E1611"/>
<path d="M333.793 329.107L330.081 328.265C330.081 328.265 329.717 331.449 331.295 331.765C332.872 332.08 333.793 329.107 333.793 329.107Z" fill="white"/>
<path d="M329.857 325.371C330.165 325.771 330.584 326.085 331.054 326.269" stroke="black" stroke-width="0.493254" stroke-miterlimit="10"/>
<path d="M333.958 322.105C335.351 321.902 336.706 321.436 337.93 320.739" stroke="black" stroke-width="0.493254" stroke-miterlimit="10"/>
<path d="M344.134 333.319C345.503 332.288 347.989 333.276 348.499 334.809C349.725 338.497 343.813 341.574 341.22 339.29C340.486 338.644 339.931 337.325 340.577 336.384" fill="#A04B4B"/>
<path d="M346.366 336.823L342.185 336.11" stroke="black" stroke-width="0.493254" stroke-miterlimit="10"/>
<path d="M346.792 333.283C345.957 332.965 345.017 332.915 344.133 333.14" stroke="black" stroke-width="0.493254" stroke-miterlimit="10"/>
<path d="M340.671 336.424C340.204 337.222 340.343 338.203 340.851 338.946C341.776 340.296 344.012 340.302 345.362 339.725" stroke="black" stroke-width="0.493254" stroke-miterlimit="10"/>
<path d="M338.195 326.057C337.666 326.439 337.015 326.443 336.741 326.065C336.467 325.686 336.673 325.068 337.203 324.685C337.732 324.303 338.383 324.299 338.657 324.678C338.93 325.056 338.724 325.674 338.195 326.057Z" fill="black"/>
<path d="M350.923 345.989C337.597 347.568 329.439 353.67 329.439 353.67L331.757 364.257C343.675 352.925 355.27 350.369 355.387 350.247L350.923 345.989Z" fill="#FCDDD2"/>
<path d="M329.053 346.906L324.035 350.127C324.035 350.127 323.172 359.132 324.819 363.92L329.44 353.67L329.053 346.906Z" fill="#FCDDD2"/>
<path d="M329.439 353.67L331.757 364.257C343.675 352.925 355.27 350.369 355.387 350.247" stroke="black" stroke-width="0.493254" stroke-miterlimit="10"/>
<path d="M329.053 346.906L324.035 350.127C324.035 350.127 323.172 359.132 324.819 363.92L329.44 353.67" stroke="black" stroke-width="0.493254" stroke-miterlimit="10"/>
<path d="M279.601 318.278C280.947 323.066 282.942 327.67 285.515 331.925" stroke="black" stroke-width="0.493254" stroke-miterlimit="10"/>
<path d="M280.04 326.501C280.886 329.58 281.9 332.611 283.077 335.578" stroke="black" stroke-width="0.493254" stroke-miterlimit="10"/>
<path d="M362.313 332.954C362.385 335.148 361.532 337.305 360.226 339.07C358.921 340.834 357.184 342.237 355.349 343.442" stroke="black" stroke-width="0.493254" stroke-miterlimit="10"/>
<path d="M360.82 343.364C362.657 342.322 364.224 340.809 365.331 339.011" stroke="black" stroke-width="0.493254" stroke-miterlimit="10"/>
</g>
<defs>
<filter id="filter0_d_321_2138" x="47" y="55.9523" width="452" height="429" filterUnits="userSpaceOnUse" color-interpolation-filters="sRGB">
<feFlood flood-opacity="0" result="BackgroundImageFix"/>
<feColorMatrix in="SourceAlpha" type="matrix" values="0 0 0 0 0 0 0 0 0 0 0 0 0 0 0 0 0 0 127 0" result="hardAlpha"/>
<feOffset dy="14"/>
<feGaussianBlur stdDeviation="25.5"/>
<feColorMatrix type="matrix" values="0 0 0 0 0 0 0 0 0 0 0 0 0 0 0 0 0 0 0.031 0"/>
<feBlend mode="normal" in2="BackgroundImageFix" result="effect1_dropShadow_321_2138"/>
<feBlend mode="normal" in="SourceGraphic" in2="effect1_dropShadow_321_2138" result="shape"/>
</filter>
<linearGradient id="paint0_linear_321_2138" x1="294" y1="500" x2="294" y2="0" gradientUnits="userSpaceOnUse">
<stop stop-color="#252A42" stop-opacity="0"/>
<stop offset="1" stop-color="#24283E"/>
</linearGradient>
<clipPath id="clip0_321_2138">
<rect width="588" height="527" fill="white"/>
</clipPath>
</defs>
</svg>
