<svg width="588" height="527" viewBox="0 0 588 527" fill="none" xmlns="http://www.w3.org/2000/svg">
<g clip-path="url(#clip0_321_2138)">
<path d="M8 500L580 500C584.418 500 588 496.418 588 492L588 8C588 3.58173 584.418 0 580 0L8 0C3.58173 0 0 3.58173 0 8L0 492C0 496.418 3.58173 500 8 500Z" fill="url(#paint0_linear_321_2138)"/>
<path d="M124.331 74H464.774C466.1 74 467.372 74.5268 468.309 75.4645C469.247 76.4021 469.774 77.6739 469.774 79V99.176H119.331V79C119.331 77.6739 119.857 76.4021 120.795 75.4645C121.733 74.5268 123.005 74 124.331 74Z" fill="#181C31"/>
<g filter="url(#filter0_d_321_2138)">
<path d="M119 98.6277H469V420.847C469 422.115 468.474 423.331 467.537 424.227C466.601 425.124 465.331 425.627 464.007 425.627H123.993C122.669 425.627 121.399 425.124 120.462 424.227C119.526 423.331 119 422.115 119 420.847V98.6277Z" fill="#292E45"/>
</g>
<path d="M300.427 196.954C279.643 192.067 264.511 196.817 247.225 202.781C238.705 205.721 230.08 208.83 221.101 210.013C214.399 210.896 207.629 211.13 200.902 211.798C193.908 212.493 186.917 213.37 180.053 214.913C168.489 217.513 148.349 222.302 149.585 237.87C150.08 244.105 154.336 249.771 153.906 256.01C153.355 264.006 145.895 270.2 141.008 275.85C134.262 283.649 128.195 292.303 129.307 303.145C130.205 311.89 135.884 319.574 142.887 324.889C149.89 330.203 158.177 333.501 166.342 336.758C178.779 341.718 189.296 347.527 199.08 356.75C204.748 362.093 210.782 367.386 218.128 369.976C227.998 373.456 240.581 370.428 244.601 359.975C246.792 354.277 247.408 347.643 250.807 342.466C254.307 337.134 261.688 332.647 268.2 333.51C278.805 334.916 282.941 342.783 287.995 351.059C290.464 355.1 293.395 358.822 297.541 361.248C304.653 365.41 311.759 363.787 319.257 362.099C327.359 360.275 335.543 358.8 343.789 357.814C357.78 356.142 371.857 356.891 385.799 358.649C399.038 360.32 418.259 369.024 429.177 357.211C433.961 352.036 434.913 344.951 433.171 338.34C430.675 328.867 425.303 318.35 425.593 308.511C426.021 293.986 432.568 284.318 440.57 272.968C444.402 267.533 447.354 261.494 447.216 254.695C446.899 239.051 437.092 227.039 426.867 216.254C416.664 205.491 406.471 193.228 396.147 183.685" stroke="#ED725A" stroke-width="0.73988" stroke-miterlimit="10"/>
<path d="M449.046 212.928C449.046 215.201 447.204 217.043 444.931 217.043C442.658 217.043 440.815 215.201 440.815 212.928C440.815 210.655 442.658 208.813 444.931 208.813C447.204 208.813 449.046 210.655 449.046 212.928Z" stroke="#ED725A" stroke-width="0.73988" stroke-miterlimit="10"/>
<path d="M311.271 352.262C311.271 354.535 309.429 356.377 307.156 356.377C304.883 356.377 303.041 354.535 303.041 352.262C303.041 349.989 304.884 348.147 307.156 348.147C309.429 348.147 311.271 349.989 311.271 352.262Z" stroke="#ED725A" stroke-width="0.73988" stroke-miterlimit="10"/>
<path d="M296.898 173.076C298.607 173.076 299.991 174.461 299.991 176.169V237.324C299.991 239.033 298.606 240.418 296.898 240.418H178.204C176.496 240.418 175.111 239.032 175.111 237.324V176.169C175.111 174.461 176.496 173.076 178.204 173.076H296.898ZM296.898 172.336H178.204C176.091 172.336 174.371 174.056 174.371 176.169V237.324C174.371 239.438 176.091 241.157 178.204 241.157H296.898C299.012 241.157 300.731 239.438 300.731 237.324V176.169C300.732 174.056 299.012 172.336 296.898 172.336Z" fill="white"/>
<path d="M296.898 240.418H178.204C176.495 240.418 175.111 239.032 175.111 237.324V181.325H299.992V237.324C299.992 239.033 298.607 240.418 296.898 240.418Z" fill="#AFB9E8"/>
<path d="M182.375 177.442C182.375 178.419 181.582 179.212 180.605 179.212C179.627 179.212 178.834 178.419 178.834 177.442C178.834 176.464 179.627 175.672 180.605 175.672C181.582 175.672 182.375 176.464 182.375 177.442Z" stroke="white" stroke-width="0.73988" stroke-miterlimit="10"/>
<path d="M189.237 177.442C189.237 178.419 188.445 179.212 187.467 179.212C186.489 179.212 185.697 178.419 185.697 177.442C185.697 176.464 186.489 175.672 187.467 175.672C188.445 175.672 189.237 176.464 189.237 177.442Z" stroke="white" stroke-width="0.73988" stroke-miterlimit="10"/>
<path d="M175.111 181.325H299.992" stroke="white" stroke-width="0.73988" stroke-miterlimit="10"/>
<path d="M289.952 231.84C288.696 230.176 286.553 228.644 284.88 229.79C283.476 230.752 283.424 232.924 283.533 234.729C279.552 229.094 274.816 224.096 269.522 219.943C266.653 217.692 263.356 215.612 259.832 215.884C256.309 216.155 254.481 221.1 255.407 224.82C245.785 212.08 235.055 203.043 223.881 195.224C220.067 192.555 215.835 189.982 211.31 188.461C206.497 186.842 199.849 184.946 195.501 188.703C193.638 190.313 192.667 192.77 192.403 195.218C192.076 198.248 192.588 201.448 193.414 204.367C195.389 211.351 198.556 217.936 202.231 224.139C205.906 230.344 213.991 240.534 213.991 240.534H293.779C293.167 237.357 291.842 234.347 289.952 231.84Z" fill="#909DF4"/>
<path d="M247.994 228.052C247.994 228.052 232.676 214.767 226.106 212.515C219.536 210.262 206.036 213.88 205.866 213.88C205.697 213.88 193.781 240.42 193.781 240.42H242.651L247.994 228.052Z" fill="#EF9748"/>
<path d="M277.094 264.12C278.211 265.286 279.373 266.409 280.574 267.488C281.733 268.529 283.003 269.457 284.133 270.522C284.412 270.785 284.667 271.072 284.92 271.359C285.845 272.405 286.777 273.462 287.45 274.685C287.54 274.848 287.627 275.016 287.762 275.144C287.897 275.272 288.093 275.353 288.271 275.299C288.456 275.244 288.573 275.064 288.652 274.888C288.977 274.155 288.896 273.304 288.697 272.527C288.569 272.027 288.395 271.541 288.255 271.044C288.139 270.633 287.97 270.19 288.032 269.763C291.314 271.134 293.983 273.618 296.975 275.54C297.588 275.934 298.938 276.08 299.165 275.539C299.466 274.822 295.1 271.587 293.101 269.449C294.608 270.219 296.207 271.026 297.568 272.04C298.511 272.742 299.541 273.341 300.666 273.699C301.297 273.9 302.747 274.197 302.451 273.044C302.364 272.703 302.108 272.436 301.856 272.191C299.901 270.294 297.542 268.953 295.488 267.164C297.801 268.076 299.923 269.71 302.407 269.796C302.649 269.804 302.91 269.791 303.101 269.642C303.392 269.415 303.489 269.1 303.3 268.784C303.11 268.468 302.784 268.264 302.47 268.071C300.165 266.661 297.764 265.103 295.459 263.693C296.698 264.029 297.844 264.636 299.032 265.126C300.219 265.615 301.5 265.993 302.775 265.834C303.185 265.783 303.695 265.519 303.602 265.117C303.557 264.922 303.379 264.791 303.214 264.679C300.412 262.763 297.611 260.848 294.809 258.933C294.024 258.396 293.237 257.858 292.431 257.351C291.461 256.741 290.341 256.287 289.44 255.6C288.736 255.064 287.886 254.666 287.131 254.202C285.267 253.057 283.461 251.822 281.71 250.509" fill="#FFCAA3"/>
<path d="M288.094 269.753C287.212 269.365 286.316 269.008 285.409 268.682" stroke="black" stroke-width="0.493254" stroke-miterlimit="10"/>
<path d="M293.232 269.443C292.036 268.624 290.796 267.868 289.52 267.18" stroke="black" stroke-width="0.493254" stroke-miterlimit="10"/>
<path d="M295.495 267.116C294.512 266.493 293.529 265.87 292.546 265.247" stroke="black" stroke-width="0.493254" stroke-miterlimit="10"/>
<path d="M296.577 264.303C295.845 263.9 295.141 263.447 294.47 262.949" stroke="black" stroke-width="0.493254" stroke-miterlimit="10"/>
<path d="M229.633 212.928C235.684 214.83 238.721 215.004 244.133 218.362C249.886 221.931 264.116 236.925 264.116 236.925C264.116 236.925 283.318 250.463 290.514 255.582L277.586 267.904C263.287 259.355 248.61 249.151 237.771 236.5" fill="#EF9748"/>
<path d="M207.679 237.846C207.679 237.846 213.68 234.627 216.321 233.963C219.978 233.043 224.317 232.783 225.48 233.137C226.025 233.303 228.074 234.145 229.147 235.399C230.286 235.897 230.748 236.147 231.424 236.432C232.101 236.716 232.418 237.512 233.127 238.119C233.834 238.726 234.612 240.416 234.612 240.416C234.612 240.416 229.212 240.434 227.695 240.484C226.178 240.534 224.54 243.431 221.146 244.457" fill="#FFCAA3"/>
<path d="M220.042 210.541C215.879 210.507 211.825 209.422 207.67 209.42C200.124 209.416 195.793 213.374 192.122 218.862C189.343 223.017 186.725 228.131 184.756 232.693C182.457 238.018 179.882 243.948 179.212 249.763C178.905 252.423 179.287 255.171 180.517 257.535C182.792 261.909 187.848 262.673 190.797 263C193.746 263.328 198.914 262.332 201.445 260.762C214.766 252.502 223.574 244.224 223.574 244.224L209.243 236.878L202.368 239.568L211.051 223.518" fill="#EF9748"/>
<path d="M210.346 224.821L202.369 239.569" stroke="black" stroke-width="0.493254" stroke-miterlimit="10"/>
<path d="M209.244 236.879C205.135 238.474 201.025 240.068 196.915 241.662C194.11 242.751 191.359 244.905 189.125 246.908" stroke="black" stroke-width="0.493254" stroke-miterlimit="10"/>
<path d="M204.32 238.882L219.167 248.018" stroke="black" stroke-width="0.493254" stroke-miterlimit="10"/>
<path d="M244.227 231.734C242.261 234.983 239.54 240.416 239.54 240.416" stroke="black" stroke-width="0.493254" stroke-miterlimit="10"/>
<path d="M285.272 251.865L270.869 263.862" stroke="black" stroke-width="0.493254" stroke-miterlimit="10"/>
<path d="M228.592 236.938C229.636 237.215 230.698 237.424 231.77 237.565C232.101 237.608 232.446 237.65 232.726 237.831" stroke="black" stroke-width="0.493254" stroke-miterlimit="10"/>
<path d="M229.514 235.68C229.328 235.587 229.133 235.516 228.938 235.444C227.904 235.064 226.839 234.679 225.738 234.708" stroke="black" stroke-width="0.493254" stroke-miterlimit="10"/>
<path d="M226.158 241.086C226.717 240.683 227.408 240.501 228.092 240.43C229.514 240.282 231.035 240.589 232.4 240.054" stroke="black" stroke-width="0.493254" stroke-miterlimit="10"/>
<path d="M172.771 250.794C173.001 256.415 176.588 261.77 181.699 264.122" stroke="black" stroke-width="0.493254" stroke-miterlimit="10"/>
<path d="M168.792 250.55C168.909 254.218 170.423 257.772 172.771 259.888" stroke="black" stroke-width="0.493254" stroke-miterlimit="10"/>
<path d="M249.626 214.97C254.009 218.679 258.08 222.758 261.782 227.148" stroke="black" stroke-width="0.493254" stroke-miterlimit="10"/>
<path d="M249.723 210.571C252.78 212.841 255.582 215.454 258.058 218.346" stroke="black" stroke-width="0.493254" stroke-miterlimit="10"/>
<path d="M214.332 218.022C212.016 217.19 209.87 215.952 207.752 214.698C206.854 214.167 205.946 213.622 205.221 212.871C204.496 212.12 203.963 211.126 203.983 210.082C204.003 209.12 204.484 208.223 205.082 207.469C206.949 205.118 209.966 203.898 212.955 203.627C215.944 203.355 218.943 203.933 221.864 204.622C226.256 205.658 230.739 207.036 234.127 210.016C235.081 210.855 235.944 211.827 236.477 212.98C237.212 214.573 237.266 216.412 236.952 218.138C236.638 219.864 235.976 221.504 235.318 223.13" fill="#EF9748"/>
<path d="M226.212 200.672L220.307 202.393L220.439 205.361L217.45 210.461C217.45 210.461 224.516 213.198 227.173 218.778C230.067 219.208 231.225 216.862 231.225 216.862L234.07 210.045" fill="#FFCAA3"/>
<path d="M240.108 206.598C240.617 203.671 241.23 200.503 241.182 198.172C241.142 196.199 240.84 193.219 239.565 191.673C237.925 189.682 234.937 189.65 232.429 189.37C228.312 188.911 225.466 192.641 224.247 196.126C223.311 198.803 223.388 201.415 224.255 204.175C225.389 207.781 229.408 212.625 234.637 212.03C237.412 211.715 239.569 209.698 240.108 206.598Z" fill="#FFCAA3"/>
<path d="M235.054 200.201C235.004 200.637 234.693 200.959 234.36 200.92C234.026 200.882 233.797 200.498 233.847 200.061C233.898 199.626 234.209 199.304 234.542 199.342C234.875 199.381 235.105 199.765 235.054 200.201Z" fill="black"/>
<path d="M240.753 200.742C240.703 201.177 240.391 201.499 240.058 201.461C239.725 201.422 239.496 201.038 239.546 200.602C239.596 200.167 239.908 199.844 240.24 199.883C240.574 199.922 240.803 200.306 240.753 200.742Z" fill="black"/>
<path d="M238.226 199.777C238.1 200.786 238.204 201.811 238.206 202.823C238.207 203.449 238.229 204.553 237.416 204.695C236.882 204.788 235.719 204.47 235.719 204.47" stroke="black" stroke-width="0.493254" stroke-miterlimit="10"/>
<path d="M236.175 206.259L234.04 204.461C234.04 204.461 232.472 206.51 233.282 207.253C234.59 208.453 236.175 206.259 236.175 206.259Z" fill="white"/>
<path d="M239.64 192.296C240.582 193.77 241.102 194.955 241.142 199.375C241.593 199.262 242.049 199.147 242.454 198.92C242.859 198.693 243.214 198.335 243.332 197.886C243.553 197.055 242.933 196.232 242.899 195.372C242.875 194.751 243.159 194.159 243.496 193.636C243.756 193.234 244.06 192.834 244.122 192.359C244.209 191.691 243.791 191.056 243.292 190.602C242.177 189.591 240.683 189.188 239.402 188.445C238.782 188.086 238.452 187.524 237.876 187.102C237.225 186.625 236.529 186.209 235.801 185.862C234.122 185.06 232.279 184.627 230.422 184.548C226.822 184.394 223.265 185.738 220.756 188.253C217.438 191.578 216.106 197.919 218.188 201.592C219.361 203.661 220.439 205.362 220.439 205.362C220.572 205.574 223.443 202.996 223.619 202.646C223.797 202.291 223.864 201.893 223.973 201.511C224.344 200.208 225.639 199.989 226.75 199.583C228.369 198.99 229.179 197.548 229.493 195.921C229.673 194.985 229.7 194.028 229.726 193.076C229.721 193.289 231.029 193.748 231.225 193.809C233.156 194.404 235.337 194.509 237.297 193.982C237.876 193.827 238.492 193.627 238.949 193.232C239.075 193.124 239.849 192.508 239.64 192.296Z" fill="#1E1611"/>
<path d="M227.577 209.416C227.68 209.491 229.73 211.729 233.652 212.08" stroke="black" stroke-width="0.493254" stroke-miterlimit="10"/>
<path d="M231.6 197.102C231.948 196.419 232.646 195.926 233.407 195.826C234.168 195.726 234.97 196.023 235.483 196.593" stroke="black" stroke-width="0.493254" stroke-miterlimit="10"/>
<path d="M238.849 197.195C239.108 196.617 239.656 196.247 240.135 196.329C240.614 196.411 240.976 196.943 241.005 197.563" stroke="black" stroke-width="0.493254" stroke-miterlimit="10"/>
<path d="M237.107 201.323C236.608 202.806 235.031 203.594 233.584 203.083C232.138 202.572 231.369 200.955 231.868 199.472C232.367 197.989 233.944 197.202 235.391 197.713C236.837 198.224 237.606 199.84 237.107 201.323Z" stroke="#572A2F" stroke-width="0.493254" stroke-miterlimit="10"/>
<path d="M242.424 202.016C242.155 203.561 241.16 204.67 240.2 204.495C239.24 204.32 238.679 202.926 238.947 201.382C239.216 199.838 240.211 198.728 241.171 198.903C242.131 199.078 242.692 200.472 242.424 202.016Z" stroke="#572A2F" stroke-width="0.493254" stroke-miterlimit="10"/>
<path d="M239.201 200.564L237.252 200.199" stroke="#572A2F" stroke-width="0.493254" stroke-miterlimit="10"/>
<path d="M231.978 199.193L226.106 199.642" stroke="#572A2F" stroke-width="0.493254" stroke-miterlimit="10"/>
<path d="M227.784 200.7C227.755 199.276 225.834 198.16 224.57 198.614C221.532 199.705 222.555 205.146 225.379 205.668C226.177 205.816 227.324 205.502 227.607 204.597" fill="#FFCAA3"/>
<path d="M224.35 201.041L226.961 203.406" stroke="black" stroke-width="0.493254" stroke-miterlimit="10"/>
<path d="M226.443 198.945C227.079 199.328 227.595 199.915 227.902 200.609" stroke="black" stroke-width="0.493254" stroke-miterlimit="10"/>
<path d="M222.832 203.102C223.224 204.266 224.023 205.497 225.289 205.707C226.167 205.852 227.174 205.468 227.533 204.556" stroke="black" stroke-width="0.493254" stroke-miterlimit="10"/>
<path d="M216.127 195.091C216.186 193.177 216.396 191.248 217.019 189.436C217.642 187.624 218.704 185.926 220.235 184.775C221.083 184.138 222.052 183.682 223.033 183.28C223.859 182.94 224.702 182.634 225.576 182.448C228.848 181.752 232.238 182.787 235.304 184.128" fill="#FFC36C"/>
<path d="M236.77 184.39C235.962 183.611 234.917 183.108 233.829 182.83C233.181 182.663 232.511 182.573 231.843 182.606C231.496 182.624 231.151 182.674 230.809 182.741C228.437 183.208 226.299 184.452 224.243 185.725C221.498 187.423 218.757 189.252 216.744 191.775C216.017 192.686 215.373 193.737 215.308 194.901C215.272 195.546 215.418 196.188 215.629 196.799C215.985 197.829 216.822 199.297 217.523 200.131C223.561 194.483 230.343 190.014 238.172 187.36C238.132 186.239 237.578 185.169 236.77 184.39Z" fill="#FFC36C"/>
<path d="M216.518 192.068C216.518 192.068 221.615 184.962 231.076 182.6" stroke="black" stroke-width="0.493254" stroke-miterlimit="10"/>
<path d="M219.167 192.871C219.913 194.161 220.678 195.475 221.79 196.469" stroke="black" stroke-width="0.493254" stroke-miterlimit="10"/>
<path d="M225.123 187.528C225.896 189.157 226.855 190.703 227.978 192.128" stroke="black" stroke-width="0.493254" stroke-miterlimit="10"/>
<path d="M231.441 184.133C232.744 185.476 233.858 187.002 234.74 188.653" stroke="black" stroke-width="0.493254" stroke-miterlimit="10"/>
<path d="M233.621 183.364C234.74 184.744 235.722 186.381 236.453 187.978" stroke="black" stroke-width="0.493254" stroke-miterlimit="10"/>
<path d="M216.204 193.666C216.57 195.714 217.768 197.449 219.297 198.682" stroke="black" stroke-width="0.493254" stroke-miterlimit="10"/>
<path d="M212.717 208.567C215.603 209.645 218.518 210.737 221.086 212.44C223.654 214.141 226.255 216.533 227.172 219.474" stroke="black" stroke-width="0.493254" stroke-miterlimit="10"/>
<path d="M229.171 218.578C230.485 217.948 231.553 216.818 232.108 215.471" stroke="black" stroke-width="0.493254" stroke-miterlimit="10"/>
<path d="M203.982 209.771C205.317 217.436 215.429 215.97 220.139 218.346" stroke="black" stroke-width="0.493254" stroke-miterlimit="10"/>
<path d="M237.124 215.34C236.94 216.393 236.576 217.442 235.878 218.251C234.828 219.466 233.196 219.969 231.654 220.416" stroke="black" stroke-width="0.493254" stroke-miterlimit="10"/>
<path d="M233.05 218.578C233.751 223.399 234.461 228.801 234.237 233.667" stroke="black" stroke-width="0.493254" stroke-miterlimit="10"/>
<path d="M222.335 217.471C223.066 219.474 222.723 224.905 222.643 229.805" stroke="black" stroke-width="0.493254" stroke-miterlimit="10"/>
<path d="M271.274 357.837H161.458C159.749 357.837 158.365 356.452 158.365 354.743V280.386H274.367V354.743C274.367 356.452 272.982 357.837 271.274 357.837Z" fill="#D4BCDD"/>
<path d="M271.274 270.362C272.983 270.362 274.367 271.748 274.367 273.456V354.743C274.367 356.452 272.982 357.837 271.274 357.837H161.458C159.749 357.837 158.365 356.451 158.365 354.743V273.456C158.365 271.747 159.75 270.362 161.458 270.362H271.274ZM271.274 269.623H161.458C159.344 269.623 157.625 271.342 157.625 273.456V354.743C157.625 356.857 159.344 358.576 161.458 358.576H271.274C273.387 358.576 275.107 356.857 275.107 354.743V273.456C275.107 271.342 273.388 269.623 271.274 269.623Z" fill="white"/>
<path d="M167.193 275.668C167.193 276.856 166.229 277.819 165.042 277.819C163.853 277.819 162.891 276.856 162.891 275.668C162.891 274.48 163.854 273.517 165.042 273.517C166.229 273.517 167.193 274.48 167.193 275.668Z" stroke="white" stroke-width="0.73988" stroke-miterlimit="10"/>
<path d="M173.38 277.819C174.568 277.819 175.531 276.856 175.531 275.668C175.531 274.48 174.568 273.517 173.38 273.517C172.192 273.517 171.229 274.48 171.229 275.668C171.229 276.856 172.192 277.819 173.38 277.819Z" stroke="white" stroke-width="0.73988" stroke-miterlimit="10"/>
<path d="M158.365 280.386H274.367" stroke="white" stroke-width="0.73988" stroke-miterlimit="10"/>
<path d="M263.221 357.837C261.663 353.996 259.541 350.398 256.949 347.205C255.358 345.245 253.509 343.382 251.174 342.52C248.839 341.657 245.926 342.035 244.338 343.998C243.124 345.5 242.893 347.575 242.712 349.521C238.867 345.393 234.972 341.224 230.282 338.162C225.591 335.1 219.899 332.923 214.468 334.114C208.445 335.434 208.445 343.046 208.445 343.046C208.445 343.046 204.753 337.871 204.42 337.384C201.951 333.772 199.157 330.464 196.185 327.288C193.265 324.169 190.489 320.888 187.199 318.165C183.922 315.451 178.603 311.986 174.197 313.628C171.906 314.483 171.274 316.471 171.783 318.763C172.258 320.909 172.509 323.059 173.176 325.171C169.471 321.042 165.255 317.239 160.367 314.669C156.84 312.814 149.482 309.672 145.821 312.709C144.766 313.585 144.286 315.036 144.255 316.432C144.063 324.976 150.22 334.158 155.18 340.471C160.269 346.948 166.408 352.685 172.766 357.837H263.221Z" fill="#FFDD99"/>
<path d="M240.931 319.234C240.273 322.866 240.468 326.621 240.486 330.332C240.504 334.043 240.803 336.471 239.46 339.839C238.248 342.881 235.717 343.914 234.396 346.894C233.723 348.411 231.171 357.83 231.171 357.83H196.903C196.903 357.83 195.942 343.024 201.227 330.389C206.511 317.754 213.117 315.488 213.117 315.488L232.612 310.46L240.931 319.234Z" fill="#735D9D"/>
<path d="M285.825 297.147C286.842 295.92 288.264 295.151 289.481 294.154C290.604 293.235 291.442 291.946 292.373 290.832C293.511 289.471 294.396 287.921 295.384 286.452C296.443 284.875 297.801 283.599 299.146 282.272C299.332 282.088 299.523 281.898 299.629 281.658C299.821 281.225 299.598 280.656 299.1 280.521C298.129 280.26 297.092 280.508 296.15 280.861C295.59 281.07 293.691 281.743 293.576 280.674C293.446 279.466 294.457 277.702 294.845 276.582C295.348 275.126 295.864 273.666 296.273 272.179C296.662 270.762 296.574 268.04 295.821 267.995C295.067 267.951 295.636 268.402 295.439 268.509C295.754 268.094 295.203 267.138 294.751 266.852C294.299 266.567 293.712 267.492 293.576 267.99C293.73 267.504 293.303 266.699 292.941 266.665C292.414 266.617 292.004 267.116 291.69 267.523C291.376 267.93 291.097 268.384 290.652 268.657C290.656 268.308 290.604 267.957 290.497 267.622C290.154 267.428 289.76 267.749 289.511 268.042C284.461 274.005 281.044 281.399 275.441 287.139" fill="#E27769"/>
<path d="M293.694 279.855C293.712 281.323 293.675 282.791 293.583 284.256" stroke="black" stroke-width="0.493254" stroke-miterlimit="10"/>
<path d="M295.278 268.159C294.837 269.545 293.986 270.716 293.346 272.004C292.328 274.056 291.418 276.158 290.473 278.243" stroke="black" stroke-width="0.493254" stroke-miterlimit="10"/>
<path d="M293.54 267.887C293.232 268.535 292.88 269.162 292.488 269.763C292.068 270.407 291.602 271.02 291.152 271.644C289.866 273.427 288.706 275.3 287.684 277.247" stroke="black" stroke-width="0.493254" stroke-miterlimit="10"/>
<path d="M290.478 268.878C290.137 269.604 289.582 270.203 289.058 270.809C287.415 272.709 286.001 274.806 284.855 277.041" stroke="black" stroke-width="0.493254" stroke-miterlimit="10"/>
<path d="M222.777 312.424C228.908 309.858 232.925 307.164 238.995 304.43C244.468 301.965 252.148 299.943 257.545 297.312C265.008 293.674 272.006 289.656 278.14 284.151L289.285 295.884C289.285 295.884 273.536 311.95 268.037 315.082C254.787 322.629 249.961 324.042 236.187 331.246" fill="#735D9D"/>
<path d="M240.331 329.228C240.409 326.457 241.04 323.703 242.179 321.175" stroke="black" stroke-width="0.493254" stroke-miterlimit="10"/>
<path d="M274.42 287.236L285.473 299.641" stroke="black" stroke-width="0.493254" stroke-miterlimit="10"/>
<path d="M220.994 346.437C225.668 346.524 230.322 347.262 234.374 349.725C236.32 350.907 237.404 352.489 237.941 354.684C238.393 356.538 238.54 358.52 238.373 360.422C238.357 360.602 238.218 360.768 238.062 360.806C237.843 360.859 237.401 360.64 237.401 360.64C237.401 360.64 237.8 362.525 237.378 362.918C237.084 363.191 236.529 362.819 236.32 362.592C236.077 362.327 235.745 361.65 235.745 361.65C235.745 361.65 236.024 362.732 235.789 362.919C235.439 363.195 234.43 362.494 234.191 361.786C234.044 362.188 233.804 362.561 233.433 362.463C232.265 362.153 231.351 360.5 230.389 359.681C229.112 358.592 227.398 358.518 225.805 358.542C225.071 358.553 224.336 358.571 223.604 358.499C222.855 358.424 222.18 358.13 221.449 357.982C220.089 357.707 218.67 357.581 217.29 357.501" fill="#E27769"/>
<path d="M229.625 356.173C230.908 356.706 232.268 357.3 232.99 358.4C233.206 358.729 233.354 359.09 233.487 359.453C233.766 360.218 233.979 361.002 234.192 361.785" stroke="black" stroke-width="0.493254" stroke-miterlimit="10"/>
<path d="M231.466 353.855C232.196 354.319 232.911 354.813 233.53 355.417C234.148 356.021 234.669 356.74 234.951 357.557C235.112 358.024 235.192 358.514 235.273 359.002C235.439 360.005 235.612 361.008 235.789 362.01" stroke="black" stroke-width="0.493254" stroke-miterlimit="10"/>
<path d="M233.971 352.262C235.186 353.167 236.138 354.423 236.681 355.837C237.161 357.088 237.321 358.435 237.478 359.767C237.528 360.188 237.577 360.61 237.627 361.032" stroke="black" stroke-width="0.493254" stroke-miterlimit="10"/>
<path d="M215.846 313.321C215.846 313.321 206.173 314.752 202.461 316.885C196.657 320.219 194.106 325.307 190.408 333.936C186.709 342.565 185.209 346.352 185.173 349.21C185.12 353.419 187.015 357.831 194.756 357.831C208.547 357.831 219.445 357.831 219.445 357.831L224.427 346.195L205.215 343.189L210.517 330.777" fill="#735D9D"/>
<path d="M224.426 346.195L205.215 343.189L210.516 330.777" stroke="black" stroke-width="0.493254" stroke-miterlimit="10"/>
<path d="M198.392 344.965C198.54 344.965 201.464 343.143 205.215 343.189" stroke="black" stroke-width="0.493254" stroke-miterlimit="10"/>
<path d="M219.126 345.366L213.856 357.831" stroke="black" stroke-width="0.493254" stroke-miterlimit="10"/>
<path d="M230.845 316.285C231.099 314.972 231.09 313.571 230.88 312.164" stroke="black" stroke-width="0.493254" stroke-miterlimit="10"/>
<path d="M210.372 315.953C211.438 318.615 213.796 320.822 216.372 321.951C219.615 323.372 224.013 323.635 227.113 321.737C228.557 320.852 229.55 319.69 230.177 318.362" stroke="black" stroke-width="0.493254" stroke-miterlimit="10"/>
<path d="M264.933 320.943C270.708 318.001 275.989 314.091 280.488 309.425" stroke="black" stroke-width="0.493254" stroke-miterlimit="10"/>
<path d="M275.706 318.151C278.506 315.983 281.131 313.589 283.548 311.001" stroke="black" stroke-width="0.493254" stroke-miterlimit="10"/>
<path d="M183.078 341.951C181.856 345.935 181.415 350.158 181.788 354.308" stroke="black" stroke-width="0.493254" stroke-miterlimit="10"/>
<path d="M179.221 342.545C178.45 344.781 178.009 347.131 177.917 349.495" stroke="black" stroke-width="0.493254" stroke-miterlimit="10"/>
<path d="M219.083 301.426L213.793 304.971L214.935 308.752L213.344 314.452C213.243 314.816 213.304 315.203 213.514 315.516C214.379 316.803 217.06 320.001 222.376 319.996C227.994 319.99 227.915 316.264 227.915 316.264L228.938 308.326" fill="#E27769"/>
<path d="M229.725 300.953C228.271 298.243 227.439 296.565 225.911 294.697C224.618 293.114 222.468 290.878 220.442 290.433C217.833 289.858 215.378 291.74 213.156 293.115C209.508 295.371 209.571 300.228 210.803 303.846C211.75 306.625 213.707 307.686 216.177 309.381C219.403 311.595 226.417 312.597 229.429 310.17C231.681 308.356 231.266 303.824 229.725 300.953Z" fill="#E27769"/>
<path d="M221.927 300.714C222.1 301.135 221.979 301.582 221.658 301.714C221.337 301.846 220.936 301.613 220.763 301.193C220.591 300.773 220.711 300.325 221.033 300.193C221.354 300.061 221.754 300.294 221.927 300.714Z" fill="black"/>
<path d="M227.107 297.86C227.28 298.28 227.159 298.728 226.838 298.86C226.517 298.992 226.117 298.759 225.944 298.339C225.771 297.919 225.892 297.471 226.213 297.339C226.534 297.207 226.935 297.44 227.107 297.86Z" fill="black"/>
<path d="M224.333 299.686C224.913 300.203 225.612 300.551 226.312 300.874C226.746 301.074 228.191 301.459 227.869 302.163C227.661 302.614 226.816 303.328 226.816 303.328" stroke="black" stroke-width="0.493254" stroke-miterlimit="10"/>
<path d="M213.748 313.005C213.748 313.005 214.409 311.315 214.57 310.711C214.841 309.69 213.982 309.638 213.686 308.739C213.531 308.271 213.658 307.697 213.762 307.234C213.985 306.239 214.498 305.122 214.039 304.117C213.748 303.481 213.124 303.078 212.624 302.59C212.124 302.101 211.717 301.356 212.016 300.724C212.37 299.976 213.417 299.92 214.058 299.398C214.699 298.876 214.849 297.956 214.806 297.13C214.762 296.304 214.571 295.472 214.716 294.659C214.742 294.512 214.782 294.36 214.886 294.253C215.199 293.929 215.721 294.243 216.115 294.464C216.821 294.861 217.676 294.812 218.416 294.513C218.791 294.361 219.134 294.082 219.269 293.701C219.353 293.466 219.352 293.21 219.393 292.963C219.434 292.717 219.531 292.458 219.744 292.328C219.899 292.233 220.091 292.221 220.272 292.229C220.842 292.254 221.404 292.454 221.863 292.796C222.247 293.082 222.463 293.289 222.947 293.271C223.412 293.253 223.86 293.099 224.324 293.234C224.885 293.397 225.259 293.911 225.59 294.392C226.499 295.716 227.409 297.04 228.318 298.363C228.773 297.707 229.235 297.036 229.459 296.27C229.682 295.503 229.63 294.611 229.127 293.991C228.642 293.393 227.815 293.126 227.403 292.475C226.947 291.757 227.018 290.719 226.969 289.906C226.915 289.018 226.642 288.122 226.135 287.372C225.644 286.647 224.819 286.083 223.946 286.149C223.44 286.188 222.959 286.431 222.452 286.415C222.139 286.406 221.838 286.298 221.55 286.175C220.218 285.603 219.063 284.675 217.736 284.093C216.409 283.51 214.743 283.333 213.598 284.222C213.011 284.678 212.621 285.368 211.982 285.747C210.138 286.842 207.494 284.781 205.737 286.008C204.604 286.801 204.569 288.516 203.614 289.517C202.394 290.796 200.174 290.46 198.79 291.56C197.393 292.669 197.387 294.881 198.225 296.456C198.64 297.234 199.243 298.035 199.064 298.899C198.953 299.436 198.556 299.86 198.218 300.294C197.736 300.914 197.344 301.63 197.248 302.41C197.152 303.19 197.391 304.039 197.992 304.545C198.365 304.86 198.934 305.009 199.217 305.416C199.535 305.875 199.624 306.697 199.687 307.238C199.742 307.713 199.748 308.198 199.891 308.654C200.284 309.9 201.658 310.642 202.964 310.642C203.566 310.642 204.227 310.529 204.722 310.871C205.133 311.154 205.3 311.667 205.549 312.099C206.358 313.504 208.326 314.094 209.774 313.367C210.319 313.093 210.822 312.654 211.431 312.645C212.036 312.637 213.175 313.104 213.748 313.005Z" fill="#2C221D"/>
<path d="M222.256 311.448C223.887 311.855 226.976 311.94 229.318 310.461" stroke="black" stroke-width="0.493254" stroke-miterlimit="10"/>
<path d="M217.846 300.588C217.841 298.952 218.921 297.383 220.685 297.693" stroke="black" stroke-width="0.493254" stroke-miterlimit="10"/>
<path d="M223.926 296.513C223.87 296.047 224.221 295.502 224.748 295.234C225.275 294.966 225.931 295.006 226.299 295.307" stroke="black" stroke-width="0.493254" stroke-miterlimit="10"/>
<path d="M216.608 305.314C215.675 304.173 213.397 304.49 212.657 305.667C210.877 308.497 215.187 312.278 217.821 310.899C218.567 310.51 219.3 309.521 218.953 308.603" fill="#E27769"/>
<path d="M214.027 307.786L217.666 308.046" stroke="black" stroke-width="0.493254" stroke-miterlimit="10"/>
<path d="M214.395 304.741C215.157 304.646 215.953 304.796 216.646 305.165" stroke="black" stroke-width="0.493254" stroke-miterlimit="10"/>
<path d="M214.107 310.435C215.169 311.133 216.608 311.626 217.773 310.988C218.581 310.546 219.155 309.589 218.866 308.617" stroke="black" stroke-width="0.493254" stroke-miterlimit="10"/>
<path d="M224.9 303.597C224.666 304.473 224.956 305.624 225.961 305.805C226.715 305.941 227.531 305.477 227.774 304.748" stroke="black" stroke-width="0.493254" stroke-miterlimit="10"/>
<path d="M426.102 253.71H316.156C314.448 253.71 313.063 252.325 313.063 250.616V196.267H429.196V250.616C429.196 252.325 427.811 253.71 426.102 253.71Z" fill="#D5D8BC"/>
<path d="M426.103 188.018C427.811 188.018 429.196 189.403 429.196 191.111V250.616C429.196 252.325 427.811 253.709 426.103 253.709H316.156C314.448 253.709 313.063 252.324 313.063 250.616V191.112C313.063 189.403 314.448 188.019 316.156 188.019L426.103 188.018ZM426.103 187.278H316.156C314.043 187.278 312.323 188.998 312.323 191.111V250.616C312.323 252.73 314.043 254.449 316.156 254.449H426.102C428.216 254.449 429.935 252.73 429.935 250.616V191.112C429.936 188.998 428.216 187.278 426.103 187.278Z" fill="white"/>
<path d="M318.557 190.614C319.535 190.614 320.327 191.407 320.327 192.384C320.327 193.362 319.535 194.155 318.557 194.155C317.579 194.155 316.787 193.362 316.787 192.384C316.787 191.407 317.579 190.614 318.557 190.614ZM318.557 189.874C317.173 189.874 316.047 191 316.047 192.384C316.047 193.769 317.173 194.895 318.557 194.895C319.941 194.895 321.067 193.769 321.067 192.384C321.067 191 319.941 189.874 318.557 189.874Z" fill="white"/>
<path d="M325.419 190.614C326.397 190.614 327.19 191.407 327.19 192.384C327.19 193.362 326.397 194.155 325.419 194.155C324.442 194.155 323.649 193.362 323.649 192.384C323.649 191.407 324.442 190.614 325.419 190.614ZM325.419 189.874C324.035 189.874 322.909 191 322.909 192.384C322.909 193.769 324.035 194.895 325.419 194.895C326.803 194.895 327.93 193.769 327.93 192.384C327.93 191 326.803 189.874 325.419 189.874Z" fill="white"/>
<path d="M313.063 196.267H429.196" stroke="white" stroke-width="0.73988" stroke-miterlimit="10"/>
<path d="M413.339 243.44C411.164 239.807 408.858 236.038 405.287 233.823C401.716 231.607 396.487 231.523 393.821 234.8C391.458 237.704 391.897 241.939 392.463 245.662C389.834 242.305 386.754 239.313 383.335 236.794C380.697 234.85 377.787 233.16 374.583 232.551C371.257 231.918 367.462 232.615 364.732 234.673C361.007 237.48 361.065 241.901 361.43 246.165C356.909 237.595 351.884 229.093 344.924 222.244C343.122 220.471 341.005 218.936 338.571 218.257C337.174 217.867 335.598 217.791 334.346 218.522C332.444 219.633 331.94 222.139 331.886 224.342C331.82 227 332.126 229.666 332.793 232.24C331.578 230.935 329.976 229.968 328.225 229.634C324.196 228.862 320.22 231.909 319.99 236.045C319.751 240.348 322.369 244.455 324.369 248.069C325.131 249.447 325.914 250.819 326.777 252.136C326.945 252.393 327.587 253.671 327.977 253.671C327.979 253.671 419.1 253.671 419.1 253.671C417.18 250.461 415.259 246.648 413.339 243.44Z" fill="#B5AE6B"/>
<mask id="mask0_321_2138" style="mask-type:luminance" maskUnits="userSpaceOnUse" x="313" y="188" width="117" height="66">
<path d="M426.103 253.71H316.157C314.448 253.71 313.063 252.325 313.063 250.616V191.112C313.063 189.403 314.449 188.019 316.157 188.019H426.102C427.811 188.019 429.196 189.404 429.196 191.112V250.616C429.196 252.325 427.811 253.71 426.103 253.71Z" fill="white"/>
</mask>
<g mask="url(#mask0_321_2138)">
<path d="M421.312 249.636L390.835 191.225L382.174 190.716L375.373 196.267L357.876 208.988L377.545 266.631L421.312 249.636Z" fill="white"/>
<path d="M364.052 208.147C365.753 209.564 368.122 210.142 370.284 209.666" stroke="black" stroke-width="0.493254" stroke-miterlimit="10"/>
<path d="M372.415 208.988C374.544 208.272 376.434 206.86 377.724 205.02C379.015 203.18 379.699 200.923 379.647 198.676" stroke="black" stroke-width="0.493254" stroke-miterlimit="10"/>
<path d="M412.996 227.919C407.723 217.863 391.899 186.17 387.724 187.731C382.934 189.522 377.545 194.138 377.545 194.138C377.545 194.138 380.127 202.4 380.323 203.183C381.041 206.04 381.78 208.89 382.539 211.736C384.43 218.819 386.115 226.008 388.451 232.961C390.823 240.024 393.451 247.005 396.285 253.895C397.421 256.657 398.333 259.895 400.495 262.056C401.72 263.305 403.435 264.176 405.178 264.022C406.382 263.916 407.488 263.344 408.558 262.784C413.267 260.318 426.393 254.437 426.393 254.437C426.393 254.437 419.647 240.603 412.996 227.919Z" fill="#4C4139"/>
<path d="M386.109 266.571C384.828 261.903 382.634 257.607 381.009 253.07C378.884 247.134 376.995 241.115 374.802 235.202C371.457 226.183 366.713 213.711 363.082 204.804C363.082 204.804 356.424 208.623 355.082 209.549C353.739 210.475 354.031 212.678 354.031 212.678C359.33 232.441 375.379 277.323 375.379 277.323C377.279 276.319 381.992 273.672 383.892 272.667C386.396 271.345 386.83 269.194 386.109 266.571Z" fill="#4C4139"/>
<path d="M356.403 208.718C362.558 218.173 367.35 225.872 373.765 235.153" stroke="black" stroke-width="0.493254" stroke-miterlimit="10"/>
<path d="M385.901 190.118C387.178 202.661 387.956 215.254 388.235 227.859" stroke="black" stroke-width="0.493254" stroke-miterlimit="10"/>
</g>
<path d="M322.012 257.074C320.728 258.053 319.407 258.984 318.054 259.864C316.749 260.713 315.351 261.435 314.069 262.313C313.753 262.529 313.458 262.774 313.163 263.018C312.088 263.909 311.004 264.809 310.151 265.914C310.037 266.061 309.925 266.214 309.772 266.319C309.619 266.425 309.413 266.474 309.245 266.394C309.071 266.311 308.983 266.115 308.932 265.929C308.724 265.154 308.935 264.327 309.251 263.59C309.455 263.115 309.702 262.662 309.917 262.192C310.095 261.804 310.33 261.392 310.335 260.961C306.881 261.809 303.86 263.852 300.607 265.289C299.941 265.584 298.585 265.521 298.443 264.95C298.256 264.196 303.069 261.673 305.374 259.868C303.766 260.397 302.062 260.947 300.561 261.739C299.521 262.287 298.412 262.72 297.245 262.901C296.59 263.001 295.112 263.072 295.581 261.978C295.72 261.656 296.014 261.431 296.302 261.228C298.526 259.654 301.063 258.694 303.369 257.243C300.944 257.787 298.595 259.075 296.127 258.776C295.887 258.747 295.631 258.694 295.465 258.517C295.213 258.249 295.165 257.923 295.401 257.639C295.637 257.356 295.99 257.204 296.331 257.063C298.825 256.025 301.439 254.856 303.934 253.818C302.657 253.959 301.431 254.383 300.182 254.683C298.933 254.983 297.609 255.159 296.374 254.806C295.976 254.692 295.514 254.352 295.668 253.969C295.743 253.784 295.938 253.682 296.119 253.596C299.182 252.136 302.246 250.676 305.309 249.215C306.168 248.806 307.028 248.396 307.902 248.019C309.801 247.201 311.636 246.266 313.54 245.45C315.539 244.594 317.549 243.764 319.569 242.959" fill="#D16159"/>
<path d="M310.274 260.942C311.206 260.694 312.146 260.48 313.092 260.298" stroke="black" stroke-width="0.493254" stroke-miterlimit="10"/>
<path d="M305.245 259.843C306.554 259.219 307.895 258.663 309.262 258.179" stroke="black" stroke-width="0.493254" stroke-miterlimit="10"/>
<path d="M303.369 257.196C304.436 256.732 305.503 256.268 306.57 255.804" stroke="black" stroke-width="0.493254" stroke-miterlimit="10"/>
<path d="M302.733 254.249C303.518 253.963 304.284 253.625 305.024 253.236" stroke="black" stroke-width="0.493254" stroke-miterlimit="10"/>
<path d="M355.082 209.549C352.801 211.068 350.546 212.765 349.098 214.339C346.778 216.863 333.132 233.402 333.132 233.402C333.132 233.402 319.154 241.832 311.143 246.487L319.902 260.757C319.902 260.757 336.142 254.919 344.424 249.101C351.953 243.812 366.366 226.484 366.366 226.484" fill="#4C4139"/>
<path d="M360.793 233.405L356.403 219.753" stroke="black" stroke-width="0.493254" stroke-miterlimit="10"/>
<path d="M318.515 242.149L328.233 257.247" stroke="black" stroke-width="0.493254" stroke-miterlimit="10"/>
<path d="M317.321 256.553L325.384 252.82" stroke="black" stroke-width="0.493254" stroke-miterlimit="10"/>
<path d="M322.72 252.633C322.761 253.003 322.494 253.335 322.124 253.376C321.754 253.417 321.422 253.15 321.381 252.78C321.341 252.41 321.607 252.078 321.977 252.037C322.347 251.996 322.679 252.263 322.72 252.633Z" stroke="black" stroke-width="0.493254" stroke-miterlimit="10"/>
<path d="M318.782 254.417C319.154 254.417 319.456 254.115 319.456 253.743C319.456 253.371 319.154 253.069 318.782 253.069C318.41 253.069 318.108 253.371 318.108 253.743C318.108 254.115 318.41 254.417 318.782 254.417Z" stroke="black" stroke-width="0.493254" stroke-miterlimit="10"/>
<path d="M333.037 233.608C333.026 233.517 333.015 233.426 333.003 233.336C334.864 232.778 336.641 231.938 338.255 230.855" stroke="black" stroke-width="0.493254" stroke-miterlimit="10"/>
<path d="M339.613 217.519C342.254 214.341 345.488 211.657 349.098 209.647" stroke="black" stroke-width="0.493254" stroke-miterlimit="10"/>
<path d="M341.741 210.259C344.241 208.399 346.974 206.852 349.856 205.667" stroke="black" stroke-width="0.493254" stroke-miterlimit="10"/>
<path d="M368.474 184.288L370.426 190.068L377.39 196.805C377.39 196.805 377.571 200.813 373.632 205.015C369.722 209.185 365.486 206.386 365.486 206.386L360.43 198.953" fill="#D16159"/>
<path d="M352.172 199.354C351.371 196.787 350.361 191.251 350.438 189.143C350.504 187.358 351.038 185.611 352.213 184.231C353.727 182.454 357.287 183.091 359.56 182.874C363.291 182.52 365.623 186.942 366.675 190.112C367.483 192.547 367.867 195.054 367.043 197.538C365.701 201.577 361.393 205.659 356.835 204.555C354.359 203.955 352.948 201.841 352.172 199.354Z" fill="#D16159"/>
<path d="M371.999 183.564C371.4 182.925 370.577 182.423 370.31 181.589C370.163 181.126 369.933 179.741 369.784 179.28C368.951 176.704 366.791 175.842 364.336 176.265C364.075 173.802 361.462 173.564 359.316 173.539C358.422 173.529 357.513 173.442 356.713 173.014C355.866 172.562 355.099 171.921 354.11 171.827C353.228 171.743 352.32 172.034 351.588 172.516C349.044 174.188 348.317 177.425 345.201 178.402C344.216 178.71 343.187 178.802 342.337 179.448C341.703 179.93 341.231 180.651 341.142 181.443C341.014 182.573 341.761 183.261 342.532 183.948C343.431 184.75 343.956 185.772 343.883 186.993C343.839 187.732 343.641 188.451 343.523 189.182C343.187 191.262 343.851 193.228 345.593 194.487C345.961 194.753 346.458 195.001 347.803 195.293C348.751 195.499 351.21 195.144 351.21 195.144C351.21 195.144 350.603 191.606 350.615 190.228C350.625 188.918 351.025 187.698 351.792 186.651C352.446 185.758 353.876 185.443 354.941 185.491C356.537 185.563 358.061 186.442 359.647 186.256C360.306 186.179 360.933 185.901 361.45 185.487C363.584 186.869 365.793 188.9 366.281 191.377C366.306 191.503 366.62 192.969 366.509 192.992C368.339 192.607 370.644 192.459 371.466 190.462C371.75 189.773 371.607 189.048 371.821 188.35C371.999 187.771 372.516 187.349 372.757 186.793C373.223 185.719 372.799 184.418 371.999 183.564Z" fill="#2C221D"/>
<path d="M364.394 191.074C364.488 189.482 366.686 188.317 368.081 188.88C371.433 190.233 370.05 196.278 366.868 196.738C365.968 196.869 364.699 196.467 364.422 195.442" fill="#D16159"/>
<path d="M368.221 191.605L365.196 194.138" stroke="black" stroke-width="0.493254" stroke-miterlimit="10"/>
<path d="M365.97 189.169C365.242 189.569 364.639 190.205 364.266 190.967" stroke="black" stroke-width="0.493254" stroke-miterlimit="10"/>
<path d="M369.83 193.978C369.341 195.263 368.393 196.607 366.967 196.786C365.978 196.91 364.869 196.436 364.506 195.4" stroke="black" stroke-width="0.493254" stroke-miterlimit="10"/>
<path d="M363.271 203.128C363.271 203.128 364.899 202.094 365.97 199.816" stroke="black" stroke-width="0.493254" stroke-miterlimit="10"/>
<path d="M354.888 193.23C355.039 194.649 355.195 196.069 355.357 197.487C355.379 197.683 355.409 197.893 355.544 198.037C356.079 198.602 357.307 198.331 357.877 197.992" stroke="black" stroke-width="0.493254" stroke-miterlimit="10"/>
<path d="M359.214 198.574L356.76 200.007C356.76 200.007 357.71 201.827 358.66 201.472C360.431 200.81 359.214 198.574 359.214 198.574Z" fill="white"/>
<path d="M356.138 190.161C356.39 189.645 356.907 189.298 357.453 189.122C358.377 188.823 359.434 188.97 360.242 189.508" stroke="black" stroke-width="0.493254" stroke-miterlimit="10"/>
<path d="M350.404 192.221C350.493 191.68 350.803 191.271 351.166 191.025C351.779 190.609 352.569 190.613 353.249 191.035" stroke="black" stroke-width="0.493254" stroke-miterlimit="10"/>
<path d="M359.385 192.278C359.51 192.808 359.279 193.316 358.868 193.413C358.457 193.511 358.022 193.16 357.897 192.631C357.771 192.101 358.003 191.592 358.413 191.495C358.824 191.398 359.259 191.748 359.385 192.278Z" fill="black"/>
<path d="M353.727 193.962C353.852 194.492 353.621 195 353.21 195.097C352.799 195.195 352.364 194.844 352.239 194.315C352.113 193.785 352.344 193.276 352.755 193.179C353.166 193.082 353.601 193.432 353.727 193.962Z" fill="black"/>
<path d="M352.235 186.177C351.179 186.745 350.72 187.985 350.007 188.947C348.854 190.504 346.854 191.39 344.926 191.199" stroke="#635149" stroke-width="0.493254" stroke-miterlimit="10"/>
<path d="M361.63 185.345C362.586 184.463 363.272 183.292 363.575 182.028" stroke="#635149" stroke-width="0.493254" stroke-miterlimit="10"/>
<path d="M451.22 315.903H368.554C366.845 315.903 365.46 314.518 365.46 312.81V254.08H454.313V312.81C454.313 314.518 452.928 315.903 451.22 315.903Z" fill="#F9D4BB"/>
<path d="M451.22 245.831C452.928 245.831 454.313 247.217 454.313 248.925V312.81C454.313 314.519 452.928 315.903 451.22 315.903H368.554C366.845 315.903 365.461 314.518 365.461 312.81V248.925C365.461 247.216 366.846 245.831 368.554 245.831H451.22ZM451.22 245.092H368.554C366.44 245.092 364.721 246.811 364.721 248.925V312.81C364.721 314.923 366.44 316.643 368.554 316.643H451.22C453.333 316.643 455.053 314.923 455.053 312.81V248.925C455.053 246.811 453.333 245.092 451.22 245.092Z" fill="white"/>
<path d="M372.725 250.197C372.725 251.175 371.932 251.968 370.954 251.968C369.977 251.968 369.184 251.175 369.184 250.197C369.184 249.22 369.977 248.427 370.954 248.427C371.932 248.427 372.725 249.22 372.725 250.197Z" stroke="white" stroke-width="0.73988" stroke-miterlimit="10"/>
<path d="M379.586 250.197C379.586 251.175 378.794 251.968 377.816 251.968C376.839 251.968 376.046 251.175 376.046 250.197C376.046 249.22 376.839 248.427 377.816 248.427C378.794 248.427 379.586 249.22 379.586 250.197Z" stroke="white" stroke-width="0.73988" stroke-miterlimit="10"/>
<path d="M365.46 254.08H454.313" stroke="white" stroke-width="0.73988" stroke-miterlimit="10"/>
<path d="M431.41 292.099C429.376 291.743 428.8 297.214 429.776 299.034C427.097 295.203 423.705 289.334 421.025 285.502C418.02 281.205 414.429 275.852 409.009 274.453C404.126 273.193 401.58 277.445 401.503 281.786C401.43 285.942 401.848 290.134 402.618 294.216C403.457 298.665 404.547 303.734 406.969 307.618C404.394 303.49 400.274 302.094 395.669 302.477C393.524 302.656 391.295 303.377 389.941 305.05C387.775 307.725 388.587 312.587 389.51 315.904C391.524 315.904 393.538 315.904 395.551 315.904C406.261 315.904 448.687 315.922 448.687 315.922C448.687 315.922 438.013 293.255 431.41 292.099Z" fill="#EF9748"/>
<path d="M369.876 284.393C361.049 284.524 352.298 282.657 343.853 280.083C335.408 277.509 320.022 271.858 320.022 271.858L315.629 285.122C315.629 285.122 338.374 299.531 368.641 301.991" fill="#E27769"/>
<path d="M388.784 287.995C382.901 283.003 370.154 283.36 366.5 283.502C362.845 283.645 356.332 282.566 356.332 282.566L353.935 302.549C353.935 302.549 367.468 304.821 374.997 305.371" fill="#2C221D"/>
<path d="M372.204 292.789C373.127 295.394 372.706 299.227 372.716 301.991C372.725 304.457 373.592 305.827 373.956 308.266C374.392 311.18 376.045 313.262 377.789 315.903H415.271L413.297 295.121L408.194 287.748L397.421 284.876L373.1 291.272" fill="#2C221D"/>
<path d="M383.972 287.748C383.598 289.068 383.326 290.548 383.553 291.915C383.819 293.517 384.835 294.526 386.285 295.122" stroke="#6D574E" stroke-width="0.493254" stroke-miterlimit="10"/>
<path d="M388.127 295.563C394.77 296.753 401.76 292.005 402.427 285.961" stroke="#6D574E" stroke-width="0.493254" stroke-miterlimit="10"/>
<path d="M438.101 313.507C437.561 311.941 436.548 310.588 435.506 309.301C432.64 305.762 429.432 302.501 425.941 299.576L413.398 310.994L421.16 318.518L412.095 334.949L424.119 338.38C424.119 338.38 433.321 328.218 436.842 322.553C438.571 319.772 439.176 316.628 438.101 313.507Z" fill="#E27769"/>
<path d="M414.493 331.268C414.493 331.268 409.235 338.836 408.703 340.201C408.226 341.429 407.965 342.964 407.778 344.272C407.261 347.876 409.193 351.581 410.65 353.332C410.814 353.529 411.057 353.656 411.301 353.702C411.841 353.802 412.058 353.522 412.046 352.884C412.341 353.285 412.636 353.686 412.931 354.087C413.052 354.253 413.18 354.424 413.355 354.51C413.69 354.676 414.108 354.474 414.365 354.146C414.622 353.819 414.754 353.392 414.878 352.98C415.191 353.431 415.676 353.905 416.143 353.629C416.611 353.352 417.015 352.352 416.91 351.777C417.064 352.282 417.733 352.296 418.099 351.928C418.465 351.561 418.599 350.985 418.708 350.449C418.984 349.09 419.243 347.688 419.909 346.501C420.352 345.709 420.955 345.053 421.481 344.329C423.194 341.971 424.041 338.966 424.594 336.005" fill="#E27769"/>
<path d="M417.943 342.933C417.706 343.457 417.469 343.982 417.232 344.505C417.04 344.931 416.847 345.358 416.692 345.8C416.002 347.769 416.117 350.021 417.002 351.893" stroke="black" stroke-width="0.493254" stroke-miterlimit="10"/>
<path d="M413.986 342.737C413.504 345.12 413.307 347.984 413.651 349.776C413.873 350.936 414.38 352.04 415 353.035" stroke="black" stroke-width="0.493254" stroke-miterlimit="10"/>
<path d="M410.519 341.841C410.519 341.841 410.211 343.599 410.138 344.592C409.906 347.75 410.324 350.8 412.045 353.141" stroke="black" stroke-width="0.493254" stroke-miterlimit="10"/>
<path d="M318.948 285.346C318.002 285.254 317.055 285.163 316.109 285.071C315.262 284.989 314.408 284.905 313.598 284.645C313.057 284.472 312.545 284.222 312.035 283.974C309.933 282.951 308.858 282.644 306.848 281.46C305.693 280.78 304.512 280.139 303.28 279.607C302.074 279.085 300.823 278.805 299.709 278.1C299.613 278.038 299.512 277.969 299.468 277.864C299.434 277.783 299.437 277.692 299.449 277.604C299.708 275.787 303.411 276.203 304.851 276.606C305.285 276.727 305.736 276.872 306.178 276.783C306.208 276.205 305.953 275.651 305.672 275.146C304.842 273.658 303.629 272.473 302.533 271.179C301.52 269.983 300.493 268.787 299.56 267.526C298.685 266.346 297.785 263.775 298.472 263.461C299.158 263.148 298.791 263.774 299.013 263.803C298.57 263.53 298.739 262.439 299.057 262.01C299.375 261.581 300.257 262.231 300.563 262.647C300.244 262.248 300.352 261.344 300.678 261.182C301.152 260.946 301.714 261.264 302.154 261.53C302.594 261.797 303.018 262.12 303.531 262.213C303.402 261.889 303.324 261.544 303.302 261.192C303.552 260.888 304.036 261.045 304.373 261.228C311.235 264.967 317.09 270.629 324.387 273.961" fill="#E27769"/>
<path d="M304.733 273.755C305.503 274.86 306.023 276.189 306.426 277.82" stroke="black" stroke-width="0.493254" stroke-miterlimit="10"/>
<path d="M299.035 263.419C299.946 264.552 301.163 265.337 302.225 266.308C303.915 267.854 305.523 269.485 307.157 271.09" stroke="black" stroke-width="0.493254" stroke-miterlimit="10"/>
<path d="M300.558 262.538C301.079 263.031 301.634 263.489 302.216 263.908C302.841 264.357 303.496 264.761 304.141 265.18C305.984 266.378 307.742 267.707 309.398 269.154" stroke="black" stroke-width="0.493254" stroke-miterlimit="10"/>
<path d="M303.771 262.357C304.351 262.911 305.085 263.269 305.793 263.646C308.01 264.825 310.086 266.27 311.961 267.941" stroke="black" stroke-width="0.493254" stroke-miterlimit="10"/>
<path d="M319.224 285.778C319.224 285.778 315.346 285.252 313.763 284.834" stroke="black" stroke-width="0.493254" stroke-miterlimit="10"/>
<path d="M405.042 286.924C407.712 287.182 410.383 287.432 412.925 288.391C416.136 289.604 418.928 291.883 421.556 294.212C424.302 296.646 427.104 299.959 429.776 302.498L416.078 314.485L406.379 305.033" fill="#2C221D"/>
<path d="M421.16 318.518C421.16 318.518 423.186 315.924 425.24 314.485" stroke="black" stroke-width="0.493254" stroke-miterlimit="10"/>
<path d="M412.092 310.601L426.376 299.034" stroke="#6D574E" stroke-width="0.493254" stroke-miterlimit="10"/>
<path d="M359.172 303.383L361.246 283.224" stroke="#6D574E" stroke-width="0.493254" stroke-miterlimit="10"/>
<path d="M372.204 299.576C372.204 299.576 373.151 303.879 373.41 305.724" stroke="#6D574E" stroke-width="0.493254" stroke-miterlimit="10"/>
<path d="M405.895 304.997C408.863 307.289 416.079 314.485 416.079 314.485" stroke="#6D574E" stroke-width="0.493254" stroke-miterlimit="10"/>
<path d="M390.656 272.623L397.039 275.21L396.664 279.465L399.882 285.685C399.882 285.685 398.312 291.55 391.265 293.011C385.315 294.244 385.45 290.404 385.45 290.404L382.616 282.226" fill="#E27769"/>
<path d="M377.171 275.899C378.114 272.708 378.624 270.75 379.829 268.434C380.85 266.473 382.633 263.632 384.68 262.714C387.316 261.53 390.33 262.982 392.986 263.946C397.347 265.531 398.35 270.688 397.844 274.79C397.454 277.942 395.616 279.497 393.375 281.836C390.447 284.892 383.241 287.5 379.518 285.594C376.732 284.168 376.173 279.279 377.171 275.899Z" fill="#E27769"/>
<path d="M422.769 295.185C424.485 294.621 425.328 292.602 425.232 291.168C425.079 288.858 423.999 287.667 423.822 286.24C423.707 285.311 423.983 284.37 423.904 283.437C423.774 281.897 422.657 280.556 421.276 279.861C419.895 279.166 418.289 279.04 416.75 279.178C415.57 279.283 414.383 279.535 413.21 279.368C412.23 279.228 411.312 278.802 410.458 278.301C408.947 277.415 407.569 276.262 406.596 274.806C404.943 272.33 404.59 269.215 403.315 266.524C402.672 265.169 401.78 263.936 400.712 262.884C398.117 260.328 395.647 259.382 391.968 259.259C389.449 259.175 385.943 259.512 384.015 261.862C384.015 261.862 380.289 261.957 378.511 263.834C376.401 266.062 376.552 269.287 378.396 271.858C379.348 270.294 380.159 268.641 381.553 267.439C381.393 267.693 381.47 268.049 381.676 268.267C381.882 268.485 382.188 268.583 382.488 268.607C383.285 268.672 384.038 268.275 384.739 267.89C384.503 268.522 384.402 269.205 384.447 269.878C384.456 270.02 384.476 270.172 384.57 270.279C384.676 270.401 384.851 270.434 385.013 270.448C386.111 270.54 387.241 270.012 387.875 269.11C387.575 269.927 387.313 270.953 387.918 271.579C388.345 272.021 389.069 272.054 389.639 271.822C390.208 271.59 390.661 271.146 391.097 270.713C390.887 270.921 391.163 272.099 391.215 272.371C391.327 272.966 391.51 273.544 391.712 274.114C392.335 275.865 393.102 277.572 394.099 279.144C395.128 280.767 396.598 281.997 397.65 283.579C398.316 284.581 398.879 285.679 399.775 286.483C400.876 287.471 402.394 288.214 403.841 288.508C405.298 288.805 406.805 288.671 408.28 288.622C413.729 288.445 417.861 291.173 422.769 295.185Z" fill="#893D33"/>
<path d="M410.055 259.895C409.741 259.12 409.282 258.409 408.694 257.867C406.569 255.912 401.938 256.038 400.355 258.696C399.485 260.156 399.908 262.035 400.568 263.601L401.869 266.456C403.683 267.442 405.979 267.484 407.828 266.566C409.373 265.799 410.463 264.383 410.54 262.629C410.58 261.734 410.411 260.773 410.055 259.895Z" fill="#893D33"/>
<path d="M391.149 276.457C391.591 275.139 393.707 274.658 394.753 275.449C397.267 277.351 394.727 282.125 391.944 281.789C391.156 281.693 390.179 281.067 390.179 280.141" fill="#E27769"/>
<path d="M394.252 277.775L391.128 279.219" stroke="black" stroke-width="0.493254" stroke-miterlimit="10"/>
<path d="M392.91 275.212C392.206 275.383 391.554 275.781 391.066 276.338" stroke="black" stroke-width="0.493254" stroke-miterlimit="10"/>
<path d="M395.066 280.139C394.362 281.11 393.258 282.025 392.017 281.851C391.155 281.731 390.33 281.078 390.26 280.124" stroke="black" stroke-width="0.493254" stroke-miterlimit="10"/>
<path d="M384.066 286.411C384.066 286.411 386.998 286.271 389.967 284.266" stroke="black" stroke-width="0.493254" stroke-miterlimit="10"/>
<path d="M380.987 274.293C380.525 275.101 380.043 275.932 379.297 276.489C379.118 276.622 378.924 276.74 378.779 276.908C378.571 277.15 378.482 277.49 378.545 277.803C378.609 278.115 378.822 278.394 379.108 278.537" stroke="black" stroke-width="0.493254" stroke-miterlimit="10"/>
<path d="M379.67 280.422C380.139 280.812 380.84 280.964 381.395 280.667C382.096 280.291 382.111 279.396 382.134 278.698" stroke="black" stroke-width="0.493254" stroke-miterlimit="10"/>
<path d="M384.407 272.56C384.919 272.453 385.456 272.43 385.965 272.55C386.475 272.67 386.957 272.941 387.283 273.352C387.696 273.872 387.825 274.558 387.94 275.212" stroke="black" stroke-width="0.493254" stroke-miterlimit="10"/>
<path d="M378.7 270.613C379.188 270.263 379.871 270.24 380.411 270.502C380.95 270.763 381.344 271.282 381.514 271.858" stroke="black" stroke-width="0.493254" stroke-miterlimit="10"/>
<path d="M385.268 275.509C385.067 275.927 384.66 276.149 384.358 276.004C384.057 275.86 383.975 275.403 384.176 274.985C384.376 274.567 384.783 274.345 385.085 274.49C385.386 274.634 385.468 275.09 385.268 275.509Z" fill="black"/>
<path d="M379.727 273.686C379.527 274.104 379.12 274.326 378.818 274.181C378.517 274.037 378.435 273.58 378.635 273.162C378.835 272.744 379.242 272.522 379.544 272.666C379.846 272.811 379.928 273.267 379.727 273.686Z" fill="black"/>
<path d="M437.195 330.891C440.201 327.835 442.331 323.927 443.27 319.746" stroke="black" stroke-width="0.493254" stroke-miterlimit="10"/>
<path d="M444.079 329.189C444.988 327.396 445.568 325.437 445.782 323.438" stroke="black" stroke-width="0.493254" stroke-miterlimit="10"/>
<path d="M385.242 233.382C385.242 233.382 380.108 235.737 376.661 237.299C374.711 238.183 371.444 240.601 370.328 242.441C368.908 244.781 368.537 247.676 368.699 250.066C368.806 251.647 369.529 253.438 370.589 255.162C371.287 256.297 372.031 257.485 372.681 257.33C373.331 257.176 373.097 255.585 373.097 255.583C373.099 255.679 373.867 257.189 374.044 257.309C374.281 257.47 374.562 257.61 374.807 257.482C375.14 257.307 375.366 257.117 375.526 256.777C375.662 256.49 375.673 256.192 375.701 255.872C375.727 255.582 375.703 254.881 375.688 254.585C375.831 254.904 375.969 255.898 376.241 255.846C376.513 255.793 376.958 255.565 377.202 255.267C377.676 254.689 377.927 253.965 378.17 253.257C378.172 253.428 378.175 253.604 378.24 253.763C378.304 253.922 378.444 254.062 378.615 254.075C378.831 254.091 379.709 253.449 379.837 253.276C380.39 252.524 380.597 251.519 380.997 250.676C381.331 249.973 381.657 249.475 382.138 248.863C382.577 248.305 383.248 247.615 383.888 247.279C385.191 246.595 385.992 246.409 387.326 245.778C388.45 245.247 389.551 244.59 390.327 243.598" fill="#D16159"/>
<path d="M378.054 253.553C378.153 252.43 378.29 251.31 378.465 250.196C378.582 249.454 378.718 248.706 379.014 248.016C379.5 246.884 380.382 245.978 381.246 245.1" stroke="black" stroke-width="0.493254" stroke-miterlimit="10"/>
<path d="M375.807 254.832C375.371 252.961 375.418 251.015 375.467 249.093C375.481 248.562 375.495 248.026 375.622 247.51C375.841 246.62 376.381 245.847 376.91 245.098" stroke="black" stroke-width="0.493254" stroke-miterlimit="10"/>
<path d="M373.151 255.956C372.55 254.093 371.945 252.21 371.779 250.26C371.747 249.887 371.732 249.511 371.745 249.136C371.795 247.737 372.25 246.371 372.939 245.152" stroke="black" stroke-width="0.493254" stroke-miterlimit="10"/>
<path d="M389.61 205.545L398.645 222.589L378.482 236.397L391.751 246.848C391.751 246.848 414.375 239.483 420.538 235.829C425.376 232.961 427.452 225.511 418.132 213.361C408.811 201.21 402.376 194.004 400.465 191.978C396.352 187.617 391.457 185.805 386.896 188.102" fill="#4C4139"/>
<path d="M389.61 205.545L398.645 222.589L378.483 236.396" stroke="black" stroke-width="0.493254" stroke-miterlimit="10"/>
<path d="M390.131 242.149C390.131 242.521 389.829 242.823 389.457 242.823C389.086 242.823 388.784 242.521 388.784 242.149C388.784 241.777 389.086 241.475 389.457 241.475C389.83 241.475 390.131 241.777 390.131 242.149Z" stroke="black" stroke-width="0.493254" stroke-miterlimit="10"/>
<path d="M393.618 240.724C393.99 240.724 394.292 240.422 394.292 240.05C394.292 239.678 393.99 239.376 393.618 239.376C393.246 239.376 392.944 239.678 392.944 240.05C392.944 240.422 393.246 240.724 393.618 240.724Z" stroke="black" stroke-width="0.493254" stroke-miterlimit="10"/>
<path d="M385.6 242.002C385.674 242.061 394.292 237.717 394.292 237.717" stroke="black" stroke-width="0.493254" stroke-miterlimit="10"/>
<path d="M386.072 231.2C386.157 231.141 401.564 243.513 401.564 243.513" stroke="black" stroke-width="0.493254" stroke-miterlimit="10"/>
<path d="M398.152 222.76C400.044 222.021 401.945 221.225 403.967 220.921C406.127 220.596 408.324 220.708 410.497 220.82" stroke="black" stroke-width="0.493254" stroke-miterlimit="10"/>
<path d="M391.751 246.847L417.865 237.356" stroke="black" stroke-width="0.493254" stroke-miterlimit="10"/>
<path d="M396.318 183.846C391.1 178.943 385.77 174.065 379.6 170.431C368.178 163.702 352.235 164.744 344.356 169.639C338.307 173.397 335.119 178.077 331.234 183.872C326.372 191.126 321.273 198.93 313.26 202.403C309.354 204.096 305.059 204.604 300.882 205.422C296.705 206.24 292.433 207.465 289.233 210.272C286.033 213.079 284.209 217.844 285.938 221.735C287.296 224.79 290.64 226.712 293.983 226.807C297.325 226.902 300.584 225.351 302.99 223.029C309.131 217.104 311.989 201.519 300.647 197.032" stroke="#ED725A" stroke-width="0.73988" stroke-miterlimit="10"/>
<path d="M148.521 289.508C149.243 292.93 151.067 296.573 153.533 299.384C156.744 303.043 163.292 305.411 166.107 300.091C167.417 297.617 168.07 293.613 164.949 291.842C164.728 291.716 164.479 291.603 164.211 291.6C163.608 291.594 163.208 292.118 163.03 292.597C162.195 294.842 163.538 297.267 165.35 299.07C166.191 299.906 167.171 300.686 168.384 301.102C169.596 301.519 171.081 301.514 172.139 300.869C173.785 299.865 174.218 297.655 174.098 296.072" stroke="#8F96DB" stroke-width="0.73988" stroke-miterlimit="10"/>
<path d="M141.623 199.388C144.527 195.726 148.437 192.419 152.831 190.724C155.208 189.807 158.314 189.478 160.814 189.974C162.062 190.222 163.512 190.616 164.274 191.738C165.079 192.922 164.14 195.116 165.73 195.786C166.139 195.959 166.603 195.917 167.042 195.851C168.421 195.644 169.762 195.229 171.141 195.026C172.521 194.824 173.989 194.851 175.231 195.485C176.473 196.118 177.417 197.476 177.232 198.858C177.16 199.4 176.924 199.935 177.024 200.472C177.192 201.37 178.209 201.839 179.119 201.925C181.002 202.102 182.792 202.041 184.394 203.246C185.568 204.131 186.243 205.713 185.642 206.982" stroke="#FFDD99" stroke-width="0.73988" stroke-miterlimit="10"/>
<path d="M264.653 195.905C265.385 194.277 266.206 192.643 267.483 191.396C268.761 190.149 270.584 189.335 272.337 189.675C273.243 189.852 274.099 190.324 275.022 190.304C276.292 190.278 277.378 189.301 277.949 188.167C278.521 187.032 278.687 185.745 278.919 184.497C279.289 182.503 279.888 180.465 281.252 178.965C282.616 177.465 284.921 176.66 286.743 177.55" stroke="#FFDD99" stroke-width="0.73988" stroke-miterlimit="10"/>
<path d="M178.708 362.017C179.215 358.992 177.174 356.129 174.149 355.622C171.124 355.115 168.261 357.156 167.754 360.181C167.247 363.205 169.288 366.069 172.313 366.576C175.338 367.082 178.201 365.041 178.708 362.017Z" stroke="#909DF4" stroke-width="0.73988" stroke-miterlimit="10"/>
<path d="M267.752 176.317C270.239 176.317 272.256 174.3 272.256 171.813C272.256 169.325 270.239 167.309 267.752 167.309C265.265 167.309 263.248 169.325 263.248 171.813C263.248 174.3 265.265 176.317 267.752 176.317Z" stroke="#8F96DB" stroke-width="0.73988" stroke-miterlimit="10"/>
<path d="M428.017 344.595L431.002 364.26L442.736 355.617L428.017 344.595Z" fill="#FFDD99"/>
<path d="M132.623 323.018L140.561 314.018L127 314.504L132.623 323.018Z" stroke="#8F96DB" stroke-width="0.73988" stroke-miterlimit="10"/>
<path d="M145.307 345.305C147.082 345.305 148.521 343.867 148.521 342.092C148.521 340.317 147.082 338.878 145.307 338.878C143.533 338.878 142.094 340.317 142.094 342.092C142.094 343.867 143.533 345.305 145.307 345.305Z" fill="#FFDD99"/>
<path d="M152.175 207.963L144.449 224.821L168.056 221.397L152.175 207.963Z" fill="#ED725A"/>
<path d="M137.025 249.965C137.025 251.042 136.152 251.915 135.074 251.915C133.997 251.915 133.124 251.042 133.124 249.965C133.124 248.888 133.997 248.015 135.074 248.015C136.152 248.015 137.025 248.888 137.025 249.965Z" fill="#909DF4"/>
<path d="M401.73 173.076C401.73 174.153 400.857 175.026 399.78 175.026C398.703 175.026 397.83 174.153 397.83 173.076C397.83 171.999 398.703 171.126 399.78 171.126C400.857 171.126 401.73 171.999 401.73 173.076Z" fill="#ED725A"/>
<path d="M437.597 343.372C439.052 342.776 440.932 342.891 442.249 343.775C443.411 344.555 444.018 346.022 445.419 346.479C447.474 347.15 449.287 345.237 451.269 345.106C452.983 344.992 454.365 346.154 455.035 347.65C455.608 348.93 455.718 350.363 455.82 351.762" stroke="#8F96DB" stroke-width="0.73988" stroke-miterlimit="10"/>
<path d="M422.504 209.622C423.217 207.85 425.094 206.616 427.004 206.665C427.976 206.689 428.962 207.012 429.903 206.768C432.831 206.01 432.587 200.911 435.48 200.028C437.485 199.417 439.665 201.359 441.627 200.622C443.316 199.988 443.73 197.863 444.264 196.141C445.709 191.485 449.988 187.839 454.813 187.149" stroke="#8F96DB" stroke-width="0.73988" stroke-miterlimit="10"/>
<path d="M400.187 311.977C401.896 311.977 403.281 313.362 403.281 315.071V369.842C403.281 371.551 401.895 372.936 400.187 372.936H311.47C309.762 372.936 308.377 371.551 308.377 369.842V315.071C308.377 313.362 309.762 311.978 311.47 311.978H400.187M400.187 311.237H311.47C309.357 311.237 307.637 312.957 307.637 315.071V369.842C307.637 371.956 309.357 373.675 311.47 373.675H400.187C402.301 373.675 404.02 371.956 404.02 369.842V315.071C404.021 312.957 402.301 311.237 400.187 311.237Z" fill="white"/>
<path d="M400.187 372.936H311.47C309.762 372.936 308.377 371.551 308.377 369.843V320.226H403.281V369.843C403.281 371.551 401.896 372.936 400.187 372.936Z" fill="#C5B3DD"/>
<path d="M315.641 316.344C315.641 317.321 314.848 318.114 313.871 318.114C312.893 318.114 312.101 317.321 312.101 316.344C312.101 315.366 312.893 314.573 313.871 314.573C314.848 314.573 315.641 315.366 315.641 316.344Z" stroke="white" stroke-width="0.73988" stroke-miterlimit="10"/>
<path d="M322.503 316.344C322.503 317.321 321.711 318.114 320.733 318.114C319.756 318.114 318.963 317.321 318.963 316.344C318.963 315.366 319.756 314.573 320.733 314.573C321.711 314.573 322.503 315.366 322.503 316.344Z" stroke="white" stroke-width="0.73988" stroke-miterlimit="10"/>
<path d="M308.377 320.226H403.281" stroke="white" stroke-width="0.73988" stroke-miterlimit="10"/>
<path d="M389.967 361.089C385.245 355.86 379.76 353.274 376.97 353.904C372.867 354.832 373.613 365.304 373.728 369.509C371.746 367.218 369.291 365.338 366.56 364.024C364.504 363.035 362.163 362.359 359.946 362.899C357.729 363.439 355.776 365.524 356.036 367.791C350.872 360.109 343.743 353.76 335.517 349.516C330.318 346.833 316.182 341.255 313.762 347.044C311.108 353.392 326.166 372.936 326.166 372.936H399.147C399.147 372.936 394.231 365.811 389.967 361.089Z" fill="#A29DCE"/>
<path d="M298.773 305.244C296.093 302.437 293.52 297.012 292.796 294.119C292.161 291.575 291.593 288.97 290.391 286.618C290.067 285.983 288.675 284.519 289.179 283.758C290.197 282.224 292.667 284.245 293.31 285.158C293.541 285.485 294.391 286.863 294.817 286.943C295.242 287.024 295.422 285.374 295.474 284.667C295.673 281.948 295.686 278.984 295.456 276.233C295.218 273.4 295.622 270.914 296.511 270.783C297.412 270.65 297.365 271.183 297.529 271.361C297.673 270.464 298.49 269.4 299.017 269.699C299.338 269.881 299.454 270.283 299.499 270.649C299.544 271.015 299.762 271.711 299.762 271.711C299.762 271.711 300.273 269.802 301.206 270.882C301.678 271.428 302.396 274.33 302.856 275.251C302.81 274.642 302.656 274.303 302.852 273.591C302.959 273.205 303.177 272.887 303.595 273.09C303.842 273.21 303.913 273.454 304 273.694C304.468 274.994 305.62 277.086 306.038 278.403C306.474 279.776 306.91 281.15 307.347 282.523C308.167 285.105 308.968 287.822 309.556 290.515C310.1 293.006 312.097 299.146 312.097 299.146" fill="#A04B4B"/>
<path d="M297.504 271.515C297.742 272.992 298.282 274.876 298.579 276.55C299.003 278.951 299.195 281.175 299.558 283.289" stroke="black" stroke-width="0.493254" stroke-miterlimit="10"/>
<path d="M299.891 271.757C300.175 273.023 300.667 274.775 300.998 276.215C301.549 278.621 301.954 280.777 302.429 282.891" stroke="black" stroke-width="0.493254" stroke-miterlimit="10"/>
<path d="M302.851 275.21C303.551 277.509 304.566 280.147 305.369 283.056" stroke="black" stroke-width="0.493254" stroke-miterlimit="10"/>
<path d="M295.086 286.798C294.906 288.012 294.815 289.302 294.006 290.363" stroke="black" stroke-width="0.493254" stroke-miterlimit="10"/>
<path d="M389.453 372.936C388.504 370.4 387.489 367.736 386.062 365.411C384.635 363.086 382.77 360.959 380.39 359.502C379.322 358.848 378.167 358.337 377.015 357.829C373.918 356.461 370.821 355.093 367.724 353.725L352.523 347.795C351.582 346.922 350.642 346.049 349.703 345.175C347.888 343.484 346.078 341.789 344.281 340.077C344.212 340.012 344.143 339.946 344.074 339.881C330.315 326.747 320.082 312.073 311.142 294.949L295.085 301.991C295.085 301.991 302.03 325.656 308.629 335.702C317.345 348.973 327.427 361.044 331.982 364.866C332.795 367.596 333.726 370.291 334.782 372.936L389.453 372.936Z" fill="#FCDDD2"/>
<path d="M297.672 310.131L314.895 301.85" stroke="black" stroke-width="0.493254" stroke-miterlimit="10"/>
<path d="M298.531 300.48L304.338 313.081" stroke="black" stroke-width="0.493254" stroke-miterlimit="10"/>
<path d="M303.988 303.128C303.988 303.756 303.479 304.266 302.85 304.266C302.222 304.266 301.713 303.757 301.713 303.128C301.713 302.5 302.222 301.991 302.85 301.991C303.478 301.991 303.988 302.5 303.988 303.128Z" stroke="#D8A798" stroke-width="0.493254" stroke-miterlimit="10"/>
<path d="M366.054 372.599C366.846 371.568 367.638 370.536 368.43 369.505C369.284 368.392 370.141 367.277 371.105 366.258C373.92 363.284 377.718 361.168 381.789 360.727" stroke="#D8A798" stroke-width="0.493254" stroke-miterlimit="10"/>
<path d="M331.506 363.386C331.506 359.271 332.881 355.187 335.247 351.833C338.229 347.608 342.616 344.574 347.919 344.423" stroke="#D8A798" stroke-width="0.493254" stroke-miterlimit="10"/>
<path d="M331.912 364.705C331.153 362.444 330.717 359.908 329.515 357.828" stroke="black" stroke-width="0.493254" stroke-miterlimit="10"/>
<path d="M347.685 346.11L346.683 358.741C346.683 358.741 350.929 363.065 356.766 360.249C362.604 357.433 366.862 352.076 366.862 352.076L364.953 344.247" fill="#A04B4B"/>
<path d="M370.888 330.372C370.298 328.526 369.192 326.84 367.704 325.622C364.124 322.691 360.186 322.771 356.341 325.03C352.999 326.993 348.412 330.092 345.864 333.056C343.233 336.117 341.473 339.922 344.159 343.5C348.482 349.258 360.605 347.306 366.388 342.584C368.743 340.661 370.966 337.54 371.314 334.465C371.468 333.094 371.31 331.693 370.888 330.372Z" fill="#A04B4B"/>
<path d="M355.597 326.638C353.67 327.618 351.561 327.879 349.45 328.129C348.436 328.249 347.094 328.589 347.277 329.921C347.396 330.78 348.143 331.519 348.765 332.044" fill="#A04B4B"/>
<path d="M347.193 339.75C347.193 339.75 347.544 338.962 347.719 338.567C348.055 337.806 346.961 337.293 346.44 337.031C346.061 336.84 345.861 336.671 345.484 336.919C345.387 336.983 344.837 337.515 344.719 337.418C344.712 337.413 343.701 336.235 343.701 336.235C342.914 337.463 342.409 339.795 342.521 341.178C342.633 342.561 343.168 343.937 344.157 344.91C344.555 345.301 345.177 345.865 345.654 346.152C349.634 348.546 354.597 348.364 358.925 346.681C360.262 346.161 361.564 345.467 362.538 344.414C349.286 344.222 347.193 339.75 347.193 339.75Z" fill="#1E1611"/>
<path d="M362.998 338.865C362.939 338.852 362.88 338.841 362.822 338.831C361.937 338.685 361.062 338.815 360.19 338.528C359.487 338.297 358.834 337.861 358.448 337.23C357.992 336.485 358.618 336.051 359.225 335.716C360.123 335.22 360.997 334.664 361.728 333.944C362.928 332.761 363.561 331.065 363.04 329.413C362.475 327.622 360.711 326.57 359.342 325.434C358.023 324.34 356.338 322.636 356.894 320.739C357.452 318.835 359.291 318.141 361.108 318.41C362.083 318.555 363.065 318.828 364.039 318.676C364.534 318.599 365.005 318.415 365.494 318.305C366.995 317.968 368.724 318.449 369.618 319.7C370.262 320.602 370.511 321.88 371.504 322.372C371.982 322.608 372.539 322.603 373.058 322.726C374.113 322.974 375.004 323.776 375.434 324.771C375.863 325.766 375.845 326.929 375.46 327.942C374.767 329.763 373.73 330.675 374.581 332.684C376.558 337.348 377.388 343.075 372.667 346.429C371.425 347.311 369.869 347.767 368.836 348.886C368.191 349.584 367.665 350.579 366.72 350.679C366.085 350.747 365.487 350.355 365.052 349.888C364.662 349.468 364.356 348.98 364.053 348.494C363.634 347.821 363.208 347.117 363.122 346.329C362.999 345.204 363.583 344.139 364.113 343.139C364.613 342.197 365.619 340.244 364.429 339.465C364.019 339.196 363.493 338.973 362.998 338.865Z" fill="#1E1611"/>
<path d="M360.083 328.675C359.786 327.772 359.242 326.875 358.406 327.282C358.196 327.384 358.074 327.614 358.042 327.845C358.009 328.075 358.051 328.308 358.093 328.537C358.29 329.607 358.499 330.707 359.078 331.628C359.195 331.814 359.334 331.997 359.531 332.096C360.843 332.755 360.252 329.191 360.083 328.675Z" fill="#1E1611"/>
<path d="M351.793 334.782L348.081 333.941C348.081 333.941 347.717 337.124 349.295 337.44C350.872 337.756 351.793 334.782 351.793 334.782Z" fill="white"/>
<path d="M347.857 331.046C348.165 331.446 348.584 331.76 349.054 331.944" stroke="black" stroke-width="0.493254" stroke-miterlimit="10"/>
<path d="M351.958 327.78C353.351 327.577 354.706 327.111 355.93 326.414" stroke="black" stroke-width="0.493254" stroke-miterlimit="10"/>
<path d="M362.134 338.994C363.503 337.963 365.989 338.951 366.499 340.485C367.725 344.172 361.813 347.25 359.22 344.966C358.486 344.319 357.931 343 358.577 342.06" fill="#A04B4B"/>
<path d="M364.366 342.498L360.185 341.785" stroke="black" stroke-width="0.493254" stroke-miterlimit="10"/>
<path d="M364.792 338.958C363.957 338.641 363.017 338.59 362.133 338.815" stroke="black" stroke-width="0.493254" stroke-miterlimit="10"/>
<path d="M358.671 342.099C358.204 342.897 358.343 343.879 358.851 344.621C359.776 345.972 362.012 345.978 363.362 345.4" stroke="black" stroke-width="0.493254" stroke-miterlimit="10"/>
<path d="M356.195 331.732C355.666 332.115 355.015 332.118 354.741 331.74C354.467 331.361 354.673 330.744 355.203 330.361C355.732 329.978 356.383 329.975 356.657 330.353C356.93 330.732 356.724 331.349 356.195 331.732Z" fill="black"/>
<path d="M368.923 351.664C355.597 353.244 347.439 359.345 347.439 359.345L349.757 369.933C361.675 358.601 373.27 356.044 373.387 355.922L368.923 351.664Z" fill="#FCDDD2"/>
<path d="M347.053 352.581L342.035 355.803C342.035 355.803 341.172 364.807 342.819 369.596L347.44 359.345L347.053 352.581Z" fill="#FCDDD2"/>
<path d="M347.439 359.345L349.757 369.933C361.675 358.601 373.27 356.044 373.387 355.922" stroke="black" stroke-width="0.493254" stroke-miterlimit="10"/>
<path d="M347.053 352.581L342.035 355.803C342.035 355.803 341.172 364.807 342.819 369.596L347.44 359.345" stroke="black" stroke-width="0.493254" stroke-miterlimit="10"/>
<path d="M297.601 323.953C298.947 328.741 300.942 333.345 303.515 337.601" stroke="black" stroke-width="0.493254" stroke-miterlimit="10"/>
<path d="M298.04 332.177C298.886 335.255 299.9 338.286 301.077 341.254" stroke="black" stroke-width="0.493254" stroke-miterlimit="10"/>
<path d="M380.313 338.63C380.385 340.823 379.532 342.981 378.226 344.745C376.921 346.509 375.184 347.912 373.349 349.117" stroke="black" stroke-width="0.493254" stroke-miterlimit="10"/>
<path d="M378.82 349.04C380.657 347.998 382.224 346.485 383.331 344.686" stroke="black" stroke-width="0.493254" stroke-miterlimit="10"/>
<path d="M155.15 89.398C156.509 89.398 157.61 88.2689 157.61 86.876C157.61 85.4831 156.509 84.354 155.15 84.354C153.791 84.354 152.69 85.4831 152.69 86.876C152.69 88.2689 153.791 89.398 155.15 89.398Z" fill="#77F28A"/>
<path d="M137.17 89.398C138.529 89.398 139.63 88.2689 139.63 86.876C139.63 85.4831 138.529 84.354 137.17 84.354C135.811 84.354 134.71 85.4831 134.71 86.876C134.71 88.2689 135.811 89.398 137.17 89.398Z" fill="#EF5C00"/>
<path d="M145.977 89.398C147.335 89.398 148.437 88.2689 148.437 86.876C148.437 85.4831 147.335 84.354 145.977 84.354C144.618 84.354 143.517 85.4831 143.517 86.876C143.517 88.2689 144.618 89.398 145.977 89.398Z" fill="#FFDB26"/>
</g>
<defs>
<filter id="filter0_d_321_2138" x="68" y="61.6277" width="452" height="429" filterUnits="userSpaceOnUse" color-interpolation-filters="sRGB">
<feFlood flood-opacity="0" result="BackgroundImageFix"/>
<feColorMatrix in="SourceAlpha" type="matrix" values="0 0 0 0 0 0 0 0 0 0 0 0 0 0 0 0 0 0 127 0" result="hardAlpha"/>
<feOffset dy="14"/>
<feGaussianBlur stdDeviation="25.5"/>
<feColorMatrix type="matrix" values="0 0 0 0 0 0 0 0 0 0 0 0 0 0 0 0 0 0 0.031 0"/>
<feBlend mode="normal" in2="BackgroundImageFix" result="effect1_dropShadow_321_2138"/>
<feBlend mode="normal" in="SourceGraphic" in2="effect1_dropShadow_321_2138" result="shape"/>
</filter>
<linearGradient id="paint0_linear_321_2138" x1="294" y1="500" x2="294" y2="0" gradientUnits="userSpaceOnUse">
<stop stop-color="#252A42" stop-opacity="0"/>
<stop offset="1" stop-color="#24283E"/>
</linearGradient>
<clipPath id="clip0_321_2138">
<rect width="588" height="527" fill="white"/>
</clipPath>
</defs>
</svg>
