<svg width="588" height="527" viewBox="0 0 588 527" fill="none" xmlns="http://www.w3.org/2000/svg">
<g clip-path="url(#clip0_321_2162)">
<path d="M8 500L580 500C584.418 500 588 496.418 588 492L588 8C588 3.58173 584.418 0 580 0L8 0C3.58173 0 0 3.58173 0 8L0 492C0 496.418 3.58173 500 8 500Z" fill="url(#paint0_linear_321_2162)"/>
<path d="M103.331 68.3246H443.774C445.1 68.3246 446.372 68.8514 447.309 69.7891C448.247 70.7267 448.774 71.9985 448.774 73.3246V93.5006H98.3308V73.3246C98.3308 71.9985 98.8576 70.7267 99.7953 69.7891C100.733 68.8514 102.005 68.3246 103.331 68.3246Z" fill="#1D2433"/>
<g filter="url(#filter0_d_321_2162)">
<path d="M98 92.9523H448V415.172C448 416.44 447.474 417.656 446.538 418.552C445.601 419.449 444.331 419.952 443.007 419.952H102.993C101.669 419.952 100.399 419.449 99.4624 418.552C98.5261 417.656 98 416.44 98 415.172V92.9523Z" fill="white"/>
</g>
<path d="M137.15 83.7226C138.509 83.7226 139.61 82.5935 139.61 81.2006C139.61 79.8077 138.509 78.6786 137.15 78.6786C135.791 78.6786 134.69 79.8077 134.69 81.2006C134.69 82.5935 135.791 83.7226 137.15 83.7226Z" fill="#77F28A"/>
<path d="M119.17 83.7226C120.529 83.7226 121.63 82.5935 121.63 81.2006C121.63 79.8077 120.529 78.6786 119.17 78.6786C117.811 78.6786 116.71 79.8077 116.71 81.2006C116.71 82.5935 117.811 83.7226 119.17 83.7226Z" fill="#EF5C00"/>
<path d="M127.977 83.7226C129.336 83.7226 130.437 82.5935 130.437 81.2006C130.437 79.8077 129.336 78.6786 127.977 78.6786C126.618 78.6786 125.517 79.8077 125.517 81.2006C125.517 82.5935 126.618 83.7226 127.977 83.7226Z" fill="#FFDB26"/>
<g clip-path="url(#clip1_321_2162)">
<path d="M387.38 164.211H361.085V213.783H387.38V164.211Z" fill="#E6E6E6"/>
<path d="M386.09 164.211H355.202V213.784H386.09V164.211Z" fill="#F0F0F0"/>
<path d="M381.38 168.614H359.896V209.38H381.38V168.614Z" fill="white"/>
<path d="M375.083 180.772H366.73V196.617H375.083V180.772Z" fill="#EBEBEB"/>
<path d="M181.637 164.211H155.342V213.783H181.637V164.211Z" fill="#E6E6E6"/>
<path d="M180.347 164.211H149.459V213.784H180.347V164.211Z" fill="#F0F0F0"/>
<path d="M175.637 168.614H154.153V209.38H175.637V168.614Z" fill="white"/>
<path d="M169.34 180.772H160.987V196.617H169.34V180.772Z" fill="#EBEBEB"/>
<path d="M410.163 283.349H326.418C324.92 283.349 323.702 282.131 323.702 280.633V158.65C323.702 157.153 324.92 155.934 326.418 155.934H410.163C411.661 155.934 412.879 157.152 412.879 158.65V280.633C412.879 282.131 411.661 283.349 410.163 283.349ZM326.418 156.05C324.984 156.05 323.817 157.216 323.817 158.65V280.633C323.817 282.067 324.984 283.234 326.418 283.234H410.163C411.597 283.234 412.764 282.067 412.764 280.633V158.65C412.764 157.217 411.597 156.05 410.163 156.05H326.418Z" fill="#E0E0E0"/>
<path d="M313.592 283.349H229.846C228.349 283.349 227.13 282.131 227.13 280.633V158.65C227.13 157.153 228.348 155.934 229.846 155.934H313.592C315.09 155.934 316.308 157.152 316.308 158.65V280.633C316.308 282.131 315.089 283.349 313.592 283.349ZM229.846 156.05C228.413 156.05 227.246 157.216 227.246 158.65V280.633C227.246 282.067 228.413 283.234 229.846 283.234H313.592C315.026 283.234 316.193 282.067 316.193 280.633V158.65C316.193 157.217 315.026 156.05 313.592 156.05H229.846Z" fill="#E0E0E0"/>
<path d="M217.082 283.349H133.337C131.839 283.349 130.621 282.131 130.621 280.633V158.65C130.621 157.153 131.839 155.934 133.337 155.934H217.082C218.58 155.934 219.798 157.152 219.798 158.65V280.633C219.799 282.131 218.58 283.349 217.082 283.349ZM133.337 156.05C131.903 156.05 130.736 157.216 130.736 158.65V280.633C130.736 282.067 131.903 283.234 133.337 283.234H217.082C218.516 283.234 219.683 282.067 219.683 280.633V158.65C219.683 157.217 218.516 156.05 217.082 156.05H133.337Z" fill="#E0E0E0"/>
<path d="M445.5 311.645H98V311.701H445.5V311.645Z" fill="#E0E0E0"/>
<path d="M426.668 325.256H400.847V325.451H426.668V325.256Z" fill="#EBEBEB"/>
<path d="M334.147 327.371H327.37V327.567H334.147V327.371Z" fill="#EBEBEB"/>
<path d="M150.505 319.327H116.832V319.522H150.505V319.327Z" fill="#EBEBEB"/>
<path d="M162.383 319.327H157.445V319.522H162.383V319.327Z" fill="#EBEBEB"/>
<path d="M251.456 322.618H178.428V322.813H251.456V322.618Z" fill="#EBEBEB"/>
<path d="M208.496 185.539C207.334 187.308 206.553 189.25 206.137 191.255L202.946 191.555L202.945 197.736L206.137 198.037C206.553 200.04 207.334 201.983 208.496 203.753L206.457 206.215L210.828 210.585L213.29 208.547C215.059 209.709 217.002 210.49 219.005 210.906L219.305 214.097L225.486 214.097L225.787 210.906C227.791 210.489 229.734 209.708 231.503 208.547L233.965 210.585L238.335 206.214L236.297 203.752C237.458 201.983 238.239 200.04 238.656 198.037L241.847 197.736L241.847 191.555L238.656 191.255C238.24 189.251 237.458 187.308 236.297 185.54L238.335 183.078L233.965 178.707L231.503 180.745C229.734 179.584 227.791 178.802 225.787 178.386L225.487 175.195L219.306 175.195L219.006 178.387C217.002 178.803 215.059 179.584 213.29 180.745L210.828 178.707L206.457 183.077L208.496 185.539ZM228.314 188.729C231.581 191.996 231.581 197.295 228.314 200.563C225.046 203.83 219.747 203.83 216.48 200.563C213.212 197.295 213.213 191.997 216.48 188.729C219.747 185.462 225.045 185.462 228.314 188.729Z" fill="#EBEBEB"/>
<path d="M220.556 260.098C219.976 260.982 219.586 261.952 219.378 262.954L217.782 263.104V266.193L219.378 266.343C219.586 267.345 219.976 268.316 220.556 269.2L219.538 270.43L221.722 272.615L222.953 271.596C223.837 272.177 224.808 272.567 225.809 272.775L225.959 274.37H229.048L229.199 272.775C230.2 272.567 231.171 272.177 232.055 271.597L233.286 272.615L235.47 270.431L234.451 269.2C235.032 268.316 235.422 267.345 235.63 266.344L237.225 266.194V263.105L235.63 262.954C235.422 261.953 235.031 260.982 234.451 260.098L235.47 258.867L233.285 256.683L232.055 257.702C231.17 257.122 230.199 256.731 229.198 256.523L229.048 254.928H225.959L225.809 256.523C224.808 256.731 223.836 257.122 222.952 257.702L221.722 256.683L219.537 258.868L220.556 260.098ZM230.461 261.692C232.094 263.325 232.094 265.973 230.461 267.606C228.828 269.239 226.18 269.239 224.547 267.606C222.914 265.973 222.914 263.325 224.547 261.692C226.18 260.059 228.828 260.059 230.461 261.692Z" fill="#EBEBEB"/>
<path d="M132.499 227.854C131.582 229.25 130.966 230.783 130.637 232.365L128.117 232.603V237.482L130.637 237.719C130.965 239.301 131.582 240.834 132.499 242.231L130.89 244.175L134.34 247.625L136.284 246.016C137.68 246.933 139.214 247.549 140.795 247.877L141.032 250.397L145.912 250.396L146.149 247.877C147.731 247.549 149.264 246.932 150.661 246.015L152.605 247.624L156.055 244.174L154.446 242.231C155.362 240.834 155.979 239.3 156.308 237.719L158.827 237.482L158.827 232.603L156.308 232.365C155.979 230.784 155.362 229.25 154.445 227.853L156.055 225.91L152.605 222.46L150.661 224.069C149.264 223.152 147.731 222.535 146.149 222.207L145.912 219.687H141.033L140.796 222.207C139.214 222.535 137.681 223.151 136.284 224.068L134.34 222.459L130.89 225.91L132.499 227.854ZM148.143 230.372C150.722 232.951 150.723 237.133 148.143 239.713C145.563 242.293 141.381 242.292 138.802 239.713C136.223 237.133 136.223 232.951 138.802 230.372C141.381 227.793 145.563 227.792 148.143 230.372Z" fill="#EBEBEB"/>
<path d="M397.725 217.884C397.296 218.537 397.008 219.255 396.854 219.995L395.675 220.106V222.39L396.854 222.501C397.008 223.242 397.296 223.959 397.725 224.613L396.972 225.523L398.587 227.137L399.496 226.384C400.15 226.813 400.868 227.102 401.608 227.255L401.719 228.435H404.003L404.114 227.255C404.854 227.102 405.572 226.813 406.226 226.384L407.135 227.137L408.75 225.522L407.997 224.613C408.426 223.959 408.715 223.241 408.868 222.501L410.048 222.39V220.106L408.868 219.995C408.715 219.254 408.426 218.536 407.997 217.883L408.75 216.973L407.135 215.358L406.226 216.112C405.572 215.683 404.854 215.394 404.114 215.24L404.003 214.061H401.719L401.608 215.24C400.868 215.394 400.15 215.682 399.497 216.112L398.587 215.358L396.972 216.973L397.725 217.884ZM405.047 219.062C406.254 220.269 406.254 222.226 405.047 223.434C403.84 224.641 401.882 224.641 400.675 223.434C399.468 222.226 399.468 220.269 400.675 219.062C401.882 217.855 403.84 217.855 405.047 219.062Z" fill="#EBEBEB"/>
<path d="M310.643 189.322C310.213 189.975 309.925 190.693 309.771 191.433L308.592 191.545V193.828L309.771 193.94C309.925 194.68 310.213 195.398 310.643 196.051L309.889 196.961L311.504 198.576L312.413 197.822C313.067 198.251 313.785 198.54 314.525 198.694L314.636 199.873H316.92L317.031 198.694C317.771 198.54 318.489 198.251 319.143 197.822L320.052 198.576L321.667 196.961L320.914 196.051C321.343 195.398 321.632 194.68 321.786 193.94L322.965 193.829V191.545L321.786 191.434C321.632 190.693 321.343 189.976 320.914 189.322L321.667 188.412L320.052 186.798L319.143 187.551C318.489 187.122 317.771 186.833 317.031 186.68L316.92 185.5H314.636L314.525 186.68C313.785 186.833 313.067 187.122 312.414 187.551L311.504 186.798L309.889 188.412L310.643 189.322ZM317.964 190.501C319.171 191.708 319.172 193.665 317.964 194.873C316.757 196.08 314.799 196.08 313.592 194.873C312.385 193.665 312.385 191.708 313.592 190.501C314.8 189.293 316.757 189.293 317.964 190.501Z" fill="#F5F5F5"/>
<path d="M157.805 254.866C157.376 255.52 157.087 256.238 156.934 256.978L155.754 257.09V259.373L156.934 259.485C157.087 260.225 157.376 260.943 157.805 261.596L157.052 262.506L158.666 264.121L159.576 263.367C160.23 263.796 160.947 264.085 161.687 264.239L161.799 265.418H164.082L164.194 264.239C164.934 264.085 165.652 263.796 166.305 263.367L167.215 264.121L168.83 262.506L168.076 261.596C168.505 260.942 168.794 260.224 168.948 259.485L170.127 259.373V257.09L168.948 256.978C168.794 256.238 168.505 255.52 168.076 254.867L168.83 253.957L167.215 252.342L166.305 253.095C165.652 252.666 164.934 252.377 164.194 252.224L164.083 251.044H161.799L161.688 252.224C160.947 252.377 160.23 252.666 159.576 253.095L158.666 252.342L157.052 253.956L157.805 254.866ZM165.127 256.045C166.334 257.253 166.335 259.21 165.127 260.417C163.92 261.625 161.962 261.625 160.755 260.417C159.548 259.21 159.548 257.253 160.755 256.045C161.962 254.838 163.92 254.838 165.127 256.045Z" fill="#F5F5F5"/>
<path d="M364.415 227.094C363.677 228.217 363.181 229.451 362.917 230.724L360.89 230.914V234.839L362.917 235.03C363.182 236.303 363.678 237.536 364.415 238.659L363.12 240.223L365.896 242.998L367.459 241.704C368.582 242.441 369.816 242.937 371.088 243.201L371.279 245.228L375.204 245.227L375.395 243.201C376.667 242.937 377.901 242.441 379.024 241.704L380.588 242.998L383.363 240.223L382.068 238.659C382.806 237.536 383.302 236.303 383.566 235.03L385.592 234.839L385.593 230.914L383.566 230.724C383.302 229.451 382.806 228.218 382.068 227.095L383.363 225.531L380.587 222.756L379.024 224.051C377.9 223.313 376.667 222.817 375.395 222.553L375.204 220.526H371.279L371.088 222.553C369.816 222.817 368.582 223.312 367.459 224.05L365.896 222.756L363.12 225.531L364.415 227.094ZM376.998 229.12C379.073 231.195 379.073 234.559 376.998 236.634C374.923 238.709 371.559 238.709 369.484 236.634C367.409 234.559 367.409 231.195 369.484 229.12C371.559 227.045 374.923 227.045 376.998 229.12Z" fill="#EBEBEB"/>
<path d="M286.41 249.1C285.667 250.232 285.167 251.475 284.901 252.757L282.858 252.95V256.905L284.901 257.098C285.167 258.38 285.667 259.623 286.411 260.755L285.106 262.331L287.902 265.128L289.478 263.823C290.61 264.566 291.853 265.066 293.136 265.332L293.328 267.375L297.284 267.375L297.476 265.332C298.758 265.066 300.001 264.566 301.133 263.823L302.709 265.127L305.506 262.33L304.202 260.755C304.945 259.623 305.445 258.38 305.711 257.097L307.754 256.905L307.754 252.949L305.712 252.757C305.445 251.475 304.945 250.231 304.202 249.099L305.506 247.524L302.71 244.727L301.134 246.031C300.001 245.288 298.758 244.788 297.476 244.522L297.284 242.479H293.329L293.136 244.522C291.854 244.788 290.611 245.288 289.479 246.031L287.903 244.727L285.106 247.524L286.41 249.1ZM299.092 251.141C301.183 253.232 301.183 256.623 299.092 258.714C297.001 260.805 293.61 260.805 291.519 258.714C289.428 256.623 289.428 253.232 291.519 251.141C293.611 249.05 297.001 249.05 299.092 251.141Z" fill="#EBEBEB"/>
<path d="M298.003 286.382C296.756 288.281 295.917 290.368 295.47 292.52L292.042 292.843L292.042 299.48L295.47 299.803C295.917 301.955 296.755 304.041 298.003 305.941L295.814 308.585L300.507 313.279L303.152 311.09C305.051 312.337 307.138 313.176 309.289 313.622L309.612 317.05L316.25 317.05L316.573 313.622C318.725 313.175 320.812 312.336 322.711 311.089L325.355 313.278L330.049 308.585L327.86 305.941C329.107 304.041 329.946 301.955 330.393 299.803L333.82 299.48L333.821 292.842L330.393 292.519C329.947 290.368 329.107 288.282 327.86 286.382L330.049 283.738L325.356 279.044L322.712 281.233C320.812 279.986 318.725 279.147 316.574 278.7L316.251 275.273L309.613 275.273L309.29 278.701C307.139 279.147 305.052 279.986 303.152 281.234L300.508 279.045L295.815 283.739L298.003 286.382ZM319.285 289.807C322.794 293.317 322.794 299.006 319.285 302.515C315.776 306.024 310.086 306.024 306.577 302.515C303.068 299.006 303.068 293.317 306.577 289.807C310.087 286.299 315.776 286.299 319.285 289.807Z" fill="#EBEBEB"/>
<path d="M422.571 341.756C422.571 343.325 357.12 344.597 276.383 344.597C195.646 344.597 130.196 343.325 130.196 341.756C130.196 340.186 195.646 338.915 276.383 338.915C357.12 338.915 422.571 340.186 422.571 341.756Z" fill="#F5F5F5"/>
<path d="M152.247 261.026C143.798 270.909 141.33 285.539 146.07 297.647C151.336 292.947 155.045 285.782 155.279 279.515C155.514 273.249 153.874 267.081 152.247 261.026Z" fill="#407BFF"/>
<path d="M150.773 298.789C147.906 303.182 146.534 308.531 146.932 313.761C151.5 312.171 155.526 307.011 157.94 302.821C160.354 298.63 161.704 293.922 162.932 289.245C157.984 290.986 153.64 294.396 150.773 298.789Z" fill="#407BFF"/>
<path d="M149.719 278.285C146.325 290.483 144.596 303.137 144.606 315.799C144.609 319.401 144.754 323.002 145.036 326.594C145.054 326.815 145.401 326.817 145.384 326.594C144.394 313.964 145.128 301.211 147.581 288.781C148.271 285.282 149.099 281.813 150.055 278.378C150.114 278.162 149.779 278.07 149.719 278.285Z" fill="#263238"/>
<path d="M145.131 317.894C148.599 309.639 153.158 301.906 158.427 294.677C158.559 294.496 158.258 294.323 158.127 294.501C154.002 300.16 150.295 306.125 147.228 312.424C146.367 314.193 145.558 315.987 144.796 317.801C144.709 318.007 145.046 318.097 145.131 317.894Z" fill="#263238"/>
<path d="M140.213 305.633C142.604 309.297 143.748 313.757 143.416 318.118C139.608 316.792 136.25 312.49 134.237 308.996C132.224 305.501 131.099 301.576 130.075 297.676C134.2 299.127 137.823 301.971 140.213 305.633Z" fill="#407BFF"/>
<path d="M145.028 321.009C142.184 314.241 138.425 307.969 134.106 302.044C133.975 301.866 133.674 302.039 133.806 302.22C138.105 308.117 141.861 314.364 144.693 321.101C144.778 321.304 145.115 321.215 145.028 321.009Z" fill="#263238"/>
<path d="M145.162 323.256C150.536 317.727 156.025 312.309 161.399 306.779C161.555 306.619 161.31 306.373 161.154 306.534C155.779 312.064 150.291 317.481 144.916 323.011C144.76 323.171 145.005 323.417 145.162 323.256Z" fill="#263238"/>
<path d="M161.601 304.239C156.938 308.736 152.69 313.663 148.927 318.936H149.78C153.329 318.77 156.775 317.019 159.002 314.25C161.228 311.482 162.199 307.741 161.601 304.239Z" fill="#407BFF"/>
<path d="M139.528 293.514C141.53 296.788 143.417 300.132 145.184 303.538C145.287 303.737 145.587 303.562 145.484 303.363C143.717 299.956 141.83 296.613 139.828 293.338C139.711 293.148 139.411 293.322 139.528 293.514Z" fill="#263238"/>
<path d="M134.699 276.982C133.936 280.416 133.178 284.882 133.171 288.459C133.163 292.035 134.254 295.525 136.287 297.922C138.319 300.318 142.422 301.368 144.075 299.996L134.699 276.982Z" fill="#407BFF"/>
<path d="M154.964 324.853H134.594V328.628H154.964V324.853Z" fill="#263238"/>
<path d="M151.665 342.078H139.016L136.718 327.763H153.481L151.665 342.078Z" fill="#263238"/>
<path opacity="0.2" d="M136.868 328.698H153.363L153.157 330.319H137.128L136.868 328.698Z" fill="black"/>
<path d="M392.298 243.267C397.444 240.325 404.001 242.111 406.943 247.257C409.886 252.403 408.1 258.96 402.954 261.903C398.981 264.174 394.173 263.618 390.831 260.882L387.647 261.383L388.404 258.062C388.373 258.011 388.338 257.964 388.308 257.912C385.366 252.767 387.152 246.21 392.298 243.267Z" fill="#407BFF"/>
<path d="M394.205 240.888C390.778 241.548 387.762 244.045 386.474 247.289" stroke="#407BFF" stroke-width="0.231667" stroke-miterlimit="10" stroke-linecap="round" stroke-linejoin="round"/>
<path d="M385.936 248.797C385.704 249.276 385.572 249.803 385.551 250.335" stroke="#407BFF" stroke-width="0.231667" stroke-miterlimit="10" stroke-linecap="round" stroke-linejoin="round"/>
<path d="M396.368 256.642L391.837 252.507L393.28 250.926L396.318 253.699L401.366 248.77L402.861 250.301L396.368 256.642Z" fill="white"/>
<path d="M281.747 174.73C287.153 171.589 294.083 173.425 297.224 178.831C300.366 184.238 298.53 191.167 293.123 194.309C288.95 196.734 283.875 196.182 280.329 193.322L276.974 193.874L277.749 190.365C277.716 190.311 277.678 190.262 277.646 190.208C274.505 184.801 276.341 177.872 281.747 174.73Z" fill="#407BFF"/>
<path d="M297.244 176.225C295.045 173.273 291.289 171.554 287.618 171.819" stroke="#407BFF" stroke-width="0.231667" stroke-miterlimit="10" stroke-linecap="round" stroke-linejoin="round"/>
<path d="M285.938 172.001C285.377 171.999 284.816 172.115 284.301 172.34" stroke="#407BFF" stroke-width="0.231667" stroke-miterlimit="10" stroke-linecap="round" stroke-linejoin="round"/>
<path d="M292.345 182.892H281.769V185.536H292.345V182.892Z" fill="white"/>
<path d="M291.367 186.975V181.633L293.972 184.304L291.367 186.975Z" fill="white"/>
<path d="M351.016 241.978C351.016 241.978 350.735 246.831 348.365 255.335C346.878 260.59 345.074 265.75 342.962 270.787C341.78 273.632 340.423 276.652 338.866 279.829C338.165 281.274 337.415 282.743 336.627 284.25C335.72 309.989 321.276 336.152 321.276 336.152C320.475 336.565 317.68 336.115 317.699 335.302C319.837 331.906 324.046 298.926 326.76 283.281C326.928 281.155 327.172 278.904 327.472 276.522C328.266 270.206 329.442 263.34 330.599 257.299C332.393 247.782 334.101 240.322 334.101 240.322L338.859 240.785L351.016 241.978Z" fill="#EEC1BB"/>
<path d="M321.119 341.705H320.306L320.075 340.679L317.324 341.93H310.352C310.352 341.93 309.245 340.817 312.559 339.935C312.721 339.889 312.877 339.829 313.028 339.754C314.797 338.922 317.311 336.121 317.311 336.121H321.132C321.25 336.299 321.355 336.485 321.445 336.678C321.864 337.503 322.583 339.291 321.119 341.705Z" fill="#263238"/>
<path d="M321.445 336.665C320.944 336.102 318.649 338.572 316.968 339.416C315.467 340.16 313.778 340.491 313.028 339.735C314.797 338.903 317.949 335.011 317.949 335.011L320.651 335.282C320.651 335.282 321.27 336.302 321.445 336.665Z" fill="#EEC1BB"/>
<path d="M356.694 277.609C356.31 280.377 355.816 283.339 355.212 286.495C360.371 303.71 349.759 337.309 349.759 337.309C347.964 337.665 346.376 337.434 345.569 336.827C347.571 326.704 346.132 300.383 344.575 284.657C344.437 283.231 344.262 281.661 344.075 279.985C343.756 277.146 343.374 274.02 342.968 270.787C342.28 265.378 341.511 259.687 340.817 254.641C339.966 248.544 339.228 243.385 338.847 240.79C338.69 239.652 338.597 239.008 338.597 239.008L353.492 240.621C353.492 240.621 357.282 244.867 357.869 258.13C358.064 264.646 357.67 271.165 356.694 277.609Z" fill="#EEC1BB"/>
<path d="M350.128 341.705H349.297L349.065 340.68L346.32 341.93H339.354C339.354 341.93 338.247 340.817 341.567 339.936C341.729 339.889 341.886 339.829 342.036 339.754C343.8 338.923 346.32 336.121 346.32 336.121H350.14C350.255 336.301 350.36 336.487 350.453 336.678C350.872 337.503 351.573 339.292 350.128 341.705Z" fill="#263238"/>
<path d="M350.454 336.665C349.947 336.102 347.652 338.572 345.97 339.416C344.469 340.16 342.781 340.492 342.037 339.735C343.8 338.903 346.583 335.283 346.583 335.283H349.653C349.653 335.283 350.272 336.303 350.454 336.665Z" fill="#EEC1BB"/>
<path d="M360.606 204.576C359.841 203.915 358.605 204.169 357.553 204.045C355.957 203.857 354.67 202.704 353.983 201.395C353.296 200.086 353.096 198.622 352.851 197.191C352.606 195.761 352.29 194.296 351.413 193.082C350.537 191.868 348.425 190.363 346.891 191.284L344.837 194.467C346.07 198.197 347.072 201.989 347.838 205.819C348.18 207.529 348.52 209.338 349.761 210.67C350.978 211.974 352.903 212.611 354.792 212.732C355.75 212.794 356.74 212.733 357.615 212.378C358.491 212.022 359.236 211.336 359.43 210.491C359.623 209.646 359.158 208.67 358.268 208.347C359.127 207.984 360.021 207.596 360.594 206.915C361.166 206.235 361.29 205.168 360.606 204.576Z" fill="#263238"/>
<path d="M331.179 188.732C328.83 191.004 328.534 193.708 328.907 195.559C329.695 198.007 330.889 199.624 332.01 201.939L335.987 186.047C334.49 186.638 333.732 186.447 331.179 188.732Z" fill="#263238"/>
<path d="M338.261 185.954C342.845 186.047 347.448 189.88 347.808 193.599C348.169 197.319 344.51 202.118 343.824 202.413L341.653 203.211C341.653 203.211 344.048 197.674 343.054 196.194C342.06 194.715 341.339 194.698 341.339 194.698L338.261 185.954Z" fill="#263238"/>
<path d="M334.369 186.836C336.754 185.149 339.571 186.113 341.242 186.836C343.125 187.923 344.454 189.763 344.893 191.893C345.257 193.892 345.699 196.316 344.677 197.579C344.108 198.306 343.259 198.76 342.338 198.831L330.788 191.508C331.565 189.671 332.797 188.063 334.369 186.836Z" fill="#263238"/>
<path d="M339.028 213.917C339.931 214.562 340.578 214.174 341.517 213.574C347.159 210.303 344.841 207.713 344.841 207.713C343.451 206.578 343.108 204.979 343.078 202.452C343.074 202.38 343.064 202.307 343.048 202.236C342.985 201.909 342.822 201.61 342.582 201.381C341.943 200.735 340.901 200.729 340.255 201.368L340.253 201.37L337.691 202.634C337.69 202.673 337.689 202.711 337.689 202.755C337.926 204.097 338.154 205.13 338.293 205.951C338.291 206.052 338.328 206.153 338.341 206.25C338.339 206.351 338.366 206.457 338.384 206.554C338.523 207.687 336.926 209.679 336.224 210.211C335.805 210.564 335.967 211.742 339.028 213.917Z" fill="#EEC1BB"/>
<path opacity="0.2" d="M337.696 202.596C337.702 202.637 337.701 202.679 337.694 202.721C337.931 204.062 338.158 205.096 338.298 205.916C338.321 206.014 338.337 206.115 338.346 206.216C338.359 206.321 338.365 206.427 338.364 206.533C340.317 205.601 341.936 204.092 343.005 202.21C342.944 201.888 342.79 201.592 342.563 201.356C341.93 200.704 340.889 200.686 340.234 201.316L337.696 202.596Z" fill="black"/>
<path d="M343.428 192.739C344.166 197.38 344.58 199.322 342.841 202.232C340.221 206.604 334.5 206.607 332.399 202.303C330.541 198.421 329.625 191.501 333.597 188.586C337.568 185.671 342.684 188.092 343.428 192.739Z" fill="#EEC1BB"/>
<path d="M346.195 196.325C345.909 197.408 345.192 198.234 344.443 198.653C343.316 199.284 342.165 197.509 342.25 196.185C342.326 194.994 343.318 193.95 344.56 193.87C345.782 193.79 346.522 195.087 346.195 196.325Z" fill="#EEC1BB"/>
<path opacity="0.2" d="M343.574 196.774C343.486 196.333 343.579 195.859 343.828 195.485C344.076 195.11 344.477 194.84 344.917 194.751" stroke="black" stroke-width="0.231667" stroke-miterlimit="10" stroke-linecap="round" stroke-linejoin="round"/>
<path d="M337.768 195.826C337.876 196.315 337.722 196.783 337.423 196.871C337.124 196.958 336.794 196.632 336.686 196.143C336.577 195.654 336.732 195.186 337.031 195.098C337.329 195.011 337.659 195.336 337.768 195.826Z" fill="#263238"/>
<path d="M333.259 197.032C333.363 197.507 333.206 197.962 332.908 198.05C332.61 198.137 332.284 197.823 332.18 197.349C332.076 196.874 332.233 196.419 332.531 196.331C332.829 196.244 333.155 196.558 333.259 197.032Z" fill="#263238"/>
<path d="M338.265 193.884C338.208 193.906 338.145 193.905 338.088 193.876C337.208 193.415 336.477 193.858 336.469 193.863C336.361 193.929 336.224 193.895 336.165 193.783C336.106 193.67 336.146 193.524 336.256 193.456C336.294 193.433 337.21 192.875 338.303 193.448C338.411 193.505 338.452 193.647 338.393 193.766C338.364 193.822 338.317 193.863 338.265 193.884Z" fill="#263238"/>
<path d="M331.123 195.151C331.073 195.148 331.025 195.124 330.991 195.079C330.922 194.987 330.937 194.842 331.025 194.755C331.91 193.885 332.805 194.122 332.843 194.133C332.95 194.162 333.007 194.286 332.971 194.409C332.935 194.532 332.82 194.608 332.714 194.579C332.679 194.569 331.981 194.397 331.278 195.089C331.232 195.133 331.176 195.154 331.123 195.151Z" fill="#263238"/>
<path d="M334.424 196.478C334.424 196.478 334.173 198.382 333.655 199.665C333.565 199.89 333.726 200.138 333.966 200.159C334.587 200.214 335.196 199.847 335.196 199.847L334.424 196.478Z" fill="#D4827D"/>
<path d="M337.208 195.071L336.092 195.108C336.092 195.108 336.877 195.734 337.208 195.071Z" fill="#263238"/>
<path d="M332.642 196.313L331.526 196.349C331.526 196.349 332.311 196.976 332.642 196.313Z" fill="#263238"/>
<path d="M342.032 194.157C342.032 194.157 338.841 191.621 338.289 189.055C338.289 189.055 328.459 188.679 330.816 196.676C330.816 196.676 327.488 189.996 334.999 187.438C342.509 184.88 345.938 194.673 343.08 198.824C343.059 198.79 344.01 195.75 342.032 194.157Z" fill="#263238"/>
<path d="M331.672 189.087C330.834 190.247 330.387 191.644 330.396 193.075C330.579 194.081 332.081 194.559 332.081 194.559L333.354 192.061L333.705 193.988C336.389 193.188 337.707 191.446 338.262 189.176L336.239 186.728C336.238 186.728 332.438 188.134 331.672 189.087Z" fill="#263238"/>
<path d="M337.113 200.679C337.421 200.728 337.75 200.624 337.973 200.407C338.196 200.189 338.308 199.863 338.265 199.554" stroke="#263238" stroke-width="0.231667" stroke-miterlimit="10" stroke-linecap="round" stroke-linejoin="round"/>
<path opacity="0.2" d="M346.273 199.175C346.273 199.175 349.737 194.877 347.024 191.214C347.024 191.214 349.023 192.589 348.643 194.963C348.345 196.826 347.533 198.337 346.273 199.175Z" fill="black"/>
<path opacity="0.2" d="M356.694 277.609C352.619 278.985 348.372 279.785 344.075 279.986C343.756 277.147 343.375 274.02 342.968 270.787C341.786 273.632 340.43 276.652 338.872 279.83C334.898 279.469 331.03 278.348 327.479 276.528C328.273 270.212 329.449 263.346 330.606 257.305C332.185 256.379 333.891 255.69 335.671 255.261C337.362 254.854 339.096 254.644 340.836 254.635C343.37 254.624 345.9 254.856 348.39 255.329C351.623 255.934 354.786 256.874 357.826 258.131C358.034 264.644 357.656 271.163 356.694 277.609Z" fill="black"/>
<path d="M333.813 239.008H353.593L354.131 241.559C354.131 241.559 361.397 251.614 357.713 276.69C357.713 276.69 341.799 278.529 326.81 275.314C326.81 275.314 330.174 249.551 333.689 241.14L333.813 239.008Z" fill="#263238"/>
<path d="M352.594 231.232L354 241.751L332.317 240.877C332.26 238.617 334.275 232.621 334.042 230.981C333.384 228.955 330.053 225.898 329.167 223.451C328.221 220.052 330.173 210.708 330.81 210.411C331.582 210.052 332.544 210.084 333.136 209.824C335.437 209.282 340.674 207.412 343.02 207.121C343.474 207.078 343.925 206.996 344.373 206.944C344.373 206.944 353.245 206.517 353.638 210.127C353.677 210.327 351.523 219.796 352.594 231.232Z" fill="#407BFF"/>
<path opacity="0.2" d="M352.423 229L352.246 226.12L348.959 217.171L351.535 227.707L343.375 230.566L352.423 229Z" fill="black"/>
<path opacity="0.2" d="M342.979 238.388C343.269 238.35 345.844 235.553 345.844 235.553L353.209 235.832L352.853 233.169C353.072 232.997 344.247 233.399 344.247 233.399L342.98 236.148L342.979 238.388Z" fill="black"/>
<path d="M350.288 207.783C350.668 207.83 352.21 206.957 354.994 210.532C357.778 214.108 360.899 227.739 361.075 229.727C361.298 232.253 359.615 233.498 357.937 233.775C352.901 234.606 343.607 234.774 343.607 234.774V230.493L352.881 228.393C352.881 228.393 347.618 215.725 348.449 212.461C349.279 209.198 350.288 207.783 350.288 207.783Z" fill="#407BFF"/>
<path d="M346.117 206.932C345.448 210.571 342.726 213.428 339.142 214.351C337.885 214.653 336.48 213.958 335.486 213.134C334.479 212.294 333.808 211.119 333.597 209.824C337.962 208.104 341.915 206.628 346.117 206.932Z" fill="#EEC1BB"/>
<path opacity="0.2" d="M352.88 228.394C352.88 228.394 354.387 228.309 355.027 229.13C355.027 229.13 354.642 227.555 352.673 227.886L352.88 228.394Z" fill="black"/>
<path d="M340.612 255.865V208.125H292.939V227.2C293.803 227.528 296.626 227.744 297.485 227.424C298.989 226.864 298.007 225.13 299.46 224.446C301.604 223.437 304.274 224.859 305.398 226.945C306.269 228.563 306.433 229.41 306.352 230.808C306.433 232.206 306.269 233.053 305.398 234.671C304.274 236.757 301.604 238.179 299.46 237.17C298.008 236.486 299.189 234.795 297.684 234.235C296.826 233.915 293.803 234.088 292.939 234.416V255.866H314.257C314.283 256.332 314.23 256.797 314.065 257.239C313.504 258.744 311.905 259.639 311.221 261.091C310.212 263.235 311.634 265.905 313.72 267.029C315.338 267.9 316.185 268.064 317.583 267.984C318.981 268.064 319.829 267.9 321.446 267.029C323.532 265.905 324.954 263.235 323.945 261.091C323.261 259.639 321.662 258.743 321.101 257.239C320.937 256.797 320.884 256.332 320.909 255.866L340.612 255.865Z" fill="#407BFF"/>
<path d="M342.979 255.865V208.125H295.305V227.199C296.17 227.527 297.116 227.609 297.974 227.29C299.479 226.729 300.374 225.13 301.827 224.446C303.97 223.437 306.64 224.859 307.764 226.944C308.636 228.562 308.799 229.41 308.719 230.808C308.799 232.206 308.636 233.053 307.764 234.671C306.64 236.757 303.97 238.179 301.827 237.17C300.374 236.486 299.479 234.886 297.974 234.326C297.116 234.006 296.17 234.088 295.305 234.416V255.866H316.624C316.649 256.331 316.596 256.797 316.432 257.239C315.871 258.743 314.272 259.639 313.588 261.091C312.578 263.235 314.001 265.905 316.087 267.028C317.705 267.9 318.552 268.063 319.95 267.983C321.348 268.063 322.195 267.9 323.813 267.028C325.899 265.905 327.321 263.235 326.312 261.091C325.628 259.639 324.029 258.743 323.468 257.239C323.304 256.797 323.25 256.331 323.276 255.866L342.979 255.865Z" fill="#407BFF"/>
<g opacity="0.3">
<path d="M342.979 255.865V208.125H295.305V227.199C296.17 227.527 297.116 227.609 297.974 227.29C299.479 226.729 300.374 225.13 301.827 224.446C303.97 223.437 306.64 224.859 307.764 226.944C308.636 228.562 308.799 229.41 308.719 230.808C308.799 232.206 308.636 233.053 307.764 234.671C306.64 236.757 303.97 238.179 301.827 237.17C300.374 236.486 299.479 234.886 297.974 234.326C297.116 234.006 296.17 234.088 295.305 234.416V255.866H316.624C316.649 256.331 316.596 256.797 316.432 257.239C315.871 258.743 314.272 259.639 313.588 261.091C312.578 263.235 314.001 265.905 316.087 267.028C317.705 267.9 318.552 268.063 319.95 267.983C321.348 268.063 322.195 267.9 323.813 267.028C325.899 265.905 327.321 263.235 326.312 261.091C325.628 259.639 324.029 258.743 323.468 257.239C323.304 256.797 323.25 256.331 323.276 255.866L342.979 255.865Z" fill="white"/>
</g>
<path d="M342.979 231.33C342.979 231.33 339.779 232.13 339.428 232.882C339.078 233.635 340.262 233.578 340.262 233.578C340.262 233.578 338.963 233.722 338.95 234.281C338.933 234.953 340.173 234.886 340.173 234.886C340.173 234.886 339.118 235.047 339.139 235.546C339.161 236.063 340.566 236.088 340.566 236.088C340.566 236.088 339.844 236.342 340.055 236.68C340.266 237.018 343.247 237.129 344.125 236.571C345.002 236.013 345.006 232.183 344.835 231.347C344.663 230.511 344.03 230.06 342.98 228.791V231.33H342.979Z" fill="#EEC1BB"/>
<path opacity="0.2" d="M340.264 233.641C340.266 233.641 340.268 233.64 340.27 233.64L342.522 233.281C342.552 233.276 342.573 233.245 342.569 233.211C342.564 233.176 342.534 233.152 342.506 233.157L340.253 233.515C340.223 233.521 340.202 233.552 340.207 233.586C340.211 233.619 340.236 233.642 340.264 233.641Z" fill="black"/>
<path opacity="0.2" d="M340.241 234.946H340.242L342.433 234.774C342.463 234.772 342.486 234.741 342.483 234.707C342.481 234.672 342.458 234.652 342.423 234.649L340.233 234.821C340.202 234.823 340.179 234.854 340.182 234.888C340.184 234.922 340.21 234.948 340.241 234.946Z" fill="black"/>
<path opacity="0.2" d="M340.643 236.147L342.275 236.066C342.305 236.064 342.329 236.035 342.327 236C342.325 235.965 342.299 235.939 342.269 235.94L340.637 236.022C340.607 236.023 340.584 236.053 340.586 236.087C340.586 236.122 340.613 236.148 340.643 236.147Z" fill="black"/>
<path d="M306.386 230.067C306.386 230.067 309.814 231.025 310.164 231.777C310.515 232.53 309.33 232.473 309.33 232.473C309.33 232.473 310.629 232.616 310.643 233.176C310.659 233.847 309.419 233.781 309.419 233.781C309.419 233.781 310.474 233.941 310.453 234.44C310.431 234.958 309.026 234.983 309.026 234.983C309.026 234.983 309.748 235.236 309.537 235.575C309.326 235.913 306.345 236.024 305.468 235.466C304.59 234.908 304.586 231.078 304.757 230.242C304.928 229.406 304.998 229.544 306.048 228.274L306.239 228.985C306.291 229.178 306.326 229.376 306.343 229.575L306.386 230.067Z" fill="#EEC1BB"/>
<path opacity="0.2" d="M309.328 232.535C309.326 232.535 309.325 232.535 309.322 232.535L307.07 232.176C307.04 232.171 307.019 232.14 307.024 232.105C307.028 232.071 307.058 232.046 307.087 232.052L309.339 232.41C309.369 232.415 309.39 232.447 309.385 232.481C309.381 232.514 309.356 232.537 309.328 232.535Z" fill="black"/>
<path opacity="0.2" d="M309.352 233.841H309.351L307.16 233.669C307.129 233.667 307.107 233.637 307.109 233.602C307.112 233.568 307.134 233.547 307.169 233.544L309.36 233.716C309.39 233.719 309.413 233.749 309.41 233.783C309.407 233.817 309.382 233.843 309.352 233.841Z" fill="black"/>
<path opacity="0.2" d="M308.948 235.042L307.317 234.96C307.286 234.959 307.263 234.929 307.265 234.895C307.267 234.86 307.293 234.834 307.323 234.835L308.954 234.916C308.985 234.918 309.008 234.947 309.007 234.982C309.005 235.017 308.979 235.044 308.948 235.042Z" fill="black"/>
<path d="M236.158 336.365L240.889 336.828L244.386 324.848L237.188 324.065L236.158 336.365Z" fill="#EEC1BB"/>
<path d="M241.574 334.738H239.885C239.503 334.738 239.149 334.932 238.924 335.24C237.949 336.57 237.217 336.068 236.158 334.817C235.484 334.738 235.303 335.512 235.248 335.719L233.985 340.313C233.875 340.696 234.097 341.096 234.481 341.206C234.549 341.226 234.62 341.235 234.691 341.234C236.742 341.234 237.712 341.234 240.266 341.234H248.074C250.203 341.234 250.644 339.089 249.767 338.89C245.824 338.019 243.032 336.859 241.814 335.712C241.588 335.511 241.82 335.361 241.574 334.738Z" fill="#263238"/>
<path d="M245.24 336.044C245.418 335.917 245.524 335.712 245.526 335.493C245.541 335.375 245.488 335.26 245.389 335.195C244.859 334.82 242.747 335.807 242.51 335.923C242.484 335.932 242.463 335.953 242.454 335.98C242.436 336.028 242.461 336.082 242.51 336.1C243.029 336.222 243.56 336.291 244.093 336.304C244.493 336.342 244.895 336.251 245.24 336.044ZM245.256 335.355C245.299 335.381 245.321 335.432 245.311 335.482C245.303 335.64 245.226 335.787 245.102 335.885C244.622 336.243 243.464 336.089 242.841 335.973C243.718 335.587 244.964 335.151 245.256 335.355Z" fill="#407BFF"/>
<path d="M242.582 336.122C243.217 335.857 244.545 334.815 244.474 334.264C244.462 334.148 244.38 334.01 244.093 333.971C242.935 333.839 242.439 335.918 242.439 336.006C242.427 336.042 242.438 336.081 242.466 336.105C242.488 336.112 242.511 336.112 242.533 336.105L242.582 336.122ZM244.054 334.142C244.269 334.164 244.269 334.241 244.269 334.269C244.33 334.605 243.365 335.471 242.675 335.835C242.819 335.35 243.243 334.137 243.977 334.137L244.054 334.142Z" fill="#407BFF"/>
<path d="M242.747 336.042C242.165 336.122 241.625 336.469 241.312 336.966" stroke="#407BFF" stroke-width="0.231667" stroke-miterlimit="10" stroke-linecap="round" stroke-linejoin="round"/>
<path d="M243.797 336.832C243.215 336.911 242.675 337.259 242.362 337.756" stroke="#407BFF" stroke-width="0.231667" stroke-miterlimit="10" stroke-linecap="round" stroke-linejoin="round"/>
<path d="M245.103 337.497C244.521 337.576 243.981 337.924 243.668 338.421" stroke="#407BFF" stroke-width="0.231667" stroke-miterlimit="10" stroke-linecap="round" stroke-linejoin="round"/>
<path opacity="0.3" d="M242.537 331.18L242.108 332.649L236.54 331.793L236.641 330.589L242.537 331.18Z" fill="black"/>
<path d="M263.7 336.365L268.431 336.828L271.928 324.848L264.73 324.065L263.7 336.365Z" fill="#EEC1BB"/>
<path d="M269.116 334.738H267.427C267.045 334.738 266.691 334.932 266.465 335.24C265.491 336.57 264.759 336.068 263.7 334.817C263.026 334.738 262.845 335.512 262.79 335.719L261.527 340.313C261.417 340.696 261.639 341.096 262.022 341.206C262.091 341.226 262.161 341.235 262.232 341.234C264.284 341.234 265.254 341.234 267.808 341.234H275.616C277.745 341.234 278.186 339.089 277.309 338.89C273.366 338.019 270.574 336.859 269.356 335.712C269.13 335.511 269.362 335.361 269.116 334.738Z" fill="#263238"/>
<path d="M272.783 336.044C272.96 335.917 273.067 335.712 273.069 335.493C273.084 335.375 273.031 335.26 272.931 335.195C272.402 334.82 270.29 335.807 270.053 335.923C270.026 335.932 270.005 335.953 269.996 335.98C269.978 336.028 270.004 336.082 270.053 336.1C270.572 336.222 271.102 336.291 271.635 336.304C272.036 336.342 272.437 336.251 272.783 336.044ZM272.799 335.355C272.842 335.381 272.864 335.432 272.854 335.482C272.845 335.64 272.769 335.787 272.644 335.885C272.164 336.243 271.007 336.089 270.383 335.973C271.26 335.587 272.507 335.151 272.799 335.355Z" fill="#407BFF"/>
<path d="M270.124 336.122C270.759 335.857 272.087 334.815 272.016 334.264C272.004 334.148 271.922 334.01 271.635 333.971C270.477 333.839 269.981 335.918 269.981 336.006C269.969 336.042 269.98 336.081 270.008 336.105C270.03 336.112 270.053 336.112 270.075 336.105L270.124 336.122ZM271.597 334.142C271.812 334.164 271.812 334.241 271.812 334.269C271.872 334.605 270.907 335.471 270.218 335.835C270.361 335.35 270.786 334.137 271.519 334.137L271.597 334.142Z" fill="#407BFF"/>
<path d="M270.289 336.042C269.707 336.122 269.167 336.469 268.855 336.966" stroke="#407BFF" stroke-width="0.231667" stroke-miterlimit="10" stroke-linecap="round" stroke-linejoin="round"/>
<path d="M271.339 336.832C270.757 336.911 270.217 337.259 269.905 337.756" stroke="#407BFF" stroke-width="0.231667" stroke-miterlimit="10" stroke-linecap="round" stroke-linejoin="round"/>
<path d="M272.645 337.497C272.063 337.576 271.523 337.924 271.211 338.421" stroke="#407BFF" stroke-width="0.231667" stroke-miterlimit="10" stroke-linecap="round" stroke-linejoin="round"/>
<path opacity="0.3" d="M270.08 331.18L269.651 332.649L264.083 331.793L264.183 330.589L270.08 331.18Z" fill="black"/>
<path d="M273.813 246.092C273.813 246.092 277.734 263.41 279.603 278.494C280.173 283.092 280.282 289.24 279.275 293.766L271.716 331.344L262.205 330.391C263.699 314.185 265.783 294.196 266.379 285.692C264.287 275.726 259.829 263.662 255.446 251.665L273.813 246.092Z" fill="#407BFF"/>
<g opacity="0.2">
<path d="M273.813 246.092C273.813 246.092 277.734 263.41 279.603 278.494C280.173 283.092 280.282 289.24 279.275 293.766L271.716 331.344L262.205 330.391C263.699 314.185 265.783 294.196 266.379 285.692C264.287 275.726 259.829 263.662 255.446 251.665L273.813 246.092Z" fill="black"/>
</g>
<path d="M242.558 288.718C242.773 287.781 243.117 285.877 243.539 283.366C243.526 283.363 243.512 283.36 243.499 283.357C243.808 280.036 244.38 264.635 245.43 254.811C246.237 248.554 247.837 244.319 249.447 242.246C249.53 242.14 249.606 242.043 249.675 241.956C249.943 241.622 250.105 241.439 250.105 241.439C250.412 241.515 250.716 241.587 251.019 241.653C251.132 241.678 251.245 241.702 251.356 241.726C262.726 244.103 272.731 241.115 272.731 241.115C273.778 243.7 274.559 249.211 275.323 254.926C274.133 256.231 268.914 257.924 262.927 259.047L261.22 266.768C260.321 271.556 259.168 276.252 258.188 280.48L257.164 285.111C257.102 285.415 257.041 285.716 256.983 286.012C256.463 288.674 244.101 331.569 244.101 331.569L236.047 331.098C236.048 331.097 239.646 301.409 242.558 288.718Z" fill="#407BFF"/>
<path opacity="0.2" d="M242.558 288.718C242.773 287.781 243.117 285.877 243.539 283.366C243.526 283.363 243.512 283.36 243.499 283.357C243.808 280.036 244.38 264.635 245.43 254.811C246.237 248.554 247.837 244.319 249.447 242.246C249.53 242.14 249.606 242.043 249.675 241.956C249.943 241.622 250.105 241.439 250.105 241.439C250.412 241.515 250.716 241.587 251.019 241.653C251.132 241.678 251.245 241.702 251.356 241.726C262.726 244.103 272.731 241.115 272.731 241.115C273.778 243.7 274.559 249.211 275.323 254.926C274.133 256.231 268.914 257.924 262.927 259.047L261.22 266.768C260.321 271.556 259.168 276.252 258.188 280.48L257.164 285.111C257.102 285.415 257.041 285.716 256.983 286.012C256.463 288.674 244.101 331.569 244.101 331.569L236.047 331.098C236.048 331.097 239.646 301.409 242.558 288.718Z" fill="black"/>
<path opacity="0.2" d="M261.11 267.482C261.079 267.64 264.799 254.119 264.799 254.119C264.799 254.119 267.931 266.19 263.165 273.741L261.11 267.482Z" fill="black"/>
<path d="M253.106 206.479C253.106 206.479 254.998 207.933 257.433 210.032C257.941 210.469 258.499 210.847 259.091 211.161C260.687 212.009 262.141 212.494 262.536 211.724C262.623 211.555 262.691 211.372 262.74 211.18C263.075 209.891 262.938 208.08 261.896 207.251C260.722 206.317 260.156 205.517 260.368 204.252C260.479 203.535 260.738 202.794 261.042 202.075L260.118 200.994L255.285 196.117C255.405 199.373 255.652 204.71 253.106 206.479Z" fill="#EEC1BB"/>
<path opacity="0.2" d="M260.328 204.529C258.999 203.74 257.541 202.372 257.716 200.808C257.794 200.15 257.936 199.525 258.093 199.126L260.793 202.7C260.571 203.277 260.491 203.657 260.328 204.529Z" fill="black"/>
<path d="M253.916 190.884C254.371 195.849 254.459 197.955 257.021 200.559C260.876 204.476 266.806 203.158 267.827 198.236C268.746 193.805 267.847 186.429 262.973 184.342C258.17 182.287 253.462 185.918 253.916 190.884Z" fill="#EEC1BB"/>
<path d="M260.102 192.45C260.128 192.915 260.413 193.297 260.74 193.304C261.067 193.311 261.31 192.94 261.284 192.474C261.258 192.01 260.973 191.627 260.646 191.62C260.32 191.614 260.076 191.985 260.102 192.45Z" fill="#263238"/>
<path d="M265.248 192.38C265.274 192.83 265.559 193.201 265.885 193.208C266.21 193.214 266.453 192.855 266.427 192.404C266.401 191.954 266.116 191.583 265.791 191.576C265.464 191.569 265.222 191.929 265.248 192.38Z" fill="#263238"/>
<path d="M259.312 190.671C259.376 190.678 259.44 190.66 259.489 190.614C260.254 189.906 261.115 190.155 261.125 190.157C261.253 190.194 261.382 190.122 261.411 189.992C261.44 189.862 261.359 189.725 261.23 189.686C261.185 189.673 260.104 189.359 259.154 190.239C259.06 190.326 259.058 190.482 259.15 190.585C259.195 190.635 259.253 190.664 259.312 190.671Z" fill="#263238"/>
<path d="M266.837 190.423C266.896 190.438 266.958 190.43 267.011 190.397C267.12 190.329 267.149 190.178 267.075 190.061C266.331 188.885 265.226 188.814 265.179 188.812C265.047 188.805 264.942 188.909 264.944 189.044C264.946 189.18 265.055 189.295 265.187 189.302C265.231 189.305 266.088 189.373 266.679 190.307C266.716 190.369 266.775 190.408 266.837 190.423Z" fill="#263238"/>
<path d="M256.032 193.999C256.032 193.999 257.564 191.683 256.933 187.173C256.827 186.417 257.305 185.701 258.055 185.555C260.198 185.139 263.062 182.437 266.556 187.804C266.556 187.804 264.89 181.375 255.132 183.965C246.448 186.27 252.394 193.63 253.289 194.387C254.185 195.144 256.032 193.999 256.032 193.999Z" fill="#263238"/>
<path d="M252.414 194.931C253.001 195.949 253.954 196.589 254.828 196.808C256.142 197.137 256.821 195.024 256.372 193.707C255.968 192.522 254.677 191.737 253.398 191.996C252.137 192.251 251.743 193.767 252.414 194.931Z" fill="#EEC1BB"/>
<path d="M263.996 197.231C263.592 197.853 263.106 199.058 263.106 199.058C262.989 199.034 262.872 199.01 262.756 198.979C261.176 198.609 260.564 197.915 260.366 197.258C260.259 196.898 260.28 196.546 260.334 196.267C260.393 195.944 260.508 195.728 260.508 195.728C261.229 196.424 262.677 196.883 263.46 197.095C263.786 197.188 263.996 197.231 263.996 197.231Z" fill="#263238"/>
<path d="M263.459 197.096L263.183 197.629C261.695 197.276 260.694 196.829 260.333 196.268C260.392 195.945 260.508 195.728 260.508 195.728C261.229 196.425 262.676 196.883 263.459 197.096Z" fill="white"/>
<path d="M262.756 198.98C261.175 198.609 260.564 197.916 260.365 197.258C260.899 197.405 261.527 197.641 262.04 198.017C262.433 198.303 262.641 198.65 262.756 198.98Z" fill="#DC5753"/>
<path d="M263.913 192.244C263.913 192.244 264.69 194.102 265.566 195.261C265.72 195.464 265.625 195.759 265.386 195.847C264.773 196.073 264.056 195.868 264.056 195.868L263.913 192.244Z" fill="#D4827D"/>
<path d="M260.547 191.609L261.686 191.34C261.686 191.34 261.063 192.19 260.547 191.609Z" fill="#263238"/>
<path d="M265.673 191.588L266.813 191.319C266.813 191.319 266.189 192.169 265.673 191.588Z" fill="#263238"/>
<path d="M267.426 189.905C267.426 189.905 270.433 186.347 268.426 183.414C267.673 182.312 266.288 182.148 265.066 181.61C262.246 180.367 259.961 180.116 256.363 183.643C252.619 187.312 251.942 188.548 256.072 193.068C256.072 193.068 255.626 192.477 257.153 191.133C258.679 189.787 260.364 188.591 259.546 187.287C259.546 187.287 260.815 187.777 260.906 188.984L263.138 188.374C263.138 188.374 263.042 187.511 262.451 186.648C262.451 186.648 263.608 187.329 263.983 188.329L265.915 188.693C265.915 188.693 265.631 186.921 265.086 186.285C265.085 186.284 266.854 188.103 267.426 189.905Z" fill="#263238"/>
<path opacity="0.2" d="M255.365 194.785C255.324 194.317 255.106 193.865 254.765 193.541C254.424 193.217 253.963 193.023 253.492 193.006" stroke="black" stroke-width="0.231667" stroke-miterlimit="10" stroke-linecap="round" stroke-linejoin="round"/>
<path d="M278.973 235.991C278.694 235.776 278.429 235.538 278.181 235.279C277.97 235.058 277.823 234.773 277.874 234.773C277.863 234.741 277.85 234.71 277.836 234.68L277.746 234.473L277.529 233.917C277.382 233.518 277.241 233.083 277.101 232.642C276.806 231.765 276.532 230.853 276.263 229.934C275.72 228.088 275.202 226.22 274.678 224.346L273.716 220.417C273.577 219.78 273.362 218.853 273.075 217.794L273.074 217.791C272.292 214.905 270.985 211.055 269.276 209.524C266.624 207.495 264.931 209.998 263.839 212.601C262.792 215.1 265.378 221.926 265.378 221.926L268.529 221.698C268.927 223.151 269.345 224.596 269.757 226.071C270.294 227.995 270.933 229.884 271.572 231.772C271.898 232.72 272.237 233.668 272.608 234.623C272.825 235.108 273.023 235.585 273.247 236.091C273.356 236.341 273.477 236.605 273.611 236.868L273.848 237.31C273.947 237.495 274.058 237.671 274.18 237.838C274.647 238.439 275.222 238.924 275.867 239.263C276.364 239.541 276.888 239.759 277.427 239.911C278.409 240.196 279.423 240.318 280.438 240.275L281.007 237.524C280.329 237.018 279.581 236.49 278.973 235.991Z" fill="#263238"/>
<path opacity="0.5" d="M278.973 235.991C278.694 235.776 278.429 235.538 278.181 235.279C277.97 235.058 277.823 234.773 277.874 234.773C277.863 234.741 277.85 234.71 277.836 234.68L277.746 234.473L277.529 233.917C277.382 233.518 277.241 233.083 277.101 232.642C276.806 231.765 276.532 230.853 276.263 229.934C275.72 228.088 275.202 226.22 274.678 224.346L273.716 220.417C273.577 219.78 273.362 218.853 273.075 217.794L273.074 217.791C272.292 214.905 270.985 211.055 269.276 209.524C266.624 207.495 264.931 209.998 263.839 212.601C262.792 215.1 265.378 221.926 265.378 221.926L268.529 221.698C268.927 223.151 269.345 224.596 269.757 226.071C270.294 227.995 270.933 229.884 271.572 231.772C271.898 232.72 272.237 233.668 272.608 234.623C272.825 235.108 273.023 235.585 273.247 236.091C273.356 236.341 273.477 236.605 273.611 236.868L273.848 237.31C273.947 237.495 274.058 237.671 274.18 237.838C274.647 238.439 275.222 238.924 275.867 239.263C276.364 239.541 276.888 239.759 277.427 239.911C278.409 240.196 279.423 240.318 280.438 240.275L281.007 237.524C280.329 237.018 279.581 236.49 278.973 235.991Z" fill="white"/>
<g opacity="0.3">
<path d="M269.859 213.958C270.391 214.867 270.574 215.385 270.907 216.433C271.241 217.481 271.619 223.138 269.709 224.811V220.888C269.778 218.485 269.789 216.362 269.859 213.958Z" fill="black"/>
</g>
<path d="M246.363 221.114L243.405 211.028C245.276 208.236 254.535 206.09 254.535 206.09L259.28 207.755L260.635 206.423C260.635 206.423 262.979 206.946 264.986 207.601C267.666 208.475 269.115 209.178 269.753 210.665C269.753 210.665 270.871 213.959 270.199 220.747C270.014 222.614 270.224 232.319 270.745 235.525L273.902 245.518C262.757 254.198 247.156 246.093 247.156 246.093C247.657 244.56 249.326 239.854 249.553 238.356C249.389 236.445 249.617 233.499 248.807 230.153C248.651 229.506 246.634 221.742 246.363 221.114Z" fill="#263238"/>
<path opacity="0.5" d="M246.363 221.114L243.405 211.028C245.276 208.236 254.535 206.09 254.535 206.09L259.28 207.755L260.635 206.423C260.635 206.423 262.979 206.946 264.986 207.601C267.666 208.475 269.115 209.178 269.753 210.665C269.753 210.665 270.871 213.959 270.199 220.747C270.014 222.614 270.224 232.319 270.745 235.525L273.902 245.518C262.757 254.198 247.156 246.093 247.156 246.093C247.657 244.56 249.326 239.854 249.553 238.356C249.389 236.445 249.617 233.499 248.807 230.153C248.651 229.506 246.634 221.742 246.363 221.114Z" fill="white"/>
<path d="M280.222 231.976C280.569 227.779 283.806 224.397 287.984 223.866L287.128 225.291L288.76 224.322L281.277 233.708L280.222 231.976Z" fill="#407BFF"/>
<path opacity="0.8" d="M280.222 231.976C280.569 227.779 283.806 224.397 287.984 223.866L287.128 225.291L288.76 224.322L281.277 233.708L280.222 231.976Z" fill="white"/>
<path d="M268.498 224.272L271.071 224.194L283.387 228.37L272.162 245.518L261.115 242.759C260.486 242.585 260.117 241.933 260.291 241.304C260.317 241.21 260.354 241.12 260.403 241.035L264.864 232.967C264.953 232.808 264.953 232.614 264.864 232.454L264.258 231.378C264.131 231.157 264.131 230.886 264.258 230.665L267.252 225.056C267.505 224.598 267.976 224.302 268.498 224.272Z" fill="#407BFF"/>
<path d="M283.387 228.37L290.4 223.866L278.868 240.999L272.162 245.517L283.387 228.37Z" fill="#407BFF"/>
<path opacity="0.2" d="M283.387 228.37L290.4 223.866L278.868 240.999L272.162 245.517L283.387 228.37Z" fill="black"/>
<path d="M282.01 236.338C282.01 236.338 279.284 235.623 278.685 236.091C278.086 236.558 278.906 237.002 278.906 237.002C278.906 237.002 277.968 236.58 277.688 237.03C277.352 237.57 278.214 238.031 278.214 238.031C278.214 238.031 277.43 237.724 277.203 238.138C276.967 238.568 277.894 239.172 277.894 239.172C277.894 239.172 277.289 239.078 277.266 239.441C277.243 239.804 279.183 241.131 280.041 241.041C280.898 240.951 282.755 237.835 283.045 237.084C283.335 236.332 283.305 235.747 282.755 235.224L282.01 236.338Z" fill="#EEC1BB"/>
<path opacity="0.2" d="M278.878 237.055C278.879 237.056 278.88 237.056 278.882 237.056L280.562 237.699C280.584 237.707 280.614 237.69 280.627 237.661C280.641 237.631 280.633 237.599 280.611 237.591L278.931 236.948C278.908 236.94 278.879 236.957 278.866 236.986C278.853 237.015 278.859 237.044 278.878 237.055Z" fill="black"/>
<path opacity="0.2" d="M278.23 238.108L278.231 238.108L279.78 238.877C279.801 238.887 279.831 238.872 279.846 238.843C279.861 238.814 279.856 238.788 279.834 238.771L278.286 238.002C278.264 237.992 278.234 238.007 278.22 238.036C278.204 238.064 278.209 238.096 278.23 238.108Z" fill="black"/>
<path opacity="0.2" d="M277.918 239.252L279.049 239.863C279.07 239.874 279.1 239.86 279.115 239.831C279.131 239.802 279.127 239.77 279.105 239.758L277.975 239.147C277.953 239.136 277.924 239.15 277.908 239.179C277.892 239.208 277.897 239.241 277.918 239.252Z" fill="black"/>
<path d="M262.383 206.85L260.326 204.858L259.28 207.755L254.71 204.113L252.393 206.655L258.132 210.654L259.28 208.114L262.383 210.442V206.85Z" fill="#263238"/>
<path opacity="0.3" d="M262.383 206.85C262.529 207.074 262.383 210.442 262.383 210.442L259.28 208.114L258.132 210.653L252.617 206.85L258.262 211.768L259.279 208.782L262.74 211.768L262.383 206.85Z" fill="black"/>
<path opacity="0.3" d="M265.32 222.471L249.512 237.702V234.692C249.512 234.692 263.741 221.657 263.913 221.639C264.086 221.62 265.32 222.471 265.32 222.471Z" fill="black"/>
<path opacity="0.3" d="M250.472 223.676L248.76 216.614L248.421 224.811L250.472 223.676Z" fill="black"/>
<path d="M253.309 196.678C253.309 197.203 253.735 197.628 254.259 197.628C254.784 197.628 255.209 197.203 255.209 196.678C255.209 196.154 254.784 195.728 254.259 195.728C253.734 195.728 253.309 196.153 253.309 196.678Z" fill="#407BFF"/>
<path d="M243.405 211.028C243.405 211.028 241.268 213.109 240.548 220.207C240.032 225.303 238.726 236.29 242.686 237.701C246.646 239.112 263.914 222.602 263.914 222.602L261.111 217.79L248.422 224.81C248.422 224.81 249.715 213.172 247.479 212.109C245.243 211.045 243.405 211.028 243.405 211.028Z" fill="#263238"/>
<path opacity="0.5" d="M243.405 211.028C243.405 211.028 241.268 213.109 240.548 220.207C240.032 225.303 238.726 236.29 242.686 237.701C246.646 239.112 263.914 222.602 263.914 222.602L261.111 217.79L248.422 224.81C248.422 224.81 249.715 213.172 247.479 212.109C245.243 211.045 243.405 211.028 243.405 211.028Z" fill="white"/>
<path d="M262.194 217.434C262.194 217.434 263.86 214.098 264.651 213.951C265.442 213.804 266.079 214.068 266.079 214.068C266.079 214.068 271.462 210.896 271.821 211.731C272.014 212.183 270.819 213.178 268.253 214.642C268.253 214.642 269.73 215.186 269.135 216.052C269.135 216.052 270.223 216.551 269.642 217.632C269.642 217.632 270.142 218.587 269.514 219.197C268.886 219.806 265.928 221.49 264.215 221.741C262.502 221.992 261.503 218.663 261.503 218.663L262.194 217.434Z" fill="#EEC1BB"/>
<path d="M280.381 312.75C281.833 313.434 282.729 315.033 284.233 315.594C285.078 315.909 286.009 315.835 286.863 315.519V294.054H266.318C266.292 293.588 266.346 293.123 266.51 292.681C267.071 291.177 268.67 290.281 269.354 288.828C270.363 286.685 268.941 284.015 266.855 282.891C265.237 282.02 264.39 281.856 262.992 281.936C261.594 281.856 260.747 282.02 259.129 282.891C257.043 284.015 255.62 286.685 256.63 288.828C257.314 290.281 258.913 291.177 259.474 292.681C259.638 293.123 259.692 293.588 259.666 294.054H239.122V341.794H286.863V322.704C286.009 322.389 285.079 322.315 284.233 322.629C282.729 323.19 281.827 324.777 280.381 325.473C278.451 326.402 275.576 325.057 274.443 322.975C273.565 321.36 273.408 320.509 273.488 319.111C273.408 317.714 273.572 316.866 274.443 315.248C275.567 313.163 278.237 311.741 280.381 312.75Z" fill="#407BFF"/>
<path opacity="0.4" d="M280.381 312.75C281.833 313.434 282.729 315.033 284.233 315.594C285.078 315.909 286.009 315.835 286.863 315.519V294.054H266.318C266.292 293.588 266.346 293.123 266.51 292.681C267.071 291.177 268.67 290.281 269.354 288.828C270.363 286.685 268.941 284.015 266.855 282.891C265.237 282.02 264.39 281.856 262.992 281.936C261.594 281.856 260.747 282.02 259.129 282.891C257.043 284.015 255.62 286.685 256.63 288.828C257.314 290.281 258.913 291.177 259.474 292.681C259.638 293.123 259.692 293.588 259.666 294.054H239.122V341.794H286.863V322.704C286.009 322.389 285.079 322.315 284.233 322.629C282.729 323.19 281.827 324.777 280.381 325.473C278.451 326.402 275.576 325.057 274.443 322.975C273.565 321.36 273.408 320.509 273.488 319.111C273.408 317.714 273.572 316.866 274.443 315.248C275.567 313.163 278.237 311.741 280.381 312.75Z" fill="black"/>
<path d="M282.721 312.75C284.174 313.434 285.07 315.033 286.574 315.594C287.419 315.909 288.349 315.835 289.203 315.519V294.054H268.659C268.633 293.588 268.687 293.123 268.851 292.681C269.412 291.177 271.011 290.281 271.695 288.828C272.704 286.685 271.282 284.015 269.196 282.891C267.578 282.02 266.731 281.856 265.333 281.936C263.935 281.856 263.088 282.02 261.47 282.891C259.384 284.015 257.961 286.685 258.971 288.828C259.655 290.281 261.254 291.177 261.815 292.681C261.979 293.123 262.033 293.588 262.007 294.054H241.463V341.794H289.203V322.704C288.35 322.389 287.419 322.315 286.574 322.629C285.07 323.19 284.168 324.777 282.721 325.473C280.792 326.402 277.917 325.057 276.784 322.975C275.906 321.36 275.749 320.509 275.829 319.111C275.749 317.714 275.913 316.866 276.784 315.248C277.908 313.163 280.578 311.741 282.721 312.75Z" fill="#407BFF"/>
<path opacity="0.4" d="M281.276 325.806C281.276 325.806 282.93 328.768 285.769 328.521C288.608 328.274 289.203 327.04 289.203 327.04L289.164 322.966L282.829 325.391C282.392 325.75 281.869 325.873 281.276 325.806Z" fill="black"/>
<path d="M340.065 300.605L356.383 294.335L365.803 285.203C366.064 284.9 368.796 280.19 368.796 280.19L373.419 290.093C373.419 290.093 361.923 301.645 357.713 302.99C354.31 304.077 342.262 307.029 342.262 307.029L340.065 300.605Z" fill="#407BFF"/>
<path opacity="0.4" d="M350.068 305.071C350.068 305.071 352.035 297.358 356.433 295.754C360.831 294.15 366.516 296.666 366.354 296.774C366.191 296.883 361.428 301.317 361.266 301.371C361.144 301.411 355.091 303.545 351.957 304.58L350.068 305.071Z" fill="black"/>
<path d="M320.442 294.3C320.416 294.766 320.47 295.231 320.634 295.673C321.195 297.177 322.794 298.073 323.478 299.525C324.487 301.669 323.065 304.339 320.979 305.463C319.361 306.334 318.514 306.498 317.116 306.417C315.718 306.498 314.871 306.334 313.253 305.463C311.167 304.339 309.745 301.669 310.754 299.525C311.438 298.073 313.037 297.177 313.598 295.673C313.762 295.231 313.816 294.766 313.79 294.3H292.511V315.749C291.647 316.078 290.701 316.16 289.842 315.84C288.337 315.279 287.442 313.68 285.99 312.996C283.846 311.987 281.176 313.409 280.053 315.495C279.181 317.113 279.018 317.96 279.098 319.358C279.018 320.756 279.182 321.603 280.053 323.221C281.176 325.307 283.846 326.729 285.99 325.72C287.442 325.036 288.338 323.437 289.842 322.876C290.7 322.556 291.647 322.638 292.511 322.966V342.041L340.087 342.254V294.513L320.442 294.3Z" fill="#263238"/>
<g opacity="0.4">
<path d="M320.442 294.3C320.416 294.766 320.47 295.231 320.634 295.673C321.195 297.177 322.794 298.073 323.478 299.525C324.487 301.669 323.065 304.339 320.979 305.463C319.361 306.334 318.514 306.498 317.116 306.417C315.718 306.498 314.871 306.334 313.253 305.463C311.167 304.339 309.745 301.669 310.754 299.525C311.438 298.073 313.037 297.177 313.598 295.673C313.762 295.231 313.816 294.766 313.79 294.3H292.511V315.749C291.647 316.078 290.701 316.16 289.842 315.84C288.337 315.279 287.442 313.68 285.99 312.996C283.846 311.987 281.176 313.409 280.053 315.495C279.181 317.113 279.018 317.96 279.098 319.358C279.018 320.756 279.182 321.603 280.053 323.221C281.176 325.307 283.846 326.729 285.99 325.72C287.442 325.036 288.338 323.437 289.842 322.876C290.7 322.556 291.647 322.638 292.511 322.966V342.041L340.087 342.254V294.513L320.442 294.3Z" fill="black"/>
</g>
<path d="M322.547 294.3C322.522 294.766 322.575 295.231 322.74 295.673C323.3 297.177 324.9 298.073 325.584 299.525C326.593 301.669 325.17 304.339 323.085 305.463C321.467 306.334 320.619 306.498 319.221 306.417C317.824 306.498 316.976 306.334 315.358 305.463C313.272 304.339 311.85 301.669 312.859 299.525C313.543 298.073 315.143 297.177 315.703 295.673C315.868 295.231 315.921 294.766 315.896 294.3H294.617V315.749C293.753 316.078 292.806 316.16 291.948 315.84C290.443 315.279 289.548 313.68 288.095 312.996C285.952 311.987 283.282 313.409 282.158 315.495C281.287 317.113 281.123 317.96 281.203 319.358C281.123 320.756 281.287 321.603 282.158 323.221C283.282 325.307 285.952 326.729 288.095 325.72C289.548 325.036 290.443 323.437 291.948 322.876C292.806 322.556 293.753 322.638 294.617 322.966V342.041L342.192 342.254V294.513L322.547 294.3Z" fill="#263238"/>
<path d="M356.058 326.481L363.541 326.028C362.344 332.621 361.113 336.898 361.637 340.282L358.621 342.299L355.828 339.552C355.828 339.552 355.312 334.164 356.058 326.481Z" fill="#E9B376"/>
<path d="M355.379 334.926L358.098 334.958C359.413 337.236 360.324 336.7 361.718 335.092C362.507 335.01 362.709 335.917 362.771 336.161L364.186 341.556C364.309 342.006 364.043 342.471 363.593 342.594C363.513 342.616 363.43 342.626 363.347 342.624C360.946 342.596 359.809 342.582 356.821 342.548L347.681 342.44C345.189 342.411 344.702 339.894 345.731 339.673C350.358 338.708 353.642 337.388 355.085 336.062C355.352 335.83 355.082 335.651 355.379 334.926Z" fill="#407BFF"/>
<path d="M353.988 336.436C354.668 336.537 355.295 336.951 355.655 337.537" stroke="#263238" stroke-width="0.231667" stroke-miterlimit="10" stroke-linecap="round" stroke-linejoin="round"/>
<path d="M352.748 337.347C353.428 337.448 354.055 337.862 354.415 338.448" stroke="#263238" stroke-width="0.231667" stroke-miterlimit="10" stroke-linecap="round" stroke-linejoin="round"/>
<path d="M351.21 338.106C351.89 338.207 352.517 338.622 352.876 339.208" stroke="#263238" stroke-width="0.231667" stroke-miterlimit="10" stroke-linecap="round" stroke-linejoin="round"/>
<path opacity="0.7" d="M363.593 342.594C363.513 342.616 363.43 342.626 363.347 342.624C360.946 342.596 359.809 342.582 356.821 342.547L347.68 342.44C346.332 342.424 345.576 341.68 345.324 340.965C345.703 340.973 363.865 341.327 364.105 341.249L364.202 341.651C364.266 342.07 364.012 342.48 363.593 342.594Z" fill="white"/>
<path d="M384.716 306.635C384.716 306.635 364.279 296.081 360.3 295.78C356.321 295.48 352.518 297.635 351.757 305.874C350.996 314.114 352.518 335.304 352.518 335.304L363.542 335.493L364.908 310.944C364.908 310.944 381.981 323.416 382.488 323.289C382.995 323.162 389.66 322.86 389.66 322.86L384.716 306.635Z" fill="#263238"/>
<path opacity="0.3" d="M384.716 306.635C384.716 306.635 364.279 296.081 360.3 295.78C356.321 295.48 352.518 297.635 351.757 305.874C350.996 314.114 352.518 335.304 352.518 335.304L363.542 335.493L364.908 310.944C364.908 310.944 381.981 323.416 382.488 323.289C382.995 323.162 389.66 322.86 389.66 322.86L384.716 306.635Z" fill="white"/>
<path opacity="0.4" d="M364.281 322.425C364.281 322.425 355.275 325.579 355.179 333.007C355.083 340.435 363.026 339.021 363.026 339.021L364.281 322.425Z" fill="black"/>
<path d="M392.538 341.777L390.512 334.412C397.594 333.645 402.326 335.389 405.618 333.835L408.583 336.303L406.624 339.978C406.624 339.978 401.404 341.751 392.538 341.777Z" fill="#E9B376"/>
<path d="M402.044 341.83L401.256 339.048C403.183 337.02 402.362 336.254 400.302 335.316C399.98 334.536 400.845 334.057 401.075 333.921L406.148 330.853C406.57 330.591 407.124 330.721 407.385 331.144C407.432 331.219 407.467 331.301 407.49 331.386C408.185 333.842 408.514 335.005 409.379 338.062L412.024 347.413C412.745 349.963 410.326 351.217 409.791 350.235C407.411 345.808 405.076 342.857 403.29 341.787C402.973 341.585 402.872 341.913 402.044 341.83Z" fill="#407BFF"/>
<path d="M404.003 342.793C403.901 342.069 404.134 341.305 404.623 340.762" stroke="#263238" stroke-width="0.231667" stroke-miterlimit="10" stroke-linecap="round" stroke-linejoin="round"/>
<path d="M405.304 343.782C405.202 343.059 405.436 342.295 405.925 341.751" stroke="#263238" stroke-width="0.231667" stroke-miterlimit="10" stroke-linecap="round" stroke-linejoin="round"/>
<path d="M406.542 345.121C406.441 344.398 406.674 343.634 407.163 343.09" stroke="#263238" stroke-width="0.231667" stroke-miterlimit="10" stroke-linecap="round" stroke-linejoin="round"/>
<path opacity="0.7" d="M407.386 331.144C407.432 331.219 407.468 331.301 407.49 331.386C408.185 333.843 408.514 335.005 409.379 338.063L412.024 347.414C412.415 348.793 411.884 349.789 411.231 350.261C411.125 349.872 406.011 331.249 405.86 331.027L406.241 330.808C406.648 330.616 407.143 330.752 407.386 331.144Z" fill="white"/>
<path d="M407.113 310.658L408 315.113C408 315.113 410.275 323.948 407.087 328.386C404.041 332.626 399.547 333.382 399.547 333.382L400.471 341.904L399.547 342.479C399.547 342.479 393.668 342.479 381.634 341.929C370.203 341.408 360.377 340.862 358.349 337.312C356.32 333.763 355.852 332.039 359.169 327.805C362.166 323.978 384.989 318.342 385.783 318.113L385.464 316.169L385.094 314.792L407.113 310.658Z" fill="#263238"/>
<path opacity="0.3" d="M407.113 310.658L408 315.113C408 315.113 410.275 323.948 407.087 328.386C404.041 332.626 399.547 333.382 399.547 333.382L400.471 341.904L399.547 342.479C399.547 342.479 393.668 342.479 381.634 341.929C370.203 341.408 360.377 340.862 358.349 337.312C356.32 333.763 355.852 332.039 359.169 327.805C362.166 323.978 384.989 318.342 385.783 318.113L385.464 316.169L385.094 314.792L407.113 310.658Z" fill="white"/>
<path opacity="0.4" d="M399.547 333.382C398.846 333.565 374.055 332.766 374.055 332.766C374.055 332.766 381.382 334.022 386.801 334.48C392.22 334.936 399.547 333.382 399.547 333.382Z" fill="black"/>
<path opacity="0.4" d="M385.783 318.113L400.058 315.624C400.058 315.624 389.768 315.457 385.783 318.113Z" fill="black"/>
<path d="M349.39 308.005C349.39 308.005 348.199 306.172 346.426 305.817C344.654 305.462 343.333 304.707 341.997 304.534C340.661 304.362 341.873 305.717 342.664 306.307C343.454 306.897 344.345 307.575 343.805 308.097C343.266 308.619 337.006 310.207 336.341 311.016C335.675 311.825 336.768 311.885 336.768 311.885C336.768 311.885 335.258 312.311 335.264 312.955C335.266 313.123 335.541 313.509 336.259 313.423C337.876 313.228 341.247 312.645 341.247 312.645C341.053 312.675 336.943 313.692 336.347 313.924C335.569 314.228 335.357 314.769 335.548 315.215C335.82 315.849 340.959 314.762 341.207 314.867C341.207 314.867 338.228 315.394 337.943 316.238C337.658 317.081 339.552 316.852 341.183 316.332C342.678 315.856 345.737 315.313 347.21 314.682C349.025 313.903 350.069 312.973 350.109 311.122C350.148 309.27 349.39 308.005 349.39 308.005Z" fill="#E9B376"/>
<path d="M347.431 307.966L352.002 306.137L353.581 311.082L348.221 312.994L347.431 307.966Z" fill="#E9B376"/>
<path d="M380.591 273.766C380.591 273.766 379.35 270.962 379.613 265.411C379.611 265.406 379.309 265.35 379.307 265.345C379.341 264.569 379.402 263.845 379.471 263.214C379.471 263.196 379.47 263.191 379.47 263.191L373.419 269.277C373.983 270.897 374.155 274.247 374.124 275.686C374.124 275.686 373.814 278.354 377.103 277.68C379.506 277.188 380.591 273.766 380.591 273.766Z" fill="#E9B376"/>
<path opacity="0.2" d="M373.856 271.639L377.722 269.741C377.655 271.1 376.891 272.876 374.077 273.678C374.077 273.678 374.02 272.189 373.856 271.639Z" fill="black"/>
<path d="M378.699 259.728C379.297 264.344 379.728 266.935 377.866 269.7C375.066 273.858 369.165 272.881 367.195 268.524C365.421 264.603 364.741 257.713 368.874 255.079C372.946 252.484 378.101 255.113 378.699 259.728Z" fill="#E9B376"/>
<path d="M376.921 253.235C374.784 250.734 370.805 252.924 369.293 254.547C369.067 254.79 373.159 255.946 372.917 255.907L374.21 256.979C374.377 256.907 374.721 258.493 375.013 259.867C375.281 261.129 375.883 262.291 376.764 263.235C377.501 264.026 378.489 264.973 379.598 265.741C381.041 264.658 380.6 261.868 380.785 260.121C381.06 257.518 381 252.644 376.921 253.235Z" fill="#263238"/>
<path d="M381.233 263.184C381.094 264.429 380.39 265.489 379.571 266.112C378.34 267.051 377.546 265.66 377.398 264.198C377.265 262.882 377.34 261.233 378.811 260.87C380.261 260.511 381.391 261.761 381.233 263.184Z" fill="#E9B376"/>
<path d="M372.424 262.303C372.513 262.77 372.338 263.193 372.032 263.249C371.726 263.305 371.405 262.972 371.315 262.505C371.225 262.037 371.4 261.614 371.706 261.558C372.012 261.502 372.333 261.835 372.424 262.303Z" fill="#263238"/>
<path d="M367.863 263.275C367.952 263.742 367.777 264.166 367.471 264.221C367.165 264.277 366.844 263.944 366.754 263.477C366.664 263.01 366.839 262.587 367.145 262.531C367.452 262.475 367.773 262.808 367.863 263.275Z" fill="#263238"/>
<path d="M369.302 262.729C369.302 262.729 368.271 265.333 367.979 266.369C368.742 266.831 369.809 266.345 369.809 266.345L369.302 262.729Z" fill="#D58745"/>
<path d="M373.141 259.882C373.076 259.924 372.99 259.932 372.916 259.894C372.028 259.441 371.31 259.835 371.302 259.839C371.195 259.899 371.059 259.862 370.997 259.756C370.936 259.65 370.974 259.515 371.08 259.455C371.117 259.433 372.018 258.938 373.119 259.501C373.228 259.557 373.272 259.691 373.216 259.8C373.198 259.834 373.172 259.862 373.141 259.882Z" fill="#263238"/>
<path d="M371.625 267.538C372.383 267.398 372.898 266.907 373.376 266.23" stroke="#263238" stroke-width="0.3475" stroke-miterlimit="10" stroke-linecap="round" stroke-linejoin="round"/>
<path opacity="0.2" d="M379.948 262.123C379.712 261.886 379.318 261.858 379.014 261.998C378.71 262.138 378.489 262.417 378.345 262.719C378.173 263.082 378.097 263.49 378.129 263.89" stroke="black" stroke-width="0.231667" stroke-miterlimit="10" stroke-linecap="round" stroke-linejoin="round"/>
<path d="M365.463 261.694C365.421 261.693 365.378 261.68 365.341 261.653C365.239 261.583 365.213 261.444 365.283 261.343C365.978 260.332 367.001 260.362 367.047 260.357C367.169 260.361 367.267 260.464 367.264 260.587C367.261 260.709 367.16 260.805 367.038 260.802C366.996 260.799 366.207 260.787 365.649 261.598C365.606 261.662 365.535 261.695 365.463 261.694Z" fill="#263238"/>
<path d="M376.922 253.235C376.922 253.235 374.08 249.724 369.165 250.882C365.212 251.814 363.15 254.706 363.074 257.473C363.041 258.662 363.304 259.546 363.616 260.168C363.851 260.638 364.528 260.568 364.679 260.064C364.722 259.921 364.773 259.781 364.833 259.643C364.849 259.674 364.866 259.705 364.884 259.735C365.172 260.217 365.938 260.04 365.95 259.478C365.954 259.301 365.974 259.123 366.011 258.948C366.013 258.952 366.016 258.956 366.019 258.96C366.282 259.384 366.942 259.256 367.048 258.768C367.512 256.618 370.133 255.002 372.501 255.964L374.21 256.978C376.169 255.834 376.922 253.235 376.922 253.235Z" fill="#263238"/>
<path opacity="0.4" d="M384.297 314.921L384.028 316.729L376.057 319.129L377.894 320.306L385.783 318.113L386.108 314.601L384.297 314.921Z" fill="black"/>
<path d="M390.253 274.333C386.674 272.038 380.366 273.13 380.366 273.13L368.796 280.19L376.707 298.786C376.707 298.786 380.009 306.695 381.79 311.963C382.231 313.268 383.075 315.088 384.442 314.91L406.417 310.937C407.491 310.743 408.169 309.671 407.879 308.62C405.757 300.956 393.459 276.389 390.253 274.333Z" fill="#407BFF"/>
<path opacity="0.4" d="M392.318 284.677C392.318 284.677 388.797 291.306 382.614 297.086C380.117 299.421 378.383 302.786 378.383 302.786L376.833 298.826L392.318 284.677Z" fill="black"/>
<path d="M381.425 279.568L366.444 298.249L348.855 306.234L350.609 313.514C350.609 313.514 364.87 309.666 370.601 306.094C376.333 302.523 385.782 292.534 385.782 292.534C385.782 292.534 394.023 285.921 393.63 280.57C393.237 275.219 385.393 273.97 381.425 279.568Z" fill="#407BFF"/>
<path d="M373.292 277.446C373.292 277.446 373.848 274.592 374.118 274.707C374.388 274.822 377.066 276.43 377.066 276.43L380.061 271.943L381.859 273.132L377.721 281.71L373.292 277.446Z" fill="#407BFF"/>
<path opacity="0.4" d="M371.977 289.419L368.522 284.677L371.314 292.102L372.673 290.656L382.212 278.598L371.977 289.419Z" fill="black"/>
<path opacity="0.4" d="M373.292 277.446C373.443 277.5 375.924 279.173 375.788 279.2C375.653 279.227 376.832 277.199 376.832 277.199L379.462 278.2L381.621 272.975L379.496 278.993L377.005 277.789L375.788 279.995L373.292 277.446Z" fill="black"/>
<path d="M202.585 241.932C202.61 241.467 202.557 241.001 202.392 240.56C201.832 239.055 200.232 238.16 199.548 236.707C198.539 234.564 199.962 231.893 202.047 230.77C203.665 229.898 204.512 229.735 205.91 229.815C207.308 229.735 208.156 229.899 209.774 230.77C211.859 231.893 213.282 234.564 212.272 236.707C211.589 238.16 209.989 239.055 209.428 240.56C209.264 241.001 209.211 241.467 209.236 241.932H230.515V220.483C231.379 220.154 232.325 220.073 233.184 220.393C234.688 220.953 235.584 222.553 237.037 223.237C239.18 224.246 241.85 222.823 242.974 220.738C243.845 219.12 244.009 218.272 243.929 216.874C244.009 215.477 243.845 214.629 242.974 213.011C241.85 210.925 239.18 209.503 237.037 210.512C235.584 211.196 234.688 212.796 233.184 213.356C232.326 213.676 231.379 213.595 230.515 213.266V194.192L182.94 193.979V241.719L202.585 241.932Z" fill="#263238"/>
<g opacity="0.4">
<path d="M202.585 241.932C202.61 241.467 202.557 241.001 202.392 240.56C201.832 239.055 200.232 238.16 199.548 236.707C198.539 234.564 199.962 231.893 202.047 230.77C203.665 229.898 204.512 229.735 205.91 229.815C207.308 229.735 208.156 229.899 209.774 230.77C211.859 231.893 213.282 234.564 212.272 236.707C211.589 238.16 209.989 239.055 209.428 240.56C209.264 241.001 209.211 241.467 209.236 241.932H230.515V220.483C231.379 220.154 232.325 220.073 233.184 220.393C234.688 220.953 235.584 222.553 237.037 223.237C239.18 224.246 241.85 222.823 242.974 220.738C243.845 219.12 244.009 218.272 243.929 216.874C244.009 215.477 243.845 214.629 242.974 213.011C241.85 210.925 239.18 209.503 237.037 210.512C235.584 211.196 234.688 212.796 233.184 213.356C232.326 213.676 231.379 213.595 230.515 213.266V194.192L182.94 193.979V241.719L202.585 241.932Z" fill="black"/>
</g>
<path d="M204.027 241.932C204.052 241.467 203.999 241.001 203.835 240.56C203.274 239.055 201.675 238.16 200.991 236.707C199.982 234.564 201.404 231.893 203.489 230.77C205.107 229.898 205.955 229.735 207.353 229.815C208.751 229.735 209.598 229.899 211.216 230.77C213.302 231.893 214.724 234.564 213.715 236.707C213.031 238.16 211.431 239.055 210.871 240.56C210.706 241.001 210.653 241.467 210.679 241.932H231.958V220.483C232.822 220.154 233.768 220.073 234.626 220.393C236.131 220.953 237.026 222.553 238.479 223.237C240.622 224.246 243.293 222.823 244.416 220.738C245.288 219.12 245.451 218.272 245.371 216.874C245.451 215.477 245.287 214.629 244.416 213.011C243.293 210.925 240.622 209.503 238.479 210.512C237.026 211.196 236.131 212.796 234.626 213.356C233.768 213.676 232.822 213.595 231.958 213.266V194.192L184.382 193.979V241.719L204.027 241.932Z" fill="#263238"/>
<path d="M172.395 216.379C172.395 216.379 168.921 228.687 171.143 230.829C173.365 232.972 181.142 231.543 180.745 231.385C180.349 231.226 182.729 216.424 182.888 216.961C183.046 217.498 172.395 216.379 172.395 216.379Z" fill="#B97964"/>
<path d="M176.717 327.51L176.707 338.188L181.664 338.573L183.407 328.542C181.139 326.904 178.908 326.514 176.717 327.51Z" fill="#B97964"/>
<path d="M176.662 337.073C176.174 338.482 176.142 344.248 176.142 344.248L186.651 344.26C187.276 342.175 186.309 340.752 185.084 340.563C184.557 340.483 183.937 339.897 183.486 339.385C183.482 339.319 182.84 336.116 182.443 335.963C182.443 335.963 182.169 335.63 181.936 335.963C181.703 336.295 181.5 337.377 181.5 337.377C179.861 335.172 178.253 335.466 176.662 337.073Z" fill="#263238"/>
<path d="M176.534 338.747C177.722 338.273 178.996 338.454 180.031 339.241C180.212 339.379 180.384 339.057 180.204 338.92C179.102 338.081 177.708 337.884 176.443 338.389C176.237 338.471 176.326 338.83 176.534 338.747Z" fill="white"/>
<path d="M186.62 343.417C186.619 343.417 186.619 343.417 186.62 343.417L176.265 343.405C176.17 343.405 176.094 343.322 176.094 343.219C176.094 343.116 176.171 343.033 176.266 343.033L186.62 343.045C186.715 343.045 186.792 343.128 186.792 343.231C186.791 343.334 186.714 343.417 186.62 343.417Z" fill="white"/>
<path d="M198.105 326.118L198.093 338.169L202.864 338.562L205.211 327.282C203.295 325.741 201.071 324.986 198.105 326.118Z" fill="#B97964"/>
<path d="M197.878 337.099C197.39 338.508 197.358 344.274 197.358 344.274L209.431 344.288C210.055 342.203 208.751 340.967 207.525 340.778C206.998 340.698 205.153 339.922 204.701 339.411C204.698 339.345 204.056 336.142 203.659 335.989C203.659 335.989 203.385 335.656 203.152 335.988C202.919 336.32 202.716 337.403 202.716 337.403C201.076 335.197 199.468 335.492 197.878 337.099Z" fill="#263238"/>
<path d="M197.75 338.773C198.937 338.299 200.211 338.479 201.246 339.266C201.428 339.404 201.6 339.082 201.42 338.945C200.317 338.106 198.923 337.909 197.658 338.414C197.453 338.496 197.542 338.856 197.75 338.773Z" fill="white"/>
<path d="M209.431 343.444L197.48 343.431C197.385 343.431 197.309 343.347 197.309 343.244C197.309 343.142 197.386 343.058 197.481 343.058L209.432 343.072C209.527 343.072 209.603 343.156 209.603 343.259C209.603 343.361 209.526 343.444 209.431 343.444Z" fill="white"/>
<path d="M174.661 332.772L185.226 333.335C187.596 325.653 189.939 298.11 190.181 289.841C190.47 279.96 194.008 255.163 190.881 250.003C187.753 244.843 173.603 248.953 173.603 248.953C173.603 248.953 175.366 279.147 174.662 288.776C174.05 297.122 173.105 321.654 174.661 332.772Z" fill="#263238"/>
<path d="M186.366 330.551L185.68 334.081L174.231 333.709L173.811 330.32L186.366 330.551Z" fill="#407BFF"/>
<path d="M195.761 332.772L206.235 333.335C207.51 324.831 212.632 293.862 212.212 287.93C211.698 280.684 205.631 249.319 203.376 246.901C201.12 244.483 184.605 250.752 184.605 250.752C184.605 250.752 191.392 277.723 196.744 289.388C197.856 291.811 194.901 322.43 195.761 332.772Z" fill="#263238"/>
<path d="M207.432 330.816L206.898 334.081L195.258 333.335L195.024 329.916L207.432 330.816Z" fill="#407BFF"/>
<path opacity="0.3" d="M191.212 274.53L188.137 264.251L182.68 262.47L186.946 265.777L190.377 284.514L191.212 274.53Z" fill="black"/>
<path d="M197.098 183.486C197.098 183.929 197.293 184.264 197.572 184.311C197.853 184.358 198.109 183.984 198.133 183.533C198.156 183.082 197.946 182.755 197.665 182.708C197.386 182.661 197.152 183.058 197.098 183.486Z" fill="#263238"/>
<path d="M197.276 183.424C197.432 184.854 197.786 186.255 198.327 187.587C197.625 187.844 196.846 187.782 196.195 187.416L197.276 183.424Z" fill="#A24E3F"/>
<path d="M196.296 182.062C196.238 182.068 196.181 182.055 196.132 182.023C196.031 181.924 196.03 181.761 196.13 181.66C196.131 181.659 196.131 181.658 196.132 181.657C196.651 181.011 197.452 180.657 198.28 180.708C198.417 180.721 198.518 180.841 198.506 180.978C198.506 180.979 198.506 180.98 198.506 180.981C198.482 181.119 198.358 181.216 198.218 181.206C197.563 181.177 196.933 181.467 196.53 181.984C196.471 182.05 196.382 182.08 196.296 182.062Z" fill="#263238"/>
<path d="M197.284 189.376C197.227 189.613 197.154 189.846 197.069 190.075C196.594 191.38 195.728 192.514 194.585 193.328C194.297 193.535 193.994 193.72 193.676 193.88C191.187 195.189 188.116 194.709 186.162 192.705C183.648 190.209 183.713 187.326 183.427 182.446C183.351 181.397 183.525 180.345 183.934 179.374C185.375 175.966 189.353 174.351 192.82 175.767C192.821 175.768 192.822 175.768 192.823 175.768C197.673 177.718 198.342 184.977 197.284 189.376Z" fill="#B97964"/>
<path opacity="0.2" d="M194.567 193.328C194.28 193.535 193.976 193.72 193.659 193.88C191.975 194.763 189.974 194.849 188.218 194.115C188.442 193.528 188.741 192.972 189.108 192.459C190.974 192.228 192.869 192.531 194.567 193.328Z" fill="black"/>
<path d="M184.574 199.659C187.023 201.844 193.014 201.039 193.014 201.039C193.014 201.039 196.753 200.029 195.965 198.884C193.767 198.526 192.697 197.516 192.255 196.217C192.016 195.416 191.941 194.575 192.034 193.745C192.069 193.282 192.131 192.821 192.219 192.365L184.813 186.973C185.78 190.533 186.969 197.081 184.574 199.659Z" fill="#B97964"/>
<path d="M194.567 184.936L195.636 185.329L195.105 183.18C195.105 183.18 196.67 180.831 195.105 178.793C195.105 178.793 199.43 177.501 196.987 175.269C196.078 174.435 194.95 175.269 191.963 173.995C190.344 173.296 185.279 173.243 185.028 175.269C185.028 175.269 181.379 175.269 180.985 181.377C180.751 185 182.167 188.537 184.85 191.032C184.85 191.032 189.258 192.054 191.42 190.316C193.582 188.577 194.567 184.936 194.567 184.936Z" fill="#263238"/>
<path d="M191.747 185.282C191.936 186.212 192.542 187.008 193.396 187.449C194.405 187.872 195.074 186.474 194.925 185.006C194.787 183.702 194.101 181.87 193.019 182.117C191.939 182.364 191.395 183.967 191.747 185.282Z" fill="#B97964"/>
<path d="M177.042 198.485C177.042 198.485 175.321 199.008 174.465 199.322C172.68 199.975 171.503 201.962 170.857 203.913C169.279 208.679 166.729 219.963 166.729 219.963L175.983 221.909L180.919 211.277L177.042 198.485Z" fill="#407BFF"/>
<path opacity="0.5" d="M177.042 198.485C177.042 198.485 174.566 198.946 173.262 200.023C172.27 200.842 171.48 202.031 170.857 203.913C169.279 208.679 166.729 219.963 166.729 219.963L175.983 221.909L180.919 211.277L177.042 198.485Z" fill="white"/>
<path d="M199.455 199.032C196.725 198.738 188.329 196.841 177.042 198.485L174.401 240.218C174.401 240.218 174.062 246.602 173.062 252.081C184.533 257.006 198.102 255.598 205.775 251.458C205.686 251.632 205.434 247.078 205.041 240.407C204.347 228.652 203.213 210.324 201.749 199.713C201.708 199.451 199.727 199.061 199.455 199.032Z" fill="#407BFF"/>
<g opacity="0.5">
<path d="M199.455 199.032C196.725 198.738 188.329 196.841 177.042 198.485L174.401 240.218C174.401 240.218 174.062 246.602 173.062 252.081C184.533 257.006 198.102 255.598 205.775 251.458C205.686 251.632 205.434 247.078 205.041 240.407C204.347 228.652 203.213 210.324 201.749 199.713C201.708 199.451 199.727 199.061 199.455 199.032Z" fill="white"/>
</g>
<path d="M184.45 198.051C184.776 197.08 185.23 196.398 185.812 196.003L192.097 196.488L195.044 198.431L184.45 198.051Z" fill="#407BFF"/>
<path opacity="0.5" d="M184.45 198.051C184.776 197.08 185.23 196.398 185.812 196.003L192.097 196.488L195.044 198.431L184.45 198.051Z" fill="white"/>
<path opacity="0.2" d="M199.162 212.021C200.169 216.722 201.616 225.936 204.347 229.147L203.698 219.822L199.162 212.021Z" fill="black"/>
<path opacity="0.2" d="M175.394 221.779L175.637 209.726L173.108 221.206L175.394 221.779Z" fill="black"/>
<path d="M203.981 215.739C203.628 215.875 210.435 231.189 213.206 231.325C215.977 231.462 228.988 225.542 228.988 225.542L226.069 222.057L216.235 222.621L211.219 211.944L203.981 215.739Z" fill="#B97964"/>
<path d="M200.559 199.557C197.028 201.888 195.279 207.167 204.743 223.465L214.962 217.224C212.895 213.41 210.705 210.637 208.27 205.113C203.364 198.049 200.559 199.557 200.559 199.557Z" fill="#407BFF"/>
<path opacity="0.5" d="M200.559 199.557C197.028 201.888 195.279 207.167 204.743 223.465L214.962 217.224C212.895 213.41 210.705 210.637 208.27 205.113C203.364 198.049 200.559 199.557 200.559 199.557Z" fill="white"/>
<path d="M233.572 221.954C233.572 221.06 233.296 220.088 232.815 220.059C232.334 220.029 229.764 220.056 229.764 220.056C229.764 219.335 231.117 218.546 230.676 218.053C230.101 217.41 226.77 220.156 226.56 220.717C226.148 221.817 225.941 222.091 225.941 222.091L227.702 226.132C227.702 226.132 230.96 228.278 231.716 227.522C232.472 226.766 232.404 225.958 232.404 225.958C232.404 225.958 233.16 224.91 233.091 224.223C233.022 223.535 233.572 222.848 233.572 221.954Z" fill="#B97964"/>
</g>
</g>
<defs>
<filter id="filter0_d_321_2162" x="47" y="55.9523" width="452" height="429" filterUnits="userSpaceOnUse" color-interpolation-filters="sRGB">
<feFlood flood-opacity="0" result="BackgroundImageFix"/>
<feColorMatrix in="SourceAlpha" type="matrix" values="0 0 0 0 0 0 0 0 0 0 0 0 0 0 0 0 0 0 127 0" result="hardAlpha"/>
<feOffset dy="14"/>
<feGaussianBlur stdDeviation="25.5"/>
<feColorMatrix type="matrix" values="0 0 0 0 0 0 0 0 0 0 0 0 0 0 0 0 0 0 0.031 0"/>
<feBlend mode="normal" in2="BackgroundImageFix" result="effect1_dropShadow_321_2162"/>
<feBlend mode="normal" in="SourceGraphic" in2="effect1_dropShadow_321_2162" result="shape"/>
</filter>
<linearGradient id="paint0_linear_321_2162" x1="294" y1="500" x2="294" y2="0" gradientUnits="userSpaceOnUse">
<stop stop-color="white"/>
<stop offset="1" stop-color="#FFF6E4"/>
</linearGradient>
<clipPath id="clip0_321_2162">
<rect width="588" height="527" fill="white"/>
</clipPath>
<clipPath id="clip1_321_2162">
<rect width="347.5" height="231.667" fill="white" transform="translate(98 134)"/>
</clipPath>
</defs>
</svg>
