<svg id="Group_48" data-name="Group 48" xmlns="http://www.w3.org/2000/svg" width="425.647" height="419.876" viewBox="0 0 425.647 419.876">
  <path id="Fill_907" data-name="Fill 907" d="M13.6,0,3.359,84.923H0L10.243,0Z" transform="translate(45.268 334.953)" fill="#d2dcff"/>
  <path id="Fill_908" data-name="Fill 908" d="M13.6,0,12.451,9.551,3.36,84.924H0L9.137,9.178,10.243,0Z" transform="translate(0 334.952)" fill="#d2dcff"/>
  <path id="Fill_909" data-name="Fill 909" d="M13.6,84.924h-3.36L8.827,73.179,7.147,59.253,1.622,13.445,0,0H3.36L5.028,13.83l3.8,31.494L10.506,59.25Z" transform="translate(45.268 334.952)" fill="#d2dcff"/>
  <path id="Fill_910" data-name="Fill 910" d="M13.6,84.924h-3.36L2.293,19.009h0L0,0H3.36L5.7,19.375Z" transform="translate(90.534 334.952)" fill="#d2dcff"/>
  <path id="Fill_911" data-name="Fill 911" d="M0,51.37H3.36V0H0Z" transform="translate(10.407 278.182)" fill="#d2dcff"/>
  <path id="Fill_912" data-name="Fill 912" d="M0,51.37H3.359V0H0Z" transform="translate(56.059 278.182)" fill="#d2dcff"/>
  <path id="Fill_913" data-name="Fill 913" d="M46.159,0H0A2.7,2.7,0,0,1,2.7,2.7,2.7,2.7,0,0,1,0,5.4H46.159a2.7,2.7,0,1,0,0-5.4" transform="translate(49.145 329.552)" fill="#d2dcff"/>
  <path id="Fill_914" data-name="Fill 914" d="M45.254,2.7h0a2.7,2.7,0,0,0-2.7-2.7H2.7a2.7,2.7,0,1,0,0,5.4H42.555a2.7,2.7,0,0,0,2.7-2.7" transform="translate(6.591 329.553)" fill="#86a2e2"/>
  <path id="Fill_915" data-name="Fill 915" d="M58.264,0H3.763A3.763,3.763,0,0,0,0,3.763V34.9a3.762,3.762,0,0,0,3.763,3.762h54.5A3.762,3.762,0,0,0,62.027,34.9V3.763A3.763,3.763,0,0,0,58.264,0" transform="translate(3.9 239.524)" fill="#d2dcff"/>
  <path id="Fill_916" data-name="Fill 916" d="M4.466,0,3.314,9.551,0,9.178,1.106,0Z" transform="translate(9.137 334.952)" fill="#aec3ff"/>
  <path id="Fill_917" data-name="Fill 917" d="M3.36,0,5.028,13.83l-3.406-.385L0,0Z" transform="translate(45.267 334.952)" fill="#aec3ff"/>
  <path id="Fill_918" data-name="Fill 918" d="M5.7,19.375l-3.4-.366h0L0,0H3.36Z" transform="translate(90.534 334.952)" fill="#aec3ff"/>
  <path id="Fill_919" data-name="Fill 919" d="M0,0H3.36V7.1L0,6.724Z" transform="translate(10.407 278.182)" fill="#aec3ff"/>
  <path id="Fill_920" data-name="Fill 920" d="M3.359,0V12.149L0,11.777V0Z" transform="translate(56.06 278.182)" fill="#aec3ff"/>
  <path id="Fill_921" data-name="Fill 921" d="M0,57.34H47.148V0H0Z" transform="translate(9.536 52.425)" fill="#d2dcff"/>
  <path id="Fill_922" data-name="Fill 922" d="M0,53.717H42.828V0H0Z" transform="translate(11.696 54.237)" fill="#d2dcff"/>
  <path id="Fill_923" data-name="Fill 923" d="M0,20.066,13.937,6.129l6.956,6.957L33.979,0l8.849,8.849V34.3H0Z" transform="translate(11.696 73.653)" fill="#16385a"/>
  <path id="Fill_924" data-name="Fill 924" d="M7.472,3.736A3.736,3.736,0,1,1,3.736,0,3.735,3.735,0,0,1,7.472,3.736" transform="translate(20.776 64.497)" fill="#f8b51b"/>
  <path id="Fill_925" data-name="Fill 925" d="M164.263,164.737H7.963A7.963,7.963,0,0,1,0,156.774V7.963A7.963,7.963,0,0,1,7.963,0h156.3a7.963,7.963,0,0,1,7.963,7.963V156.774a7.963,7.963,0,0,1-7.963,7.963" transform="translate(148.864)" fill="#16385a"/>
  <path id="Fill_926" data-name="Fill 926" d="M76.551,4.779H2.39A2.389,2.389,0,1,1,2.39,0H76.551a2.389,2.389,0,1,1,0,4.779" transform="translate(169.825 19.066)" fill="#d2dcff"/>
  <path id="Fill_927" data-name="Fill 927" d="M52.71,4.78H2.39A2.39,2.39,0,0,1,2.39,0H52.71a2.39,2.39,0,0,1,0,4.78" transform="translate(169.825 30.989)" fill="#d2dcff"/>
  <path id="Fill_928" data-name="Fill 928" d="M14.96,3.413H1.707A1.707,1.707,0,1,1,1.707,0H14.96a1.707,1.707,0,1,1,0,3.413" transform="translate(169.825 51.892)" fill="#6277d7"/>
  <path id="Fill_929" data-name="Fill 929" d="M42.663,10.311H1.707A1.707,1.707,0,0,1,0,8.6v-6.9A1.707,1.707,0,0,1,1.707,0H42.663A1.708,1.708,0,0,1,44.37,1.707V8.6a1.707,1.707,0,0,1-1.707,1.707" transform="translate(239.362 103.616)" fill="#d2dcff"/>
  <path id="Fill_930" data-name="Fill 930" d="M59.167,10.311H1.707A1.706,1.706,0,0,1,0,8.6v-6.9A1.707,1.707,0,0,1,1.707,0h57.46a1.708,1.708,0,0,1,1.707,1.707V8.6a1.707,1.707,0,0,1-1.707,1.706" transform="translate(239.362 122.359)" fill="#d2dcff"/>
  <path id="Fill_931" data-name="Fill 931" d="M25.654,54.491a3.183,3.183,0,0,1,3.184-3.184,22.47,22.47,0,1,1,22.47-22.47,3.184,3.184,0,1,1,6.367,0A28.837,28.837,0,1,0,28.838,57.675a3.184,3.184,0,0,1-3.184-3.184" transform="translate(169.678 89.307)" fill="#d2dcff"/>
  <path id="Fill_932" data-name="Fill 932" d="M28.837,0a3.185,3.185,0,0,0-3.184,3.184,22.5,22.5,0,0,1-22.47,22.47,3.184,3.184,0,0,0,0,6.367A28.87,28.87,0,0,0,32.021,3.184,3.184,3.184,0,0,0,28.837,0" transform="translate(195.333 114.96)" fill="#f8b51b"/>
  <path id="Fill_933" data-name="Fill 933" d="M67.78,0H2.587A2.587,2.587,0,0,0,0,2.587V67.78a2.587,2.587,0,0,0,2.587,2.587H67.78a2.587,2.587,0,0,0,2.587-2.587V2.587A2.587,2.587,0,0,0,67.78,0" transform="translate(355.28 54.123)" fill="#16385a"/>
  <path id="Fill_934" data-name="Fill 934" d="M0,35.184H20.156V0H0Z" transform="translate(380.385 54.123)" fill="#f8b51b"/>
  <path id="Fill_935" data-name="Fill 935" d="M35.782,2.156V.774A.774.774,0,0,0,35.008,0H2.93A2.93,2.93,0,0,0,0,2.93V5.288a2.93,2.93,0,0,0,2.93,2.93H35.008a.774.774,0,0,0,.774-.774V6.061a.774.774,0,0,0-.774-.773H4.109a1.179,1.179,0,1,1,0-2.358h30.9a.774.774,0,0,0,.774-.774" transform="translate(330.88 268.791)" fill="#6277d7"/>
  <path id="Fill_935-2" data-name="Fill 935" d="M35.782,2.156V.774A.774.774,0,0,0,35.008,0H2.93A2.93,2.93,0,0,0,0,2.93V5.288a2.93,2.93,0,0,0,2.93,2.93H35.008a.774.774,0,0,0,.774-.774V6.061a.774.774,0,0,0-.774-.773H4.109a1.179,1.179,0,1,1,0-2.358h30.9a.774.774,0,0,0,.774-.774" transform="translate(330.88 268.791)" fill="#6277d7"/>
  <path id="Fill_935-3" data-name="Fill 935" d="M35.782,2.156V.774A.774.774,0,0,0,35.008,0H2.93A2.93,2.93,0,0,0,0,2.93V5.288a2.93,2.93,0,0,0,2.93,2.93H35.008a.774.774,0,0,0,.774-.774V6.061a.774.774,0,0,0-.774-.773H4.109a1.179,1.179,0,1,1,0-2.358h30.9a.774.774,0,0,0,.774-.774" transform="translate(191.572 269.539)" fill="#6277d7"/>
  <path id="Fill_936" data-name="Fill 936" d="M31.466,0V2.357H1.179A1.179,1.179,0,1,1,1.179,0Z" transform="translate(333.81 271.721)" fill="#d2dcff"/>
  <path id="Fill_937" data-name="Fill 937" d="M31.2,2.156V.773A.773.773,0,0,0,30.424,0H2.93A2.929,2.929,0,0,0,0,2.929V5.287A2.93,2.93,0,0,0,2.93,8.218H30.424a.775.775,0,0,0,.774-.775V6.061a.775.775,0,0,0-.774-.774H4.109a1.179,1.179,0,1,1,0-2.358H30.424a.774.774,0,0,0,.774-.773" transform="translate(333.172 260.573)" fill="#f8b51b"/>
  <path id="Fill_937-2" data-name="Fill 937" d="M31.2,2.156V.773A.773.773,0,0,0,30.424,0H2.93A2.929,2.929,0,0,0,0,2.929V5.287A2.93,2.93,0,0,0,2.93,8.218H30.424a.775.775,0,0,0,.774-.775V6.061a.775.775,0,0,0-.774-.774H4.109a1.179,1.179,0,1,1,0-2.358H30.424a.774.774,0,0,0,.774-.773" transform="translate(333.172 260.573)" fill="#f8b51b"/>
  <path id="Fill_937-3" data-name="Fill 937" d="M31.2,2.156V.773A.773.773,0,0,0,30.424,0H2.93A2.929,2.929,0,0,0,0,2.929V5.287A2.93,2.93,0,0,0,2.93,8.218H30.424a.775.775,0,0,0,.774-.775V6.061a.775.775,0,0,0-.774-.774H4.109a1.179,1.179,0,1,1,0-2.358H30.424a.774.774,0,0,0,.774-.773" transform="translate(193.864 261.321)" fill="#f8b51b"/>
  <path id="Fill_938" data-name="Fill 938" d="M27.248,0V2.357H1.179A1.179,1.179,0,1,1,1.179,0Z" transform="translate(336.103 263.503)" fill="#ffd9e8"/>
  <path id="Fill_939" data-name="Fill 939" d="M20.371,0l-17,137.422H0L17,0Z" transform="translate(320.694 282.432)" fill="#d2dcff"/>
  <path id="Fill_940" data-name="Fill 940" d="M20.371,137.422H17L2.456,19.856,0,0H3.375L5.8,19.573Z" transform="translate(365.356 282.432)" fill="#d2dcff"/>
  <path id="Fill_941" data-name="Fill 941" d="M20.372,0,15.825,36.767,3.375,137.422H0L12.414,37.055,17,0Z" transform="translate(151.453 282.432)" fill="#d2dcff"/>
  <path id="Fill_942" data-name="Fill 942" d="M20.372,137.422H17L4.2,33.981,0,0H3.375L7.543,33.7Z" transform="translate(196.114 282.432)" fill="#d2dcff"/>
  <path id="Fill_943" data-name="Fill 943" d="M4.583,0H7.958L3.411,36.767,0,37.055Z" transform="translate(163.867 282.432)" fill="#aec3ff"/>
  <path id="Fill_944" data-name="Fill 944" d="M3.375,0,7.543,33.7,4.2,33.98,0,0Z" transform="translate(196.114 282.432)" fill="#aec3ff"/>
  <path id="Fill_945" data-name="Fill 945" d="M5.8,19.573l-3.34.282L0,0H3.375Z" transform="translate(365.355 282.433)" fill="#aec3ff"/>
  <path id="Fill_946" data-name="Fill 946" d="M172.565,5.423H0V0H172.565a2.256,2.256,0,0,1,2.256,2.256v.91a2.257,2.257,0,0,1-2.256,2.257" transform="translate(205.564 277.009)" fill="#d2dcff"/>
  <path id="Fill_947" data-name="Fill 947" d="M47.915,5.423H2.256A2.257,2.257,0,0,1,0,3.166v-.91A2.256,2.256,0,0,1,2.256,0H47.915Z" transform="translate(157.648 277.009)" fill="#86a2e2"/>
  <path id="Fill_950" data-name="Fill 950" d="M94.7,56.915H0L10.558,0h94.7Z" transform="translate(232.75 206.201)" fill="#d2dcff"/>
  <path id="Fill_951" data-name="Fill 951" d="M0,0H10.637l14,39.032H6.059Z" transform="translate(279.636 237.977)" fill="#86a2e2"/>
  <path id="Fill_952" data-name="Fill 952" d="M32.652,0H1.042A1.042,1.042,0,0,0,0,1.042v.421A1.042,1.042,0,0,0,1.042,2.506h31.61a1.043,1.043,0,0,0,1.042-1.043V1.042A1.043,1.043,0,0,0,32.652,0" transform="translate(246.601 274.504)" fill="#86a2e2"/>
  <path id="Fill_953" data-name="Fill 953" d="M0,0V25.139H3.9Z" transform="translate(279.636 237.977)" fill="#aec3ff"/>
  <path id="Fill_954" data-name="Fill 954" d="M44.36,5.793C31.27,7.975,14.96,3.1,12.915,0,8.175,7.223,5.768,7,5.768,7v5.417L4.7,11.343C4.368,10.6,3.844,9.855,3.06,9.855c-4.31,0-4.612,11.988,2.643,12.681.143.47.29.909.441,1.307V43.03H22.506V35.483a11.92,11.92,0,0,0,3.122.476c6.451,0,17.443-9.485,18.69-24.617.075-2.856.042-5.549.042-5.549" transform="translate(87.611 111.317)" fill="#fcbeb7"/>
  <path id="Fill_955" data-name="Fill 955" d="M22.657,0C11.373,0,9.116,6.019,9.116,6.019c-4.814,0-12.187,8.8-7.749,18.581l.023.022,2.536,2.535V21.74s2.407.227,7.146-7c2.045,3.1,18.356,7.975,31.445,5.793,0,0,.034,2.693-.041,5.549a.028.028,0,0,1,0,.009C47.365,11.952,37.552,0,22.657,0" transform="translate(89.454 96.573)" fill="#311643"/>
  <path id="Fill_956" data-name="Fill 956" d="M.9,3.491a.9.9,0,0,1-.9-.9V.9A.9.9,0,0,1,1.806.9V2.589a.9.9,0,0,1-.9.9" transform="translate(106.356 123.299)" fill="#311643"/>
  <path id="Fill_957" data-name="Fill 957" d="M.9,3.491a.9.9,0,0,1-.9-.9V.9A.9.9,0,0,1,1.8.9V2.589a.9.9,0,0,1-.9.9" transform="translate(123.095 123.299)" fill="#311643"/>
  <path id="Fill_958" data-name="Fill 958" d="M4.61,3.228A5.159,5.159,0,0,1,1.237,2.071,4.618,4.618,0,0,1,.036.583.414.414,0,0,1,.79.242,4.218,4.218,0,0,0,5.306,2.36a.414.414,0,1,1,.1.822,7.1,7.1,0,0,1-.791.046" transform="translate(109.286 134.099)" fill="#311643"/>
  <path id="Fill_959" data-name="Fill 959" d="M8.927,4.464A4.464,4.464,0,1,1,4.464,0,4.463,4.463,0,0,1,8.927,4.464" transform="translate(96.802 125.347)" fill="#fcbeb7"/>
  <path id="Fill_960" data-name="Fill 960" d="M6.951.758A31.785,31.785,0,0,1,4.239,8.921,4.463,4.463,0,1,1,6.951.758" transform="translate(124.515 125.347)" fill="#fcbeb7"/>
  <path id="Fill_961" data-name="Fill 961" d="M23.064,12.651a6.331,6.331,0,0,1-6.319-6.088,4.092,4.092,0,0,0-2.031-.55,4.328,4.328,0,0,0-2.069.546,6.288,6.288,0,1,1-.031-.914,5.088,5.088,0,0,1,2.1-.468,4.815,4.815,0,0,1,2.064.471,6.325,6.325,0,1,1,6.289,7Zm0-11.823a5.5,5.5,0,1,0,5.5,5.5A5.5,5.5,0,0,0,23.064.828ZM6.326.828a5.5,5.5,0,1,0,5.5,5.5A5.5,5.5,0,0,0,6.326.828Z" transform="translate(100.934 116.235)" fill="#4d4141"/>
  <path id="Fill_962" data-name="Fill 962" d="M11.078,13.43V5.883A36.4,36.4,0,0,1,0,0Z" transform="translate(99.04 140.917)" fill="#f9afab"/>
  <path id="Fill_963" data-name="Fill 963" d="M93.645,143.751H76.316L47.179,15.619,17.329,143.751H0L16.146,0h64.02Z" transform="translate(55.583 254.304)" fill="#6277d7"/>
  <path id="Fill_964" data-name="Fill 964" d="M0,0V12.247a2.585,2.585,0,0,0,2.585,2.585H37.319a.6.6,0,0,0,.6-.6V11.875A2.686,2.686,0,0,0,36.4,9.456L16.814,0Z" transform="translate(133.276 405.022)" fill="#2f3d6c"/>
  <path id="Fill_965" data-name="Fill 965" d="M37.918,0V12.247a2.585,2.585,0,0,1-2.585,2.585H.6a.6.6,0,0,1-.6-.6V11.875A2.686,2.686,0,0,1,1.519,9.456L21.1,0Z" transform="translate(33.11 405.022)" fill="#2f3d6c"/>
  <path id="Fill_966" data-name="Fill 966" d="M0,0,1.3,6.967H18.19L17.329,0Z" transform="translate(131.9 398.055)" fill="#fcbeb7"/>
  <path id="Fill_967" data-name="Fill 967" d="M1.371,0,0,6.967H16.815L18.7,0Z" transform="translate(54.213 398.055)" fill="#fcbeb7"/>
  <path id="Fill_968" data-name="Fill 968" d="M0,3.084,65,6.756,64.366,0H.346" transform="translate(71.384 254.304)" fill="#4a5ea3"/>
  <path id="Fill_969" data-name="Fill 969" d="M0,0,14.773,11.357" transform="translate(56.687 178.553)" fill="#fcbeb7"/>
  <path id="Fill_970" data-name="Fill 970" d="M74.822,44.313l4.241,61.953H15.043L18.966,62.12,18.1,38.561l-3.323,3.312L0,30.515,7.937,17.58a19.681,19.681,0,0,1,8.178-7.41L34.324,1.333l.666-.324L37.069,0s9.5,6.236,16.333,0l3.649,1.375.742.28,19.3,7.274a12.415,12.415,0,0,1,6.856,6.335l8.185,17.411Z" transform="translate(56.687 148.038)" fill="#89aeff"/>
  <path id="Fill_971" data-name="Fill 971" d="M22.727.366A18.529,18.529,0,0,1,11.946,3.788,18.534,18.534,0,0,1,.666,0L0,.323A19.2,19.2,0,0,0,11.946,4.45,19.188,19.188,0,0,0,23.469.645Z" transform="translate(91.011 149.048)" fill="#fff"/>
  <path id="Fill_972" data-name="Fill 972" d="M7.319,1.575a5.5,5.5,0,0,1-5.5,5.5A5.486,5.486,0,0,1,0,6.77,19.663,19.663,0,0,1,7.09,0a5.5,5.5,0,0,1,.229,1.575" transform="translate(64.689 158.744)" fill="#89aeff"/>
  <path id="Fill_973" data-name="Fill 973" d="M16.589,8.3A8.295,8.295,0,1,1,8.3,0a8.294,8.294,0,0,1,8.294,8.3" transform="translate(67.039 303.185)" fill="#6277d7"/>
  <path id="Fill_974" data-name="Fill 974" d="M16.589,8.3A8.295,8.295,0,1,1,8.294,0a8.3,8.3,0,0,1,8.3,8.3" transform="translate(122.377 303.185)" fill="#6277d7"/>
  <path id="Fill_975" data-name="Fill 975" d="M63.543,35.921,11.4,50.8a1.616,1.616,0,0,1-2-1.109L.063,16.938a1.613,1.613,0,0,1,1.109-2L53.31.063a1.616,1.616,0,0,1,2,1.11l9.346,32.751a1.617,1.617,0,0,1-1.11,2" transform="translate(39.933 210.182)" fill="#f8b51b"/>
  <path id="Fill_976" data-name="Fill 976" d="M14.839,27.854h-14A.843.843,0,0,1,0,27.011V.842A.843.843,0,0,1,.843,0h14a.843.843,0,0,1,.843.842V27.011a.843.843,0,0,1-.843.843" transform="translate(107.44 163.008)" fill="#4a5ea3"/>
  <path id="Fill_977" data-name="Fill 977" d="M57.192,41.912,45.523,14.329l-8.9,5.953L24.109,9.32,21.552.555a.623.623,0,0,0-.535-.538,1.9,1.9,0,0,0-2.138,2.1l.439,3.84-4.642.615a8.644,8.644,0,0,1-3.73-.322L6.628,4.891A2.432,2.432,0,0,0,3.567,6.522L1.9,6.137A1.54,1.54,0,0,0,.061,7.25l-.012.045A1.543,1.543,0,0,0,.828,9.049,2.513,2.513,0,0,0,2.6,12.1l.038.009A2.842,2.842,0,0,0,4.2,15.422l3.268,1.493a8.365,8.365,0,0,0,3.925.743l7.424-.6L44.029,50l.005.006h0a7.809,7.809,0,0,0,13.158-8.1" transform="translate(103.298 166.385)" fill="#fcbeb7"/>
  <path id="Fill_978" data-name="Fill 978" d="M5.322,7.062A5.326,5.326,0,0,1,.291,0a12.416,12.416,0,0,1,6.76,6.3A4.15,4.15,0,0,1,5.322,7.062Z" transform="translate(133.585 157.004)" fill="#89aeff"/>
  <path id="Fill_979" data-name="Fill 979" d="M0,0,13.508,7.3l3.054,7.219Z" transform="translate(141.508 188.062)" fill="#f9afab"/>
  <path id="Fill_980" data-name="Fill 980" d="M19.123,34.478,0,1.155,4.046,0Z" transform="translate(52.574 220.695)" fill="#2f3d6c"/>
  <path id="Fill_981" data-name="Fill 981" d="M10.495,5.247A5.247,5.247,0,1,1,5.247,0a5.248,5.248,0,0,1,5.248,5.247" transform="translate(147.575 206.756)" fill="#f9afab"/>
  <path id="Fill_982" data-name="Fill 982" d="M6.053,5.336a5.568,5.568,0,0,1-4.5,5.465L.616,8.621a7.568,7.568,0,0,1,.391-6.762L2.075,0A5.569,5.569,0,0,1,6.053,5.336" transform="translate(47.042 191.727)" fill="#f9afab"/>
  <path id="Fill_983" data-name="Fill 983" d="M38.917,70.584l-6.511-2.906a1.816,1.816,0,0,1-.969-1.04l-.944-2.6,3.29.807L34.832,67.1a1.548,1.548,0,0,0,2.014.767l-1.37-4.136a2.823,2.823,0,0,0-1.385-1.508l-6.875-3.381L15.356,20.372l9.061-9.015L9.644,0,1.006,15.033A7.571,7.571,0,0,0,.615,21.8L24.589,76.619l4.758.22a1.559,1.559,0,0,0,1.407-.755l.518-.864,2.5.205a1.558,1.558,0,0,0,1.377-.624l.589-.8.351.093a2.144,2.144,0,0,0,2.436-1.059l1.738.579a2.483,2.483,0,0,0-1.35-3.035" transform="translate(47.043 178.553)" fill="#fcbeb7"/>
</svg>
